<?xml version="1.0" encoding="UTF-8" standalone="no"?>
<!--?xml version="1.0" encoding="utf-8"?-->

<!-- Generator: Adobe Illustrator 18.1.1, SVG Export Plug-In . SVG Version: 6.00 Build 0)  -->

<svg
   version="1.1"
   id="_x31_0"
   x="0px"
   y="0px"
   viewBox="0 0 422.04999 422.04999"
   style="opacity:1"
   xml:space="preserve"
   sodipodi:docname="favicon.svg"
   width="422.04999"
   height="422.04999"
   inkscape:version="1.2.1 (9c6d41e410, 2022-07-14)"
   xmlns:inkscape="http://www.inkscape.org/namespaces/inkscape"
   xmlns:sodipodi="http://sodipodi.sourceforge.net/DTD/sodipodi-0.dtd"
   xmlns:xlink="http://www.w3.org/1999/xlink"
   xmlns="http://www.w3.org/2000/svg"
   xmlns:svg="http://www.w3.org/2000/svg"><defs
   id="defs411"><linearGradient
     inkscape:collect="always"
     id="linearGradient870"><stop
       style="stop-color:#82c3ff;stop-opacity:1;"
       offset="0"
       id="stop866" /><stop
       style="stop-color:#bee0ff;stop-opacity:1;"
       offset="1"
       id="stop868" /></linearGradient><linearGradient
     inkscape:collect="always"
     xlink:href="#linearGradient870"
     id="linearGradient872"
     x1="326.78299"
     y1="-4.1552735e-06"
     x2="326.78299"
     y2="422.04999"
     gradientUnits="userSpaceOnUse" /></defs><sodipodi:namedview
   id="namedview409"
   pagecolor="#ffffff"
   bordercolor="#111111"
   borderopacity="1"
   inkscape:showpageshadow="0"
   inkscape:pageopacity="0"
   inkscape:pagecheckerboard="1"
   inkscape:deskcolor="#d1d1d1"
   showgrid="false"
   inkscape:zoom="1.1808131"
   inkscape:cx="195.62791"
   inkscape:cy="246.01692"
   inkscape:window-width="1409"
   inkscape:window-height="1032"
   inkscape:window-x="251"
   inkscape:window-y="93"
   inkscape:window-maximized="0"
   inkscape:current-layer="g406" />
<style
   type="text/css"
   id="style400">
	.st0{fill:#374149;}
</style>
<g
   id="g406"
   transform="translate(-115.76)">
	
	<path
   class="st0"
   d="m 467.02499,140.23799 c 0,-77.299994 -62.937,-140.2379941552734 -140.242,-140.2379941552734 -77.301,0 -140.238,62.9380001552734 -140.238,140.2379941552734 0,89.023 140.238,281.812 140.238,281.812 0,0 140.242,-192.788 140.242,-281.812 z m -140.242,-53.233994 c 29.398,0 53.168,23.839994 53.168,53.233994 0,29.398 -23.77,53.168 -53.168,53.168 -29.39,0 -53.234,-23.77 -53.234,-53.168 -10e-4,-29.394 23.843,-53.233994 53.234,-53.233994 z"
   style="fill:url(#linearGradient872);fill-opacity:1"
   id="path404" />
</g>
</svg>
