<?xml version="1.0" encoding="UTF-8" standalone="no"?>
<!-- Created with Inkscape (http://www.inkscape.org/) -->

<svg
   width="127.85812mm"
   height="291.02832mm"
   viewBox="0 0 127.85812 291.02832"
   version="1.1"
   id="svg5"
   xml:space="preserve"
   inkscape:version="1.3.2 (091e20e, 2023-11-25, custom)"
   sodipodi:docname="1F-edit.svg"
   inkscape:export-filename="1F-exported.svg"
   inkscape:export-xdpi="96"
   inkscape:export-ydpi="96"
   xmlns:inkscape="http://www.inkscape.org/namespaces/inkscape"
   xmlns:sodipodi="http://sodipodi.sourceforge.net/DTD/sodipodi-0.dtd"
   xmlns="http://www.w3.org/2000/svg"
   xmlns:svg="http://www.w3.org/2000/svg"><sodipodi:namedview
     id="namedview7"
     pagecolor="#ffffff"
     bordercolor="#111111"
     borderopacity="1"
     inkscape:showpageshadow="0"
     inkscape:pageopacity="0"
     inkscape:pagecheckerboard="1"
     inkscape:deskcolor="#d1d1d1"
     inkscape:document-units="mm"
     showgrid="false"
     inkscape:zoom="1"
     inkscape:cx="400"
     inkscape:cy="734.5"
     inkscape:window-width="1920"
     inkscape:window-height="1009"
     inkscape:window-x="-8"
     inkscape:window-y="-8"
     inkscape:window-maximized="1"
     inkscape:current-layer="svg5" /><defs
     id="defs2"><rect
       x="98.76189"
       y="682"
       width="200.79994"
       height="97"
       id="rect1" /><rect
       x="221.95711"
       y="452.32901"
       width="33.661995"
       height="25.321613"
       id="rect6242" /><rect
       x="203.9707"
       y="482.75"
       width="35.893711"
       height="26.724325"
       id="rect5818" /><rect
       x="387.81921"
       y="249.95888"
       width="51.987732"
       height="23.518541"
       id="rect2999" /><rect
       x="262.13342"
       y="687.02557"
       width="205.25488"
       height="110.75822"
       id="rect2566" /><clipPath
       clipPathUnits="userSpaceOnUse"
       id="clipPath413"><rect
         style="fill:#999999;stroke:#b3b3b3;stroke-width:1;stop-color:#000000"
         id="rect415"
         width="68.038559"
         height="159.65727"
         x="73.196716"
         y="64.845413"
         transform="rotate(20)" /></clipPath><clipPath
       clipPathUnits="userSpaceOnUse"
       id="clipPath435"><rect
         style="fill:#999999;stroke:#b3b3b3;stroke-width:1;stop-color:#000000"
         id="rect437"
         width="112.2"
         height="169.86316"
         x="-47.936844"
         y="81.978951" /></clipPath><clipPath
       clipPathUnits="userSpaceOnUse"
       id="clipPath1766"><rect
         style="opacity:1;fill:#999999;stroke:#b3b3b3;stroke-width:1;stop-color:#000000"
         id="rect1768"
         width="138.04213"
         height="298.68192"
         x="0"
         y="40.77401"
         transform="rotate(20)" /></clipPath><rect
       x="262.13342"
       y="687.02557"
       width="205.25488"
       height="110.75822"
       id="rect2566-0" /><rect
       x="262.13342"
       y="687.02557"
       width="205.25488"
       height="110.75822"
       id="rect2566-0-3" /><rect
       x="262.13342"
       y="687.02557"
       width="205.25488"
       height="110.75822"
       id="rect2566-5" /><rect
       x="262.13342"
       y="687.02557"
       width="205.25488"
       height="110.75822"
       id="rect2566-5-4" /><rect
       x="262.13342"
       y="687.02557"
       width="205.25488"
       height="110.75822"
       id="rect2566-5-4-6" /><rect
       x="262.13342"
       y="687.02557"
       width="205.25488"
       height="110.75822"
       id="rect2566-5-4-6-4" /><rect
       x="262.13342"
       y="687.02557"
       width="205.25488"
       height="110.75822"
       id="rect2566-5-4-6-4-1" /><rect
       x="203.9707"
       y="482.75"
       width="35.893711"
       height="26.724325"
       id="rect5818-2" /><rect
       x="203.9707"
       y="482.75"
       width="35.893711"
       height="26.724325"
       id="rect5818-0" /><rect
       x="203.9707"
       y="482.75"
       width="35.893711"
       height="26.724325"
       id="rect5818-6" /><rect
       x="203.9707"
       y="482.75"
       width="35.893711"
       height="26.724325"
       id="rect5818-3" /><rect
       x="203.9707"
       y="482.75"
       width="35.893711"
       height="26.724325"
       id="rect5818-31" /><rect
       x="203.9707"
       y="482.75"
       width="35.893711"
       height="26.724325"
       id="rect5818-9" /><rect
       x="203.9707"
       y="482.75"
       width="35.893711"
       height="26.724325"
       id="rect5818-8" /><rect
       x="203.9707"
       y="482.75"
       width="61.912815"
       height="22.474325"
       id="rect5818-0-9" /><rect
       x="221.95711"
       y="452.32901"
       width="33.661995"
       height="25.321613"
       id="rect6242-3" /><rect
       x="203.9707"
       y="482.75"
       width="54.860535"
       height="26.370771"
       id="rect5818-0-0" /><rect
       x="203.9707"
       y="482.75"
       width="74.659523"
       height="24.072674"
       id="rect5818-0-0-1" /><rect
       x="221.95711"
       y="452.32901"
       width="33.661995"
       height="25.321613"
       id="rect6242-3-6" /><rect
       x="203.9707"
       y="482.75"
       width="61.912815"
       height="22.474325"
       id="rect5818-0-9-8" /><rect
       x="203.9707"
       y="482.75"
       width="113.01766"
       height="24.473568"
       id="rect5818-0-9-8-5" /><rect
       x="203.9707"
       y="482.75"
       width="61.912815"
       height="22.474325"
       id="rect5818-0-9-8-1" /><rect
       x="203.9707"
       y="482.75"
       width="61.912815"
       height="22.474325"
       id="rect5818-0-9-8-1-6" /><rect
       x="221.95711"
       y="452.32901"
       width="33.661995"
       height="25.321613"
       id="rect6242-3-6-9" /><rect
       x="203.9707"
       y="482.75"
       width="61.912815"
       height="22.474325"
       id="rect5818-0-9-8-1-6-8" /><rect
       x="203.9707"
       y="482.75"
       width="61.912815"
       height="22.474325"
       id="rect5818-0-9-8-1-6-8-6" /><rect
       x="203.9707"
       y="482.75"
       width="61.912815"
       height="22.474325"
       id="rect5818-0-9-8-1-6-8-8" /><rect
       x="203.9707"
       y="482.75"
       width="61.912815"
       height="22.474325"
       id="rect5818-0-9-8-1-6-8-8-8" /><rect
       x="203.9707"
       y="482.75"
       width="60.412815"
       height="39.849323"
       id="rect5818-0-9-8-1-6-8-6-6" /><rect
       x="203.9707"
       y="482.75"
       width="60.412815"
       height="39.849323"
       id="rect5818-0-9-8-1-6-8-6-6-2" /><rect
       x="221.95711"
       y="452.32901"
       width="33.661995"
       height="25.321613"
       id="rect6242-3-6-9-5" /><rect
       x="98.761887"
       y="682"
       width="200.79994"
       height="97"
       id="rect1-9" /><rect
       x="98.761887"
       y="682"
       width="200.79994"
       height="97"
       id="rect1-9-6" /><rect
       x="98.761887"
       y="682"
       width="200.79994"
       height="97"
       id="rect1-9-6-5" /></defs><path
     id="base"
     style="display:inline;fill:#f3feff;fill-opacity:1;opacity:1;paint-order:stroke fill markers;stop-color:#000000;stroke:#000000;stroke-dasharray:none;stroke-opacity:1;stroke-width:0.499999"
     d="M 53.0731 0.270996 L 53.0731 65.0572 L 17.0433 65.0572 L 17.0433 78.6869 L 0.249982 78.7329 L 0.249982 290.778 L 127.608 290.778 L 127.608 28.3664 L 115.609 28.3664 C 115.681 20.7986 115.754 12.9051 115.826 5.33726 Z" /><path
     id="none-19"
     style="fill:#999999;fill-opacity:1;opacity:1;paint-order:stroke fill markers;stop-color:#000000;stroke:#000000;stroke-dasharray:none;stroke-opacity:1;stroke-width:0.499999"
     d="M 77.5 39.5389 L 77.5 84.8819 L 72.4637 84.8819 L 72.4637 79.0393 L 48.7835 79.0393 L 48.7835 84.8819 L 28.9118 84.8819 L 28.9118 90.3161 L 11.1501 90.3161 L 11.1501 103.528 L 46.3087 103.528 L 46.3087 111.605 L 20.3428 111.605 L 20.3428 113.084 L 10.7418 113.084 L 10.7418 131.608 L 51.6494 131.608 L 88.0927 131.608 L 88.0927 127.063 L 95.2442 127.063 L 95.2442 112.343 L 95.0333 112.343 L 95.0008 96.7654 L 121.888 96.7654 L 121.888 84.9139 L 122.647 84.8788 L 122.941 48.437 L 122.941 39.5637 L 109.769 39.5637 L 109.769 47.3627 L 89.6585 47.3627 L 89.6585 39.5864 Z M 90.9173 59.6131 L 109.599 59.6131 L 109.599 78.7892 L 90.9173 78.7892 Z M 91.5007 96.7654 L 91.5224 112.343 L 78.6142 112.343 L 78.6142 120.647 L 51.6494 120.555 L 51.6494 113.084 L 51.6494 111.605 L 51.6494 97.0149 Z" /><path
     id="none-18"
     style="fill:#999999;opacity:1;paint-order:stroke fill markers;stop-color:#000000;stroke:#000000;stroke-width:0.499999"
     d="M 108.385 88.0438 L 112.238 88.0438 L 112.238 96.7654 L 108.385 96.7654 Z" /><path
     id="none-17"
     style="fill:#999999;opacity:1;paint-order:stroke fill markers;stop-color:#000000;stroke:#000000;stroke-width:0.499999"
     d="M 77.5 80.1406 L 86.7077 80.1406 L 86.7077 84.8819 L 77.5 84.8819 Z" /><path
     id="none-16"
     style="fill:#999999;opacity:1;paint-order:stroke fill markers;stop-color:#000000;stroke:#000000;stroke-width:0.499999"
     d="M 77.5 58.2049 L 86.7077 58.2049 L 86.7077 61.0214 L 77.5 61.0214 Z" /><path
     id="none-15"
     style="fill:#999999;opacity:1;paint-order:stroke fill markers;stop-color:#000000;stroke:#000000;stroke-width:0.499999"
     d="M 90.9173 78.7892 L 95.5008 78.7892 L 95.5008 85.1318 L 90.9173 85.1318 Z" /><path
     id="none-14"
     style="fill:#999999;opacity:1;paint-order:stroke fill markers;stop-color:#000000;stroke:#000000;stroke-width:0.499999"
     d="M 96.0135 78.7892 L 99.9928 78.7892 L 99.9928 85.1318 L 96.0135 85.1318 Z" /><path
     id="none-13"
     style="fill:#999999;paint-order:stroke fill markers;stop-color:#000000;stroke:#000000;stroke-width:0.499999"
     d="M 95.8501 47.3627 L 100.315 47.3627 L 100.315 53.1763 L 95.8501 53.1763 Z" /><path
     id="none-12"
     style="fill:#999999;opacity:1;paint-order:stroke fill markers;stop-color:#000000;stroke:#000000;stroke-width:0.499999"
     d="M 113.582 63.745 L 122.785 63.745 L 122.785 67.7297 L 113.582 67.7297 Z" /><path
     id="none-10"
     style="fill:#999999;opacity:1;paint-order:stroke fill markers;stop-color:#000000;stroke:#000000;stroke-width:0.499999"
     d="M 7.49649 204.932 L 12.2818 204.932 L 12.2818 286.788 L 7.49649 286.788 Z" /><path
     id="none-9"
     style="fill:#999999;opacity:1;paint-order:stroke fill markers;stop-color:#000000;stroke:#000000;stroke-width:0.499999"
     d="M 2.58395 144.385 L 9.88916 144.385 L 9.88916 196.796 L 2.58395 196.796 Z" /><path
     id="none-8"
     style="fill:#999999;opacity:1;paint-order:stroke fill markers;stop-color:#000000;stroke:#000000;stroke-width:0.499999"
     d="M 3.14828 113.949 L 5.57986 113.949 L 5.57986 137.484 L 3.14828 137.484 Z" /><path
     id="none-7"
     style="fill:#999999;opacity:1;paint-order:stroke fill markers;stop-color:#000000;stroke:#000000;stroke-width:0.499999"
     d="M 7.57723 113.699 L 10.1392 113.699 L 10.1392 133.836 L 7.57723 133.836 Z" /><path
     id="none-6"
     style="fill:#999999;opacity:1;paint-order:stroke fill markers;stop-color:#000000;stroke:#000000;stroke-width:0.499999"
     d="M 21.2983 137.734 L 30.9632 137.734 L 30.9632 141.161 L 21.2983 141.161 Z" /><path
     id="none-5"
     style="fill:#999999;fill-opacity:1;opacity:1;paint-order:stroke fill markers;stop-color:#000000;stroke:#000000;stroke-dasharray:none;stroke-opacity:1;stroke-width:0.499999"
     d="M 23.585 68.3635 L 23.585 82.0614 L 47.2879 82.0614 C 47.2879 82.0614 47.1556 68.2992 47.2879 68.3635 Z" /><path
     id="none-4"
     style="fill:#999999;opacity:1;paint-order:stroke fill markers;stop-color:#000000;stroke:#000000;stroke-width:0.499999"
     d="M 8.2211 94.0625 L 9.92197 94.0625 L 9.92197 103.528 L 8.2211 103.528 Z" /><path
     id="none-3"
     style="fill:#999999;opacity:1;paint-order:stroke fill markers;stop-color:#000000;stroke:#000000;stroke-width:0.499999"
     d="M 10.172 86.8469 L 27.8835 86.8469 L 27.8835 89.2725 L 10.172 89.2725 Z" /><path
     id="none-2"
     style="fill:#999999;opacity:1;paint-order:stroke fill markers;stop-color:#000000;stroke:#000000;stroke-width:0.499999"
     d="M 85.3834 112.343 L 91.2767 112.343 L 91.2767 120.577 L 85.3834 120.577 Z" /><path
     id="none-1"
     style="fill:#999999;paint-order:stroke fill markers;stop-color:#000000;stroke:#000000;stroke-width:0.499999"
     d="M 36.9233 84.8818 L 44.6229 84.8818 L 44.6229 90.0661 L 36.9233 90.0661 Z" /><path
     id="none-21"
     style="fill:#999999;opacity:1;paint-order:stroke fill markers;stop-color:#000000;stroke:#000000;stroke-width:0.499999"
     d="M 16.0004 113.084 L 19.8427 113.084 L 19.8427 120.055 L 16.0004 120.055 Z" /><path
     id="audiovisual_hall"
     style="fill:#999999;opacity:1;paint-order:stroke fill markers;stop-color:#000000;stroke:#000000;stroke-width:0.499999"
     d="M 75.0536 8.34935 L 93.9851 8.34935 L 93.9851 37.0072 L 75.0536 37.0072 Z" /><path
     id="nishi_hall"
     style="fill:#999999;opacity:1;paint-order:stroke fill markers;stop-color:#000000;stroke:#000000;stroke-width:0.499999"
     d="M 98.5625 5.91297 L 114.16 5.91297 L 114.16 25.6859 L 98.5625 25.6859 Z" /><path
     id="WC-4"
     style="display:inline;fill:#999999;opacity:1;paint-order:stroke fill markers;stop-color:#000000;stroke:#000000;stroke-width:0.499999"
     d="M 100.505 78.7892 L 109.599 78.7892 L 109.599 85.1318 L 100.505 85.1318 Z" /><path
     id="WC-3"
     style="display:inline;fill:#999999;opacity:1;paint-order:stroke fill markers;stop-color:#000000;stroke:#000000;stroke-width:0.499999"
     d="M 90.8853 47.3627 L 95.3501 47.3627 L 95.3501 53.1763 L 90.8853 53.1763 Z" /><path
     id="WC-2"
     style="display:inline;fill:#999999;opacity:1;paint-order:stroke fill markers;stop-color:#000000;stroke:#000000;stroke-width:0.499999"
     d="M 78.6142 112.343 L 84.8836 112.343 L 84.8836 120.577 L 78.6142 120.577 Z" /><path
     id="WC-1"
     style="display:inline;fill:#999999;opacity:1;paint-order:stroke fill markers;stop-color:#000000;stroke:#000000;stroke-width:0.499999"
     d="M 10.7418 113.084 L 15.5008 113.084 L 15.5008 120.046 L 10.7418 120.046 Z" /><path
     id="WC-0"
     style="display:inline;fill:#999999;paint-order:stroke fill markers;stop-color:#000000;stroke:#000000;stroke-width:0.499999"
     d="M 28.9118 84.8818 L 36.4107 84.8818 L 36.4107 90.0661 L 28.9118 90.0661 Z" /><path
     id="pool"
     style="fill:#999999;opacity:1;paint-order:stroke fill markers;stop-color:#000000;stroke:#000000;stroke-width:0.499999"
     d="M 96.1562 109.52 L 123.041 109.52 L 123.041 151.755 L 96.1562 151.755 Z" /><path
     id="1A"
     style="fill:#999999;paint-order:stroke fill markers;stop-color:#000000;stroke:#000000;stroke-width:0.495067"
     d="M 79.5066 122.118 L 88.0927 122.118 L 88.0927 131.608 L 79.5066 131.608 Z" /><path
     id="1B"
     style="fill:#999999;paint-order:stroke fill markers;stop-color:#000000;stroke:#000000;stroke-width:0.495067"
     d="M 70.4306 122.118 L 79.0167 122.118 L 79.0167 131.608 L 70.4306 131.608 Z" /><path
     id="1C"
     style="fill:#999999;paint-order:stroke fill markers;stop-color:#000000;stroke:#000000;stroke-width:0.495067"
     d="M 61.3546 122.118 L 69.9407 122.118 L 69.9407 131.608 L 61.3546 131.608 Z" /><path
     id="1D"
     style="fill:#999999;paint-order:stroke fill markers;stop-color:#000000;stroke:#000000;stroke-width:0.495067"
     d="M 52.2785 122.118 L 60.8646 122.118 L 60.8646 131.608 L 52.2785 131.608 Z" /><path
     id="1E"
     style="fill:#999999;paint-order:stroke fill markers;stop-color:#000000;stroke:#000000;stroke-width:0.495067"
     d="M 37.9699 122.118 L 46.556 122.118 L 46.556 131.608 L 37.9699 131.608 Z" /><path
     id="1F"
     style="fill:#999999;paint-order:stroke fill markers;stop-color:#000000;stroke:#000000;stroke-width:0.495067"
     d="M 28.8939 122.118 L 37.48 122.118 L 37.48 131.608 L 28.8939 131.608 Z" /><path
     id="1G"
     style="fill:#999999;paint-order:stroke fill markers;stop-color:#000000;stroke:#000000;stroke-width:0.495067"
     d="M 19.8179 122.118 L 28.404 122.118 L 28.404 131.608 L 19.8179 131.608 Z" /><path
     id="1H"
     style="fill:#999999;opacity:1;paint-order:stroke fill markers;stop-color:#000000;stroke:#000000;stroke-width:0.495067"
     d="M 10.7419 122.118 L 19.3279 122.118 L 19.3279 131.608 L 10.7419 131.608 Z" /><path
     id="gym"
     style="fill:#999999;opacity:1;paint-order:stroke fill markers;stop-color:#000000;stroke:#000000;stroke-width:0.499999"
     d="M 92.7694 153.448 L 123.041 153.448 L 123.041 203.876 L 92.7694 203.876 Z" /><path
     id="martial_arts_field"
     style="fill:#999999;fill-opacity:1;opacity:1;paint-order:stroke fill markers;stop-color:#000000;stroke:#000000;stroke-dasharray:none;stroke-opacity:1;stroke-width:0.499999"
     d="M 92.7694 208.216 L 92.7694 250.299 L 113.954 250.299 L 113.954 239.523 L 123.164 239.523 L 123.164 208.216 L 113.954 208.216 Z" /><path
     id="tennis"
     style="fill:#999999;opacity:1;paint-order:stroke fill markers;stop-color:#000000;stroke:#000000;stroke-width:0.499999"
     d="M 59.7816 252.89 L 123.685 252.89 L 123.685 286.538 L 59.7816 286.538 Z" /><path
     id="handball"
     style="fill:#999999;opacity:1;paint-order:stroke fill markers;stop-color:#000000;stroke:#000000;stroke-width:0.5"
     d="M 13.3871 252.89 L 57.5114 252.89 L 57.5114 286.788 L 13.3871 286.788 Z" /><path
     id="the_student_council_room"
     style="fill:#999999;fill-opacity:1;opacity:1;paint-order:stroke fill markers;stop-color:#000000;stroke:#000000;stroke-dasharray:none;stroke-opacity:1;stroke-width:0.499999"
     d="M 11.1501 90.3161 L 11.1501 103.528 L 22.5675 103.528 L 32.1261 103.528 L 32.1261 93.0622 L 22.5675 93.0622 L 22.5675 90.3161 Z" /><path
     id="janitorial_room"
     style="fill:#999999;opacity:1;paint-order:stroke fill markers;stop-color:#000000;stroke:#000000;stroke-width:0.499999"
     d="M 32.6273 93.0622 L 46.3087 93.0622 L 46.3087 103.528 L 32.6273 103.528 Z" /><path
     id="corporate_planning_office"
     style="fill:#999999;opacity:1;paint-order:stroke fill markers;stop-color:#000000;stroke:#000000;stroke-width:0.499999"
     d="M 51.6494 88.0597 L 75.6694 88.0597 L 75.6694 96.7343 L 51.6494 96.7343 Z" /><path
     id="principals_office"
     style="fill:#999999;opacity:1;paint-order:stroke fill markers;stop-color:#000000;stroke:#000000;stroke-width:0.499999"
     d="M 76.1738 88.0599 L 91.5007 88.0599 L 91.5007 96.7654 L 76.1738 96.7654 Z" /><path
     id="health_room"
     style="fill:#999999;opacity:1;paint-order:stroke fill markers;stop-color:#000000;stroke:#000000;stroke-width:0.499999"
     d="M 95.3028 88.0621 L 107.885 88.0621 L 107.885 96.7654 L 95.3028 96.7654 Z" /><path
     id="japanese_style_room"
     style="fill:#999999;paint-order:stroke fill markers;stop-color:#000000;stroke:#000000;stroke-width:0.499999"
     d="M 112.738 88.0438 L 121.888 88.0438 L 121.888 96.7654 L 112.738 96.7654 Z" /><path
     id="home_economics_room"
     style="fill:#999999;opacity:1;paint-order:stroke fill markers;stop-color:#000000;stroke:#000000;stroke-width:0.499999"
     d="M 113.586 68.1904 L 122.647 68.1904 L 122.647 84.8788 L 113.586 84.8788 Z" /><path
     id="food_class"
     style="fill:#999999;opacity:1;paint-order:stroke fill markers;stop-color:#000000;stroke:#000000;stroke-width:0.499999"
     d="M 113.583 39.5637 L 122.785 39.5637 L 122.785 63.745 L 113.583 63.745 Z" /><path
     id="pc_room"
     style="fill:#999999;opacity:1;paint-order:stroke fill markers;stop-color:#000000;stroke:#000000;stroke-width:0.499999"
     d="M 77.5 61.4679 L 86.7077 61.4679 L 86.7077 79.6379 L 77.5 79.6379 Z" /><path
     id="ll_room"
     style="fill:#999999;paint-order:stroke fill markers;stop-color:#000000;stroke:#000000;stroke-width:0.499999"
     d="M 77.5 39.5389 L 86.7077 39.5389 L 86.7077 57.7088 L 77.5 57.7088 Z" /><path
     id="fountain"
     style="opacity:1;fill:#999999;stroke:#000000;stroke-width:0.499999;paint-order:stroke fill markers;stop-color:#000000"
     d="m 67.447281,71.941963 a 2.5,2.5 0 0 1 -2.5,2.5 2.5,2.5 0 0 1 -2.5,-2.5 2.5,2.5 0 0 1 2.5,-2.5 2.5,2.5 0 0 1 2.5,2.5 z" /><path
     id="grand"
     style="display:inline;fill:#999999;opacity:1;paint-order:stroke fill markers;stop-color:#000000;stroke:#000000;stroke-width:0.5"
     d="M 13.6371 142.359 L 88.9217 142.359 L 88.9217 251.232 L 13.6371 251.232 Z" /><path
     id="students_entrance"
     style="fill:#999999;opacity:1;paint-order:stroke fill markers;stop-color:#000000;stroke:#000000;stroke-width:0.499999"
     d="M 20.3428 111.605 L 46.059 111.605 L 46.059 120.056 L 20.3428 120.056 Z" /><path
     id="teachers_entrance"
     style="fill:#999999;opacity:1;paint-order:stroke fill markers;stop-color:#000000;stroke:#000000;stroke-width:0.499999"
     d="M 48.7835 79.0393 L 72.4637 79.0393 L 72.4637 84.8819 L 48.7835 84.8819 Z" /><path
     d="M 41.1024 191.461 L 50.3988 191.461 L 50.3988 192.647 L 41.1024 192.647 Z M 45.0987 188.972 L 46.3348 188.972 L 46.3348 192.02 L 45.0987 192.02 Z M 43.3545 193.155 L 44.506 193.629 C 44.1561 194.329 43.7214 195.023 43.2021 195.712 C 42.6941 196.389 42.1579 196.976 41.5935 197.473 C 41.4919 197.348 41.3508 197.213 41.1701 197.066 C 41.0008 196.919 40.8484 196.795 40.7129 196.694 C 41.2548 196.242 41.7628 195.695 42.2369 195.051 C 42.7111 194.396 43.0836 193.764 43.3545 193.155 Z M 46.8767 193.663 L 47.8588 193.104 C 48.2313 193.465 48.5982 193.866 48.9595 194.306 C 49.332 194.735 49.6707 195.158 49.9755 195.576 C 50.2916 195.994 50.5343 196.378 50.7036 196.728 L 49.6368 197.354 C 49.4788 197.004 49.2473 196.615 48.9425 196.186 C 48.649 195.757 48.3216 195.322 47.9604 194.882 C 47.6104 194.442 47.2492 194.035 46.8767 193.663 Z M 43.8964 196.253 C 44.2915 197.348 44.8165 198.37 45.4712 199.318 C 46.1372 200.267 46.9105 201.096 47.7911 201.808 C 48.6716 202.519 49.6537 203.072 50.7375 203.467 L 50.4157 203.789 C 50.3028 203.924 50.1956 204.06 50.094 204.195 C 49.9924 204.342 49.9077 204.472 49.84 204.585 C 48.7337 204.122 47.729 203.501 46.8259 202.722 C 45.9228 201.932 45.1325 201.017 44.4552 199.979 C 43.7892 198.94 43.236 197.8 42.7957 196.558 Z M 47.3 196.152 L 48.5869 196.423 C 48.2144 197.642 47.6951 198.776 47.0291 199.826 C 46.3743 200.876 45.5559 201.808 44.5737 202.62 C 43.6029 203.422 42.4458 204.082 41.1024 204.602 C 41.0573 204.5 40.9952 204.387 40.9161 204.263 C 40.8371 204.15 40.7525 204.031 40.6621 203.907 C 40.5831 203.783 40.5041 203.681 40.4251 203.602 C 41.6894 203.14 42.7788 202.536 43.6932 201.791 C 44.6189 201.046 45.3809 200.193 45.9792 199.234 C 46.5775 198.274 47.0178 197.247 47.3 196.152 Z M 35.2096 192.596 L 40.95 192.596 L 40.95 193.798 L 35.2096 193.798 Z M 37.6988 188.972 L 38.8841 188.972 L 38.8841 204.534 L 37.6988 204.534 Z M 37.6649 193.358 L 38.4608 193.629 C 38.3253 194.306 38.156 195.006 37.9528 195.728 C 37.7496 196.451 37.5182 197.162 37.2585 197.862 C 36.9989 198.562 36.7223 199.211 36.4288 199.809 C 36.1353 200.408 35.8362 200.921 35.5314 201.35 C 35.4636 201.181 35.362 200.989 35.2266 200.775 C 35.1024 200.56 34.9838 200.379 34.871 200.233 C 35.1645 199.849 35.4467 199.392 35.7176 198.861 C 35.9998 198.331 36.2651 197.755 36.5135 197.134 C 36.7618 196.513 36.982 195.881 37.1739 195.237 C 37.3771 194.594 37.5408 193.967 37.6649 193.358 Z M 38.7995 194.983 C 38.9124 195.096 39.0761 195.305 39.2905 195.61 C 39.505 195.903 39.7365 196.225 39.9848 196.575 C 40.2332 196.925 40.4589 197.252 40.6621 197.557 C 40.8766 197.862 41.0234 198.077 41.1024 198.201 L 40.3912 199.183 C 40.2896 198.968 40.1372 198.692 39.934 198.353 C 39.7421 198.014 39.5333 197.665 39.3075 197.303 C 39.093 196.931 38.8841 196.592 38.6809 196.287 C 38.489 195.971 38.331 195.723 38.2068 195.542 Z M 55.0216 192.951 L 58.2051 192.951 L 58.2051 194.018 L 55.0216 194.018 Z M 56.1392 196.643 L 58.9332 196.643 L 58.9332 197.659 L 56.1392 197.659 Z M 60.0339 196.457 L 67.349 196.457 L 67.349 197.557 L 60.0339 197.557 Z M 60.3895 200.368 L 66.9934 200.368 L 66.9934 201.452 L 60.3895 201.452 Z M 62.9972 193.629 L 64.1825 193.629 L 64.1825 200.961 L 62.9972 200.961 Z M 57.8664 192.951 L 58.0357 192.951 L 58.2389 192.884 L 59.0517 193.188 C 58.7921 193.663 58.4929 194.188 58.1543 194.763 C 57.8156 195.339 57.4656 195.92 57.1044 196.507 C 56.7544 197.094 56.4101 197.648 56.0715 198.167 L 55.0555 197.845 C 55.3941 197.326 55.7384 196.773 56.0884 196.186 C 56.4496 195.587 56.7827 195.017 57.0875 194.475 C 57.4035 193.922 57.6632 193.465 57.8664 193.104 Z M 65.8758 192.511 L 66.7733 193.375 C 66.2427 193.578 65.6218 193.764 64.9106 193.934 C 64.2107 194.103 63.4826 194.244 62.7263 194.357 C 61.9699 194.47 61.2361 194.56 60.5249 194.628 C 60.5023 194.504 60.4572 194.351 60.3895 194.171 C 60.333 193.99 60.2709 193.838 60.2032 193.713 C 60.8805 193.623 61.5748 193.521 62.286 193.409 C 62.9972 193.296 63.6689 193.166 64.301 193.019 C 64.9332 192.861 65.4582 192.692 65.8758 192.511 Z M 56.0545 198.675 C 56.3255 199.612 56.6698 200.379 57.0875 200.978 C 57.5164 201.565 58.0188 202.022 58.5945 202.349 C 59.1815 202.665 59.8363 202.886 60.5588 203.01 C 61.2926 203.123 62.0941 203.179 62.9633 203.179 L 63.6068 203.179 L 64.6566 203.179 L 65.8589 203.179 C 66.2653 203.168 66.6322 203.162 66.9596 203.162 L 67.6877 203.162 C 67.62 203.252 67.5579 203.365 67.5014 203.501 C 67.445 203.636 67.3942 203.777 67.349 203.924 C 67.3039 204.071 67.2644 204.201 67.2305 204.314 L 66.35 204.314 L 62.9295 204.314 C 61.9135 204.314 60.9934 204.24 60.1693 204.094 C 59.3452 203.947 58.6115 203.681 57.968 203.298 C 57.3358 202.925 56.7827 202.395 56.3085 201.706 C 55.8344 201.006 55.4336 200.109 55.1063 199.014 Z M 58.5099 196.643 L 58.7469 196.643 L 58.9671 196.609 L 59.6613 196.829 C 59.4581 198.218 59.142 199.42 58.7131 200.436 C 58.2841 201.441 57.7591 202.287 57.1383 202.976 C 56.5287 203.665 55.8344 204.212 55.0555 204.618 C 54.999 204.528 54.92 204.427 54.8184 204.314 L 54.5136 203.975 C 54.412 203.873 54.316 203.794 54.2257 203.738 C 55.3433 203.185 56.269 202.355 57.0028 201.249 C 57.7479 200.131 58.2502 198.669 58.5099 196.863 Z M 59.5767 188.972 L 60.8805 188.972 L 60.8805 191.14 L 59.5767 191.14 Z M 53.7855 190.53 L 67.3321 190.53 L 67.3321 191.681 L 53.7855 191.681 Z M 53.1759 190.53 L 54.3951 190.53 L 54.3951 195.559 C 54.3951 196.214 54.3781 196.931 54.3443 197.71 C 54.3104 198.477 54.237 199.273 54.1241 200.097 C 54.0225 200.91 53.8701 201.706 53.6669 202.485 C 53.475 203.252 53.2097 203.958 52.8711 204.602 C 52.792 204.534 52.6848 204.449 52.5493 204.348 C 52.4252 204.257 52.2953 204.167 52.1599 204.077 C 52.0244 203.998 51.9059 203.941 51.8043 203.907 C 52.1204 203.298 52.3687 202.637 52.5493 201.926 C 52.73 201.215 52.8654 200.487 52.9557 199.742 C 53.046 198.997 53.1025 198.268 53.1251 197.557 C 53.1589 196.835 53.1759 196.169 53.1759 195.559 Z"
     id="label-0"
     style="-inkscape-font-specification:'Noto Sans JP';font-family:'Noto Sans JP';font-size:64px;letter-spacing:0px;line-height:0.9;paint-order:stroke fill markers;stroke-width:1.4999977560700002;text-align:center;text-anchor:middle;text-orientation:upright;white-space:pre;word-spacing:0px"
     aria-label="校庭" /><path
     d="M 97.4108 174.805 L 98.0034 174.975 C 97.8454 175.454 97.6563 175.928 97.4362 176.397 C 97.216 176.86 96.9761 177.297 96.7165 177.709 C 96.4625 178.121 96.1944 178.488 95.9122 178.81 C 95.8952 178.759 95.8642 178.694 95.819 178.615 C 95.7739 178.536 95.7259 178.457 95.6751 178.378 C 95.6299 178.293 95.5848 178.229 95.5396 178.183 C 95.7936 177.907 96.0363 177.588 96.2678 177.227 C 96.4992 176.86 96.7108 176.47 96.9028 176.058 C 97.1003 175.646 97.2696 175.229 97.4108 174.805 Z M 96.6403 176.981 L 97.233 176.38 L 97.2499 176.388 L 97.2499 182.544 L 96.6403 182.544 Z M 100.205 174.797 L 100.823 174.797 L 100.823 182.51 L 100.205 182.51 Z M 97.8087 176.482 L 103.363 176.482 L 103.363 177.091 L 97.8087 177.091 Z M 98.8078 180.402 L 102.186 180.402 L 102.186 180.986 L 98.8078 180.986 Z M 101.128 176.795 C 101.291 177.297 101.497 177.797 101.746 178.293 C 101.994 178.785 102.271 179.239 102.575 179.657 C 102.88 180.069 103.196 180.407 103.524 180.673 C 103.45 180.729 103.366 180.805 103.27 180.901 C 103.179 180.997 103.103 181.087 103.041 181.172 C 102.714 180.867 102.398 180.492 102.093 180.046 C 101.794 179.595 101.52 179.103 101.272 178.573 C 101.023 178.037 100.814 177.492 100.645 176.939 Z M 99.9338 176.761 L 100.408 176.896 C 100.233 177.467 100.016 178.023 99.756 178.564 C 99.502 179.101 99.2198 179.597 98.9094 180.055 C 98.5989 180.506 98.2744 180.887 97.9357 181.198 C 97.9018 181.147 97.8567 181.09 97.8002 181.028 C 97.7494 180.966 97.6958 180.907 97.6394 180.85 C 97.5829 180.794 97.5293 180.749 97.4785 180.715 C 97.8115 180.45 98.1332 180.105 98.4437 179.682 C 98.7541 179.259 99.0392 178.796 99.2988 178.293 C 99.5585 177.785 99.7701 177.275 99.9338 176.761 Z M 105.479 178.361 L 110.128 178.361 L 110.128 178.895 L 106.114 178.895 L 106.114 182.561 L 105.479 182.561 Z M 109.908 178.361 L 110.551 178.361 L 110.551 181.883 C 110.551 182.053 110.523 182.182 110.466 182.273 C 110.416 182.363 110.325 182.428 110.195 182.468 C 110.06 182.513 109.879 182.538 109.654 182.544 C 109.428 182.555 109.146 182.561 108.807 182.561 C 108.79 182.482 108.762 182.391 108.722 182.29 C 108.683 182.194 108.64 182.109 108.595 182.036 C 108.765 182.041 108.925 182.044 109.078 182.044 C 109.23 182.044 109.366 182.041 109.484 182.036 L 109.73 182.036 C 109.797 182.036 109.843 182.022 109.865 181.993 C 109.893 181.971 109.908 181.931 109.908 181.875 Z M 105.852 179.547 L 110.17 179.547 L 110.17 180.021 L 105.852 180.021 Z M 104.269 175.601 L 111.719 175.601 L 111.719 176.168 L 104.269 176.168 Z M 106.622 175.94 L 107.308 176.143 C 107.128 176.403 106.927 176.668 106.707 176.939 C 106.487 177.21 106.287 177.441 106.106 177.633 L 105.598 177.438 C 105.711 177.303 105.829 177.148 105.954 176.973 C 106.083 176.798 106.205 176.62 106.318 176.439 C 106.436 176.259 106.538 176.092 106.622 175.94 Z M 108.976 176.482 L 109.484 176.151 C 109.733 176.315 109.992 176.499 110.263 176.702 C 110.54 176.899 110.799 177.1 111.042 177.303 C 111.285 177.506 111.482 177.69 111.635 177.853 L 111.101 178.234 C 110.96 178.065 110.771 177.879 110.534 177.675 C 110.297 177.467 110.043 177.258 109.772 177.049 C 109.501 176.84 109.236 176.651 108.976 176.482 Z M 104.599 177.244 C 104.977 177.244 105.403 177.241 105.877 177.235 C 106.357 177.224 106.868 177.215 107.41 177.21 C 107.952 177.198 108.508 177.187 109.078 177.176 C 109.654 177.165 110.224 177.153 110.788 177.142 L 110.754 177.667 C 110.015 177.69 109.273 177.712 108.527 177.735 C 107.782 177.757 107.074 177.777 106.402 177.794 C 105.731 177.811 105.138 177.825 104.624 177.836 Z M 105.852 180.673 L 110.145 180.673 L 110.145 181.147 L 105.852 181.147 Z M 107.647 174.763 L 108.299 174.763 L 108.299 175.872 L 107.647 175.872 Z M 116.884 181.57 L 119.805 181.57 L 119.805 182.129 L 116.884 182.129 Z M 116.622 177.049 L 117.206 177.049 L 117.206 182.561 L 116.622 182.561 Z M 116.884 177.049 L 119.712 177.049 L 119.712 179.166 L 116.884 179.166 L 116.884 178.632 L 119.119 178.632 L 119.119 177.582 L 116.884 177.582 Z M 116.105 175.694 L 120.271 175.694 L 120.271 177.125 L 119.67 177.125 L 119.67 176.219 L 116.681 176.219 L 116.681 177.125 L 116.105 177.125 Z M 117.824 174.763 L 118.45 174.763 L 118.45 175.982 L 117.824 175.982 Z M 116.884 179.877 L 120.068 179.877 L 120.068 182.501 L 119.475 182.501 L 119.475 180.419 L 116.884 180.419 Z M 114.234 176.202 L 114.776 176.202 L 114.776 177.252 L 114.234 177.252 Z M 113.125 177.007 L 113.701 177.007 L 113.701 181.731 L 113.125 181.731 Z M 113.48 178.15 L 115.453 178.15 L 115.453 178.598 L 113.48 178.598 Z M 112.541 181.629 C 112.783 181.573 113.057 181.511 113.362 181.443 C 113.672 181.37 114 181.291 114.344 181.206 C 114.694 181.116 115.041 181.028 115.385 180.944 L 115.453 181.452 C 114.979 181.593 114.502 181.731 114.022 181.866 C 113.548 181.996 113.122 182.115 112.744 182.222 Z M 114.539 180.309 L 115.047 180.08 C 115.199 180.277 115.346 180.492 115.487 180.723 C 115.634 180.949 115.761 181.175 115.868 181.401 C 115.981 181.621 116.066 181.818 116.122 181.993 L 115.58 182.256 C 115.529 182.081 115.45 181.881 115.343 181.655 C 115.236 181.423 115.112 181.192 114.971 180.96 C 114.835 180.723 114.691 180.506 114.539 180.309 Z M 113.438 177.007 L 115.733 177.007 L 115.733 179.767 L 113.438 179.767 L 113.438 179.284 L 115.165 179.284 L 115.165 177.489 L 113.438 177.489 Z M 114.065 174.771 L 114.403 174.771 L 114.403 174.907 L 114.59 174.907 L 114.59 175.085 C 114.477 175.299 114.336 175.539 114.166 175.804 C 113.997 176.064 113.797 176.329 113.565 176.6 C 113.339 176.865 113.077 177.119 112.778 177.362 C 112.75 177.317 112.71 177.269 112.659 177.218 C 112.614 177.167 112.566 177.119 112.515 177.074 C 112.464 177.023 112.416 176.984 112.371 176.956 C 112.648 176.747 112.893 176.515 113.108 176.261 C 113.322 176.007 113.509 175.753 113.667 175.499 C 113.83 175.24 113.963 174.997 114.065 174.771 Z M 114.226 174.771 L 114.683 174.771 C 114.852 174.918 115.027 175.079 115.208 175.254 C 115.388 175.429 115.555 175.604 115.707 175.779 C 115.86 175.954 115.981 176.115 116.071 176.261 L 115.656 176.736 C 115.566 176.594 115.45 176.431 115.309 176.245 C 115.168 176.058 115.013 175.872 114.844 175.686 C 114.674 175.499 114.505 175.341 114.336 175.212 L 114.226 175.212 Z"
     id="label-2"
     style="-inkscape-font-specification:'Noto Sans JP';font-family:'Noto Sans JP';font-size:32px;letter-spacing:0px;line-height:0.9;paint-order:stroke fill markers;stroke-width:1.4999977560700002;text-align:center;text-orientation:upright;white-space:pre;word-spacing:0px"
     aria-label="体育館" /><path
     d="M 101.358 225.837 L 101.807 225.507 C 101.965 225.619 102.126 225.746 102.29 225.888 C 102.453 226.029 102.606 226.173 102.747 226.319 C 102.894 226.46 103.009 226.59 103.094 226.709 L 102.628 227.081 C 102.544 226.963 102.431 226.83 102.29 226.683 C 102.154 226.537 102.005 226.39 101.841 226.243 C 101.677 226.091 101.516 225.955 101.358 225.837 Z M 95.7111 227.412 L 103.263 227.412 L 103.263 228.004 L 95.7111 228.004 Z M 98.3358 229.486 L 100.046 229.486 L 100.046 230.062 L 98.3358 230.062 Z M 96.3969 225.854 L 99.6312 225.854 L 99.6312 226.429 L 96.3969 226.429 Z M 95.6095 232.381 C 95.9933 232.325 96.4393 232.254 96.9473 232.17 C 97.4609 232.085 98.0028 231.992 98.5729 231.89 C 99.1486 231.783 99.7187 231.679 100.283 231.577 L 100.334 232.17 C 99.7977 232.271 99.2558 232.373 98.7083 232.475 C 98.1608 232.576 97.6359 232.672 97.1335 232.762 C 96.6312 232.853 96.1796 232.935 95.7789 233.008 Z M 97.9717 228.301 L 98.5898 228.301 L 98.5898 232.28 L 97.9717 232.28 Z M 96.38 228.944 L 96.9727 228.944 L 96.9727 232.483 L 96.38 232.483 Z M 100.309 225.388 L 100.952 225.388 C 100.941 226.189 100.955 226.949 100.994 227.666 C 101.039 228.382 101.104 229.04 101.189 229.638 C 101.279 230.231 101.389 230.742 101.519 231.171 C 101.649 231.6 101.799 231.933 101.968 232.17 C 102.137 232.407 102.321 232.525 102.518 232.525 C 102.631 232.525 102.713 232.398 102.764 232.144 C 102.82 231.89 102.86 231.481 102.882 230.917 C 102.95 230.979 103.035 231.044 103.136 231.111 C 103.244 231.174 103.337 231.221 103.416 231.255 C 103.382 231.741 103.328 232.122 103.255 232.398 C 103.187 232.675 103.088 232.87 102.959 232.983 C 102.834 233.095 102.668 233.152 102.459 233.152 C 102.194 233.152 101.954 233.056 101.739 232.864 C 101.531 232.678 101.347 232.412 101.189 232.068 C 101.031 231.718 100.896 231.306 100.783 230.832 C 100.675 230.358 100.585 229.833 100.512 229.257 C 100.444 228.676 100.393 228.061 100.359 227.412 C 100.325 226.757 100.309 226.082 100.309 225.388 Z M 106.354 226.421 L 111.739 226.421 L 111.739 226.954 L 106.354 226.954 Z M 108.665 226.658 L 109.385 226.726 C 109.317 226.94 109.244 227.155 109.165 227.369 C 109.091 227.584 109.021 227.77 108.953 227.928 L 108.428 227.818 C 108.473 227.654 108.518 227.462 108.564 227.242 C 108.614 227.016 108.648 226.822 108.665 226.658 Z M 110.138 225.346 L 110.79 225.498 C 110.672 225.696 110.55 225.893 110.426 226.091 C 110.302 226.283 110.183 226.449 110.071 226.59 L 109.546 226.446 C 109.613 226.339 109.684 226.221 109.757 226.091 C 109.831 225.961 109.901 225.831 109.969 225.701 C 110.042 225.566 110.099 225.447 110.138 225.346 Z M 107.251 225.557 L 107.751 225.363 C 107.886 225.504 108.013 225.665 108.132 225.845 C 108.25 226.026 108.332 226.184 108.377 226.319 L 107.852 226.548 C 107.807 226.412 107.728 226.252 107.615 226.065 C 107.502 225.873 107.381 225.704 107.251 225.557 Z M 105.939 228.69 L 105.939 231.687 L 105.321 231.687 L 105.321 229.283 L 104.135 229.283 L 104.135 228.69 Z M 105.939 231.408 C 106.142 231.718 106.424 231.95 106.786 232.102 C 107.147 232.254 107.573 232.339 108.064 232.356 C 108.295 232.367 108.575 232.376 108.902 232.381 C 109.235 232.381 109.582 232.379 109.944 232.373 C 110.31 232.367 110.663 232.359 111.002 232.348 C 111.341 232.336 111.637 232.322 111.891 232.305 C 111.863 232.35 111.834 232.412 111.806 232.491 C 111.778 232.571 111.753 232.65 111.73 232.729 C 111.707 232.813 111.691 232.887 111.679 232.949 C 111.448 232.96 111.174 232.968 110.858 232.974 C 110.542 232.98 110.215 232.983 109.876 232.983 C 109.537 232.988 109.207 232.988 108.885 232.983 C 108.569 232.983 108.295 232.98 108.064 232.974 C 107.511 232.952 107.037 232.861 106.642 232.703 C 106.252 232.545 105.922 232.297 105.651 231.958 C 105.448 232.139 105.239 232.319 105.024 232.5 C 104.81 232.686 104.587 232.875 104.356 233.067 L 104.025 232.415 C 104.229 232.28 104.446 232.125 104.677 231.95 C 104.914 231.769 105.143 231.588 105.363 231.408 Z M 104.229 225.93 L 104.694 225.549 C 104.881 225.667 105.07 225.806 105.262 225.964 C 105.453 226.116 105.628 226.271 105.786 226.429 C 105.95 226.587 106.083 226.734 106.184 226.87 L 105.676 227.293 C 105.592 227.158 105.468 227.008 105.304 226.844 C 105.146 226.681 104.971 226.52 104.779 226.362 C 104.593 226.198 104.409 226.054 104.229 225.93 Z M 107.632 229.283 L 107.632 229.985 L 110.452 229.985 L 110.452 229.283 Z M 107.632 230.451 L 107.632 231.162 L 110.452 231.162 L 110.452 230.451 Z M 107.632 228.123 L 107.632 228.817 L 110.452 228.817 L 110.452 228.123 Z M 107.031 227.632 L 111.078 227.632 L 111.078 231.662 L 107.031 231.662 Z M 114.99 228.825 L 120.324 228.825 L 120.324 229.376 L 114.99 229.376 Z M 115.946 229.968 L 119.629 229.968 L 119.629 230.493 L 115.946 230.493 Z M 116.353 229.029 L 116.912 229.173 C 116.691 229.641 116.401 230.076 116.04 230.476 C 115.684 230.872 115.311 231.202 114.922 231.467 C 114.894 231.433 114.851 231.391 114.795 231.34 C 114.744 231.289 114.691 231.238 114.634 231.188 C 114.578 231.137 114.527 231.1 114.482 231.078 C 114.871 230.84 115.232 230.544 115.565 230.189 C 115.904 229.833 116.167 229.446 116.353 229.029 Z M 119.511 229.968 L 120.112 229.968 C 120.112 229.968 120.109 230.002 120.104 230.07 C 120.104 230.132 120.101 230.183 120.095 230.222 C 120.05 230.809 120.002 231.284 119.951 231.645 C 119.906 232.006 119.855 232.283 119.799 232.475 C 119.742 232.666 119.675 232.805 119.596 232.889 C 119.528 232.968 119.454 233.022 119.375 233.05 C 119.296 233.079 119.206 233.095 119.104 233.101 C 119.014 233.112 118.893 233.118 118.74 233.118 C 118.594 233.118 118.436 233.112 118.266 233.101 C 118.266 233.022 118.252 232.932 118.224 232.83 C 118.196 232.734 118.162 232.65 118.122 232.576 C 118.28 232.593 118.424 232.604 118.554 232.61 C 118.684 232.616 118.78 232.618 118.842 232.618 C 118.898 232.618 118.946 232.613 118.986 232.602 C 119.031 232.59 119.068 232.565 119.096 232.525 C 119.158 232.469 119.212 232.353 119.257 232.178 C 119.308 232.003 119.353 231.746 119.392 231.408 C 119.438 231.063 119.477 230.618 119.511 230.07 Z M 116.395 227.2 L 116.395 227.869 L 119.121 227.869 L 119.121 227.2 Z M 116.395 226.074 L 116.395 226.743 L 119.121 226.743 L 119.121 226.074 Z M 115.819 225.6 L 119.714 225.6 L 119.714 228.351 L 115.819 228.351 Z M 112.636 227.174 L 115.142 227.174 L 115.142 227.784 L 112.636 227.784 Z M 113.627 225.413 L 114.228 225.413 L 114.228 230.62 L 113.627 230.62 Z M 112.475 230.951 C 112.69 230.86 112.938 230.753 113.22 230.629 C 113.502 230.505 113.804 230.369 114.126 230.222 C 114.448 230.076 114.77 229.932 115.091 229.791 L 115.227 230.349 C 114.792 230.564 114.355 230.781 113.914 231.001 C 113.474 231.216 113.076 231.411 112.721 231.586 Z M 118.436 230.07 L 118.876 230.307 C 118.774 230.663 118.63 231.024 118.444 231.391 C 118.258 231.758 118.049 232.096 117.818 232.407 C 117.586 232.717 117.343 232.971 117.089 233.169 C 117.033 233.107 116.96 233.042 116.869 232.974 C 116.785 232.906 116.7 232.85 116.615 232.805 C 116.881 232.624 117.132 232.387 117.369 232.094 C 117.612 231.8 117.823 231.475 118.004 231.12 C 118.19 230.764 118.334 230.414 118.436 230.07 Z M 117.106 230.087 L 117.547 230.341 C 117.4 230.646 117.211 230.956 116.979 231.272 C 116.754 231.583 116.502 231.871 116.226 232.136 C 115.949 232.401 115.673 232.624 115.396 232.805 C 115.345 232.737 115.28 232.666 115.201 232.593 C 115.128 232.52 115.052 232.458 114.973 232.407 C 115.249 232.254 115.526 232.054 115.802 231.806 C 116.079 231.557 116.33 231.284 116.556 230.984 C 116.787 230.685 116.971 230.386 117.106 230.087 Z"
     id="label-1"
     style="-inkscape-font-specification:'Noto Sans JP';font-family:'Noto Sans JP';font-size:32px;letter-spacing:0px;line-height:0.9;paint-order:stroke fill markers;stroke-width:1.4999977560700002;text-align:center;text-orientation:upright;white-space:pre;word-spacing:0px"
     aria-label="武道場" /><path
     d="M 103.367 127.928 C 103.367 128.08 103.421 128.213 103.528 128.326 C 103.641 128.433 103.773 128.487 103.926 128.487 C 104.084 128.487 104.217 128.433 104.324 128.326 C 104.437 128.213 104.493 128.08 104.493 127.928 C 104.493 127.77 104.437 127.637 104.324 127.53 C 104.217 127.417 104.084 127.361 103.926 127.361 C 103.773 127.361 103.641 127.417 103.528 127.53 C 103.421 127.637 103.367 127.77 103.367 127.928 Z M 102.978 127.928 C 102.978 127.753 103.02 127.595 103.105 127.454 C 103.195 127.307 103.311 127.191 103.452 127.107 C 103.593 127.016 103.751 126.971 103.926 126.971 C 104.101 126.971 104.259 127.016 104.4 127.107 C 104.547 127.191 104.662 127.307 104.747 127.454 C 104.837 127.595 104.883 127.753 104.883 127.928 C 104.883 128.103 104.837 128.261 104.747 128.402 C 104.662 128.543 104.547 128.659 104.4 128.749 C 104.259 128.834 104.101 128.876 103.926 128.876 C 103.751 128.876 103.593 128.834 103.452 128.749 C 103.311 128.659 103.195 128.543 103.105 128.402 C 103.02 128.261 102.978 128.103 102.978 127.928 Z M 103.714 128.495 C 103.686 128.552 103.661 128.617 103.638 128.69 C 103.621 128.758 103.604 128.834 103.587 128.919 C 103.542 129.139 103.483 129.384 103.409 129.655 C 103.336 129.926 103.246 130.206 103.138 130.493 C 103.037 130.776 102.918 131.049 102.783 131.315 C 102.647 131.58 102.495 131.823 102.326 132.043 C 102.066 132.37 101.778 132.675 101.462 132.957 C 101.146 133.239 100.785 133.493 100.378 133.719 C 99.972 133.945 99.5091 134.14 98.9898 134.303 L 98.4141 133.668 C 98.9672 133.533 99.4442 133.364 99.845 133.16 C 100.251 132.957 100.607 132.729 100.912 132.475 C 101.217 132.215 101.485 131.936 101.716 131.636 C 101.919 131.377 102.094 131.086 102.241 130.764 C 102.393 130.437 102.52 130.11 102.622 129.782 C 102.724 129.449 102.791 129.147 102.825 128.876 L 102.376 128.876 L 101.598 128.876 L 100.658 128.876 L 99.7264 128.876 L 98.9475 128.876 L 98.4988 128.876 C 98.3294 128.876 98.1742 128.879 98.0331 128.885 C 97.892 128.89 97.765 128.896 97.6521 128.902 L 97.6521 128.148 C 97.7311 128.159 97.8186 128.171 97.9146 128.182 C 98.0105 128.188 98.1093 128.193 98.2109 128.199 C 98.3125 128.205 98.4084 128.207 98.4988 128.207 L 98.8628 128.207 L 99.4809 128.207 L 100.251 128.207 L 101.064 128.207 L 101.818 128.207 L 102.419 128.207 L 102.749 128.207 C 102.811 128.207 102.882 128.205 102.961 128.199 C 103.04 128.193 103.119 128.182 103.198 128.165 Z M 105.882 130.341 C 105.966 130.347 106.071 130.355 106.195 130.366 C 106.319 130.372 106.455 130.378 106.601 130.383 L 107.059 130.383 L 107.473 130.383 L 108.142 130.383 L 108.947 130.383 L 109.802 130.383 L 110.615 130.383 L 111.283 130.383 L 111.698 130.383 C 111.913 130.383 112.096 130.378 112.249 130.366 C 112.401 130.355 112.522 130.347 112.613 130.341 L 112.613 131.171 L 112.232 131.145 C 112.068 131.134 111.893 131.128 111.707 131.128 L 111.283 131.128 L 110.615 131.128 L 109.81 131.128 L 108.947 131.128 L 108.142 131.128 L 107.482 131.128 L 107.059 131.128 C 106.827 131.128 106.607 131.134 106.398 131.145 C 106.189 131.151 106.017 131.159 105.882 131.171 Z M 117.921 133.829 C 117.938 133.761 117.949 133.688 117.955 133.609 C 117.966 133.524 117.972 133.44 117.972 133.355 L 117.972 132.983 L 117.972 132.28 L 117.972 131.365 L 117.972 130.383 L 117.972 129.452 L 117.972 128.707 L 117.972 128.284 C 117.972 128.12 117.966 127.984 117.955 127.877 C 117.944 127.764 117.935 127.691 117.93 127.657 L 118.709 127.657 C 118.709 127.691 118.703 127.764 118.692 127.877 C 118.68 127.99 118.675 128.126 118.675 128.284 L 118.675 128.707 L 118.675 129.435 L 118.675 130.349 L 118.675 131.306 L 118.675 132.187 L 118.675 132.847 L 118.675 133.169 C 118.94 133.045 119.222 132.881 119.521 132.678 C 119.821 132.475 120.111 132.237 120.394 131.967 C 120.681 131.696 120.933 131.402 121.147 131.086 L 121.545 131.662 C 121.302 131.989 121.017 132.302 120.69 132.602 C 120.368 132.901 120.032 133.169 119.682 133.406 C 119.332 133.643 118.991 133.843 118.658 134.007 C 118.59 134.047 118.531 134.083 118.48 134.117 C 118.435 134.151 118.398 134.179 118.37 134.202 Z M 114.044 133.787 C 114.399 133.533 114.701 133.225 114.949 132.864 C 115.198 132.503 115.387 132.116 115.517 131.704 C 115.579 131.512 115.627 131.272 115.661 130.984 C 115.695 130.697 115.72 130.392 115.737 130.07 C 115.754 129.743 115.762 129.427 115.762 129.122 C 115.768 128.811 115.771 128.538 115.771 128.301 C 115.771 128.176 115.765 128.066 115.754 127.97 C 115.743 127.869 115.728 127.773 115.711 127.682 L 116.49 127.682 C 116.485 127.716 116.479 127.767 116.473 127.835 C 116.468 127.897 116.462 127.967 116.457 128.047 C 116.451 128.126 116.448 128.207 116.448 128.292 C 116.448 128.529 116.445 128.809 116.44 129.13 C 116.434 129.446 116.42 129.779 116.397 130.129 C 116.38 130.474 116.355 130.801 116.321 131.111 C 116.293 131.422 116.248 131.682 116.186 131.89 C 116.061 132.342 115.867 132.768 115.601 133.169 C 115.342 133.57 115.034 133.92 114.679 134.219 Z"
     id="label-3"
     style="-inkscape-font-specification:'Noto Sans JP';font-family:'Noto Sans JP';font-size:32px;letter-spacing:0px;line-height:0.9;paint-order:stroke fill markers;stroke-width:1.4999977560700002;text-align:center;text-orientation:upright;white-space:pre;word-spacing:0px"
     aria-label="プール" /></svg>
