<?xml version="1.0" encoding="UTF-8" standalone="no"?>
<!-- Created with Inkscape (http://www.inkscape.org/) -->

<svg
   width="127.85812mm"
   height="291.02832mm"
   viewBox="0 0 127.85812 291.02832"
   version="1.1"
   id="svg5"
   xml:space="preserve"
   inkscape:version="1.3.2 (091e20e, 2023-11-25, custom)"
   sodipodi:docname="1F-edit.svg"
   inkscape:export-filename="1F-exported.svg"
   inkscape:export-xdpi="96"
   inkscape:export-ydpi="96"
   xmlns:inkscape="http://www.inkscape.org/namespaces/inkscape"
   xmlns:sodipodi="http://sodipodi.sourceforge.net/DTD/sodipodi-0.dtd"
   xmlns="http://www.w3.org/2000/svg"
   xmlns:svg="http://www.w3.org/2000/svg"><sodipodi:namedview
     id="namedview7"
     pagecolor="#ffffff"
     bordercolor="#111111"
     borderopacity="1"
     inkscape:showpageshadow="0"
     inkscape:pageopacity="0"
     inkscape:pagecheckerboard="1"
     inkscape:deskcolor="#d1d1d1"
     inkscape:document-units="mm"
     showgrid="false"
     inkscape:zoom="0.35355339"
     inkscape:cx="149.90664"
     inkscape:cy="605.28341"
     inkscape:window-width="1137"
     inkscape:window-height="1000"
     inkscape:window-x="571"
     inkscape:window-y="0"
     inkscape:window-maximized="0"
     inkscape:current-layer="svg5" /><defs
     id="defs2"><rect
       x="221.95711"
       y="452.32901"
       width="33.661995"
       height="25.321613"
       id="rect6242" /><rect
       x="203.9707"
       y="482.75"
       width="35.893711"
       height="26.724325"
       id="rect5818" /><rect
       x="387.81921"
       y="249.95888"
       width="51.987732"
       height="23.518541"
       id="rect2999" /><rect
       x="262.13342"
       y="687.02557"
       width="205.25488"
       height="110.75822"
       id="rect2566" /><clipPath
       clipPathUnits="userSpaceOnUse"
       id="clipPath413"><rect
         style="fill:#999999;stroke:#b3b3b3;stroke-width:1;stop-color:#000000"
         id="rect415"
         width="68.038559"
         height="159.65727"
         x="73.196716"
         y="64.845413"
         transform="rotate(20)" /></clipPath><clipPath
       clipPathUnits="userSpaceOnUse"
       id="clipPath435"><rect
         style="fill:#999999;stroke:#b3b3b3;stroke-width:1;stop-color:#000000"
         id="rect437"
         width="112.2"
         height="169.86316"
         x="-47.936844"
         y="81.978951" /></clipPath><clipPath
       clipPathUnits="userSpaceOnUse"
       id="clipPath1766"><rect
         style="opacity:1;fill:#999999;stroke:#b3b3b3;stroke-width:1;stop-color:#000000"
         id="rect1768"
         width="138.04213"
         height="298.68192"
         x="0"
         y="40.77401"
         transform="rotate(20)" /></clipPath><rect
       x="262.13342"
       y="687.02557"
       width="205.25488"
       height="110.75822"
       id="rect2566-0" /><rect
       x="262.13342"
       y="687.02557"
       width="205.25488"
       height="110.75822"
       id="rect2566-0-3" /><rect
       x="262.13342"
       y="687.02557"
       width="205.25488"
       height="110.75822"
       id="rect2566-5" /><rect
       x="262.13342"
       y="687.02557"
       width="205.25488"
       height="110.75822"
       id="rect2566-5-4" /><rect
       x="262.13342"
       y="687.02557"
       width="205.25488"
       height="110.75822"
       id="rect2566-5-4-6" /><rect
       x="262.13342"
       y="687.02557"
       width="205.25488"
       height="110.75822"
       id="rect2566-5-4-6-4" /><rect
       x="262.13342"
       y="687.02557"
       width="205.25488"
       height="110.75822"
       id="rect2566-5-4-6-4-1" /><rect
       x="203.9707"
       y="482.75"
       width="35.893711"
       height="26.724325"
       id="rect5818-2" /><rect
       x="203.9707"
       y="482.75"
       width="35.893711"
       height="26.724325"
       id="rect5818-0" /><rect
       x="203.9707"
       y="482.75"
       width="35.893711"
       height="26.724325"
       id="rect5818-6" /><rect
       x="203.9707"
       y="482.75"
       width="35.893711"
       height="26.724325"
       id="rect5818-3" /><rect
       x="203.9707"
       y="482.75"
       width="35.893711"
       height="26.724325"
       id="rect5818-31" /><rect
       x="203.9707"
       y="482.75"
       width="35.893711"
       height="26.724325"
       id="rect5818-9" /><rect
       x="203.9707"
       y="482.75"
       width="35.893711"
       height="26.724325"
       id="rect5818-8" /><rect
       x="203.9707"
       y="482.75"
       width="61.912815"
       height="22.474325"
       id="rect5818-0-9" /><rect
       x="221.95711"
       y="452.32901"
       width="33.661995"
       height="25.321613"
       id="rect6242-3" /><rect
       x="203.9707"
       y="482.75"
       width="54.860535"
       height="26.370771"
       id="rect5818-0-0" /><rect
       x="203.9707"
       y="482.75"
       width="74.659523"
       height="24.072674"
       id="rect5818-0-0-1" /><rect
       x="221.95711"
       y="452.32901"
       width="33.661995"
       height="25.321613"
       id="rect6242-3-6" /><rect
       x="203.9707"
       y="482.75"
       width="61.912815"
       height="22.474325"
       id="rect5818-0-9-8" /><rect
       x="203.9707"
       y="482.75"
       width="113.01766"
       height="24.473568"
       id="rect5818-0-9-8-5" /><rect
       x="203.9707"
       y="482.75"
       width="61.912815"
       height="22.474325"
       id="rect5818-0-9-8-1" /><rect
       x="203.9707"
       y="482.75"
       width="61.912815"
       height="22.474325"
       id="rect5818-0-9-8-1-6" /><rect
       x="221.95711"
       y="452.32901"
       width="33.661995"
       height="25.321613"
       id="rect6242-3-6-9" /><rect
       x="203.9707"
       y="482.75"
       width="61.912815"
       height="22.474325"
       id="rect5818-0-9-8-1-6-8" /><rect
       x="203.9707"
       y="482.75"
       width="61.912815"
       height="22.474325"
       id="rect5818-0-9-8-1-6-8-6" /><rect
       x="203.9707"
       y="482.75"
       width="61.912815"
       height="22.474325"
       id="rect5818-0-9-8-1-6-8-8" /><rect
       x="203.9707"
       y="482.75"
       width="61.912815"
       height="22.474325"
       id="rect5818-0-9-8-1-6-8-8-8" /><rect
       x="203.9707"
       y="482.75"
       width="60.412815"
       height="39.849323"
       id="rect5818-0-9-8-1-6-8-6-6" /><rect
       x="203.9707"
       y="482.75"
       width="60.412815"
       height="39.849323"
       id="rect5818-0-9-8-1-6-8-6-6-2" /><rect
       x="221.95711"
       y="452.32901"
       width="33.661995"
       height="25.321613"
       id="rect6242-3-6-9-5" /></defs><path
     id="none-20"
     style="display:inline;fill:#f3feff;fill-opacity:1;opacity:1;paint-order:stroke fill markers;stop-color:#000000;stroke:#000000;stroke-dasharray:none;stroke-opacity:1;stroke-width:0.499999"
     d="M 53.0731 0.270996 L 53.0731 65.0572 L 17.0433 65.0572 L 17.0433 78.6869 L 0.249982 78.7329 L 0.249982 290.778 L 127.608 290.778 L 127.608 28.3664 L 115.609 28.3664 C 115.681 20.7986 115.754 12.9051 115.826 5.33726 Z" /><path
     id="none-19"
     style="fill:#999999;fill-opacity:1;opacity:1;paint-order:stroke fill markers;stop-color:#000000;stroke:#000000;stroke-dasharray:none;stroke-opacity:1;stroke-width:0.499999"
     d="M 77.5 39.5389 L 77.5 84.8819 L 72.4637 84.8819 L 72.4637 79.0393 L 48.7835 79.0393 L 48.7835 84.8819 L 28.9118 84.8819 L 28.9118 90.3161 L 11.1501 90.3161 L 11.1501 103.528 L 46.3087 103.528 L 46.3087 111.605 L 20.3428 111.605 L 20.3428 113.084 L 10.7418 113.084 L 10.7418 131.608 L 51.6494 131.608 L 88.0927 131.608 L 88.0927 127.063 L 95.2442 127.063 L 95.2442 112.343 L 95.0333 112.343 L 95.0008 96.7654 L 121.888 96.7654 L 121.888 84.9139 L 122.647 84.8788 L 122.941 48.437 L 122.941 39.5637 L 109.769 39.5637 L 109.769 47.3627 L 89.6585 47.3627 L 89.6585 39.5864 Z M 90.9173 59.6131 L 109.599 59.6131 L 109.599 78.7892 L 90.9173 78.7892 Z M 91.5007 96.7654 L 91.5224 112.343 L 78.6142 112.343 L 78.6142 120.647 L 51.6494 120.555 L 51.6494 113.084 L 51.6494 111.605 L 51.6494 97.0149 Z" /><path
     id="none-18"
     style="fill:#999999;opacity:1;paint-order:stroke fill markers;stop-color:#000000;stroke:#000000;stroke-width:0.499999"
     d="M 108.385 88.0438 L 112.238 88.0438 L 112.238 96.7654 L 108.385 96.7654 Z" /><path
     id="none-17"
     style="fill:#999999;opacity:1;paint-order:stroke fill markers;stop-color:#000000;stroke:#000000;stroke-width:0.499999"
     d="M 77.5 80.1406 L 86.7077 80.1406 L 86.7077 84.8819 L 77.5 84.8819 Z" /><path
     id="none-16"
     style="fill:#999999;opacity:1;paint-order:stroke fill markers;stop-color:#000000;stroke:#000000;stroke-width:0.499999"
     d="M 77.5 58.2049 L 86.7077 58.2049 L 86.7077 61.0214 L 77.5 61.0214 Z" /><path
     id="none-15"
     style="fill:#999999;opacity:1;paint-order:stroke fill markers;stop-color:#000000;stroke:#000000;stroke-width:0.499999"
     d="M 90.9173 78.7892 L 95.5008 78.7892 L 95.5008 85.1318 L 90.9173 85.1318 Z" /><path
     id="none-14"
     style="fill:#999999;opacity:1;paint-order:stroke fill markers;stop-color:#000000;stroke:#000000;stroke-width:0.499999"
     d="M 96.0135 78.7892 L 99.9928 78.7892 L 99.9928 85.1318 L 96.0135 85.1318 Z" /><path
     id="none-13"
     style="fill:#999999;paint-order:stroke fill markers;stop-color:#000000;stroke:#000000;stroke-width:0.499999"
     d="M 95.8501 47.3627 L 100.315 47.3627 L 100.315 53.1763 L 95.8501 53.1763 Z" /><path
     id="none-12"
     style="fill:#999999;opacity:1;paint-order:stroke fill markers;stop-color:#000000;stroke:#000000;stroke-width:0.499999"
     d="M 113.582 63.745 L 122.785 63.745 L 122.785 67.7297 L 113.582 67.7297 Z" /><path
     id="none-10"
     style="fill:#999999;opacity:1;paint-order:stroke fill markers;stop-color:#000000;stroke:#000000;stroke-width:0.499999"
     d="M 7.49649 204.932 L 12.2818 204.932 L 12.2818 286.788 L 7.49649 286.788 Z" /><path
     id="none-9"
     style="fill:#999999;opacity:1;paint-order:stroke fill markers;stop-color:#000000;stroke:#000000;stroke-width:0.499999"
     d="M 2.58395 144.385 L 9.88916 144.385 L 9.88916 196.796 L 2.58395 196.796 Z" /><path
     id="none-8"
     style="fill:#999999;opacity:1;paint-order:stroke fill markers;stop-color:#000000;stroke:#000000;stroke-width:0.499999"
     d="M 3.14828 113.949 L 5.57986 113.949 L 5.57986 137.484 L 3.14828 137.484 Z" /><path
     id="none-7"
     style="fill:#999999;opacity:1;paint-order:stroke fill markers;stop-color:#000000;stroke:#000000;stroke-width:0.499999"
     d="M 7.57723 113.699 L 10.1392 113.699 L 10.1392 133.836 L 7.57723 133.836 Z" /><path
     id="none-6"
     style="fill:#999999;opacity:1;paint-order:stroke fill markers;stop-color:#000000;stroke:#000000;stroke-width:0.499999"
     d="M 21.2983 137.734 L 30.9632 137.734 L 30.9632 141.161 L 21.2983 141.161 Z" /><path
     id="none-5"
     style="fill:#999999;fill-opacity:1;opacity:1;paint-order:stroke fill markers;stop-color:#000000;stroke:#000000;stroke-dasharray:none;stroke-opacity:1;stroke-width:0.499999"
     d="M 23.585 68.3635 L 23.585 82.0614 L 47.2879 82.0614 C 47.2879 82.0614 47.1556 68.2992 47.2879 68.3635 Z" /><path
     id="none-4"
     style="fill:#999999;opacity:1;paint-order:stroke fill markers;stop-color:#000000;stroke:#000000;stroke-width:0.499999"
     d="M 8.2211 94.0625 L 9.92197 94.0625 L 9.92197 103.528 L 8.2211 103.528 Z" /><path
     id="none-3"
     style="fill:#999999;opacity:1;paint-order:stroke fill markers;stop-color:#000000;stroke:#000000;stroke-width:0.499999"
     d="M 10.172 86.8469 L 27.8835 86.8469 L 27.8835 89.2725 L 10.172 89.2725 Z" /><path
     id="none-2"
     style="fill:#999999;opacity:1;paint-order:stroke fill markers;stop-color:#000000;stroke:#000000;stroke-width:0.499999"
     d="M 85.3834 112.343 L 91.2767 112.343 L 91.2767 120.577 L 85.3834 120.577 Z" /><path
     id="none-1"
     style="fill:#999999;paint-order:stroke fill markers;stop-color:#000000;stroke:#000000;stroke-width:0.499999"
     d="M 36.9233 84.8818 L 44.6229 84.8818 L 44.6229 90.0661 L 36.9233 90.0661 Z" /><path
     id="rect3473"
     style="fill:#999999;opacity:1;paint-order:stroke fill markers;stop-color:#000000;stroke:#000000;stroke-width:0.499999"
     d="M 16.0004 113.084 L 19.8427 113.084 L 19.8427 120.055 L 16.0004 120.055 Z"
     inkscape:label="none-21" /><path
     id="audiovisual_hall"
     style="fill:#999999;opacity:1;paint-order:stroke fill markers;stop-color:#000000;stroke:#000000;stroke-width:0.499999"
     d="M 75.0536 8.34935 L 93.9851 8.34935 L 93.9851 37.0072 L 75.0536 37.0072 Z" /><path
     id="nishi_hall"
     style="fill:#999999;opacity:1;paint-order:stroke fill markers;stop-color:#000000;stroke:#000000;stroke-width:0.499999"
     d="M 98.5625 5.91297 L 114.16 5.91297 L 114.16 25.6859 L 98.5625 25.6859 Z" /><path
     id="WC-4"
     style="display:inline;fill:#999999;opacity:1;paint-order:stroke fill markers;stop-color:#000000;stroke:#000000;stroke-width:0.499999"
     d="M 100.505 78.7892 L 109.599 78.7892 L 109.599 85.1318 L 100.505 85.1318 Z" /><path
     id="WC-3"
     style="display:inline;fill:#999999;opacity:1;paint-order:stroke fill markers;stop-color:#000000;stroke:#000000;stroke-width:0.499999"
     d="M 90.8853 47.3627 L 95.3501 47.3627 L 95.3501 53.1763 L 90.8853 53.1763 Z" /><path
     id="WC-2"
     style="display:inline;fill:#999999;opacity:1;paint-order:stroke fill markers;stop-color:#000000;stroke:#000000;stroke-width:0.499999"
     d="M 78.6142 112.343 L 84.8836 112.343 L 84.8836 120.577 L 78.6142 120.577 Z" /><path
     id="WC-1"
     style="display:inline;fill:#999999;opacity:1;paint-order:stroke fill markers;stop-color:#000000;stroke:#000000;stroke-width:0.499999"
     d="M 10.7418 113.084 L 15.5008 113.084 L 15.5008 120.046 L 10.7418 120.046 Z" /><path
     id="WC-0"
     style="display:inline;fill:#999999;paint-order:stroke fill markers;stop-color:#000000;stroke:#000000;stroke-width:0.499999"
     d="M 28.9118 84.8818 L 36.4107 84.8818 L 36.4107 90.0661 L 28.9118 90.0661 Z" /><path
     id="pool"
     style="fill:#999999;opacity:1;paint-order:stroke fill markers;stop-color:#000000;stroke:#000000;stroke-width:0.499999"
     d="M 96.1562 109.52 L 123.041 109.52 L 123.041 151.755 L 96.1562 151.755 Z" /><path
     id="1A"
     style="fill:#999999;paint-order:stroke fill markers;stop-color:#000000;stroke:#000000;stroke-width:0.495067"
     d="M 79.5066 122.118 L 88.0927 122.118 L 88.0927 131.608 L 79.5066 131.608 Z" /><path
     id="1B"
     style="fill:#999999;paint-order:stroke fill markers;stop-color:#000000;stroke:#000000;stroke-width:0.495067"
     d="M 70.4306 122.118 L 79.0167 122.118 L 79.0167 131.608 L 70.4306 131.608 Z" /><path
     id="1C"
     style="fill:#999999;paint-order:stroke fill markers;stop-color:#000000;stroke:#000000;stroke-width:0.495067"
     d="M 61.3546 122.118 L 69.9407 122.118 L 69.9407 131.608 L 61.3546 131.608 Z" /><path
     id="1D"
     style="fill:#999999;paint-order:stroke fill markers;stop-color:#000000;stroke:#000000;stroke-width:0.495067"
     d="M 52.2785 122.118 L 60.8646 122.118 L 60.8646 131.608 L 52.2785 131.608 Z" /><path
     id="1E"
     style="fill:#999999;paint-order:stroke fill markers;stop-color:#000000;stroke:#000000;stroke-width:0.495067"
     d="M 37.9699 122.118 L 46.556 122.118 L 46.556 131.608 L 37.9699 131.608 Z" /><path
     id="1F"
     style="fill:#999999;paint-order:stroke fill markers;stop-color:#000000;stroke:#000000;stroke-width:0.495067"
     d="M 28.8939 122.118 L 37.48 122.118 L 37.48 131.608 L 28.8939 131.608 Z" /><path
     id="1G"
     style="fill:#999999;paint-order:stroke fill markers;stop-color:#000000;stroke:#000000;stroke-width:0.495067"
     d="M 19.8179 122.118 L 28.404 122.118 L 28.404 131.608 L 19.8179 131.608 Z" /><path
     id="1H"
     style="fill:#999999;opacity:1;paint-order:stroke fill markers;stop-color:#000000;stroke:#000000;stroke-width:0.495067"
     d="M 10.7419 122.118 L 19.3279 122.118 L 19.3279 131.608 L 10.7419 131.608 Z" /><path
     id="gym"
     style="fill:#999999;opacity:1;paint-order:stroke fill markers;stop-color:#000000;stroke:#000000;stroke-width:0.499999"
     d="M 92.7694 153.448 L 123.041 153.448 L 123.041 203.876 L 92.7694 203.876 Z" /><path
     id="martial_arts_field"
     style="fill:#999999;fill-opacity:1;opacity:1;paint-order:stroke fill markers;stop-color:#000000;stroke:#000000;stroke-dasharray:none;stroke-opacity:1;stroke-width:0.499999"
     d="M 92.7694 208.216 L 92.7694 250.299 L 113.954 250.299 L 113.954 239.523 L 123.164 239.523 L 123.164 208.216 L 113.954 208.216 Z" /><path
     id="tennis"
     style="fill:#999999;opacity:1;paint-order:stroke fill markers;stop-color:#000000;stroke:#000000;stroke-width:0.499999"
     d="M 59.7816 252.89 L 123.685 252.89 L 123.685 286.538 L 59.7816 286.538 Z" /><path
     id="handball"
     style="fill:#999999;opacity:1;paint-order:stroke fill markers;stop-color:#000000;stroke:#000000;stroke-width:0.5"
     d="M 13.3871 252.89 L 57.5114 252.89 L 57.5114 286.788 L 13.3871 286.788 Z" /><path
     id="the_student_council_room"
     style="fill:#999999;fill-opacity:1;opacity:1;paint-order:stroke fill markers;stop-color:#000000;stroke:#000000;stroke-dasharray:none;stroke-opacity:1;stroke-width:0.499999"
     d="M 11.1501 90.3161 L 11.1501 103.528 L 22.5675 103.528 L 32.1261 103.528 L 32.1261 93.0622 L 22.5675 93.0622 L 22.5675 90.3161 Z" /><path
     id="janitorial_room"
     style="fill:#999999;opacity:1;paint-order:stroke fill markers;stop-color:#000000;stroke:#000000;stroke-width:0.499999"
     d="M 32.6273 93.0622 L 46.3087 93.0622 L 46.3087 103.528 L 32.6273 103.528 Z" /><path
     id="corporate_planning_office"
     style="fill:#999999;opacity:1;paint-order:stroke fill markers;stop-color:#000000;stroke:#000000;stroke-width:0.499999"
     d="M 51.6494 88.0597 L 75.6694 88.0597 L 75.6694 96.7343 L 51.6494 96.7343 Z" /><path
     id="principals_office"
     style="fill:#999999;opacity:1;paint-order:stroke fill markers;stop-color:#000000;stroke:#000000;stroke-width:0.499999"
     d="M 76.1738 88.0599 L 91.5007 88.0599 L 91.5007 96.7654 L 76.1738 96.7654 Z" /><path
     id="health_room"
     style="fill:#999999;opacity:1;paint-order:stroke fill markers;stop-color:#000000;stroke:#000000;stroke-width:0.499999"
     d="M 95.3028 88.0621 L 107.885 88.0621 L 107.885 96.7654 L 95.3028 96.7654 Z" /><path
     id="japanese_style_room"
     style="fill:#999999;paint-order:stroke fill markers;stop-color:#000000;stroke:#000000;stroke-width:0.499999"
     d="M 112.738 88.0438 L 121.888 88.0438 L 121.888 96.7654 L 112.738 96.7654 Z" /><path
     id="home_economics_room"
     style="fill:#999999;opacity:1;paint-order:stroke fill markers;stop-color:#000000;stroke:#000000;stroke-width:0.499999"
     d="M 113.586 68.1904 L 122.647 68.1904 L 122.647 84.8788 L 113.586 84.8788 Z" /><path
     id="food_class"
     style="fill:#999999;opacity:1;paint-order:stroke fill markers;stop-color:#000000;stroke:#000000;stroke-width:0.499999"
     d="M 113.583 39.5637 L 122.785 39.5637 L 122.785 63.745 L 113.583 63.745 Z" /><path
     id="pc_room"
     style="fill:#999999;opacity:1;paint-order:stroke fill markers;stop-color:#000000;stroke:#000000;stroke-width:0.499999"
     d="M 77.5 61.4679 L 86.7077 61.4679 L 86.7077 79.6379 L 77.5 79.6379 Z" /><path
     id="ll_room"
     style="fill:#999999;paint-order:stroke fill markers;stop-color:#000000;stroke:#000000;stroke-width:0.499999"
     d="M 77.5 39.5389 L 86.7077 39.5389 L 86.7077 57.7088 L 77.5 57.7088 Z" /><path
     id="fountain"
     style="opacity:1;fill:#999999;stroke:#000000;stroke-width:0.499999;paint-order:stroke fill markers;stop-color:#000000"
     d="m 67.447281,71.941963 a 2.5,2.5 0 0 1 -2.5,2.5 2.5,2.5 0 0 1 -2.5,-2.5 2.5,2.5 0 0 1 2.5,-2.5 2.5,2.5 0 0 1 2.5,2.5 z" /><path
     id="grand"
     style="display:inline;fill:#999999;opacity:1;paint-order:stroke fill markers;stop-color:#000000;stroke:#000000;stroke-width:0.5"
     d="M 13.6371 142.359 L 88.9217 142.359 L 88.9217 251.232 L 13.6371 251.232 Z" /><path
     id="students_entrance"
     style="fill:#999999;opacity:1;paint-order:stroke fill markers;stop-color:#000000;stroke:#000000;stroke-width:0.499999"
     d="M 20.3428 111.605 L 46.059 111.605 L 46.059 120.056 L 20.3428 120.056 Z" /><path
     id="teachers_entrance"
     style="fill:#999999;opacity:1;paint-order:stroke fill markers;stop-color:#000000;stroke:#000000;stroke-width:0.499999"
     d="M 48.7835 79.0393 L 72.4637 79.0393 L 72.4637 84.8819 L 48.7835 84.8819 Z" /></svg>
