<svg width="127.85813mm" height="291.02832mm" viewBox="0 0 127.85813 291.02832" version="1.1" id="svg5" xml:space="preserve"
  xmlns="http://www.w3.org/2000/svg"
  xmlns:svg="http://www.w3.org/2000/svg">
  <path id="none-20" style="display:inline;opacity:1;fill:#f3feff;fill-opacity:1;stroke:#000000;stroke-width:0.499999;stroke-dasharray:none;stroke-opacity:1;paint-order:stroke fill markers;stop-color:#000000" d="M 53.0731,0.270996 V 65.0572 H 17.0433 V 78.6869 L 0.249982,78.7329 V 290.778 H 127.608 V 28.3664 h -11.999 c 0.072,-7.5678 0.145,-15.4613 0.217,-23.02914 z" />
  <path id="none-19" style="opacity:1;fill:#999999;fill-opacity:1;stroke:#000000;stroke-width:0.499999;stroke-dasharray:none;stroke-opacity:1;paint-order:stroke fill markers;stop-color:#000000" d="m 77.5,39.5389 v 45.343 H 72.4637 V 79.0393 H 48.7835 v 5.8426 H 28.9118 v 5.4342 H 11.1501 v 13.2119 h 35.1586 v 8.077 H 20.3428 v 1.479 h -9.601 v 18.524 h 40.9076 36.4433 v -4.545 h 7.1515 v -14.72 H 95.0333 L 95.0008,96.7654 H 121.888 V 84.9139 l 0.759,-0.0351 0.294,-36.4418 v -8.8733 h -13.172 v 7.799 H 89.6585 V 39.5864 Z M 90.9173,59.6131 H 109.599 V 78.7892 H 90.9173 Z m 0.5834,37.1523 0.0217,15.5776 H 78.6142 v 8.304 l -26.9648,-0.092 v -7.471 -1.479 -14.5901 z" />
  <path id="none-18" style="opacity:1;fill:#999999;stroke:#000000;stroke-width:0.499999;paint-order:stroke fill markers;stop-color:#000000" d="m 108.385,88.0438 h 3.853 v 8.7216 h -3.853 z" />
  <path id="none-17" style="opacity:1;fill:#999999;stroke:#000000;stroke-width:0.499999;paint-order:stroke fill markers;stop-color:#000000" d="m 77.5,80.1406 h 9.2077 v 4.7413 H 77.5 Z" />
  <path id="none-16" style="opacity:1;fill:#999999;stroke:#000000;stroke-width:0.499999;paint-order:stroke fill markers;stop-color:#000000" d="m 77.5,58.2049 h 9.2077 v 2.8165 H 77.5 Z" />
  <path id="none-15" style="opacity:1;fill:#999999;stroke:#000000;stroke-width:0.499999;paint-order:stroke fill markers;stop-color:#000000" d="m 90.9173,78.7892 h 4.5835 v 6.3426 h -4.5835 z" />
  <path id="none-14" style="opacity:1;fill:#999999;stroke:#000000;stroke-width:0.499999;paint-order:stroke fill markers;stop-color:#000000" d="m 96.0135,78.7892 h 3.9793 v 6.3426 h -3.9793 z" />
  <path id="none-13" style="fill:#999999;stroke:#000000;stroke-width:0.499999;paint-order:stroke fill markers;stop-color:#000000" d="m 95.8501,47.3627 h 4.4649 v 5.8136 h -4.4649 z" />
  <path id="none-12" style="opacity:1;fill:#999999;stroke:#000000;stroke-width:0.499999;paint-order:stroke fill markers;stop-color:#000000" d="m 113.582,63.745 h 9.203 v 3.9847 h -9.203 z" />
  <path id="none-10" style="opacity:1;fill:#999999;stroke:#000000;stroke-width:0.499999;paint-order:stroke fill markers;stop-color:#000000" d="m 7.49649,204.932 h 4.78531 v 81.856 H 7.49649 Z" />
  <path id="none-9" style="opacity:1;fill:#999999;stroke:#000000;stroke-width:0.499999;paint-order:stroke fill markers;stop-color:#000000" d="m 2.58395,144.385 h 7.30521 v 52.411 H 2.58395 Z" />
  <path id="none-8" style="opacity:1;fill:#999999;stroke:#000000;stroke-width:0.499999;paint-order:stroke fill markers;stop-color:#000000" d="m 3.14828,113.949 h 2.43158 v 23.535 H 3.14828 Z" />
  <path id="none-7" style="opacity:1;fill:#999999;stroke:#000000;stroke-width:0.499999;paint-order:stroke fill markers;stop-color:#000000" d="m 7.57723,113.699 h 2.56197 v 20.137 H 7.57723 Z" />
  <path id="none-6" style="opacity:1;fill:#999999;stroke:#000000;stroke-width:0.499999;paint-order:stroke fill markers;stop-color:#000000" d="m 21.2983,137.734 h 9.6649 v 3.427 h -9.6649 z" />
  <path id="none-5" style="opacity:1;fill:#999999;fill-opacity:1;stroke:#000000;stroke-width:0.499999;stroke-dasharray:none;stroke-opacity:1;paint-order:stroke fill markers;stop-color:#000000" d="m 23.585,68.3635 v 13.6979 h 23.7029 c 0,0 -0.1323,-13.7622 0,-13.6979 z" />
  <path id="none-4" style="opacity:1;fill:#999999;stroke:#000000;stroke-width:0.499999;paint-order:stroke fill markers;stop-color:#000000" d="m 8.2211,94.0625 h 1.70087 v 9.4655 H 8.2211 Z" />
  <path id="none-3" style="opacity:1;fill:#999999;stroke:#000000;stroke-width:0.499999;paint-order:stroke fill markers;stop-color:#000000" d="m 10.172,86.8469 h 17.7115 v 2.4256 H 10.172 Z" />
  <path id="none-2" style="opacity:1;fill:#999999;stroke:#000000;stroke-width:0.499999;paint-order:stroke fill markers;stop-color:#000000" d="m 85.3834,112.343 h 5.8933 v 8.234 h -5.8933 z" />
  <path id="none-1" style="fill:#999999;stroke:#000000;stroke-width:0.499999;paint-order:stroke fill markers;stop-color:#000000" d="m 36.9233,84.8818 h 7.6996 v 5.1843 h -7.6996 z" />
  <path id="audiovisual_hall" style="opacity:1;fill:#999999;stroke:#000000;stroke-width:0.499999;paint-order:stroke fill markers;stop-color:#000000" d="M 75.0536,8.34935 H 93.9851 V 37.0072 H 75.0536 Z" />
  <path id="nishi_hall" style="opacity:1;fill:#999999;stroke:#000000;stroke-width:0.499999;paint-order:stroke fill markers;stop-color:#000000" d="M 98.5625,5.91297 H 114.16 V 25.6859 H 98.5625 Z" />
  <path id="WC-4" style="display:inline;opacity:1;fill:#999999;stroke:#000000;stroke-width:0.499999;paint-order:stroke fill markers;stop-color:#000000" d="m 100.505,78.7892 h 9.094 v 6.3426 h -9.094 z" />
  <path id="WC-3" style="display:inline;opacity:1;fill:#999999;stroke:#000000;stroke-width:0.499999;paint-order:stroke fill markers;stop-color:#000000" d="m 90.8853,47.3627 h 4.4648 v 5.8136 h -4.4648 z" />
  <path id="WC-2" style="display:inline;opacity:1;fill:#999999;stroke:#000000;stroke-width:0.499999;paint-order:stroke fill markers;stop-color:#000000" d="m 78.6142,112.343 h 6.2694 v 8.234 h -6.2694 z" />
  <path id="WC-1" style="display:inline;opacity:1;fill:#999999;stroke:#000000;stroke-width:0.499999;paint-order:stroke fill markers;stop-color:#000000" d="m 10.7418,113.084 h 4.759 v 6.962 h -4.759 z" />
  <path id="WC-0" style="display:inline;fill:#999999;stroke:#000000;stroke-width:0.499999;paint-order:stroke fill markers;stop-color:#000000" d="m 28.9118,84.8818 h 7.4989 v 5.1843 h -7.4989 z" />
  <path id="pool" style="opacity:1;fill:#999999;stroke:#000000;stroke-width:0.499999;paint-order:stroke fill markers;stop-color:#000000" d="m 96.1562,109.52 h 26.8848 v 42.235 H 96.1562 Z" />
  <path id="1A" style="fill:#999999;stroke:#000000;stroke-width:0.495067;paint-order:stroke fill markers;stop-color:#000000" d="m 79.5066,122.118 h 8.5861 v 9.49 h -8.5861 z" />
  <path id="1B" style="fill:#999999;stroke:#000000;stroke-width:0.495067;paint-order:stroke fill markers;stop-color:#000000" d="m 70.4306,122.118 h 8.5861 v 9.49 h -8.5861 z" />
  <path id="1C" style="fill:#999999;stroke:#000000;stroke-width:0.495067;paint-order:stroke fill markers;stop-color:#000000" d="m 61.3546,122.118 h 8.5861 v 9.49 h -8.5861 z" />
  <path id="1D" style="fill:#999999;stroke:#000000;stroke-width:0.495067;paint-order:stroke fill markers;stop-color:#000000" d="m 52.2785,122.118 h 8.5861 v 9.49 h -8.5861 z" />
  <path id="1E" style="fill:#999999;stroke:#000000;stroke-width:0.495067;paint-order:stroke fill markers;stop-color:#000000" d="m 37.9699,122.118 h 8.5861 v 9.49 h -8.5861 z" />
  <path id="1F" style="fill:#999999;stroke:#000000;stroke-width:0.495067;paint-order:stroke fill markers;stop-color:#000000" d="M 28.8939,122.118 H 37.48 v 9.49 h -8.5861 z" />
  <path id="1G" style="fill:#999999;stroke:#000000;stroke-width:0.495067;paint-order:stroke fill markers;stop-color:#000000" d="m 19.8179,122.118 h 8.5861 v 9.49 h -8.5861 z" />
  <path id="1H" style="opacity:1;fill:#999999;stroke:#000000;stroke-width:0.495067;paint-order:stroke fill markers;stop-color:#000000" d="m 10.7419,122.118 h 8.586 v 9.49 h -8.586 z" />
  <path id="gym" style="opacity:1;fill:#999999;stroke:#000000;stroke-width:0.499999;paint-order:stroke fill markers;stop-color:#000000" d="m 92.7694,153.448 h 30.2716 v 50.428 H 92.7694 Z" />
  <path id="martial_arts_field" style="opacity:1;fill:#999999;fill-opacity:1;stroke:#000000;stroke-width:0.499999;stroke-dasharray:none;stroke-opacity:1;paint-order:stroke fill markers;stop-color:#000000" d="m 92.7694,208.216 v 42.083 h 21.1846 v -10.776 h 9.21 v -31.307 h -9.21 z" />
  <path id="tennis" style="opacity:1;fill:#999999;stroke:#000000;stroke-width:0.499999;paint-order:stroke fill markers;stop-color:#000000" d="m 59.7816,252.89 h 63.9034 v 33.648 H 59.7816 Z" />
  <path id="handball" style="opacity:1;fill:#999999;stroke:#000000;stroke-width:0.5;paint-order:stroke fill markers;stop-color:#000000" d="m 13.3871,252.89 h 44.1243 v 33.898 H 13.3871 Z" />
  <path id="the_student_council_room" style="opacity:1;fill:#999999;fill-opacity:1;stroke:#000000;stroke-width:0.499999;stroke-dasharray:none;stroke-opacity:1;paint-order:stroke fill markers;stop-color:#000000" d="m 11.1501,90.3161 v 13.2119 h 11.4174 9.5586 V 93.0622 h -9.5586 v -2.7461 z" />
  <path id="janitorial_room" style="opacity:1;fill:#999999;stroke:#000000;stroke-width:0.499999;paint-order:stroke fill markers;stop-color:#000000" d="M 32.6273,93.0622 H 46.3087 V 103.528 H 32.6273 Z" />
  <path id="corporate_planning_office" style="opacity:1;fill:#999999;stroke:#000000;stroke-width:0.499999;paint-order:stroke fill markers;stop-color:#000000" d="m 51.6494,88.0597 h 24.02 v 8.6746 h -24.02 z" />
  <path id="principals_office" style="opacity:1;fill:#999999;stroke:#000000;stroke-width:0.499999;paint-order:stroke fill markers;stop-color:#000000" d="m 76.1738,88.0599 h 15.3269 v 8.7055 H 76.1738 Z" />
  <path id="health_room" style="opacity:1;fill:#999999;stroke:#000000;stroke-width:0.499999;paint-order:stroke fill markers;stop-color:#000000" d="m 95.3028,88.0621 h 12.5822 v 8.7033 H 95.3028 Z" />
  <path id="japanese_style_room" style="fill:#999999;stroke:#000000;stroke-width:0.499999;paint-order:stroke fill markers;stop-color:#000000" d="m 112.738,88.0438 h 9.15 v 8.7216 h -9.15 z" />
  <path id="home_economics_room" style="opacity:1;fill:#999999;stroke:#000000;stroke-width:0.499999;paint-order:stroke fill markers;stop-color:#000000" d="m 113.586,68.1904 h 9.061 v 16.6884 h -9.061 z" />
  <path id="food_class" style="opacity:1;fill:#999999;stroke:#000000;stroke-width:0.499999;paint-order:stroke fill markers;stop-color:#000000" d="m 113.583,39.5637 h 9.202 V 63.745 h -9.202 z" />
  <path id="pc_room" style="opacity:1;fill:#999999;stroke:#000000;stroke-width:0.499999;paint-order:stroke fill markers;stop-color:#000000" d="m 77.5,61.4679 h 9.2077 v 18.17 H 77.5 Z" />
  <path id="ll_room" style="fill:#999999;stroke:#000000;stroke-width:0.499999;paint-order:stroke fill markers;stop-color:#000000" d="m 77.5,39.5389 h 9.2077 V 57.7088 H 77.5 Z" />
  <path id="fountain" style="opacity:1;fill:#999999;stroke:#000000;stroke-width:0.499999;paint-order:stroke fill markers;stop-color:#000000" d="m 67.447281,71.941963 a 2.5,2.5 0 0 1 -2.5,2.5 2.5,2.5 0 0 1 -2.5,-2.5 2.5,2.5 0 0 1 2.5,-2.5 2.5,2.5 0 0 1 2.5,2.5 z" />
  <path id="grand" style="display:inline;opacity:1;fill:#999999;stroke:#000000;stroke-width:0.5;paint-order:stroke fill markers;stop-color:#000000" d="M 13.6371,142.359 H 88.9217 V 251.232 H 13.6371 Z" />
  <path id="students_entrance" style="opacity:1;fill:#999999;stroke:#000000;stroke-width:0.499999;paint-order:stroke fill markers;stop-color:#000000" d="M 20.3428,111.605 H 46.059 v 8.451 H 20.3428 Z" />
  <path id="teachers_entrance" style="opacity:1;fill:#999999;stroke:#000000;stroke-width:0.499999;paint-order:stroke fill markers;stop-color:#000000" d="m 48.7835,79.0393 h 23.6802 v 5.8426 H 48.7835 Z" />
</svg>
