<?xml version="1.0" encoding="UTF-8" standalone="no"?>
<svg width="1991.3156" height="4493.0317" viewBox="0 0 1991.3156 4493.0317" version="1.1" xml:space="preserve" style="clip-rule:evenodd;fill-rule:evenodd;stroke-linejoin:round;stroke-miterlimit:2" id="svg77"
    xmlns="http://www.w3.org/2000/svg"
    xmlns:svg="http://www.w3.org/2000/svg">
    <defs id="defs77" />
    <path d="m 1822.4979,407.8607 h 168.8176 v 4085.171 H 0 V 1131.161 H 271.41196 V 937.3392 H 842.21111 V 0 h 980.28679 z" style="fill:#ffffff;fill-opacity:0.53;stroke-width:2.30821" id="base" />
    <path id="enclosure-classroom_building" d="m 315.32101,1697.878 h -147.071 v 284.95 H 1372.661 v -107.62 h 112.78 v -117.08 l -112.78,0.35 v -60.25 l -147.07,-0.35 v 121.2 H 807.86101 v -148.81 h -492.54 z" style="fill:#fd0000;fill-opacity:0.5" />
    <path id="enclosure-management_building2" d="m 594.53101,1518.638 h -426.281 v -179.81 h 281.438 v -84.93 h 288.683 v 125.87 h -143.84" style="fill:#fd0000;fill-opacity:0.5" />
    <path id="enclosure-nishi_hall" style="fill:#fd0000;fill-opacity:0.5;stroke-width:1.0195" d="m 1559.2221,31.97536 h 251.8807 v 331.66366 h -251.8807 z" />
    <path id="enclosure-audiovisual_hall" d="M 1496.741,68.417 V 489.22 h -73.24 l 0.1,43.395 h -132.59 l -43.62,-43.395 h -57.59 V 68.417 Z" style="fill:#fd0000;fill-opacity:0.5" />
    <path d="m 1924.8528,1606.968 v 766.2 h -439.4183 v -720.55 h 322.7796 v -45.65 z" style="fill:#fd0000;fill-opacity:0.5;stroke-width:1.01868" id="enclosure-pool" />
    <path d="m 1895.761,3210.8174 v 484.5157 h -143.51 v 144.6239 h -291.15 v -629.1396 z" style="fill:#fd0000;fill-opacity:0.5;stroke-width:0.996505" id="enclosure-martial_arts_field" />
    <path id="enclosure-gym" style="fill:#fd0000;fill-opacity:0.5;stroke-width:0.990694" d="m 1451.348,2373.1672 h 444.409 v 752.8682 h -444.409 z" />
    <path id="enclosure-clubroom_building_0" style="fill:#fd0000;fill-opacity:0.5;stroke-width:1.09782" d="m 14.81486,2153.1921 h 100.30226 v 571.4297 H 14.81486 Z" />
    <path id="enclosure-clubroom_building_1" style="fill:#fd0000;fill-opacity:0.5" d="m 14.81601,2737.3679 h 100.30301 v 273.126 H 14.81601 Z" />
    <path d="m 1485.441,2326.1339 v 47.0513 h -34.09 v 752.8729 h 444.41 v 84.7705 h -479.57 v -884.6947 z" style="fill:#fd0000;fill-opacity:0.5;stroke-width:1.14165" id="enclosure-gym_passage" />
    <path id="enclosure-management_building1" d="m 878.89101,1444.778 v -181.06 l 49.48,-50.31 H 1134.561 v 50.31 h 88.9 V 554.085 h 200.14 v 138.156 h 228.12 v 145.378 l -228.12,0.457 v 353.562 h 315.53 V 554.085 h 182.86 v 890.693 z" style="fill:#fd0000;fill-opacity:0.5" />
    <path id="none-wc" style="fill:#191919;fill-opacity:0.5;stroke-width:1.22062" d="m 168.24985,1697.8771 h 73.53522 v 121.2076 h -73.53522 z" />
    <path id="none-stairs" style="fill:#191919;fill-opacity:0.5;stroke-width:1.22062" d="m 241.78525,1697.8771 h 73.53522 v 121.2076 h -73.53522 z" />
    <path id="none-wc1" style="fill:#191919;fill-opacity:0.5;stroke-width:1.22062" d="m 1225.586,1697.8771 h 73.5352 v 121.2076 h -73.5352 z" />
    <path id="none-stairs1" style="fill:#191919;fill-opacity:0.5;stroke-width:1.22062" d="m 1299.1259,1697.8771 h 73.5353 v 121.2076 h -73.5353 z" />
    <path id="none-wc2" style="fill:#191919;fill-opacity:0.5;stroke-width:1.13333" d="m 1504.646,692.24127 h 73.5352 v 104.49099 h -73.5352 z" />
    <path id="none-stairs2" style="fill:#191919;fill-opacity:0.5;stroke-width:1.13333" d="m 1578.186,692.24127 h 73.5352 v 104.49099 h -73.5352 z" />
    <path id="none-stairs3" style="fill:#191919;fill-opacity:0.5;stroke-width:1.05541" d="m 449.68821,1253.9023 h 144.8399 v 84.9269 h -144.8399 z" />
    <path id="none-wc3" style="fill:#191919;fill-opacity:0.5;stroke-width:1.05176" d="m 594.52801,1253.9023 h 143.8376 v 84.9269 h -143.8376 z" />
    <path id="none-stairs4" style="fill:#191919;fill-opacity:0.5;stroke-width:1.08767" d="m 723.79331,1875.6082 h 93.3184 v 107.2202 h -93.3184 z" />
    <path id="none-wc4" style="fill:#191919;fill-opacity:0.5;stroke-width:1.26289" d="m 1511.5492,1721.1698 h 111.5869 v 154.4278 h -111.5869 z" />
    <path id="none" style="fill:#191919;fill-opacity:0.5;stroke-width:1.02491" d="m 1511.5495,1652.6111 h 296.6803 v 68.5619 h -296.6803 z" />
    <path id="none-stairs5" style="fill:#191919;fill-opacity:0.5;stroke-width:1.05425" d="m 1808.2246,1606.9722 h 116.6411 v 45.6535 h -116.6411 z" />
    <path id="none-stairs6" style="fill:#191919;fill-opacity:0.5;stroke-width:1.20262" d="m 1416.1936,2269.8113 h 48.527 v 56.3025 h -48.527 z" />
    <path id="none-stairs7" style="fill:#191919;fill-opacity:0.5;stroke-width:0.88402" d="m 1416.1895,3210.8193 h 24.2634 v 120.7092 h -24.2634 z" />
    <path id="none-stairs8" style="fill:#191919;fill-opacity:0.5;stroke-width:1.00632" d="m 1507.7146,1191.6808 h 84.1052 v 72.0296 h -84.1052 z" />
    <path id="none-wc5" style="fill:#191919;fill-opacity:0.5;stroke-width:1.33183" d="m 1591.8166,1191.6808 h 147.3165 v 72.0296 h -147.3165 z" />
    <path id="none-ev" style="fill:#191919;fill-opacity:0.5;stroke-width:0.545466" d="m 1458.3226,1227.6306 h 49.3908 v 36.0372 h -49.3908 z" />
    <path id="none-wc6" style="fill:#191919;fill-opacity:0.5;stroke-width:0.545126" d="m 1458.3226,1191.6383 h 49.3908 v 35.9924 h -49.3908 z" />
    <path id="office_warehouse" style="fill:#0015fe;fill-opacity:0.5;stroke-width:1.11905" d="m 1223.473,1127.8582 h 159.195 v 135.8626 h -159.195 z" />
    <path id="pc_room" style="fill:#0015fe;fill-opacity:0.5;stroke-width:1.41288" d="m 1223.473,911.2744 h 159.195 v 216.5787 h -159.195 z" />
    <path id="pc_preparation_room" style="fill:#0015fe;fill-opacity:0.5;stroke-width:0.823627" d="m 1223.473,837.67682 h 159.195 v 73.59798 h -159.195 z" />
    <path id="ll_room" style="fill:#0015fe;fill-opacity:0.5;stroke-width:1.41288" d="m 1223.473,621.10443 h 159.195 v 216.57866 h -159.195 z" />
    <path id="ll_preparation_room" style="fill:#0015fe;fill-opacity:0.5;stroke-width:0.785922" d="m 1223.473,554.08637 h 159.195 v 67.01375 h -159.195 z" />
    <path id="teachers_entrance" d="m 1134.561,1263.718 v -50.31 H 928.37101 l -49.48,50.31 z" style="fill:#0015fe;fill-opacity:0.5" />
    <path id="home_economics_room" style="fill:#0015fe;fill-opacity:0.5;stroke-width:1.00397" d="m 1780.0676,1010.8928 h 141.911 v 252.8228 h -141.911 z" />
    <path id="home_economics_preparation_room" style="fill:#0015fe;fill-opacity:0.5;stroke-width:0.831015" d="m 1780.0676,837.67664 h 141.911 v 173.21606 h -141.911 z" />
    <path id="food_room" style="fill:#0015fe;fill-opacity:0.5;stroke-width:1.06331" d="m 1780.0676,554.08429 h 141.911 v 283.59204 h -141.911 z" />
    <path id="straight_course" style="fill:#0015fe;fill-opacity:0.5;stroke-width:1.19351" d="m 89.85673,3185.2886 h 66.48628 V 4401.7388 H 89.85673 Z" />
    <path id="bicycle_parking_1st_1" style="fill:#0015fe;fill-opacity:0.5;stroke-width:0.706106" d="m 42.89601,2090.068 v -373.57 h 25.984 v 373.57 z" />
    <path id="bicycle_parking_1st_0" style="fill:#0015fe;fill-opacity:0.5;stroke-width:0.490598" d="m 120.61301,1896.828 v -180.33 h 25.984 v 180.33 z" />
    <path id="bicycle_parking_2nd_0" style="fill:#0015fe;fill-opacity:0.5;stroke-width:0.45508" d="m 130.35901,1546.778 v -155.17 h 25.984 v 155.17 z" />
    <path id="bicycle_parking_2nd_2" style="fill:#0015fe;fill-opacity:0.5;stroke-width:0.978967" d="m 377.6948,1153.0557 h 360.67061 v 51.7328 H 377.6948 Z" />
    <path id="bicycle_parking_3nd_1" style="fill:#0015fe;fill-opacity:0.5;stroke-width:0.978967" d="m 377.6948,999.2295 h 360.67061 v 51.7328 H 377.6948 Z" />
    <path id="bicycle_parking_3nd_0" style="fill:#0015fe;fill-opacity:0.5;stroke-width:0.978967" d="m 377.6948,1076.4106 h 360.67061 v 51.7329 H 377.6948 Z" />
    <path d="m 1895.761,3210.8174 v 484.5157 h -143.51 v 144.6239 h -291.15 v -629.1396 z" style="fill:#0015fe;fill-opacity:0.5;stroke-width:0.996505" id="martial_arts_field_1f" />
    <path id="gym_1f" style="fill:#0015fe;fill-opacity:0.5;stroke-width:0.990694" d="m 1451.348,2373.1672 h 444.409 v 752.8682 h -444.409 z" />
    <path id="bicycle_parking_teachers" style="fill:#0015fe;fill-opacity:0.5;stroke-width:0.580018" d="m 705.37101,1249.608 h -252.065 v -25.99 h 252.065 z" />
    <path id="bicycle_parking_1st_2" style="fill:#0015fe;fill-opacity:0.5;stroke-width:0.430542" d="m 469.15101,2116.048 h -138.887 v -25.99 h 138.887 z" />
    <path id="bicycle_parking_2nd_1" style="fill:#0015fe;fill-opacity:0.5;stroke-width:0.869154" d="m 160.21042,1280.0826 h 284.29413 v 51.7329 H 160.21042 Z" />
    <path id="handball_court" style="fill:#0015fe;fill-opacity:0.5;stroke-width:0.979934" d="m 186.517,3891.4482 h 670.97591 v 536.7337 H 186.517 Z" />
    <path id="clubrooms" style="fill:#0015fe;fill-opacity:0.5;stroke-width:1.0407" d="m 1839.4687,1652.6199 h 85.9365 v 673.5039 h -85.9365 z" />
    <path id="training_room" style="fill:#0015fe;fill-opacity:0.5;stroke-width:1.44734" d="m 1623.1311,1721.1769 h 185.0932 v 154.4268 h -185.0932 z" />
    <path id="clubroom_building_0_1f" style="fill:#0015fe;fill-opacity:0.5;stroke-width:1.09782" d="m 14.81486,2153.1921 h 100.30226 v 571.4297 H 14.81486 Z" />
    <path id="clubroom_building_1" style="fill:#0015fe;fill-opacity:0.5" d="m 14.81601,2737.3679 h 100.30301 v 273.126 H 14.81601 Z" />
    <path id="fountain" style="fill:#0015fe;fill-opacity:0.5;stroke-width:0.906355" d="m 1064.6228,1061.134 a 43.502323,43.502323 0 0 1 -43.5024,43.5024 43.502323,43.502323 0 0 1 -43.50229,-43.5024 43.502323,43.502323 0 0 1 43.50229,-43.5023 43.502323,43.502323 0 0 1 43.5024,43.5023 z" />
    <path id="gate_north_0" style="fill:#0015fe;fill-opacity:0.5;stroke-width:0.878907" d="M 943.42101,112.029 V 96.333 H 1043.721 v 15.696 z" />
    <path id="nishi_hall_1f" style="fill:#0015fe;fill-opacity:0.5;stroke-width:0.989704" d="m 1559.2221,31.97476 h 251.8807 v 312.55841 h -251.8807 z" />
    <path id="audiovisual_hall_1f" d="M 1496.741,68.417 V 489.22 h -73.24 l 0.1,43.395 h -132.59 l -43.62,-43.395 h -57.59 V 68.417 Z" style="fill:#0015fe;fill-opacity:0.5" />
    <path id="_1h" style="fill:#0015fe;fill-opacity:0.5;stroke-width:1.3666" d="M 168.24943,1860.0134 H 307.13576 V 1982.81 H 168.24943 Z" />
    <path id="_1g" style="fill:#0015fe;fill-opacity:0.5;stroke-width:1.3666" d="M 307.13541,1860.0134 H 446.02175 V 1982.81 H 307.13541 Z" />
    <path id="_1f" style="fill:#0015fe;fill-opacity:0.5;stroke-width:1.3666" d="M 446.02237,1860.0134 H 584.90871 V 1982.81 H 446.02237 Z" />
    <path id="_1e" style="fill:#0015fe;fill-opacity:0.5;stroke-width:1.3666" d="m 584.90841,1860.0134 h 138.8863 V 1982.81 h -138.8863 z" />
    <path id="_1d" style="fill:#0015fe;fill-opacity:0.5;stroke-width:1.3666" d="m 817.11341,1860.0134 h 138.8863 V 1982.81 h -138.8863 z" />
    <path id="_1c" style="fill:#0015fe;fill-opacity:0.5;stroke-width:1.3666" d="M 956.00031,1860.0134 H 1094.8867 V 1982.81 H 956.00031 Z" />
    <path id="_1b" style="fill:#0015fe;fill-opacity:0.5;stroke-width:1.3666" d="m 1094.8903,1860.0134 h 138.8864 V 1982.81 h -138.8864 z" />
    <path id="_1a" style="fill:#0015fe;fill-opacity:0.5;stroke-width:1.3666" d="m 1233.7704,1860.0134 h 138.8863 V 1982.81 h -138.8863 z" />
    <path id="janitorial_room" style="fill:#0015fe;fill-opacity:0.5;stroke-width:1.07829" d="m 449.68802,1379.7758 h 144.83999 v 138.8624 H 449.68802 Z" />
    <path id="pilotis" style="fill:#0015fe;fill-opacity:0.5;stroke-width:0.867834" d="m 1511.5448,1875.6073 h 327.928 v 497.5664 h -327.928 z" />
    <path id="students_entrance" style="fill:#0015fe;fill-opacity:0.5;stroke-width:1.02485" d="m 315.32096,1670.2756 h 405.13545 v 148.8161 H 315.32096 Z" />
    <path d="m 349.60003,1379.7706 h 100.08602 v 138.8601 H 168.24837 v -179.8062 h 181.35166 z" style="fill:#0015fe;fill-opacity:0.5;stroke-width:1.1844" id="the_student_council_room" />
    <path id="gate_east_0" style="fill:#0015fe;fill-opacity:0.5;stroke-width:0.622432" d="m 1973.561,1600.248 h -15.7 v -50.31 h 15.7 z" />
    <path id="gate_nishi_hall_0" style="fill:#0015fe;fill-opacity:0.5;stroke-width:0.490121" d="M 1525.811,29.072 V 13.376 h 31.2 v 15.696 z" />
    <path id="gate_nishi_hall_1" style="fill:#0015fe;fill-opacity:0.5;stroke-width:0.382463" d="M 1675.661,29.072 V 13.376 h 19 v 15.696 z" />
    <path id="gate_west_2" style="fill:#0015fe;fill-opacity:0.5;stroke-width:0.622432" d="m 25.71401,3137.108 h -15.696 v -50.31 h 15.696 z" />
    <path id="gate_west_0" style="fill:#0015fe;fill-opacity:0.5;stroke-width:1.10205" d="m 27.198,1525.6751 h 15.696 v 157.7005 H 27.198 Z" />
    <path id="gate_west_1" style="fill:#0015fe;fill-opacity:0.5;stroke-width:0.776694" d="m 27.198,1204.781 h 15.696 v 78.3301 H 27.198 Z" />
    <path id="corporate_planning_office" style="fill:#0015fe;fill-opacity:0.5;stroke-width:1.29365" d="M 948.24021,1304.6554 H 1223.4605 V 1444.775 H 948.24021 Z" />
    <path id="principals_office" style="fill:#0015fe;fill-opacity:0.5;stroke-width:1.15966" d="m 1223.4658,1304.6581 h 159.1949 v 140.1198 h -159.1949 z" />
    <path id="japanese_style_room" style="fill:#0015fe;fill-opacity:0.5;stroke-width:1.0949" d="m 1780.0771,1304.6581 h 141.9111 v 140.1198 h -141.9111 z" />
    <path id="health_room" style="fill:#0015fe;fill-opacity:0.5;stroke-width:1.34059" d="m 1485.4499,1304.6581 h 212.7445 v 140.1198 h -212.7445 z" />
    <path id="health_consultation_room" style="fill:#0015fe;fill-opacity:0.5;stroke-width:0.831729" d="m 1698.1906,1304.6581 h 81.8898 v 140.1198 h -81.8898 z" />
    <path id="tennis_court" style="fill:#0015fe;fill-opacity:0.5;stroke-width:1.00128" d="M 878.89001,3891.448 H 1909.9929 v 536.733 H 878.89001 Z" />
    <path id="grand" style="fill:#0015fe;fill-opacity:0.5;stroke-width:0.987618" d="m 186.5167,2151.2666 h 1181.1438 v 1718.463 H 186.5167 Z" />
</svg>
