<?xml version="1.0" encoding="UTF-8" standalone="no"?>
<svg width="1182" height="1182" viewBox="0 0 1182 1182" version="1.1" xml:space="preserve" style="clip-rule:evenodd;fill-rule:evenodd;stroke-linejoin:round;stroke-miterlimit:2" id="svg"
   xmlns="http://www.w3.org/2000/svg"
   xmlns:svg="http://www.w3.org/2000/svg">
   <path d="m 1041.0082,647.45717 c 0,185.2398 -203.13507,337.66845 -449.99524,337.66845 -246.8594,0 -449.99447,-152.42865 -449.99447,-337.66845 0,-185.2398 203.13507,-337.66921 449.99447,-337.66921 v 0 c 246.86017,0 449.99524,152.42941 449.99524,337.66921 z" style="display:inline;fill:#82c3ff;stroke-width:0.761987" />
   <path style="display:inline;fill:#82c3ff;stroke-width:0.761987" d="M 141.00858,534.54437 H 1040.9914 V 647.45559 H 141.00858 Z" />
   <path d="m 1041.0082,534.54593 c 0,185.1438 -203.13507,337.49395 -449.99524,337.49395 v 0 c -246.8594,0 -449.99447,-152.35015 -449.99447,-337.49395 v 0 c 0,-185.14455 203.13507,-337.49471 449.99447,-337.49471 v 0 c 246.86017,0 449.99524,152.35016 449.99524,337.49471 z" style="display:inline;fill:#bee0ff;stroke-width:0.761987" />
   <path d="m 973.50834,534.54517 c 0,157.37242 -172.66473,286.87058 -382.49538,286.87058 -209.83065,0 -382.49538,-129.49816 -382.49538,-286.87058 0,-157.37165 172.66473,-286.86982 382.49538,-286.86982 209.83065,0 382.49538,129.49817 382.49538,286.86982 z" style="display:inline;fill:#f3f9ff;stroke-width:0.761987" />
   <path d="m 889.45584,604.0902 c 4.93386,3.70097 6.7352,10.27159 4.36771,15.9682 -2.36673,5.70347 -8.28509,9.07374 -14.39165,8.19212 -118.27943,-17.06089 -407.64552,-58.79796 -557.05288,-80.34314 -6.64301,-0.95935 -11.5723,-6.64834 -11.5723,-13.36068 0,-6.71159 4.92929,-12.4082 11.5723,-13.36678 149.40736,-21.54518 438.77345,-63.28226 557.05288,-80.34391 6.10656,-0.88162 12.02492,2.49551 14.39165,8.19212 2.36749,5.69662 0.56615,12.26723 -4.36771,15.96896 -26.80442,20.0997 -59.79922,44.84599 -78.32846,58.7492 -3.39389,2.54504 -5.39486,6.54928 -5.39486,10.80041 0,4.24426 2.00097,8.24927 5.39486,10.7943 18.52924,13.90246 51.52404,38.64875 78.32846,58.7492 z" style="display:inline;fill:#bee0ff;stroke-width:0.761987" />
   <path d="m 578.143,277.51324 31.86706,36.16467 v -36.49918 c 0,-2.37207 0.66979,-4.14369 2.00936,-5.31562 1.37691,-1.20013 3.21863,-1.80058 5.52517,-1.80058 2.38121,0 4.26027,0.60045 5.63718,1.80058 1.37614,1.17193 2.06498,2.94355 2.06498,5.31562 v 48.26121 c 0,5.38572 -2.97708,8.07858 -8.92972,8.07858 -1.48817,0 -2.82774,-0.16763 -4.01872,-0.50215 -1.19023,-0.30708 -2.30654,-0.80923 -3.34818,-1.50721 -1.04163,-0.69721 -2.00935,-1.50644 -2.9024,-2.42769 -0.89305,-0.94867 -1.7861,-1.91106 -2.67839,-2.88793 l -31.08602,-35.74633 v 35.95588 c 0,2.34387 -0.72617,4.11549 -2.177,5.31562 -1.45082,1.20013 -3.31159,1.79981 -5.58079,1.79981 -2.34387,0 -4.22293,-0.59968 -5.63718,-1.79981 -1.41349,-1.22756 -2.12061,-2.99994 -2.12061,-5.31562 v -47.34073 c 0,-2.00936 0.29794,-3.58591 0.89305,-4.72965 0.70712,-1.25576 1.87906,-2.27453 3.51581,-3.05633 1.63751,-0.80923 3.40456,-1.21385 5.3019,-1.21385 1.48893,0 2.75382,0.18212 3.79546,0.54482 1.07897,0.36271 2.00936,0.85114 2.7904,1.46454 0.81837,0.61416 1.63675,1.40968 2.45588,2.38578 0.85571,0.97687 1.72971,1.99565 2.62276,3.05557 z" style="display:inline;fill:#ff0018;stroke-width:0.761987" />
</svg>