<?xml version="1.0" encoding="UTF-8" standalone="no"?>
<svg width="1182" height="1182" viewBox="0 0 1182 1182" version="1.1" xml:space="preserve" style="clip-rule:evenodd;fill-rule:evenodd;stroke-linejoin:round;stroke-miterlimit:2" id="svg"
   xmlns="http://www.w3.org/2000/svg"
   xmlns:svg="http://www.w3.org/2000/svg">
   <path style="fill:#82c3ff;stroke-width:0.510279" d="M 1181.5717,665.09179 A 590.55426,443.14246 0 0 1 591.01741,1108.2342 590.55426,443.14246 0 0 1 0.46314349,665.09179 590.55426,443.14246 0 0 1 591.01741,221.94934 590.55426,443.14246 0 0 1 1181.5717,665.09179 Z" />
   <path style="fill:#82c3ff;stroke-width:0.636507" d="M 0.44990202,516.90979 H 1181.5501 V 665.09022 H 0.44990202 Z" />
   <path style="fill:#bee0ff;stroke-width:0.510147" d="M 1181.5717,516.91156 A 590.55426,442.91336 0 0 1 591.01741,959.82492 590.55426,442.91336 0 0 1 0.46314349,516.91156 590.55426,442.91336 0 0 1 591.01741,73.998195 590.55426,442.91336 0 0 1 1181.5717,516.91156 Z" />
   <path style="fill:#f3f9ff;stroke-width:0.433625" d="M 1092.988,516.91143 A 501.97095,376.47623 0 0 1 591.0171,893.38766 501.97095,376.47623 0 0 1 89.046151,516.91143 501.97095,376.47623 0 0 1 591.0171,140.43521 501.97095,376.47623 0 0 1 1092.988,516.91143 Z" />
   <path d="m 982.68111,608.17863 c 6.47455,4.85749 8.83893,13.48069 5.73225,20.9566 -3.10669,7.48516 -10.87341,11.90778 -18.88756,10.75125 C 814.30145,617.49577 434.54891,562.7218 238.47301,534.44659 c -8.71797,-1.25832 -15.18703,-8.72497 -15.18703,-17.53322 0,-8.80825 6.46906,-16.28415 15.18703,-17.54247 196.0759,-28.27521 575.82844,-83.04918 731.05279,-105.43988 8.01415,-1.15655 15.78087,3.27533 18.88756,10.75124 3.10668,7.4759 0.7423,16.0991 -5.73225,20.95659 -35.17704,26.37848 -78.4782,58.85426 -102.79558,77.0999 -4.45384,3.3401 -7.0794,8.59544 -7.0794,14.17461 0,5.56993 2.62556,10.82526 7.0794,14.16536 24.31738,18.24566 67.61854,50.72145 102.79558,77.09991 z" style="fill:#bee0ff;stroke-width:1.12777" />
   <path d="m 574.127,179.59293 41.821,47.461 v -47.9 c 0,-3.113 0.879,-5.4383 2.637,-6.9764 1.807,-1.5747 4.224,-2.3621 7.251,-2.3621 3.125,0 5.591,0.7874 7.398,2.3621 1.806,1.5381 2.71,3.8634 2.71,6.9764 v 63.336 c 0,7.068 -3.907,10.602 -11.719,10.602 -1.953,0 -3.711,-0.22 -5.274,-0.659 -1.562,-0.403 -3.027,-1.062 -4.394,-1.978 -1.367,-0.915 -2.637,-1.977 -3.809,-3.186 -1.172,-1.245 -2.344,-2.508 -3.515,-3.79 l -40.796,-46.912 v 47.187 c 0,3.076 -0.953,5.401 -2.857,6.976 -1.904,1.575 -4.346,2.362 -7.324,2.362 -3.076,0 -5.542,-0.787 -7.398,-2.362 -1.855,-1.611 -2.783,-3.937 -2.783,-6.976 v -62.128 c 0,-2.637 0.391,-4.706 1.172,-6.207 0.928,-1.6484 2.466,-2.9851 4.614,-4.0105 2.149,-1.062 4.468,-1.593 6.958,-1.593 1.954,0 3.614,0.2381 4.981,0.7141 1.416,0.4761 2.637,1.117 3.662,1.9226 1.074,0.8057 2.148,1.8498 3.223,3.1308 1.123,1.282 2.27,2.619 3.442,4.01 z" style="fill:#ff0018;stroke-width:0.866025" />
</svg>
