<?xml version="1.0" encoding="UTF-8" standalone="no"?>
<svg
   width="1991.3156"
   height="4493.0317"
   viewBox="0 0 1991.3156 4493.0317"
   version="1.1"
   xml:space="preserve"
   style="clip-rule:evenodd;fill-rule:evenodd;stroke-linejoin:round;stroke-miterlimit:2"
   id="svg82"
   xmlns="http://www.w3.org/2000/svg"
   xmlns:svg="http://www.w3.org/2000/svg"><defs
   id="defs82" />
    <path
   d="m 1822.4979,407.8607 h 168.8176 v 4085.171 H 0 V 1131.161 H 271.41196 V 937.3392 H 842.21111 V 0 h 980.28679 z"
   style="fill:#ffffff;fill-opacity:0.53;stroke-width:2.30821"
   id="base" />
    <path
   id="enclosure-classroom_building"
   d="m 315.32101,1697.878 h -147.071 v 284.95 H 1372.661 v -107.62 h 112.78 v -117.08 l -112.78,0.35 v -60.25 l -147.07,-0.35 v 121.2 H 807.86101 v -148.81 h -492.54 z"
   style="fill:#fd0000;fill-opacity:0.5" />
    <path
   id="enclosure-management_building2"
   d="m 594.53101,1518.638 h -426.281 v -179.81 h 281.438 v -84.93 h 288.683 v 125.87 h -143.84"
   style="fill:#fd0000;fill-opacity:0.5" />
    <path
   id="enclosure-nishi_hall"
   style="fill:#fd0000;fill-opacity:0.5;stroke-width:1.0195"
   d="m 1559.2221,31.97536 h 251.8806 v 331.66366 h -251.8806 z" />
    <path
   id="enclosure-audiovisual_hall"
   d="M 1496.741,68.417 V 489.22 h -73.24 l 0.1,43.395 h -132.59 l -43.62,-43.395 h -57.59 V 68.417 Z"
   style="fill:#fd0000;fill-opacity:0.5" />
    <path
   d="m 1924.8528,1606.968 v 766.2 h -439.4183 v -720.55 h 322.7796 v -45.65 z"
   style="fill:#fd0000;fill-opacity:0.5;stroke-width:1.01868"
   id="enclosure-pool" />
    <path
   d="m 1895.761,3210.8174 v 484.5157 h -143.51 v 144.6239 h -291.15 v -629.1396 z"
   style="fill:#fd0000;fill-opacity:0.5;stroke-width:0.996505"
   id="enclosure-martial_arts_field" />
    <path
   id="enclosure-gym"
   style="fill:#fd0000;fill-opacity:0.5;stroke-width:0.990694"
   d="m 1451.3479,2373.1672 h 444.409 v 752.8682 h -444.409 z" />
    <path
   id="enclosure-clubroom_building_0"
   style="fill:#fd0000;fill-opacity:0.5;stroke-width:1.09782"
   d="m 14.81487,2153.1921 h 100.30227 v 571.4297 H 14.81487 Z" />
    <path
   id="enclosure-clubroom_building_1"
   style="fill:#fd0000;fill-opacity:0.5"
   d="m 14.81603,2737.3679 h 100.303 v 273.126 h -100.303 z" />
    <path
   d="m 1485.441,2326.1339 v 47.0513 h -34.09 v 752.8729 h 444.41 v 84.7705 h -479.57 v -884.6947 z"
   style="fill:#fd0000;fill-opacity:0.5;stroke-width:1.14165"
   id="enclosure-gym_passage" />
    <path
   id="enclosure-management_building1"
   d="m 878.89101,1444.778 v -181.06 l 49.48,-50.31 H 1134.561 v 50.31 h 88.9 V 554.085 h 200.14 v 138.156 h 228.12 v 145.378 l -228.12,0.457 v 353.562 h 315.53 V 554.085 h 182.86 v 890.693 z"
   style="fill:#fd0000;fill-opacity:0.5" />
    <path
   id="none-wc"
   style="fill:#191919;fill-opacity:0.5;stroke-width:1.22062"
   d="M 168.24978,1697.8771 H 241.785 v 121.2076 h -73.53522 z" />
    <path
   id="none-stairs"
   style="fill:#191919;fill-opacity:0.5;stroke-width:1.22062"
   d="m 241.78518,1697.8771 h 73.53522 v 121.2076 h -73.53522 z" />
    <path
   id="none-wc1"
   style="fill:#191919;fill-opacity:0.5;stroke-width:1.22062"
   d="m 1225.586,1697.8771 h 73.5352 v 121.2076 h -73.5352 z" />
    <path
   id="none-stairs1"
   style="fill:#191919;fill-opacity:0.5;stroke-width:1.22062"
   d="m 1299.1259,1697.8771 h 73.5352 v 121.2076 h -73.5352 z" />
    <path
   id="none-wc2"
   style="fill:#191919;fill-opacity:0.5;stroke-width:1.13333"
   d="m 1504.6459,692.24127 h 73.5352 v 104.49099 h -73.5352 z" />
    <path
   id="none-stairs2"
   style="fill:#191919;fill-opacity:0.5;stroke-width:1.13333"
   d="m 1578.1859,692.24127 h 73.5352 v 104.49099 h -73.5352 z" />
    <path
   id="none-stairs3"
   style="fill:#191919;fill-opacity:0.5;stroke-width:1.05541"
   d="m 449.68813,1253.9023 h 144.83988 v 84.9269 H 449.68813 Z" />
    <path
   id="none-wc3"
   style="fill:#191919;fill-opacity:0.5;stroke-width:1.05176"
   d="m 594.52801,1253.9023 h 143.8376 v 84.9269 h -143.8376 z" />
    <path
   id="none-stairs4"
   style="fill:#191919;fill-opacity:0.5;stroke-width:1.08767"
   d="m 723.79321,1875.6082 h 93.3184 v 107.2202 h -93.3184 z" />
    <path
   id="none-wc4"
   style="fill:#191919;fill-opacity:0.5;stroke-width:1.26289"
   d="m 1511.5491,1721.1698 h 111.5869 v 154.4278 h -111.5869 z" />
    <path
   id="none"
   style="fill:#191919;fill-opacity:0.5;stroke-width:1.02491"
   d="m 1511.5495,1652.6111 h 296.6802 v 68.5619 h -296.6802 z" />
    <path
   id="none-stairs5"
   style="fill:#191919;fill-opacity:0.5;stroke-width:1.05425"
   d="m 1808.2249,1606.9722 h 116.6411 v 45.6535 h -116.6411 z" />
    <path
   id="none-stairs6"
   style="fill:#191919;fill-opacity:0.5;stroke-width:1.20262"
   d="m 1416.1935,2269.8113 h 48.527 v 56.3025 h -48.527 z" />
    <path
   id="none-stairs7"
   style="fill:#191919;fill-opacity:0.5;stroke-width:0.88402"
   d="m 1416.1895,3210.8193 h 24.2633 v 120.7092 h -24.2633 z" />
    <path
   id="none-stairs8"
   style="fill:#191919;fill-opacity:0.5;stroke-width:1.00632"
   d="m 1507.7145,1191.6808 h 84.1052 v 72.0296 h -84.1052 z" />
    <path
   id="none-wc5"
   style="fill:#191919;fill-opacity:0.5;stroke-width:1.33183"
   d="m 1591.8165,1191.6808 h 147.3165 v 72.0296 h -147.3165 z" />
    <path
   id="none-ev"
   style="fill:#191919;fill-opacity:0.5;stroke-width:0.545466"
   d="m 1458.3225,1227.6306 h 49.3908 v 36.0372 h -49.3908 z" />
    <path
   id="none-wc6"
   style="fill:#191919;fill-opacity:0.5;stroke-width:0.545126"
   d="m 1458.3225,1191.6383 h 49.3908 v 35.9924 h -49.3908 z" />
    <path
   d="m 379.32127,326.90391 c 81.92967,-29.01276 172.00224,13.94926 201.01534,95.87957 29.0128,81.92962 -13.9494,172.0032 -95.87911,201.01596 -81.93094,29.0132 -172.00403,-13.9502 -201.01683,-95.87982 -29.01305,-81.93031 13.94966,-172.00251 95.8806,-201.01571 z m 7.88524,22.26721 c -69.64162,24.66134 -106.16019,101.22276 -81.49912,170.86346 24.66112,69.64087 101.22338,106.15932 170.865,81.49799 69.64034,-24.66089 106.15862,-101.22317 81.49752,-170.86405 -24.6611,-69.64069 -101.22306,-106.15828 -170.8634,-81.4974 z"
   style="fill:#1a1a1a;fill-opacity:0.5;stroke-width:0.157085"
   id="none-compass_2" />
    <path
   d="m 436.52986,582.01065 c -0.66956,1.4044 -2.17766,2.20757 -3.71694,1.9777 -1.54084,-0.22607 -2.75061,-1.43189 -2.9851,-2.97333 -5.15622,-34.03603 -20.45138,-135.01327 -26.75302,-176.60626 -0.25434,-1.67969 0.71875,-3.30344 2.31929,-3.87022 1.60313,-0.56769 3.38121,0.0818 4.24061,1.54724 21.27795,36.28961 72.93567,124.39022 90.34806,154.08612 0.79041,1.34458 0.60908,3.04301 -0.44611,4.18839 -1.05158,1.14734 -2.72905,1.47223 -4.13321,0.80217 -11.52859,-5.49583 -29.42509,-14.0349 -36.66233,-17.48688 -0.84714,-0.40364 -1.82231,-0.4539 -2.7092,-0.13983 -0.88431,0.31315 -1.61052,0.9659 -2.01486,1.8127 -3.452,7.23723 -11.989,25.13688 -17.48719,36.6622 z"
   style="fill:#1a1a1a;fill-opacity:0.5;stroke-width:0.289553"
   id="none-compass_1" />
    <path
   d="m 387.60922,363.79803 16.14531,12.18439 -5.68514,-16.05431 c -0.3695,-1.04344 -0.4228,-1.90493 -0.16006,-2.58497 0.26264,-0.6803 0.77614,-1.1555 1.53528,-1.42432 0.78679,-0.27862 1.49747,-0.23692 2.13725,0.1238 0.63969,0.36048 1.14294,1.06263 1.51244,2.10608 l 7.51715,21.22777 c 0.83888,2.36892 0.27798,3.90054 -1.68775,4.59664 -0.49017,0.17358 -0.9576,0.25961 -1.39967,0.25746 -0.44217,-0.002 -0.89099,-0.0955 -1.34406,-0.2805 -0.45046,-0.18561 -0.89691,-0.43177 -1.33655,-0.73862 -0.44225,-0.3062 -0.88527,-0.6226 -1.33151,-0.94804 l -15.82366,-12.09094 5.6004,15.81501 c 0.36505,1.03087 0.40228,1.89494 0.11152,2.5917 -0.29319,0.69789 -0.81307,1.17903 -1.56215,1.4443 -0.77171,0.27327 -1.48713,0.22618 -2.14124,-0.14305 -0.65661,-0.36834 -1.16536,-1.06205 -1.52605,-2.0806 l -7.37375,-20.82282 c -0.31298,-0.88382 -0.46054,-1.61207 -0.44016,-2.18564 0.0357,-0.63415 0.26311,-1.22219 0.67965,-1.76349 0.41663,-0.54104 0.93785,-0.9225 1.56377,-1.14415 0.49017,-0.17358 0.93818,-0.24255 1.34411,-0.20666 0.40844,0.035 0.79114,0.14107 1.15068,0.31757 0.35963,0.17676 0.75242,0.43117 1.18105,0.76285 0.42864,0.33168 0.87131,0.67903 1.33314,1.04054 z"
   style="fill:#1a1a1a;fill-opacity:0.5;fill-rule:nonzero;stroke-width:0.266667"
   id="none-compass_0" />
    <path
   id="main-office_warehouse"
   style="fill:#0015fe;fill-opacity:0.5;stroke-width:1.11905"
   d="m 1223.4729,1127.8582 h 159.195 v 135.8626 h -159.195 z" />
    <path
   id="main-pc_room"
   style="fill:#0015fe;fill-opacity:0.5;stroke-width:1.41288"
   d="m 1223.4729,911.2744 h 159.195 v 216.5787 h -159.195 z" />
    <path
   id="main-pc_preparation_room"
   style="fill:#0015fe;fill-opacity:0.5;stroke-width:0.823627"
   d="m 1223.4729,837.67682 h 159.195 v 73.59798 h -159.195 z" />
    <path
   id="main-ll_room"
   style="fill:#0015fe;fill-opacity:0.5;stroke-width:1.41288"
   d="m 1223.4729,621.10443 h 159.195 v 216.57866 h -159.195 z" />
    <path
   id="main-ll_preparation_room"
   style="fill:#0015fe;fill-opacity:0.5;stroke-width:0.785922"
   d="m 1223.4729,554.08637 h 159.195 v 67.01375 h -159.195 z" />
    <path
   id="main-teachers_entrance"
   d="m 1134.561,1263.718 v -50.31 H 928.37101 l -49.48,50.31 z"
   style="fill:#0015fe;fill-opacity:0.5" />
    <path
   id="main-home_economics_room"
   style="fill:#0015fe;fill-opacity:0.5;stroke-width:1.00397"
   d="m 1780.0679,1010.8928 h 141.911 v 252.8228 h -141.911 z" />
    <path
   id="main-home_economics_preparation_room"
   style="fill:#0015fe;fill-opacity:0.5;stroke-width:0.831015"
   d="m 1780.0679,837.67664 h 141.911 v 173.21606 h -141.911 z" />
    <path
   id="main-food_room"
   style="fill:#0015fe;fill-opacity:0.5;stroke-width:1.06331"
   d="m 1780.0679,554.08429 h 141.911 v 283.59204 h -141.911 z" />
    <path
   id="main-straight_course"
   style="fill:#0015fe;fill-opacity:0.5;stroke-width:1.19351"
   d="m 89.85665,3185.2886 h 66.48628 V 4401.7388 H 89.85665 Z" />
    <path
   id="main-bicycle_parking_1st_1"
   style="fill:#0015fe;fill-opacity:0.5;stroke-width:0.706106"
   d="m 42.89562,2090.0674 v -373.5673 h 25.98432 v 373.5673 z" />
    <path
   id="main-bicycle_parking_1st_0"
   style="fill:#0015fe;fill-opacity:0.5;stroke-width:0.490598"
   d="m 120.61245,1896.8309 v -180.3356 h 25.98432 v 180.3356 z" />
    <path
   id="main-bicycle_parking_2nd_0"
   style="fill:#0015fe;fill-opacity:0.5;stroke-width:0.45508"
   d="m 130.35854,1546.7742 v -155.1687 h 25.98432 v 155.1687 z" />
    <path
   id="main-bicycle_parking_2nd_2"
   style="fill:#0015fe;fill-opacity:0.5;stroke-width:0.978967"
   d="m 377.69473,1153.0557 h 360.67058 v 51.7328 H 377.69473 Z" />
    <path
   id="main-bicycle_parking_3nd_1"
   style="fill:#0015fe;fill-opacity:0.5;stroke-width:0.978967"
   d="m 377.69473,999.2295 h 360.67058 v 51.7328 H 377.69473 Z" />
    <path
   id="main-bicycle_parking_3nd_0"
   style="fill:#0015fe;fill-opacity:0.5;stroke-width:0.978967"
   d="m 377.69473,1076.4106 h 360.67058 v 51.7329 H 377.69473 Z" />
    <path
   d="m 1895.761,3210.8174 v 484.5157 h -143.51 v 144.6239 h -291.15 v -629.1396 z"
   style="fill:#0015fe;fill-opacity:0.5;stroke-width:0.996505"
   id="main-martial_arts_field_1f" />
    <path
   id="main-gym_1f"
   style="fill:#0015fe;fill-opacity:0.5;stroke-width:0.990694"
   d="m 1451.3479,2373.1672 h 444.409 v 752.8682 h -444.409 z" />
    <path
   id="main-bicycle_parking_teachers"
   style="fill:#0015fe;fill-opacity:0.5;stroke-width:0.580018"
   d="M 705.37061,1249.6056 H 453.30619 v -25.9843 h 252.06442 z" />
    <path
   id="main-bicycle_parking_1st_2"
   style="fill:#0015fe;fill-opacity:0.5;stroke-width:0.430542"
   d="M 469.15054,2116.0457 H 330.26399 v -25.9844 h 138.88655 z" />
    <path
   id="main-bicycle_parking_2nd_1"
   style="fill:#0015fe;fill-opacity:0.5;stroke-width:0.869154"
   d="m 160.21035,1280.0826 h 284.29413 v 51.7329 H 160.21035 Z" />
    <path
   id="main-handball_court"
   style="fill:#0015fe;fill-opacity:0.5;stroke-width:0.979934"
   d="m 186.51693,3891.4482 h 670.97598 v 536.7337 H 186.51693 Z" />
    <path
   id="main-clubrooms"
   style="fill:#0015fe;fill-opacity:0.5;stroke-width:1.0407"
   d="m 1839.469,1652.6199 h 85.9365 v 673.5039 h -85.9365 z" />
    <path
   id="main-training_room"
   style="fill:#0015fe;fill-opacity:0.5;stroke-width:1.44734"
   d="m 1623.1314,1721.1769 h 185.0931 v 154.4268 h -185.0931 z" />
    <path
   id="main-clubroom_building_0_1f"
   style="fill:#0015fe;fill-opacity:0.5;stroke-width:1.09782"
   d="m 14.81487,2153.1921 h 100.30227 v 571.4297 H 14.81487 Z" />
    <path
   id="main-clubroom_building_1"
   style="fill:#0015fe;fill-opacity:0.5"
   d="m 14.81603,2737.3679 h 100.303 v 273.126 h -100.303 z" />
    <path
   id="main-fountain"
   style="fill:#0015fe;fill-opacity:0.5;stroke-width:0.906355"
   d="m 1064.6227,1061.134 a 43.502323,43.502323 0 0 1 -43.5023,43.5024 43.502323,43.502323 0 0 1 -43.50229,-43.5024 43.502323,43.502323 0 0 1 43.50229,-43.5023 43.502323,43.502323 0 0 1 43.5023,43.5023 z" />
    <path
   id="main-gate_north_0"
   style="fill:#0015fe;fill-opacity:0.5;stroke-width:0.878907"
   d="m 943.42051,112.02899 v -15.696 h 100.30309 v 15.696 z" />
    <path
   id="main-nishi_hall_1f"
   style="fill:#0015fe;fill-opacity:0.5;stroke-width:0.989704"
   d="m 1559.2221,31.97476 h 251.8806 v 312.55841 h -251.8806 z" />
    <path
   id="main-audiovisual_hall_1f"
   d="M 1496.741,68.417 V 489.22 h -73.24 l 0.1,43.395 h -132.59 l -43.62,-43.395 h -57.59 V 68.417 Z"
   style="fill:#0015fe;fill-opacity:0.5" />
    <path
   id="main-1h"
   style="fill:#0015fe;fill-opacity:0.5;stroke-width:1.3666"
   d="M 168.24935,1859.0134 H 307.13569 V 1981.81 H 168.24935 Z" />
    <path
   id="main-1g"
   style="fill:#0015fe;fill-opacity:0.5;stroke-width:1.3666"
   d="M 307.13534,1860.0134 H 446.02168 V 1982.81 H 307.13534 Z" />
    <path
   id="main-1f"
   style="fill:#0015fe;fill-opacity:0.5;stroke-width:1.3666"
   d="M 446.0223,1860.0134 H 584.90861 V 1982.81 H 446.0223 Z" />
    <path
   id="main-1e"
   style="fill:#0015fe;fill-opacity:0.5;stroke-width:1.3666"
   d="m 584.90831,1860.0134 h 138.8864 V 1982.81 h -138.8864 z" />
    <path
   id="main-1d"
   style="fill:#0015fe;fill-opacity:0.5;stroke-width:1.3666"
   d="m 817.11331,1860.0134 h 138.8863 V 1982.81 h -138.8863 z" />
    <path
   id="main-1c"
   style="fill:#0015fe;fill-opacity:0.5;stroke-width:1.3666"
   d="M 956.00031,1860.0134 H 1094.8866 V 1982.81 H 956.00031 Z" />
    <path
   id="main-1b"
   style="fill:#0015fe;fill-opacity:0.5;stroke-width:1.3666"
   d="m 1094.8903,1860.0134 h 138.8863 V 1982.81 h -138.8863 z" />
    <path
   id="main-1a"
   style="fill:#0015fe;fill-opacity:0.5;stroke-width:1.3666"
   d="m 1233.7703,1860.0134 h 138.8863 V 1982.81 h -138.8863 z" />
    <path
   id="main-janitorial_room"
   style="fill:#0015fe;fill-opacity:0.5;stroke-width:1.07829"
   d="m 449.68795,1379.7758 h 144.83996 v 138.8624 H 449.68795 Z" />
    <path
   id="main-pilotis"
   style="fill:#0015fe;fill-opacity:0.5;stroke-width:0.867834"
   d="m 1511.5447,1875.6073 h 327.928 v 497.5664 h -327.928 z" />
    <path
   id="main-students_entrance"
   style="fill:#0015fe;fill-opacity:0.5;stroke-width:1.02485"
   d="m 315.32089,1670.2756 h 405.13542 v 148.8161 H 315.32089 Z" />
    <path
   d="m 349.60003,1379.7706 h 100.08602 v 138.8601 H 168.24837 v -179.8062 h 181.35166 z"
   style="fill:#0015fe;fill-opacity:0.5;stroke-width:1.1844"
   id="main-the_student_council_room" />
    <path
   id="main-gate_east_0"
   style="fill:#0015fe;fill-opacity:0.5;stroke-width:0.622432"
   d="m 1973.5584,1600.246 h -15.696 v -50.3052 h 15.696 z" />
    <path
   id="main-gate_nishi_hall_0"
   style="fill:#0015fe;fill-opacity:0.5;stroke-width:0.490121"
   d="m 1525.8146,29.07201 v -15.696 h 31.1915 v 15.696 z" />
    <path
   id="main-gate_nishi_hall_1"
   style="fill:#0015fe;fill-opacity:0.5;stroke-width:0.382463"
   d="m 1675.6636,29.07201 v -15.696 h 18.9936 v 15.696 z" />
    <path
   id="main-gate_west_2"
   style="fill:#0015fe;fill-opacity:0.5;stroke-width:0.622432"
   d="m 25.71404,3137.106 h -15.696 v -50.3052 h 15.696 z" />
    <path
   id="main-gate_west_0"
   style="fill:#0015fe;fill-opacity:0.5;stroke-width:1.10205"
   d="m 27.19802,1525.6751 h 15.696 v 157.7005 h -15.696 z" />
    <path
   id="main-gate_west_1"
   style="fill:#0015fe;fill-opacity:0.5;stroke-width:0.776694"
   d="m 27.19802,1204.781 h 15.696 v 78.3301 h -15.696 z" />
    <path
   id="main-corporate_planning_office"
   style="fill:#0015fe;fill-opacity:0.5;stroke-width:1.29365"
   d="M 948.24011,1304.6554 H 1223.4604 V 1444.775 H 948.24011 Z" />
    <path
   id="main-principals_office"
   style="fill:#0015fe;fill-opacity:0.5;stroke-width:1.15966"
   d="m 1223.4657,1304.6581 h 159.1949 v 140.1198 h -159.1949 z" />
    <path
   id="main-japanese_style_room"
   style="fill:#0015fe;fill-opacity:0.5;stroke-width:1.0949"
   d="m 1780.0774,1304.6581 h 141.9111 v 140.1198 h -141.9111 z" />
    <path
   id="main-health_room"
   style="fill:#0015fe;fill-opacity:0.5;stroke-width:1.34059"
   d="m 1485.4498,1304.6581 h 212.7445 v 140.1198 h -212.7445 z" />
    <path
   id="main-health_consultation_room"
   style="fill:#0015fe;fill-opacity:0.5;stroke-width:0.831729"
   d="m 1698.1909,1304.6581 h 81.8898 v 140.1198 h -81.8898 z" />
    <path
   id="main-tennis_court"
   style="fill:#0015fe;fill-opacity:0.5;stroke-width:1.00128"
   d="M 878.88991,3891.448 H 1909.9928 v 536.733 H 878.88991 Z" />
    <path
   id="main-grand"
   style="fill:#0015fe;fill-opacity:0.5;stroke-width:0.987618"
   d="M 186.51663,2151.2666 H 1367.6604 v 1718.463 H 186.51663 Z" />
    <path
   id="shinkan80-s80_audiovisual"
   style="fill:#fb00ff;fill-opacity:0.5;stroke-width:0.792396"
   d="m 1366.8953,127.80268 a 23.622362,23.622417 0 0 1 -23.6223,23.62241 23.622362,23.622417 0 0 1 -23.6224,-23.62241 23.622362,23.622417 0 0 1 23.6224,-23.62242 23.622362,23.622417 0 0 1 23.6223,23.62242 z" />
    
</svg>
