<?xml version="1.0" encoding="UTF-8" standalone="no"?>
<!DOCTYPE svg PUBLIC "-//W3C//DTD SVG 1.1//EN" "http://www.w3.org/Graphics/SVG/1.1/DTD/svg11.dtd">
<svg width="100%" height="100%" viewBox="0 0 3308 4678" version="1.1" xmlns="http://www.w3.org/2000/svg" xmlns:xlink="http://www.w3.org/1999/xlink" xml:space="preserve" xmlns:serif="http://www.serif.com/" style="fill-rule:evenodd;clip-rule:evenodd;stroke-linejoin:round;stroke-miterlimit:2;">
    <g id="base" transform="matrix(1.01459,0,0,5.2512,-5.6655,-19690.1)">
        <path d="M2244.85,3850.17L2411.24,3850.17L2411.24,4628.12L448.56,4628.12L448.56,3987.91L716.069,3987.91L716.069,3951L1278.66,3951L1278.66,3772.5L2244.85,3772.5L2244.85,3850.17Z" style="fill:white;fill-opacity:0.53;"/>
    </g>
    <g id="_0" serif:id="0">
    </g>
    <g id="main-1d" transform="matrix(0.505998,0,0,3.69091,935.783,-5539.61)">
        <rect x="653.697" y="2037.35" width="274.48" height="33.27" style="fill:rgb(0,21,254);fill-opacity:0.5;"/>
    </g>
    <g id="main-1c" transform="matrix(0.505998,0,0,3.69091,1074.67,-5539.61)">
        <rect x="653.697" y="2037.35" width="274.48" height="33.27" style="fill:rgb(0,21,254);fill-opacity:0.5;"/>
    </g>
    <g id="main-1b" transform="matrix(0.505998,0,0,3.69091,1213.56,-5539.61)">
        <rect x="653.697" y="2037.35" width="274.48" height="33.27" style="fill:rgb(0,21,254);fill-opacity:0.5;"/>
    </g>
    <g id="main-1a" transform="matrix(0.505998,0,0,3.69091,1352.44,-5539.61)">
        <rect x="653.697" y="2037.35" width="274.48" height="33.27" style="fill:rgb(0,21,254);fill-opacity:0.5;"/>
    </g>
    <g id="main-janitorial_room" transform="matrix(1,0,0,1.16271,0,-266.631)">
        <rect x="899.127" y="1519.26" width="144.84" height="119.43" style="fill:rgb(0,21,254);fill-opacity:0.5;"/>
    </g>
    <g id="main-pilotis" transform="matrix(0.771149,0,0,0.976641,460.189,53.6868)">
        <rect x="1946.18" y="1988.42" width="425.246" height="509.467" style="fill:rgb(0,21,254);fill-opacity:0.5;"/>
    </g>
    <g id="main-students_entrance" transform="matrix(1.00368,0,0,1.04646,-6.03217,-83.1706)">
        <rect x="767.966" y="1790.32" width="403.65" height="142.209" style="fill:rgb(0,21,254);fill-opacity:0.5;"/>
    </g>
    <g id="main-the_student_council_room" transform="matrix(1.69859,0,0,0.82586,-431.513,250.858)">
        <path d="M724.455,1512.32L783.378,1512.32L783.378,1680.46L617.689,1680.46L617.689,1462.74L724.455,1462.74L724.455,1512.32Z" style="fill:rgb(0,21,254);fill-opacity:0.5;"/>
    </g>
    <g id="main-gate_east_0" transform="matrix(-1,-1.22465e-16,4.74455e-17,-0.387422,2902.04,2367.87)">
        <rect x="479.043" y="1671.49" width="15.696" height="129.846" style="fill:rgb(0,21,254);fill-opacity:0.5;"/>
    </g>
    <g id="main-gate_nishi_hall_0" transform="matrix(6.12323e-17,-1,0.240219,1.47092e-17,1573.73,628.167)">
        <rect x="479.043" y="1671.49" width="15.696" height="129.846" style="fill:rgb(0,21,254);fill-opacity:0.5;"/>
    </g>
    <path id="enclosure-classroom_building" d="M764.76,1817.93L617.689,1817.93L617.689,2102.88L1822.1,2102.88L1822.1,1995.26L1934.88,1995.26L1934.88,1878.18L1822.1,1878.53L1822.1,1818.28L1675.03,1817.93L1675.03,1939.13L1257.3,1939.13L1257.3,1790.32L764.76,1790.32L764.76,1817.93Z" style="fill:rgb(253,0,0);fill-opacity:0.5;"/>
    <path id="enclosure-management_building2" d="M1043.97,1638.69L617.689,1638.69L617.689,1458.88L899.127,1458.88L899.127,1373.95L1187.81,1373.95L1187.81,1499.82L1043.97,1499.82" style="fill:rgb(253,0,0);fill-opacity:0.5;"/>
    <g id="enclosure-nishi_hall" transform="matrix(0.989704,0,0,1.0502,21.9788,-4.21614)">
        <rect x="2007.35" y="148.775" width="254.501" height="315.81" style="fill:rgb(253,0,0);fill-opacity:0.5;"/>
    </g>
    <path id="enclosure-audiovisual_hall" d="M1946.18,188.469L1946.18,609.272L1872.94,609.272L1873.04,652.667L1740.45,652.667L1696.83,609.272L1639.24,609.272L1639.24,188.469L1946.18,188.469Z" style="fill:rgb(253,0,0);fill-opacity:0.5;"/>
    <g id="enclosure-pool" transform="matrix(1.03771,0,0,1,-89.5431,0)">
        <path d="M2374.3,1727.02L2374.3,2493.22L1950.85,2493.22L1950.85,1772.67L2261.9,1772.67L2261.9,1727.02L2374.3,1727.02Z" style="fill:rgb(253,0,0);fill-opacity:0.5;"/>
    </g>
    <g id="enclosure-martial_arts_field" transform="matrix(1,0,0,0.993023,0,27.628)">
        <path d="M2345.2,3326.45L2345.2,3814.37L2201.69,3814.37L2201.69,3960.01L1910.54,3960.01L1910.54,3326.45L2345.2,3326.45Z" style="fill:rgb(253,0,0);fill-opacity:0.5;"/>
    </g>
    <g id="enclosure-gym" transform="matrix(0.960498,0,0,1.02184,84.3604,-70.9044)">
        <rect x="1891.13" y="2509.32" width="462.686" height="736.777" style="fill:rgb(253,0,0);fill-opacity:0.5;"/>
    </g>
    <g id="enclosure-clubroom_building_0" transform="matrix(1.08333,0,0,1.11251,-47.0465,-255.758)">
        <rect x="471.971" y="2273.24" width="92.587" height="513.64" style="fill:rgb(253,0,0);fill-opacity:0.5;"/>
    </g>
    <rect id="enclosure-clubroom_building_1" x="464.255" y="2857.42" width="100.303" height="273.126" style="fill:rgb(253,0,0);fill-opacity:0.5;"/>
    <g id="enclosure-gym_passage" transform="matrix(1,0,0,1.30336,-6.41857e-12,-982.863)">
        <path d="M1934.88,2630.93L1934.88,2667.03L1900.79,2667.03L1900.79,3244.67L2345.2,3244.67L2345.2,3309.71L1865.63,3309.71L1865.63,2630.93L1934.88,2630.93Z" style="fill:rgb(253,0,0);fill-opacity:0.5;"/>
    </g>
    <path id="enclosure-management_building1" d="M1328.33,1564.83L1328.33,1383.77L1377.81,1333.46L1584,1333.46L1584,1383.77L1672.9,1383.77L1672.9,674.137L1873.04,674.137L1873.04,812.293L2101.16,812.293L2101.16,957.671L1873.04,958.128L1873.04,1311.69L2188.57,1311.69L2188.57,674.137L2371.43,674.137L2371.43,1564.83L1328.33,1564.83Z" style="fill:rgb(253,0,0);fill-opacity:0.5;"/>
    <g id="main-gate_nishi_hall_1" transform="matrix(6.12323e-17,-1,0.146278,8.95696e-18,1880.6,628.167)">
        <rect x="479.043" y="1671.49" width="15.696" height="129.846" style="fill:rgb(0,21,254);fill-opacity:0.5;"/>
    </g>
    <g id="main-gate_west_2" transform="matrix(-1,-1.22465e-16,4.74455e-17,-0.387422,954.196,3904.73)">
        <rect x="479.043" y="1671.49" width="15.696" height="129.846" style="fill:rgb(0,21,254);fill-opacity:0.5;"/>
    </g>
    <g id="main-gate_west_0" transform="matrix(1,0,0,1.21452,-2.40601,-384.331)">
        <rect x="479.043" y="1671.49" width="15.696" height="129.846" style="fill:rgb(0,21,254);fill-opacity:0.5;"/>
    </g>
    <g id="main-gate_west_1" transform="matrix(1,0,0,0.603254,-2.40601,316.5)">
        <rect x="479.043" y="1671.49" width="15.696" height="129.846" style="fill:rgb(0,21,254);fill-opacity:0.5;"/>
    </g>
    <g id="main-corporate_planning_office" transform="matrix(1.77263,0,0,0.9441,-1083.01,87.4747)">
        <rect x="1399.44" y="1416.41" width="155.261" height="148.416" style="fill:rgb(0,21,254);fill-opacity:0.5;"/>
    </g>
    <g id="main-principals_office" transform="matrix(0.907042,0,0,1.48264,139.895,-710.588)">
        <rect x="1690.12" y="1440.2" width="175.51" height="94.507" style="fill:rgb(0,21,254);fill-opacity:0.5;"/>
    </g>
    <g id="main-japanese_style_room" transform="matrix(0.808564,0,0,1.48264,862.946,-710.588)">
        <rect x="1690.12" y="1440.2" width="175.51" height="94.507" style="fill:rgb(0,21,254);fill-opacity:0.5;"/>
    </g>
    <g id="main-health_room" transform="matrix(1.21215,0,0,1.48264,-113.79,-710.588)">
        <rect x="1690.12" y="1440.2" width="175.51" height="94.507" style="fill:rgb(0,21,254);fill-opacity:0.5;"/>
    </g>
    <g id="main-health_consultation_room" transform="matrix(0.466582,0,0,1.48264,1359.05,-710.588)">
        <rect x="1690.12" y="1440.2" width="175.51" height="94.507" style="fill:rgb(0,21,254);fill-opacity:0.5;"/>
    </g>
    <g id="main-tennis_court" transform="matrix(1.00256,0,0,1,-6.04822,-9.09495e-13)">
        <rect x="1330.97" y="4011.5" width="1028.47" height="536.733" style="fill:rgb(0,21,254);fill-opacity:0.5;"/>
    </g>
    <g id="main-grand" transform="matrix(0.993568,0,0,0.981704,12.8564,47.4449)">
        <rect x="627.133" y="2265.32" width="1188.79" height="1750.49" style="fill:rgb(0,21,254);fill-opacity:0.5;"/>
    </g>
    <g id="none-wc" transform="matrix(1.04605,0,0,1.42433,-37.9261,-785.561)">
        <rect x="626.753" y="1827.87" width="70.298" height="85.098" style="fill:rgb(25,25,25);fill-opacity:0.5;"/>
    </g>
    <g id="shinkan80-s80_audiovisual" transform="matrix(0.62734,0,0,0.695055,717.081,-1207.29)">
        <ellipse cx="1714.59" cy="2087.91" rx="31.379" ry="28.322" style="fill:rgb(251,0,255);fill-opacity:0.5;"/>
    </g>
    <g id="none-stairs" transform="matrix(1.04605,0,0,1.42433,35.6093,-785.561)">
        <rect x="626.753" y="1827.87" width="70.298" height="85.098" style="fill:rgb(25,25,25);fill-opacity:0.5;"/>
    </g>
    <g id="none-wc1" serif:id="none-wc" transform="matrix(1.04605,0,0,1.42433,1019.41,-785.561)">
        <rect x="626.753" y="1827.87" width="70.298" height="85.098" style="fill:rgb(25,25,25);fill-opacity:0.5;"/>
    </g>
    <g id="none-stairs1" serif:id="none-stairs" transform="matrix(1.04605,0,0,1.42433,1092.95,-785.561)">
        <rect x="626.753" y="1827.87" width="70.298" height="85.098" style="fill:rgb(25,25,25);fill-opacity:0.5;"/>
    </g>
    <g id="none-wc2" serif:id="none-wc" transform="matrix(1.04605,0,0,1.22789,1298.47,-1432.13)">
        <rect x="626.753" y="1827.87" width="70.298" height="85.098" style="fill:rgb(25,25,25);fill-opacity:0.5;"/>
    </g>
    <g id="none-stairs2" serif:id="none-stairs" transform="matrix(1.04605,0,0,1.22789,1372.01,-1432.13)">
        <rect x="626.753" y="1827.87" width="70.298" height="85.098" style="fill:rgb(25,25,25);fill-opacity:0.5;"/>
    </g>
    <g id="none-stairs3" serif:id="none-stairs" transform="matrix(0.999399,0,0,1.11457,-3.07724,-157.409)">
        <rect x="902.747" y="1373.95" width="144.927" height="76.197" style="fill:rgb(25,25,25);fill-opacity:0.5;"/>
    </g>
    <g id="none-wc3" serif:id="none-wc" transform="matrix(0.992483,0,0,1.11457,148.006,-157.409)">
        <rect x="902.747" y="1373.95" width="144.927" height="76.197" style="fill:rgb(25,25,25);fill-opacity:0.5;"/>
    </g>
    <g id="none-stairs4" serif:id="none-stairs" transform="matrix(1.20417,0,0,0.982446,423.286,209.642)">
        <rect x="622.791" y="1817.93" width="77.496" height="109.136" style="fill:rgb(25,25,25);fill-opacity:0.5;"/>
    </g>
    <g id="none-wc4" serif:id="none-wc" transform="matrix(1.01785,0,0,1.56692,-19.9312,-1043.76)">
        <rect x="1946.18" y="1841.18" width="109.63" height="98.555" style="fill:rgb(25,25,25);fill-opacity:0.5;"/>
    </g>
    <g id="none" transform="matrix(0.979411,0,0,1.07252,49.8638,-130.395)">
        <rect x="1951.3" y="1774.38" width="302.917" height="63.926" style="fill:rgb(25,25,25);fill-opacity:0.5;"/>
    </g>
    <g id="none-stairs5" serif:id="none-stairs" transform="matrix(1.00001,0,0,1.11144,-0.0189084,-192.455)">
        <rect x="2257.66" y="1727.02" width="116.64" height="41.076" style="fill:rgb(25,25,25);fill-opacity:0.5;"/>
    </g>
    <g id="none-stairs6" serif:id="none-stairs" transform="matrix(1.32403,0,0,1.09234,-615.454,-219.431)">
        <rect x="1873.89" y="2388.72" width="36.651" height="51.543" style="fill:rgb(25,25,25);fill-opacity:0.5;"/>
    </g>
    <g id="none-stairs7" serif:id="none-stairs" transform="matrix(0.829147,0,0,0.942525,318.747,191.443)">
        <rect x="1865.63" y="3330.87" width="29.263" height="128.07" style="fill:rgb(25,25,25);fill-opacity:0.5;"/>
    </g>
    <g id="none-stairs8" serif:id="none-stairs" transform="matrix(1.19641,0,0,0.846431,1207.3,-235.433)">
        <rect x="626.753" y="1827.87" width="70.298" height="85.098" style="fill:rgb(25,25,25);fill-opacity:0.5;"/>
    </g>
    <g id="none-wc5" serif:id="none-wc" transform="matrix(2.0956,0,0,0.846431,727.832,-235.433)">
        <rect x="626.753" y="1827.87" width="70.298" height="85.098" style="fill:rgb(25,25,25);fill-opacity:0.5;"/>
    </g>
    <g id="none-ev" transform="matrix(0.702592,0,0,0.423479,1467.41,573.618)">
        <rect x="626.753" y="1827.87" width="70.298" height="85.098" style="fill:rgb(25,25,25);fill-opacity:0.5;"/>
    </g>
    <g id="none-wc6" serif:id="none-wc" transform="matrix(0.702592,0,0,0.422952,1467.41,538.589)">
        <rect x="626.753" y="1827.87" width="70.298" height="85.098" style="fill:rgb(25,25,25);fill-opacity:0.5;"/>
    </g>
    <g id="none-compass_2" transform="matrix(0.126681,-0.04486,0.0612912,0.173081,343.295,563.959)">
        <path d="M3695.8,281.894C4342.54,281.894 4867.62,666.206 4867.62,1139.57C4867.62,1612.93 4342.54,1997.25 3695.8,1997.25C3049.05,1997.25 2523.97,1612.93 2523.97,1139.57C2523.97,666.206 3049.05,281.894 3695.8,281.894ZM3695.8,410.546C3146.06,410.546 2699.74,737.211 2699.74,1139.57C2699.74,1541.93 3146.06,1868.6 3695.8,1868.6C4245.53,1868.6 4691.85,1541.93 4691.85,1139.57C4691.85,737.211 4245.53,410.546 3695.8,410.546Z" style="fill:rgb(26,26,26);fill-opacity:0.5;"/>
    </g>
    <g id="none-compass_1" transform="matrix(0.258569,-0.0915639,0.102028,0.288119,-143.531,671.896)">
        <path d="M3501.17,1217.37C3497.16,1220.97 3491,1221.8 3485.99,1219.41C3480.97,1217.03 3478.28,1211.99 3479.35,1206.98C3503.05,1096.38 3573.37,768.257 3602.33,633.1C3603.5,627.642 3608.82,623.697 3615.01,623.697C3621.21,623.697 3626.53,627.642 3627.7,633.1C3656.66,768.257 3726.97,1096.38 3750.67,1206.98C3751.75,1211.99 3749.06,1217.03 3744.04,1219.41C3739.03,1221.8 3732.87,1220.97 3728.86,1217.37C3695.93,1187.83 3644.82,1141.95 3624.15,1123.4C3621.73,1121.23 3618.44,1120.01 3615.01,1120.01C3611.59,1120.01 3608.3,1121.23 3605.88,1123.4C3585.21,1141.95 3534.09,1187.83 3501.17,1217.37Z" style="fill:rgb(26,26,26);fill-opacity:0.5;"/>
    </g>
    <g id="none-compass_0" transform="matrix(0.251371,-0.0890152,0.0890152,0.251371,-39.2662,682.113)">
        <path d="M3345.87,396.109L3387.69,459.39L3387.69,395.523C3387.69,391.372 3388.58,388.26 3390.36,386.185C3392.14,384.109 3394.55,383.072 3397.57,383.072C3400.7,383.072 3403.16,384.109 3404.97,386.185C3406.78,388.26 3407.68,391.372 3407.68,395.523L3407.68,479.971C3407.68,489.395 3403.78,494.107 3395.96,494.107C3394.01,494.107 3392.25,493.826 3390.69,493.265C3389.13,492.703 3387.66,491.812 3386.29,490.591C3384.93,489.371 3383.66,487.942 3382.49,486.307C3381.31,484.671 3380.14,482.998 3378.97,481.289L3338.17,418.741L3338.17,481.656C3338.17,485.757 3337.22,488.858 3335.32,490.957C3333.41,493.057 3330.97,494.107 3327.99,494.107C3324.92,494.107 3322.45,493.045 3320.6,490.921C3318.74,488.797 3317.81,485.708 3317.81,481.656L3317.81,398.819C3317.81,395.303 3318.2,392.544 3318.99,390.542C3319.91,388.345 3321.45,386.551 3323.6,385.159C3325.75,383.768 3328.07,383.072 3330.56,383.072C3332.51,383.072 3334.18,383.389 3335.57,384.024C3336.97,384.659 3338.19,385.513 3339.24,386.587C3340.29,387.662 3341.36,389.053 3342.46,390.762C3343.56,392.471 3344.69,394.253 3345.87,396.109Z" style="fill:rgb(26,26,26);fill-opacity:0.5;fill-rule:nonzero;"/>
    </g>
    <g id="main-office_warehouse" transform="matrix(1.05595,0,0,1.18591,-102.499,-245.613)">
        <rect x="1681.34" y="1259.39" width="150.76" height="114.564" style="fill:rgb(0,21,254);fill-opacity:0.5;"/>
    </g>
    <g id="main-pc_room" transform="matrix(1.05595,0,0,1.89046,-102.499,-1349.5)">
        <rect x="1681.34" y="1259.39" width="150.76" height="114.564" style="fill:rgb(0,21,254);fill-opacity:0.5;"/>
    </g>
    <g id="main-pc_preparation_room" transform="matrix(1.05595,0,0,0.642418,-102.499,148.674)">
        <rect x="1681.34" y="1259.39" width="150.76" height="114.564" style="fill:rgb(0,21,254);fill-opacity:0.5;"/>
    </g>
    <g id="main-ll_room" transform="matrix(1.05595,0,0,1.89046,-102.499,-1639.67)">
        <rect x="1681.34" y="1259.39" width="150.76" height="114.564" style="fill:rgb(0,21,254);fill-opacity:0.5;"/>
    </g>
    <g id="main-ll_preparation_room" transform="matrix(1.05595,0,0,0.584946,-102.499,-62.5368)">
        <rect x="1681.34" y="1259.39" width="150.76" height="114.564" style="fill:rgb(0,21,254);fill-opacity:0.5;"/>
    </g>
    <path id="main-teachers_entrance" d="M1584,1383.77L1584,1333.46L1377.81,1333.46L1328.33,1383.77L1584,1383.77Z" style="fill:rgb(0,21,254);fill-opacity:0.5;"/>
    <g id="main-home_economics_room" transform="matrix(1.39532,0,0,0.72239,-937.479,401.526)">
        <rect x="2269.72" y="1009.73" width="101.705" height="349.981" style="fill:rgb(0,21,254);fill-opacity:0.5;"/>
    </g>
    <g id="main-home_economics_preparation_room" transform="matrix(1.39532,0,0,0.49493,-937.479,457.983)">
        <rect x="2269.72" y="1009.73" width="101.705" height="349.981" style="fill:rgb(0,21,254);fill-opacity:0.5;"/>
    </g>
    <g id="main-food_room" transform="matrix(1.39532,0,0,0.810307,-937.479,-144.055)">
        <rect x="2269.72" y="1009.73" width="101.705" height="349.981" style="fill:rgb(0,21,254);fill-opacity:0.5;"/>
    </g>
    <g id="main-straight_course" transform="matrix(1.15735,0,0,1.23081,-84.0379,-900.854)">
        <rect x="538.587" y="3417.42" width="57.447" height="988.333" style="fill:rgb(0,21,254);fill-opacity:0.5;"/>
    </g>
    <g id="main-bicycle_parking_1st_1" transform="matrix(6.36035e-17,-1.03872,0.48,2.93915e-17,-43.7678,3070.35)">
        <rect x="828.164" y="1116.88" width="359.642" height="54.134" style="fill:rgb(0,21,254);fill-opacity:0.5;"/>
    </g>
    <g id="main-bicycle_parking_1st_0" transform="matrix(3.07038e-17,-0.501431,0.48,2.93915e-17,33.9491,2432.15)">
        <rect x="828.164" y="1116.88" width="359.642" height="54.134" style="fill:rgb(0,21,254);fill-opacity:0.5;"/>
    </g>
    <g id="main-bicycle_parking_2nd_0" transform="matrix(2.64189e-17,-0.431453,0.48,2.93915e-17,43.6952,2024.14)">
        <rect x="828.164" y="1116.88" width="359.642" height="54.134" style="fill:rgb(0,21,254);fill-opacity:0.5;"/>
    </g>
    <g id="main-bicycle_parking_2nd_2" transform="matrix(1.00286,0,0,0.955644,-3.39879,205.768)">
        <rect x="828.164" y="1116.88" width="359.642" height="54.134" style="fill:rgb(0,21,254);fill-opacity:0.5;"/>
    </g>
    <g id="main-bicycle_parking_3nd_1" transform="matrix(1.00286,0,0,0.955644,-3.39879,51.9418)">
        <rect x="828.164" y="1116.88" width="359.642" height="54.134" style="fill:rgb(0,21,254);fill-opacity:0.5;"/>
    </g>
    <g id="main-bicycle_parking_3nd_0" transform="matrix(1.00286,0,0,0.955644,-3.39879,129.123)">
        <rect x="828.164" y="1116.88" width="359.642" height="54.134" style="fill:rgb(0,21,254);fill-opacity:0.5;"/>
    </g>
    <g id="main-martial_arts_field_1f" transform="matrix(1,0,0,0.993023,0,27.628)">
        <path d="M2345.2,3326.45L2345.2,3814.37L2201.69,3814.37L2201.69,3960.01L1910.54,3960.01L1910.54,3326.45L2345.2,3326.45Z" style="fill:rgb(0,21,254);fill-opacity:0.5;"/>
    </g>
    <g id="main-gym_1f" transform="matrix(0.960498,0,0,1.02184,84.3604,-70.9044)">
        <rect x="1891.13" y="2509.32" width="462.686" height="736.777" style="fill:rgb(0,21,254);fill-opacity:0.5;"/>
    </g>
    <g id="main-bicycle_parking_teachers" transform="matrix(-0.700876,-8.58326e-17,5.8783e-17,-0.48,1735.25,1905.76)">
        <rect x="828.164" y="1116.88" width="359.642" height="54.134" style="fill:rgb(0,21,254);fill-opacity:0.5;"/>
    </g>
    <g id="main-bicycle_parking_1st_2" transform="matrix(-0.38618,-4.72934e-17,5.8783e-17,-0.48,1238.41,2772.2)">
        <rect x="828.164" y="1116.88" width="359.642" height="54.134" style="fill:rgb(0,21,254);fill-opacity:0.5;"/>
    </g>
    <g id="main-bicycle_parking_2nd_1" transform="matrix(0.790492,0,0,0.955644,-45.0076,332.795)">
        <rect x="828.164" y="1116.88" width="359.642" height="54.134" style="fill:rgb(0,21,254);fill-opacity:0.5;"/>
    </g>
    <g id="main-handball_court" transform="matrix(0.976266,0,0,0.983616,15.0938,74.5182)">
        <rect x="635.956" y="4002.56" width="687.288" height="545.674" style="fill:rgb(0,21,254);fill-opacity:0.5;"/>
    </g>
    <g id="main-clubrooms" transform="matrix(1.08065,0,0,1.00222,-187.834,-5.2463)">
        <rect x="2291.9" y="1773.98" width="79.523" height="672.012" style="fill:rgb(0,21,254);fill-opacity:0.5;"/>
    </g>
    <g id="main-training_room" transform="matrix(1.33128,0,0,1.57352,-745.643,-1137.35)">
        <rect x="2116.92" y="1892.94" width="139.034" height="98.141" style="fill:rgb(0,21,254);fill-opacity:0.5;"/>
    </g>
    <g id="main-clubroom_building_0_1f" transform="matrix(1.08333,0,0,1.11251,-47.0465,-255.758)">
        <rect x="471.971" y="2273.24" width="92.587" height="513.64" style="fill:rgb(0,21,254);fill-opacity:0.5;"/>
    </g>
    <rect id="main-clubroom_building_1" x="464.255" y="2857.42" width="100.303" height="273.126" style="fill:rgb(0,21,254);fill-opacity:0.5;"/>
    <g id="main-fountain" transform="matrix(0.906355,0,0,0.906355,136.414,113.654)">
        <circle cx="1471.99" cy="1177.83" r="47.997" style="fill:rgb(0,21,254);fill-opacity:0.5;"/>
    </g>
    <g id="main-gate_north_0" transform="matrix(6.12323e-17,-1,0.772477,4.73006e-17,101.672,711.124)">
        <rect x="479.043" y="1671.49" width="15.696" height="129.846" style="fill:rgb(0,21,254);fill-opacity:0.5;"/>
    </g>
    <g id="main-nishi_hall_1f" transform="matrix(0.989704,0,0,0.989704,21.9788,4.78356)">
        <rect x="2007.35" y="148.775" width="254.501" height="315.81" style="fill:rgb(0,21,254);fill-opacity:0.5;"/>
    </g>
    <path id="main-audiovisual_hall_1f" d="M1946.18,188.469L1946.18,609.272L1872.94,609.272L1873.04,652.667L1740.45,652.667L1696.83,609.272L1639.24,609.272L1639.24,188.469L1946.18,188.469Z" style="fill:rgb(0,21,254);fill-opacity:0.5;"/>
    <g id="main-1h" transform="matrix(0.505998,0,0,3.69091,286.919,-5540.61)">
        <rect x="653.697" y="2037.35" width="274.48" height="33.27" style="fill:rgb(0,21,254);fill-opacity:0.5;"/>
    </g>
    <g id="main-1g" transform="matrix(0.505998,0,0,3.69091,425.805,-5539.61)">
        <rect x="653.697" y="2037.35" width="274.48" height="33.27" style="fill:rgb(0,21,254);fill-opacity:0.5;"/>
    </g>
    <g id="main-1f" transform="matrix(0.505998,0,0,3.69091,564.692,-5539.61)">
        <rect x="653.697" y="2037.35" width="274.48" height="33.27" style="fill:rgb(0,21,254);fill-opacity:0.5;"/>
    </g>
    <g id="main-1e" transform="matrix(0.505998,0,0,3.69091,703.578,-5539.61)">
        <rect x="653.697" y="2037.35" width="274.48" height="33.27" style="fill:rgb(0,21,254);fill-opacity:0.5;"/>
    </g>
</svg>
