<?xml version="1.0" encoding="UTF-8" standalone="no"?>
<!DOCTYPE svg PUBLIC "-//W3C//DTD SVG 1.1//EN" "http://www.w3.org/Graphics/SVG/1.1/DTD/svg11.dtd">
<svg width="100%" height="100%" viewBox="0 0 3308 4678" version="1.1" xmlns="http://www.w3.org/2000/svg" xmlns:xlink="http://www.w3.org/1999/xlink" xml:space="preserve" xmlns:serif="http://www.serif.com/" style="fill-rule:evenodd;clip-rule:evenodd;stroke-linejoin:round;stroke-miterlimit:2;">
    <g id="base" transform="matrix(1.01459,0,0,5.2512,-5.6655,-19690.1)">
        <path d="M2244.85,3850.17L2411.24,3850.17L2411.24,4628.12L448.56,4628.12L448.56,3987.91L716.069,3987.91L716.069,3951L1278.66,3951L1278.66,3772.5L2244.85,3772.5L2244.85,3850.17Z" style="fill:white;fill-opacity:0.53;"/>
    </g>
    <g id="_1" serif:id="1">
        <path id="enclosure-classroom_building" d="M2188.57,812.293L2188.57,674.137L2371.43,674.137L2371.43,1564.83L1934.88,1564.83L1934.88,1995.26L1822.1,1995.26L1822.1,2102.88L617.689,2102.88L617.689,1817.93L764.76,1817.93L764.76,1939.13L1173.23,1939.13L1173.23,1638.69L617.689,1638.69L617.689,1458.88L899.127,1458.88L899.127,1373.95L1187.81,1373.95L1187.81,1383.77L1672.9,1383.77L1672.9,674.137L1832.1,674.137L1832.1,652.667L1873.04,652.667L1873.04,812.293L2188.57,812.293ZM2188.57,957.671L1873.04,958.128L1873.04,1311.69L2188.57,1311.69L2188.57,957.671ZM1873.04,1564.83L1257.3,1564.83L1257.3,1939.13L1675.03,1939.13L1675.03,1817.93L1873.04,1817.93L1873.04,1564.83Z" style="fill:rgb(253,0,0);fill-opacity:0.5;"/>
        <g id="enclosure-nishi_hall" transform="matrix(0.957812,0,0,1.11437,94.1118,-13.7633)">
            <path d="M2261.85,148.775L2261.85,464.585L2176.36,464.585L2176.36,429.275L2007.35,429.275L2007.35,148.775L2261.85,148.775Z" style="fill:rgb(253,0,0);fill-opacity:0.5;"/>
        </g>
        <path id="enclosure-audiovisual_hall" d="M1946.18,188.469L1946.18,609.272L1873.04,609.272L1873.04,652.667L1756.1,652.667L1712.38,609.272L1639.24,609.272L1639.24,188.469L1946.18,188.469Z" style="fill:rgb(253,0,0);fill-opacity:0.5;"/>
        <g id="enclosure-pool" transform="matrix(1.03771,0,0,1,-89.5431,0)">
            <path d="M2374.3,1727.02L2374.3,2446.17L2346.25,2446.17L2346.25,2493.22L1950.85,2493.22L1950.85,1772.67L2261.9,1772.67L2261.9,1727.02L2374.3,1727.02Z" style="fill:rgb(253,0,0);fill-opacity:0.5;"/>
        </g>
        <g id="enclosure-martial_arts_field" transform="matrix(1,0,0,0.993023,0,27.628)">
            <rect x="2174.64" y="3326.45" width="170.559" height="487.916" style="fill:rgb(253,0,0);fill-opacity:0.5;"/>
        </g>
        <g id="enclosure-gym" transform="matrix(0.960498,0,0,1.02184,84.3604,-70.9044)">
            <path d="M2276.28,2509.32L2353.82,2509.32L2353.82,3246.09L1891.13,3246.09L1891.13,2509.32L1968.66,2509.32L1968.66,2527.43L1993.88,2527.43L1993.88,2606.41L1910.4,2606.41L1910.4,3066.35L2334.55,3066.35L2334.55,2606.41L2251.07,2606.41L2251.07,2527.43L2276.28,2527.43L2276.28,2509.32Z" style="fill:rgb(253,0,0);fill-opacity:0.5;"/>
        </g>
        <g id="enclosure-clubroom_building_0" transform="matrix(1.08333,0,0,1.11251,-47.0465,-255.758)">
            <rect x="471.971" y="2273.24" width="92.587" height="513.64" style="fill:rgb(253,0,0);fill-opacity:0.5;"/>
        </g>
        <g id="enclosure-gym_passage_1" transform="matrix(1,0,0,1.30336,-6.41857e-12,-982.863)">
            <rect x="1865.63" y="3244.67" width="479.567" height="65.047" style="fill:rgb(253,0,0);fill-opacity:0.5;"/>
        </g>
        <g id="enclosure-gym_passage_0" transform="matrix(1,0,0,1.30336,-6.41857e-12,-982.863)">
            <path d="M1934.88,2284.97L1934.88,2667.03L1865.63,2667.03L1865.63,2630.93L1914.15,2630.93L1914.15,2320.43L1822.1,2320.43L1822.1,2284.97L1934.88,2284.97Z" style="fill:rgb(253,0,0);fill-opacity:0.5;"/>
        </g>
        <g id="none-martial_arts_field" transform="matrix(1,0,0,0.993023,0,27.628)">
            <path d="M2174.64,3326.45L2174.64,3814.37L2165.12,3814.37L2165.12,3960.01L1910.54,3960.01L1910.54,3326.45L2174.64,3326.45Z" style="fill-opacity:0.5;"/>
        </g>
        <path id="none-gym" d="M2326.69,2592.44L2326.69,3062.42L1919.29,3062.42L1919.29,2592.44L1999.48,2592.44L1999.48,2511.73L1975.26,2511.73L1975.26,2493.22L2270.72,2493.22L2270.72,2511.73L2246.51,2511.73L2246.51,2592.44L2326.69,2592.44Z" style="fill-opacity:0.5;"/>
        <rect id="none-clubroom_building_1" x="464.255" y="2857.42" width="100.303" height="273.126" style="fill:rgb(26,26,26);fill-opacity:0.5;"/>
        <g id="none-wc" transform="matrix(1.04605,0,0,1.42433,-37.9261,-785.561)">
            <rect x="626.753" y="1827.87" width="70.298" height="85.098" style="fill:rgb(26,26,26);fill-opacity:0.5;"/>
        </g>
        <g id="none-nishi_hall" transform="matrix(2.30268,0,0,0.462645,573.564,-381.05)">
            <rect x="626.753" y="1827.87" width="70.298" height="85.098" style="fill:rgb(26,26,26);fill-opacity:0.5;"/>
        </g>
        <g id="none-wc1" serif:id="none-wc" transform="matrix(1.04605,0,0,1.42433,1019.41,-785.561)">
            <rect x="626.753" y="1827.87" width="70.298" height="85.098" style="fill:rgb(26,26,26);fill-opacity:0.5;"/>
        </g>
        <g id="none-stairs" transform="matrix(1.04605,0,0,1.42433,35.6093,-785.561)">
            <rect x="626.753" y="1827.87" width="70.298" height="85.098" style="fill:rgb(26,26,26);fill-opacity:0.5;"/>
        </g>
        <g id="none-stairs1" serif:id="none-stairs" transform="matrix(1.04605,0,0,1.42433,1092.95,-785.561)">
            <rect x="626.753" y="1827.87" width="70.298" height="85.098" style="fill:rgb(26,26,26);fill-opacity:0.5;"/>
        </g>
        <g id="none-wc2" serif:id="none-wc" transform="matrix(1.04605,0,0,1.22789,1298.47,-1432.13)">
            <rect x="626.753" y="1827.87" width="70.298" height="85.098" style="fill:rgb(26,26,26);fill-opacity:0.5;"/>
        </g>
        <g id="none-stairs2" serif:id="none-stairs" transform="matrix(1.04605,0,0,1.22789,1372.01,-1432.13)">
            <rect x="626.753" y="1827.87" width="70.298" height="85.098" style="fill:rgb(26,26,26);fill-opacity:0.5;"/>
        </g>
        <g id="none-stairs3" serif:id="none-stairs" transform="matrix(0.999399,0,0,1.11457,-3.07724,-157.409)">
            <rect x="902.747" y="1373.95" width="144.927" height="76.197" style="fill:rgb(26,26,26);fill-opacity:0.5;"/>
        </g>
        <g id="none-wc3" serif:id="none-wc" transform="matrix(0.992483,0,0,1.11457,148.006,-157.409)">
            <rect x="902.747" y="1373.95" width="144.927" height="76.197" style="fill:rgb(26,26,26);fill-opacity:0.5;"/>
        </g>
        <g id="none-stairs4" serif:id="none-stairs" transform="matrix(1.20417,0,0,0.982446,423.286,209.642)">
            <rect x="622.791" y="1817.93" width="77.496" height="109.136" style="fill:rgb(26,26,26);fill-opacity:0.5;"/>
        </g>
        <g id="none-stairs5" serif:id="none-stairs" transform="matrix(1.00001,0,0,1.11144,-0.0189084,-192.455)">
            <rect x="2257.66" y="1727.02" width="116.64" height="41.076" style="fill:rgb(26,26,26);fill-opacity:0.5;"/>
        </g>
        <g id="none-stairs6" serif:id="none-stairs" transform="matrix(1.32403,0,0,1.09234,-615.454,-219.431)">
            <rect x="1873.89" y="2388.72" width="36.651" height="51.543" style="fill:rgb(26,26,26);fill-opacity:0.5;"/>
        </g>
        <g id="none-gym_passage" transform="matrix(1.32403,0,0,1.09234,-615.454,-219.431)">
            <rect x="1873.89" y="2483.34" width="26.555" height="689.225" style="fill:rgb(26,26,26);fill-opacity:0.5;"/>
        </g>
        <g id="none-stairs7" serif:id="none-stairs" transform="matrix(0.829147,0,0,0.942525,318.747,191.443)">
            <rect x="1865.63" y="3330.87" width="29.263" height="128.07" style="fill:rgb(26,26,26);fill-opacity:0.5;"/>
        </g>
        <g id="none-wc4" serif:id="none-wc" transform="matrix(1.19641,0,0,0.845905,1207.3,-234.47)">
            <rect x="626.753" y="1827.87" width="70.298" height="85.098" style="fill:rgb(26,26,26);fill-opacity:0.5;"/>
        </g>
        <g id="none-ev" transform="matrix(0.702592,0,0,0.423479,1467.41,573.618)">
            <rect x="626.753" y="1827.87" width="70.298" height="85.098" style="fill:rgb(26,26,26);fill-opacity:0.5;"/>
        </g>
        <g id="none-wc5" serif:id="none-wc" transform="matrix(0.702592,0,0,0.422952,1467.41,538.589)">
            <rect x="626.753" y="1827.87" width="70.298" height="85.098" style="fill:rgb(26,26,26);fill-opacity:0.5;"/>
        </g>
        <g id="none-stairs8" serif:id="none-stairs" transform="matrix(2.0956,0,0,0.846431,727.832,-235.433)">
            <rect x="626.753" y="1827.87" width="70.298" height="85.098" style="fill:rgb(26,26,26);fill-opacity:0.5;"/>
        </g>
        <g id="none-grand" transform="matrix(0.993568,0,0,0.981704,12.8564,47.4449)">
            <rect x="627.133" y="2265.32" width="1188.79" height="1750.49" style="fill:rgb(26,26,26);fill-opacity:0.5;"/>
        </g>
        <g id="none-tennis_court" transform="matrix(0.976266,0,0,0.983616,15.0938,74.5182)">
            <rect x="635.956" y="4002.56" width="687.288" height="545.674" style="fill:rgb(26,26,26);fill-opacity:0.5;"/>
        </g>
        <g id="none-handball_court" transform="matrix(1.00256,0,0,1,-6.04822,0)">
            <rect x="1330.97" y="4011.5" width="1028.47" height="536.733" style="fill:rgb(26,26,26);fill-opacity:0.5;"/>
        </g>
        <g id="none-fountain" transform="matrix(0.906355,0,0,0.906355,136.414,113.654)">
            <circle cx="1471.99" cy="1177.83" r="47.997" style="fill:rgb(26,26,26);fill-opacity:0.5;"/>
        </g>
        <g id="none-gate_east_0" transform="matrix(-1,-1.22465e-16,4.74455e-17,-0.387422,2902.04,2367.87)">
            <rect x="479.043" y="1671.49" width="15.696" height="129.846" style="fill:rgb(26,26,26);fill-opacity:0.5;"/>
        </g>
        <g id="none-gate_nishi_hall_0" transform="matrix(6.12323e-17,-1,0.240219,1.47092e-17,1573.73,628.167)">
            <rect x="479.043" y="1671.49" width="15.696" height="129.846" style="fill:rgb(26,26,26);fill-opacity:0.5;"/>
        </g>
        <g id="none-gate_nishi_hall_1" transform="matrix(6.12323e-17,-1,0.146278,8.95696e-18,1880.6,628.167)">
            <rect x="479.043" y="1671.49" width="15.696" height="129.846" style="fill:rgb(26,26,26);fill-opacity:0.5;"/>
        </g>
        <g id="none-gate_west_2" transform="matrix(-1,-1.22465e-16,4.74455e-17,-0.387422,954.196,3904.73)">
            <rect x="479.043" y="1671.49" width="15.696" height="129.846" style="fill:rgb(26,26,26);fill-opacity:0.5;"/>
        </g>
        <g id="none-gate_north_0" transform="matrix(6.12323e-17,-1,0.772477,4.73006e-17,101.672,711.124)">
            <rect x="479.043" y="1671.49" width="15.696" height="129.846" style="fill:rgb(26,26,26);fill-opacity:0.5;"/>
        </g>
        <g id="none-gate_west_0" transform="matrix(1,0,0,1.21452,-2.40601,-384.331)">
            <rect x="479.043" y="1671.49" width="15.696" height="129.846" style="fill:rgb(26,26,26);fill-opacity:0.5;"/>
        </g>
        <g id="none-gate_west_1" transform="matrix(1,0,0,0.603254,-2.40601,316.5)">
            <rect x="479.043" y="1671.49" width="15.696" height="129.846" style="fill:rgb(26,26,26);fill-opacity:0.5;"/>
        </g>
        <g id="none-compass_2" transform="matrix(0.126681,-0.04486,0.0612912,0.173081,343.295,563.959)">
            <path d="M3695.8,281.894C4342.54,281.894 4867.62,666.206 4867.62,1139.57C4867.62,1612.93 4342.54,1997.25 3695.8,1997.25C3049.05,1997.25 2523.97,1612.93 2523.97,1139.57C2523.97,666.206 3049.05,281.894 3695.8,281.894ZM3695.8,410.546C3146.06,410.546 2699.74,737.211 2699.74,1139.57C2699.74,1541.93 3146.06,1868.6 3695.8,1868.6C4245.53,1868.6 4691.85,1541.93 4691.85,1139.57C4691.85,737.211 4245.53,410.546 3695.8,410.546Z" style="fill:rgb(26,26,26);fill-opacity:0.5;"/>
        </g>
        <g id="none-compass_1" transform="matrix(0.258569,-0.0915639,0.102028,0.288119,-143.531,672.896)">
            <path d="M3501.17,1217.37C3497.16,1220.97 3491,1221.8 3485.99,1219.41C3480.97,1217.03 3478.28,1211.99 3479.35,1206.98C3503.05,1096.38 3573.37,768.257 3602.33,633.1C3603.5,627.642 3608.82,623.697 3615.01,623.697C3621.21,623.697 3626.53,627.642 3627.7,633.1C3656.66,768.257 3726.97,1096.38 3750.67,1206.98C3751.75,1211.99 3749.06,1217.03 3744.04,1219.41C3739.03,1221.8 3732.87,1220.97 3728.86,1217.37C3695.93,1187.83 3644.82,1141.95 3624.15,1123.4C3621.73,1121.23 3618.44,1120.01 3615.01,1120.01C3611.59,1120.01 3608.3,1121.23 3605.88,1123.4C3585.21,1141.95 3534.09,1187.83 3501.17,1217.37Z" style="fill:rgb(26,26,26);fill-opacity:0.5;"/>
        </g>
        <g id="none-compass_0" transform="matrix(0.251371,-0.0890152,0.0890152,0.251371,-39.2662,682.113)">
            <path d="M3345.87,396.109L3387.69,459.39L3387.69,395.523C3387.69,391.372 3388.58,388.26 3390.36,386.185C3392.14,384.109 3394.55,383.072 3397.57,383.072C3400.7,383.072 3403.16,384.109 3404.97,386.185C3406.78,388.26 3407.68,391.372 3407.68,395.523L3407.68,479.971C3407.68,489.395 3403.78,494.107 3395.96,494.107C3394.01,494.107 3392.25,493.826 3390.69,493.265C3389.13,492.703 3387.66,491.812 3386.29,490.591C3384.93,489.371 3383.66,487.942 3382.49,486.307C3381.31,484.671 3380.14,482.998 3378.97,481.289L3338.17,418.741L3338.17,481.656C3338.17,485.757 3337.22,488.858 3335.32,490.957C3333.41,493.057 3330.97,494.107 3327.99,494.107C3324.92,494.107 3322.45,493.045 3320.6,490.921C3318.74,488.797 3317.81,485.708 3317.81,481.656L3317.81,398.819C3317.81,395.303 3318.2,392.544 3318.99,390.542C3319.91,388.345 3321.45,386.551 3323.6,385.159C3325.75,383.768 3328.07,383.072 3330.56,383.072C3332.51,383.072 3334.18,383.389 3335.57,384.024C3336.97,384.659 3338.19,385.513 3339.24,386.587C3340.29,387.662 3341.36,389.053 3342.46,390.762C3343.56,392.471 3344.69,394.253 3345.87,396.109Z" style="fill:rgb(26,26,26);fill-opacity:0.5;fill-rule:nonzero;"/>
        </g>
        <g id="main-document_preparation_room" transform="matrix(0.527973,0,0,0.62912,785.203,519.386)">
            <rect x="1681.34" y="1259.39" width="150.76" height="114.564" style="fill:rgb(0,21,255);fill-opacity:0.5;"/>
        </g>
        <g id="main-changing_room_3" transform="matrix(0.527973,0,0,0.62912,864.8,519.386)">
            <rect x="1681.34" y="1259.39" width="150.76" height="114.564" style="fill:rgb(0,21,255);fill-opacity:0.5;"/>
        </g>
        <g id="main-changing_room_1" transform="matrix(1.05595,0,0,0.556787,-102.499,546.693)">
            <rect x="1681.34" y="1259.39" width="150.76" height="114.564" style="fill:rgb(0,21,255);fill-opacity:0.5;"/>
        </g>
        <g id="main-broadcast_room" transform="matrix(0.814041,0,0,1.00078,340.695,-1.10801)">
            <rect x="1832.1" y="1424.71" width="50.298" height="140.12" style="fill:rgb(0,21,255);fill-opacity:0.5;"/>
        </g>
        <g id="main-pool" transform="matrix(1.45857,0,0,1.54763,-981.089,-1187.1)">
            <rect x="1999.2" y="1912.45" width="301.27" height="358.864" style="fill:rgb(0,21,255);fill-opacity:0.5;"/>
        </g>
        <g id="main-meeting_room" transform="matrix(1.05595,0,0,3.19938,-102.499,-3147.89)">
            <rect x="1681.34" y="1259.39" width="150.76" height="114.564" style="fill:rgb(0,21,255);fill-opacity:0.5;"/>
        </g>
        <g id="main-art_preparation_room" transform="matrix(1.39532,0,0,0.247465,-937.479,794.464)">
            <rect x="2269.72" y="1009.73" width="101.705" height="349.981" style="fill:rgb(0,21,255);fill-opacity:0.5;"/>
        </g>
        <g id="main-2h" transform="matrix(0.505998,0,0,3.69091,286.919,-5539.61)">
            <rect x="653.697" y="2037.35" width="274.48" height="33.27" style="fill:rgb(0,21,255);fill-opacity:0.5;"/>
        </g>
        <g id="main-2g" transform="matrix(0.505998,0,0,3.69091,425.805,-5539.61)">
            <rect x="653.697" y="2037.35" width="274.48" height="33.27" style="fill:rgb(0,21,255);fill-opacity:0.5;"/>
        </g>
        <g id="main-2f" transform="matrix(0.505998,0,0,3.69091,564.692,-5539.61)">
            <rect x="653.697" y="2037.35" width="274.48" height="33.27" style="fill:rgb(0,21,255);fill-opacity:0.5;"/>
        </g>
        <g id="main-2e" transform="matrix(0.505998,0,0,3.69091,703.578,-5539.61)">
            <rect x="653.697" y="2037.35" width="274.48" height="33.27" style="fill:rgb(0,21,255);fill-opacity:0.5;"/>
        </g>
        <g id="main-2d" transform="matrix(0.505998,0,0,3.69091,935.783,-5539.61)">
            <rect x="653.697" y="2037.35" width="274.48" height="33.27" style="fill:rgb(0,21,255);fill-opacity:0.5;"/>
        </g>
        <g id="main-2c" transform="matrix(0.505998,0,0,3.69091,1074.67,-5539.61)">
            <rect x="653.697" y="2037.35" width="274.48" height="33.27" style="fill:rgb(0,21,255);fill-opacity:0.5;"/>
        </g>
        <g id="main-2b" transform="matrix(0.505998,0,0,3.69091,1213.56,-5539.61)">
            <rect x="653.697" y="2037.35" width="274.48" height="33.27" style="fill:rgb(0,21,255);fill-opacity:0.5;"/>
        </g>
        <g id="main-2a" transform="matrix(0.505998,0,0,3.69091,1352.44,-5539.61)">
            <rect x="653.697" y="2037.35" width="274.48" height="33.27" style="fill:rgb(0,21,255);fill-opacity:0.5;"/>
        </g>
        <g id="main-teachers_room" transform="matrix(2.72487,0,0,1.48264,-3251.49,-710.588)">
            <rect x="1690.12" y="1440.2" width="175.51" height="94.507" style="fill:rgb(0,21,255);fill-opacity:0.5;"/>
        </g>
        <g id="main-special_room_2nd" transform="matrix(0.808564,0,0,1.48264,862.946,-710.588)">
            <rect x="1690.12" y="1440.2" width="175.51" height="94.507" style="fill:rgb(0,21,255);fill-opacity:0.5;"/>
        </g>
        <g id="main-mathematics_preparation_room" transform="matrix(1.72524,0,0,1.22387,-1591.62,-259.268)">
            <rect x="1892.21" y="762.668" width="92.274" height="56.443" style="fill:rgb(0,21,255);fill-opacity:0.5;"/>
        </g>
        <g id="main-english_preparation_room" transform="matrix(1.72524,0,0,1.22387,-1591.62,-121.112)">
            <rect x="1892.21" y="762.668" width="92.274" height="56.443" style="fill:rgb(0,21,255);fill-opacity:0.5;"/>
        </g>
        <g id="main-japanese_preparation_room" transform="matrix(1.72524,0,0,1.22387,-1591.62,-190.19)">
            <rect x="1892.21" y="762.668" width="92.274" height="56.443" style="fill:rgb(0,21,255);fill-opacity:0.5;"/>
        </g>
        <g id="main-social_studies_room_2nd" transform="matrix(1.19564,0,0,1.22128,-206.357,-331.879)">
            <rect x="1015.45" y="1499.82" width="138.4" height="113.703" style="fill:rgb(0,21,255);fill-opacity:0.5;"/>
        </g>
        <g id="main-social_studies_preparation_room" transform="matrix(1.30508,0,0,1.22128,-498.105,-331.879)">
            <rect x="1015.45" y="1499.82" width="138.4" height="113.703" style="fill:rgb(0,21,255);fill-opacity:0.5;"/>
        </g>
        <g id="main-social_studies_room_1st" transform="matrix(1.51334,0,0,1.22128,-919.028,-331.879)">
            <rect x="1015.45" y="1499.82" width="138.4" height="113.703" style="fill:rgb(0,21,255);fill-opacity:0.5;"/>
        </g>
        <g id="main-printing_room" transform="matrix(1.20693,0,0,1.02409,-267.374,-29.9729)">
            <rect x="1263.27" y="1420.46" width="80" height="136.823" style="fill:rgb(0,21,255);fill-opacity:0.5;"/>
        </g>
        <g id="main-career_room" transform="matrix(1.15208,0,0,1.26637,-304.217,-405.754)">
            <rect x="1943.52" y="1447.02" width="92.33" height="110.647" style="fill:rgb(0,21,255);fill-opacity:0.5;"/>
        </g>
        <g id="main-consultation_room_1st" transform="matrix(1.0195,0,0,1.26637,59.8262,-407.754)">
            <rect x="1943.52" y="1447.02" width="92.33" height="110.647" style="fill:rgb(0,21,255);fill-opacity:0.5;"/>
        </g>
        <g id="main-consultation_room_2nd" transform="matrix(1.0195,0,0,1.26637,153.957,-407.754)">
            <rect x="1943.52" y="1447.02" width="92.33" height="110.647" style="fill:rgb(0,21,255);fill-opacity:0.5;"/>
        </g>
        <g id="main-art_material_room" transform="matrix(1.39532,0,0,0.205938,-937.479,1103.75)">
            <rect x="2269.72" y="1009.73" width="101.705" height="349.981" style="fill:rgb(0,21,255);fill-opacity:0.5;"/>
        </g>
        <g id="main-craft_preparation_room" transform="matrix(1.39532,0,0,0.247465,-937.479,707.856)">
            <rect x="2269.72" y="1009.73" width="101.705" height="349.981" style="fill:rgb(0,21,255);fill-opacity:0.5;"/>
        </g>
        <g id="main-art_room" transform="matrix(1.39532,0,0,0.516451,-937.479,609.468)">
            <rect x="2269.72" y="1009.73" width="101.705" height="349.981" style="fill:rgb(0,21,255);fill-opacity:0.5;"/>
        </g>
        <g id="main-craft_room" transform="matrix(1.39532,0,0,0.61293,-937.479,124.321)">
            <rect x="2269.72" y="1009.73" width="101.705" height="349.981" style="fill:rgb(0,21,255);fill-opacity:0.5;"/>
        </g>
        <g id="main-craft_warehouse" transform="matrix(1.39532,0,0,0.197377,-937.479,474.839)">
            <rect x="2269.72" y="1009.73" width="101.705" height="349.981" style="fill:rgb(0,21,255);fill-opacity:0.5;"/>
        </g>
        <g id="shinkan80-s80_2a_back" transform="matrix(0.752808,0,0,0.834066,507.669,330.987)">
            <ellipse cx="1714.59" cy="2087.91" rx="31.379" ry="28.322" style="fill:rgb(251,0,255);fill-opacity:0.5;"/>
        </g>
        <g id="shinkan80-s80_2a_front" transform="matrix(0.752808,0,0,0.834066,424.204,275.869)">
            <ellipse cx="1714.59" cy="2087.91" rx="31.379" ry="28.322" style="fill:rgb(251,0,255);fill-opacity:0.5;"/>
        </g>
        <g id="shinkan80-s80_2b_back" transform="matrix(0.752808,0,0,0.834066,360.138,329.412)">
            <ellipse cx="1714.59" cy="2087.91" rx="31.379" ry="28.322" style="fill:rgb(251,0,255);fill-opacity:0.5;"/>
        </g>
        <g id="shinkan80-s80_2b_front" transform="matrix(0.752808,0,0,0.834066,285.217,275.869)">
            <ellipse cx="1714.59" cy="2087.91" rx="31.379" ry="28.322" style="fill:rgb(251,0,255);fill-opacity:0.5;"/>
        </g>
        <g id="shinkan80-s80_2c_back" transform="matrix(0.752808,0,0,0.834066,221.403,329.412)">
            <ellipse cx="1714.59" cy="2087.91" rx="31.379" ry="28.322" style="fill:rgb(251,0,255);fill-opacity:0.5;"/>
        </g>
        <g id="shinkan80-s80_2c_front" transform="matrix(0.752808,0,0,0.834066,146.229,275.869)">
            <ellipse cx="1714.59" cy="2087.91" rx="31.379" ry="28.322" style="fill:rgb(251,0,255);fill-opacity:0.5;"/>
        </g>
        <g id="shinkan80-s80_2d_back" transform="matrix(0.752808,0,0,0.834066,82.4718,329.412)">
            <ellipse cx="1714.59" cy="2087.91" rx="31.379" ry="28.322" style="fill:rgb(251,0,255);fill-opacity:0.5;"/>
        </g>
        <g id="shinkan80-s80_2d_front" transform="matrix(0.752808,0,0,0.834066,7.34258,275.869)">
            <ellipse cx="1714.59" cy="2087.91" rx="31.379" ry="28.322" style="fill:rgb(251,0,255);fill-opacity:0.5;"/>
        </g>
        <g id="shinkan80-s80_2e" transform="matrix(0.752808,0,0,0.834066,-186.965,300.025)">
            <ellipse cx="1714.59" cy="2087.91" rx="31.379" ry="28.322" style="fill:rgb(251,0,255);fill-opacity:0.5;"/>
        </g>
        <g id="shinkan80-s80_2f_back" transform="matrix(0.752808,0,0,0.834066,-288.321,329.412)">
            <ellipse cx="1714.59" cy="2087.91" rx="31.379" ry="28.322" style="fill:rgb(251,0,255);fill-opacity:0.5;"/>
        </g>
        <g id="shinkan80-s80_2f_front" transform="matrix(0.752808,0,0,0.834066,-363.647,275.869)">
            <ellipse cx="1714.59" cy="2087.91" rx="31.379" ry="28.322" style="fill:rgb(251,0,255);fill-opacity:0.5;"/>
        </g>
        <g id="shinkan80-s80_2g_back" transform="matrix(0.752808,0,0,0.834066,-427.866,329.412)">
            <ellipse cx="1714.59" cy="2087.91" rx="31.379" ry="28.322" style="fill:rgb(251,0,255);fill-opacity:0.5;"/>
        </g>
        <g id="shinkan80-s80_2g_front" transform="matrix(0.752808,0,0,0.834066,-502.635,275.869)">
            <ellipse cx="1714.59" cy="2087.91" rx="31.379" ry="28.322" style="fill:rgb(251,0,255);fill-opacity:0.5;"/>
        </g>
        <g id="shinkan80-s80_2h_back" transform="matrix(0.752808,0,0,0.834066,-566.347,329.412)">
            <ellipse cx="1714.59" cy="2087.91" rx="31.379" ry="28.322" style="fill:rgb(251,0,255);fill-opacity:0.5;"/>
        </g>
        <g id="shinkan80-s80_2h_front" transform="matrix(0.752808,0,0,0.834066,-641.521,275.869)">
            <ellipse cx="1714.59" cy="2087.91" rx="31.379" ry="28.322" style="fill:rgb(251,0,255);fill-opacity:0.5;"/>
        </g>
        <g id="shinkan80-s80_social2" transform="matrix(0.752808,0,0,0.834066,-200.261,-172.2)">
            <ellipse cx="1714.59" cy="2087.91" rx="31.379" ry="28.322" style="fill:rgb(251,0,255);fill-opacity:0.5;"/>
        </g>
        <g id="shinkan80-s80_social1_front" transform="matrix(0.752808,0,0,0.834066,-503.355,-141.454)">
            <ellipse cx="1714.59" cy="2087.91" rx="31.379" ry="28.322" style="fill:rgb(251,0,255);fill-opacity:0.5;"/>
        </g>
        <g id="shinkan80-s80_social1_back" transform="matrix(0.752808,0,0,0.834066,-634.064,-202.871)">
            <ellipse cx="1714.59" cy="2087.91" rx="31.379" ry="28.322" style="fill:rgb(251,0,255);fill-opacity:0.5;"/>
        </g>
        <g id="shinkan80-s80_meeting" transform="matrix(0.752808,0,0,0.834066,461.898,-676.816)">
            <ellipse cx="1714.59" cy="2087.91" rx="31.379" ry="28.322" style="fill:rgb(251,0,255);fill-opacity:0.5;"/>
        </g>
        <g id="shinkan80-s80_broadcast" transform="matrix(0.752808,0,0,0.834066,561.814,-241.631)">
            <ellipse cx="1714.59" cy="2087.91" rx="31.379" ry="28.322" style="fill:rgb(251,0,255);fill-opacity:0.5;"/>
        </g>
        <g id="shinkan80-s80_art" transform="matrix(0.752808,0,0,0.834066,1009.71,-516.766)">
            <ellipse cx="1714.59" cy="2087.91" rx="31.379" ry="28.322" style="fill:rgb(251,0,255);fill-opacity:0.5;"/>
        </g>
        <g id="shinkan80-s80_special2" transform="matrix(0.752808,0,0,0.834066,1009.71,-241.631)">
            <ellipse cx="1714.59" cy="2087.91" rx="31.379" ry="28.322" style="fill:rgb(251,0,255);fill-opacity:0.5;"/>
        </g>
        <g id="shinkan80-s80_hallway4" transform="matrix(0.752808,0,0,0.834066,-91.9002,108.94)">
            <ellipse cx="1714.59" cy="2087.91" rx="31.379" ry="28.322" style="fill:rgb(251,0,255);fill-opacity:0.5;"/>
        </g>
        <g id="shinkan80-s80_hallway3" transform="matrix(0.752808,0,0,0.834066,-91.9002,-144.604)">
            <ellipse cx="1714.59" cy="2087.91" rx="31.379" ry="28.322" style="fill:rgb(251,0,255);fill-opacity:0.5;"/>
        </g>
        <g id="shinkan80-s80_hallway2" transform="matrix(0.752808,0,0,0.834066,-59.0753,164.058)">
            <ellipse cx="1714.59" cy="2087.91" rx="31.379" ry="28.322" style="fill:rgb(251,0,255);fill-opacity:0.5;"/>
        </g>
        <g id="shinkan80-s80_hallway1" transform="matrix(0.752808,0,0,0.834066,-59.0753,-89.4855)">
            <ellipse cx="1714.59" cy="2087.91" rx="31.379" ry="28.322" style="fill:rgb(251,0,255);fill-opacity:0.5;"/>
        </g>
        <g id="main-pool_changing_room_man" transform="matrix(2.07691,0,0,1.27451,-2318.19,-644.553)">
            <rect x="2047.79" y="2332.35" width="105.775" height="92.674" style="fill:rgb(0,21,255);fill-opacity:0.5;"/>
        </g>
        <g id="main-pool_changing_room_woman" transform="matrix(2.07691,0,0,1.27451,-2098.51,-644.553)">
            <rect x="2047.79" y="2332.35" width="105.775" height="92.674" style="fill:rgb(0,21,255);fill-opacity:0.5;"/>
        </g>
        <g id="main-gym_2f_teachers" transform="matrix(1.21868,0,0,1.1779,-445.765,-565.689)">
            <rect x="1925.49" y="3095.88" width="121.469" height="140.222" style="fill:rgb(0,21,255);fill-opacity:0.5;"/>
        </g>
        <g id="main-gym_2f_changing_room_man" transform="matrix(0.60934,0,0,0.707542,1023.89,956.42)">
            <rect x="1925.49" y="3095.88" width="121.469" height="140.222" style="fill:rgb(0,21,255);fill-opacity:0.5;"/>
        </g>
        <g id="main-gym_2f_changing_room_woman" transform="matrix(0.60934,0,0,0.707542,1097.9,956.42)">
            <rect x="1925.49" y="3095.88" width="121.469" height="140.222" style="fill:rgb(0,21,255);fill-opacity:0.5;"/>
        </g>
        <g id="main-gym_2f_stage_broadcast_room" transform="matrix(0.660118,0,0,0.57558,648.242,729.805)">
            <rect x="1925.49" y="3095.88" width="121.469" height="140.222" style="fill:rgb(0,21,255);fill-opacity:0.5;"/>
        </g>
        <g id="main-gym_2f_stage_waiting_room" transform="matrix(0.660118,0,0,0.57558,975.459,729.805)">
            <rect x="1925.49" y="3095.88" width="121.469" height="140.222" style="fill:rgb(0,21,255);fill-opacity:0.5;"/>
        </g>
        <g id="main-gym_2f_stairs" transform="matrix(0.60934,0,0,0.707542,875.543,956.42)">
            <rect x="1925.49" y="3095.88" width="121.469" height="140.222" style="fill:rgb(0,21,255);fill-opacity:0.5;"/>
        </g>
        <g id="main-gym_2f_catwalk" transform="matrix(0.152335,0,0,3.48371,1607.47,-8192.69)">
            <path d="M4842.8,3236.1L1925.49,3236.1L1925.49,3095.88L2046.96,3095.88L2046.96,3230.78L4721.33,3230.78L4721.33,3095.88L4842.8,3095.88L4842.8,3236.1Z" style="fill:rgb(0,21,255);fill-opacity:0.5;"/>
        </g>
        <g id="main-gym_2f_stage_stairs_1" transform="matrix(9.32782e-18,0.152335,-0.531094,3.25201e-17,3619.46,2199.9)">
            <rect x="1925.49" y="3095.88" width="121.469" height="140.222" style="fill:rgb(0,21,255);fill-opacity:0.5;"/>
        </g>
        <g id="main-gym_2f_passage_1" transform="matrix(4.06852e-17,0.66444,-0.131962,8.08035e-18,2327.83,1232.36)">
            <rect x="1925.49" y="3095.88" width="121.469" height="140.222" style="fill:rgb(0,21,255);fill-opacity:0.5;"/>
        </g>
        <g id="main-gym_2f_passage_0" transform="matrix(4.06852e-17,0.66444,-0.131962,8.08035e-18,2753.73,1232.36)">
            <rect x="1925.49" y="3095.88" width="121.469" height="140.222" style="fill:rgb(0,21,255);fill-opacity:0.5;"/>
        </g>
        <g id="main-gym_2f_stage_stairs_0" transform="matrix(9.32782e-18,0.152335,-0.531094,3.25201e-17,3989.4,2199.9)">
            <rect x="1925.49" y="3095.88" width="121.469" height="140.222" style="fill:rgb(0,21,255);fill-opacity:0.5;"/>
        </g>
        <g id="main-clubroom_building_0_2f_room_0" transform="matrix(0.638871,0,0,1.42945,186.125,-1128.88)">
            <rect x="435.346" y="2396.7" width="128.179" height="34.684" style="fill:rgb(0,21,255);fill-opacity:0.5;"/>
        </g>
        <g id="main-clubroom_building_0_2f_room_5" transform="matrix(0.638871,0,0,1.42945,186.125,-880.991)">
            <rect x="435.346" y="2396.7" width="128.179" height="34.684" style="fill:rgb(0,21,255);fill-opacity:0.5;"/>
        </g>
        <g id="main-clubroom_building_0_2f_room_1" transform="matrix(0.638871,0,0,1.42945,186.125,-1079.31)">
            <rect x="435.346" y="2396.7" width="128.179" height="34.684" style="fill:rgb(0,21,255);fill-opacity:0.5;"/>
        </g>
        <g id="main-clubroom_building_0_2f_room_6" transform="matrix(0.638871,0,0,1.42945,186.125,-831.413)">
            <rect x="435.346" y="2396.7" width="128.179" height="34.684" style="fill:rgb(0,21,255);fill-opacity:0.5;"/>
        </g>
        <g id="main-clubroom_building_0_2f_room_2" transform="matrix(0.638871,0,0,1.42945,186.125,-1029.73)">
            <rect x="435.346" y="2396.7" width="128.179" height="34.684" style="fill:rgb(0,21,255);fill-opacity:0.5;"/>
        </g>
        <g id="main-clubroom_building_0_2f_room_7" transform="matrix(0.638871,0,0,1.42945,186.125,-781.834)">
            <rect x="435.346" y="2396.7" width="128.179" height="34.684" style="fill:rgb(0,21,255);fill-opacity:0.5;"/>
        </g>
        <g id="main-clubroom_building_0_2f_room_3" transform="matrix(0.638871,0,0,1.42945,186.125,-980.149)">
            <rect x="435.346" y="2396.7" width="128.179" height="34.684" style="fill:rgb(0,21,255);fill-opacity:0.5;"/>
        </g>
        <g id="main-clubroom_building_0_2f_room_8" transform="matrix(0.638871,0,0,1.42945,186.125,-732.255)">
            <rect x="435.346" y="2396.7" width="128.179" height="34.684" style="fill:rgb(0,21,255);fill-opacity:0.5;"/>
        </g>
        <g id="main-clubroom_building_0_2f_room_4" transform="matrix(0.638871,0,0,1.42945,186.125,-930.57)">
            <rect x="435.346" y="2396.7" width="128.179" height="34.684" style="fill:rgb(0,21,255);fill-opacity:0.5;"/>
        </g>
        <g id="main-clubroom_building_0_2f_room_9" transform="matrix(0.638871,0,0,1.42945,186.125,-682.677)">
            <rect x="435.346" y="2396.7" width="128.179" height="34.684" style="fill:rgb(0,21,255);fill-opacity:0.5;"/>
        </g>
        <g id="main-clubroom_building_0_2f_stairs_0" transform="matrix(1.03136,0,0,1.1541,-16.6364,-351.384)">
            <rect x="466.272" y="2274.18" width="97.254" height="20.656" style="fill:rgb(0,21,255);fill-opacity:0.5;"/>
        </g>
        <g id="main-clubroom_building_0_2f_stairs_1" transform="matrix(1.05862,0,0,1.36807,-32.0022,-1043.97)">
            <rect x="468.777" y="2804.55" width="94.749" height="37.865" style="fill:rgb(0,21,255);fill-opacity:0.5;"/>
        </g>
        <g id="main-martial_arts_field_2f_stairs" transform="matrix(1.23862,0,0,0.878528,-485.472,426.439)">
            <rect x="2216.5" y="3426.01" width="68.657" height="96.798" style="fill:rgb(0,21,255);fill-opacity:0.5;"/>
        </g>
        <g id="main-martial_arts_field_2f_changing_man" transform="matrix(1.24212,0,0,2.25701,-578.511,-4135.61)">
            <rect x="2216.5" y="3426.01" width="68.657" height="96.798" style="fill:rgb(0,21,255);fill-opacity:0.5;"/>
        </g>
        <g id="main-martial_arts_field_2f_changing_woman" transform="matrix(1.24212,0,0,2.25701,-493.232,-4135.61)">
            <rect x="2216.5" y="3426.01" width="68.657" height="96.798" style="fill:rgb(0,21,255);fill-opacity:0.5;"/>
        </g>
        <g id="main-martial_arts_field_2f_teachers" transform="matrix(2.48423,0,0,1.96749,-3331.66,-3409.76)">
            <path d="M2285.15,3426.01L2285.15,3479.58L2250.92,3479.58L2250.92,3522.8L2216.5,3522.8L2216.5,3426.01L2285.15,3426.01Z" style="fill:rgb(0,21,255);fill-opacity:0.5;"/>
        </g>
        <g id="main-nishi_hall_2f_meeting_room_1" transform="matrix(0.812701,0,0,4.02697,280.042,-1606.97)">
            <rect x="2136.99" y="470.214" width="103.826" height="44.205" style="fill:rgb(0,21,255);fill-opacity:0.5;"/>
        </g>
        <g id="main-nishi_hall_2f_office" transform="matrix(0.812701,0,0,2.40786,280.042,-980.185)">
            <rect x="2136.99" y="470.214" width="103.826" height="44.205" style="fill:rgb(0,21,255);fill-opacity:0.5;"/>
        </g>
        <g id="main-nishi_hall_2f_wc_man_0" transform="matrix(0.614076,0,0,2.40786,837.942,-980.185)">
            <path d="M2188.91,514.419L2136.99,514.419L2136.99,470.214L2240.82,470.214L2240.82,494.699L2188.91,494.699L2188.91,514.419Z" style="fill:rgb(0,21,255);fill-opacity:0.5;"/>
        </g>
        <g id="main-nishi_hall_2f_wc_man_1" transform="matrix(0.307038,0,0,1.07414,1525.96,-294.094)">
            <rect x="2136.99" y="470.214" width="103.826" height="44.205" style="fill:rgb(0,21,255);fill-opacity:0.5;"/>
        </g>
        <g id="main-nishi_hall_2f_shower_man" transform="matrix(0.448518,0,0,1.50623,1255.5,-556.224)">
            <rect x="2136.99" y="470.214" width="103.826" height="44.205" style="fill:rgb(0,21,255);fill-opacity:0.5;"/>
        </g>
        <g id="main-nishi_hall_2f_changing_room_man" transform="matrix(0.448518,0,0,0.901633,1255.5,-205.352)">
            <rect x="2136.99" y="470.214" width="103.826" height="44.205" style="fill:rgb(0,21,255);fill-opacity:0.5;"/>
        </g>
        <g id="main-nishi_hall_2f_meeting_room_0" transform="matrix(1.53512,0,0,4.02697,-1179.39,-1606.97)">
            <rect x="2136.99" y="470.214" width="103.826" height="44.205" style="fill:rgb(0,21,255);fill-opacity:0.5;"/>
        </g>
        <g id="main-nishi_hall_2f_stairs" transform="matrix(0.47338,0,0,1.77199,1089.55,-681.189)">
            <rect x="2136.99" y="470.214" width="103.826" height="44.205" style="fill:rgb(0,21,255);fill-opacity:0.5;"/>
        </g>
        <g id="main-nishi_hall_2f_outdoor_stairs" transform="matrix(0.788724,0,0,0.890633,493.155,45.818)">
            <rect x="2136.99" y="470.214" width="103.826" height="44.205" style="fill:rgb(0,21,255);fill-opacity:0.5;"/>
        </g>
        <g id="main-audiovisual_hall_2f_stage" transform="matrix(0.666989,0,0,1.38578,596.992,-72.7082)">
            <rect x="1639.24" y="188.469" width="306.938" height="62.502" style="fill:rgb(0,21,254);fill-opacity:0.5;"/>
        </g>
        <g id="main-audiovisual_hall_2f" transform="matrix(1,0,0,4.15483,7.21911e-12,-507.975)">
            <path d="M1946.18,209.278L1920.59,209.278L1920.59,230.125L1946.18,230.125L1946.18,250.971L1639.24,250.971L1639.24,230.125L1664.83,230.125L1664.83,209.278L1639.24,209.278L1690.35,188.469L1895.07,188.469L1946.18,209.278Z" style="fill:rgb(0,21,254);fill-opacity:0.5;"/>
        </g>
        <g id="main-audiovisual_hall_2f_stairs_0" transform="matrix(0.35555,0,0,0.513998,1242.19,275.714)">
            <rect x="1774" y="504" width="206" height="72" style="fill:rgb(0,21,254);fill-opacity:0.5;"/>
        </g>
        <g id="main-audiovisual_hall_2f_stairs_1" transform="matrix(0.35555,0,0,0.513998,1008.5,275.714)">
            <rect x="1774" y="504" width="206" height="72" style="fill:rgb(0,21,254);fill-opacity:0.5;"/>
        </g>
        <g id="main-audiovisual_hall_2f_monitor_room" transform="matrix(2.36282,0,0,1,-2307.91,0)">
            <rect x="1718.52" y="534.769" width="34.023" height="37.008" style="fill:rgb(0,21,254);fill-opacity:0.5;"/>
        </g>
        <g id="main-audiovisual_hall_2f_ramp_0" transform="matrix(0.349391,0,0,0.913116,1266.2,38.9373)">
            <rect x="1872.94" y="353.299" width="73.243" height="94.856" style="fill:rgb(0,21,254);fill-opacity:0.5;"/>
        </g>
        <g id="main-audiovisual_hall_2f_ramp_1" transform="matrix(0.349391,0,0,0.913116,984.855,38.9373)">
            <rect x="1872.94" y="353.299" width="73.243" height="94.856" style="fill:rgb(0,21,254);fill-opacity:0.5;"/>
        </g>
        <path id="main-audiovisual_hall_2f_stage_side_1" d="M1690.35,188.469L1690.35,275.084L1639.24,361.54L1639.24,188.469L1690.35,188.469Z" style="fill:rgb(0,21,254);fill-opacity:0.5;"/>
        <g id="main-audiovisual_hall_2f_stage_side_0" transform="matrix(-1,0,0,1,3585.42,0)">
            <path d="M1690.35,188.469L1690.35,275.084L1639.24,361.54L1639.24,188.469L1690.35,188.469Z" style="fill:rgb(0,21,254);fill-opacity:0.5;"/>
        </g>
    </g>
</svg>
