<?xml version="1.0" encoding="UTF-8" standalone="no"?>
<svg width="1991.3156" height="4493.0317" viewBox="0 0 1991.3156 4493.0317" version="1.1" xml:space="preserve" style="clip-rule:evenodd;fill-rule:evenodd;stroke-linejoin:round;stroke-miterlimit:2" id="svg93"
    xmlns="http://www.w3.org/2000/svg"
    xmlns:svg="http://www.w3.org/2000/svg">
    <defs id="defs93" />
    <path d="m 1822.4979,407.8607 h 168.8176 v 4085.171 H 0 V 1131.161 H 271.41196 V 937.3392 H 842.21111 V 0 h 980.28679 z" style="fill:#ffffff;fill-opacity:0.53;stroke-width:2.30821" id="base" />
    <path id="enclosure-classroom_building" d="M 1739.131,692.241 V 554.085 h 182.86 v 890.693 h -436.55 v 430.43 h -112.78 v 107.62 H 168.25001 v -284.95 h 147.071 v 121.2 h 408.47 v -300.44 h -555.541 v -179.81 h 281.438 v -84.93 h 288.683 v 9.82 H 1223.461 V 554.085 h 200.14 v 138.156 z m 0,145.378 -315.53,0.457 v 353.562 h 315.53 z m -315.53,607.159 H 807.86101 v 374.3 H 1225.591 v -121.2 h 198.01 z" style="fill:#fd0000;fill-opacity:0.5" />
    <path d="m 1811.0999,31.9751 v 351.92919 h -81.8834 V 344.55588 H 1567.3367 V 31.9751 Z" style="fill:#fd0000;fill-opacity:0.5;stroke-width:1.03313" id="enclosure-nishi_hall" />
    <path id="enclosure-audiovisual_hall" style="fill:#fd0000;fill-opacity:0.5" d="m 1303.111,414.71698 h 120.3831 v 37.008 H 1303.111 Z" />
    <path id="none-nishi_hall" style="fill:#1a1a1a;fill-opacity:0.5;stroke-width:1.03215" d="m 1567.3366,344.55292 h 161.8738 v 39.37016 h -161.8738 z" />
    <path d="m 1924.8528,1606.968 v 766.2 h -439.4183 v -720.55 h 322.7796 v -45.65 z" style="fill:#1a1a1a;fill-opacity:0.5;stroke-width:1.01868" id="none-enclosure-pool" />
    <path id="none-audiovisual_hall" d="M 1496.741,68.417 V 489.22 h -73.14 v 43.395 h -116.94 l -43.72,-43.395 h -73.14 V 68.417 Z m -73.24,346.3 h -120.39 v 37.008 h 120.39 z" style="fill:#1a1a1a;fill-opacity:0.5" />
    <path d="m 1895.761,3210.8174 v 484.5157 h -180.08 v 144.6239 h -254.58 v -629.1396 z" style="fill:#1a1a1a;fill-opacity:0.5;stroke-width:0.996505" id="none-martial_arts_field" />
    <path id="none-enclosure-gym" style="fill:#1a1a1a;fill-opacity:0.5;stroke-width:0.990694" d="m 1451.348,2373.1672 h 444.409 v 752.8682 h -444.409 z" />
    <path id="main-wc_class_west_3f" style="fill:#0015ff;fill-opacity:0.5;stroke-width:1.22062" d="m 168.24985,1697.8771 h 73.53522 v 121.2076 h -73.53522 z" />
    <path id="main-stairs_class_west_3f" style="fill:#0015ff;fill-opacity:0.5;stroke-width:1.22062" d="m 241.78525,1697.8771 h 73.53522 v 121.2076 h -73.53522 z" />
    <path id="main-wc_class_east_3f" style="fill:#0015ff;fill-opacity:0.5;stroke-width:1.22062" d="m 1225.586,1697.8771 h 73.5352 v 121.2076 h -73.5352 z" />
    <path id="main-stairs_class_east_3f" style="fill:#0015ff;fill-opacity:0.5;stroke-width:1.22062" d="m 1299.1259,1697.8771 h 73.5353 v 121.2076 h -73.5353 z" />
    <path id="main-wc_management_north_3f" style="fill:#0015ff;fill-opacity:0.5;stroke-width:1.13333" d="m 1504.646,692.24127 h 73.5352 v 104.49099 h -73.5352 z" />
    <path id="main-stairs_management_north_3f" style="fill:#0015ff;fill-opacity:0.5;stroke-width:1.13333" d="m 1578.186,692.24127 h 73.5352 v 104.49099 h -73.5352 z" />
    <path id="main-stairs_management_west_3f" style="fill:#0015ff;fill-opacity:0.5;stroke-width:1.05541" d="m 449.68821,1253.9023 h 144.8399 v 84.9269 h -144.8399 z" />
    <path id="none-wc" style="fill:#0015ff;fill-opacity:0.5;stroke-width:1.05176" d="m 594.52801,1253.9023 h 143.8376 v 84.9269 h -143.8376 z" />
    <path id="main-stairs_class_center_3f" style="fill:#0015ff;fill-opacity:0.5;stroke-width:1.08767" d="m 723.79331,1875.6082 h 93.3184 v 107.2202 h -93.3184 z" />
    <path id="main-stairs_management_center_3f" style="fill:#0015ff;fill-opacity:0.5;stroke-width:1.00601" d="m 1507.7146,1191.6824 h 84.1052 v 71.9848 h -84.1052 z" />
    <path id="main-wc_management_center_accessible_3f" style="fill:#0015ff;fill-opacity:0.5;stroke-width:0.545126" d="m 1458.3226,1191.6383 h 49.3908 v 35.9924 h -49.3908 z" />
    <path id="main-ev_3f" style="fill:#0015ff;fill-opacity:0.5;stroke-width:0.545126" d="m 1458.3226,1227.6303 h 49.3908 v 35.9923 h -49.3908 z" />
    <path id="main-wc_management_center_3f" style="fill:#0015ff;fill-opacity:0.5;stroke-width:1.33183" d="m 1591.8166,1191.6808 h 147.3165 v 72.0296 h -147.3165 z" />
    <path id="none-grand" style="fill:#1a1a1a;fill-opacity:0.5;stroke-width:0.987618" d="m 186.5167,2151.2666 h 1181.1438 v 1718.463 H 186.5167 Z" />
    <path id="none-gate_west_0" style="fill:#1a1a1a;fill-opacity:0.5;stroke-width:1.10205" d="m 27.198,1525.6751 h 15.696 v 157.7005 H 27.198 Z" />
    <path id="none-gate_west_1" style="fill:#1a1a1a;fill-opacity:0.5;stroke-width:0.776694" d="m 27.198,1204.781 h 15.696 v 78.3301 H 27.198 Z" />
    <path id="none-clubroom_building_1" style="fill:#1a1a1a;fill-opacity:0.5" d="m 14.81601,2737.3679 h 100.30301 v 273.126 H 14.81601 Z" />
    <path id="none-clubroom_building_0" style="fill:#1a1a1a;fill-opacity:0.5;stroke-width:1.09782" d="m 14.81486,2153.1921 h 100.30226 v 571.4297 H 14.81486 Z" />
    <path id="none-tennis_court" style="fill:#1a1a1a;fill-opacity:0.5;stroke-width:0.979934" d="m 186.517,3891.4482 h 670.97591 v 536.7337 H 186.517 Z" />
    <path id="none-handball_court" style="fill:#1a1a1a;fill-opacity:0.5;stroke-width:1.00128" d="M 878.89001,3891.448 H 1909.9929 v 536.733 H 878.89001 Z" />
    <path id="none-fountain" style="fill:#1a1a1a;fill-opacity:0.5;stroke-width:0.906355" d="m 1064.6228,1061.134 a 43.502323,43.502323 0 0 1 -43.5024,43.5024 43.502323,43.502323 0 0 1 -43.50229,-43.5024 43.502323,43.502323 0 0 1 43.50229,-43.5023 43.502323,43.502323 0 0 1 43.5024,43.5023 z" />
    <path id="none-gate_north_0" style="fill:#1a1a1a;fill-opacity:0.5;stroke-width:0.878907" d="m 943.42061,112.02899 v -15.696 h 100.30309 v 15.696 z" />
    <path id="none-gate_east_0" style="fill:#1a1a1a;fill-opacity:0.5;stroke-width:0.622432" d="m 1973.5581,1600.246 h -15.696 v -50.3052 h 15.696 z" />
    <path id="none-gate_nishi_hall_0" style="fill:#1a1a1a;fill-opacity:0.5;stroke-width:0.490121" d="m 1525.8147,29.07201 v -15.696 h 31.1914 v 15.696 z" />
    <path id="none-gate_nishi_hall_1" style="fill:#1a1a1a;fill-opacity:0.5;stroke-width:0.382463" d="m 1675.6633,29.07201 v -15.696 h 18.9936 v 15.696 z" />
    <path id="none-gate_west_2" style="fill:#1a1a1a;fill-opacity:0.5;stroke-width:0.622432" d="m 25.71403,3137.106 h -15.696 v -50.3052 h 15.696 z" />
    <path d="m 379.32127,326.90391 c 81.92967,-29.01276 172.00224,13.94926 201.01534,95.87957 29.0128,81.92962 -13.9494,172.0032 -95.87911,201.01596 -81.93094,29.0132 -172.00403,-13.9502 -201.01683,-95.87982 -29.01305,-81.93031 13.94966,-172.00251 95.8806,-201.01571 z m 7.88524,22.26721 c -69.64162,24.66134 -106.16019,101.22276 -81.49912,170.86346 24.66112,69.64087 101.22338,106.15932 170.865,81.49799 69.64034,-24.66089 106.15862,-101.22317 81.49752,-170.86405 -24.6611,-69.64069 -101.22306,-106.15828 -170.8634,-81.4974 z" style="fill:#1a1a1a;fill-opacity:0.5;stroke-width:0.157085" id="none-compass_2" />
    <path d="m 436.52986,582.01065 c -0.66956,1.4044 -2.17766,2.20757 -3.71694,1.9777 -1.54084,-0.22607 -2.75061,-1.43189 -2.9851,-2.97333 -5.15622,-34.03603 -20.45138,-135.01327 -26.75302,-176.60626 -0.25434,-1.67969 0.71875,-3.30344 2.31929,-3.87022 1.60313,-0.56769 3.38121,0.0818 4.24061,1.54724 21.27795,36.28961 72.93567,124.39022 90.34806,154.08612 0.79041,1.34458 0.60908,3.04301 -0.44611,4.18839 -1.05158,1.14734 -2.72905,1.47223 -4.13321,0.80217 -11.52859,-5.49583 -29.42509,-14.0349 -36.66233,-17.48688 -0.84714,-0.40364 -1.82231,-0.4539 -2.7092,-0.13983 -0.88431,0.31315 -1.61052,0.9659 -2.01486,1.8127 -3.452,7.23723 -11.989,25.13688 -17.48719,36.6622 z" style="fill:#1a1a1a;fill-opacity:0.5;stroke-width:0.289553" id="none-compass_1" />
    <path d="m 387.60922,363.79803 16.14531,12.18439 -5.68514,-16.05431 c -0.3695,-1.04344 -0.4228,-1.90493 -0.16006,-2.58497 0.26264,-0.6803 0.77614,-1.1555 1.53528,-1.42432 0.78679,-0.27862 1.49747,-0.23692 2.13725,0.1238 0.63969,0.36048 1.14294,1.06263 1.51244,2.10608 l 7.51715,21.22777 c 0.83888,2.36892 0.27798,3.90054 -1.68775,4.59664 -0.49017,0.17358 -0.9576,0.25961 -1.39967,0.25746 -0.44217,-0.002 -0.89099,-0.0955 -1.34406,-0.2805 -0.45046,-0.18561 -0.89691,-0.43177 -1.33655,-0.73862 -0.44225,-0.3062 -0.88527,-0.6226 -1.33151,-0.94804 l -15.82366,-12.09094 5.6004,15.81501 c 0.36505,1.03087 0.40228,1.89494 0.11152,2.5917 -0.29319,0.69789 -0.81307,1.17903 -1.56215,1.4443 -0.77171,0.27327 -1.48713,0.22618 -2.14124,-0.14305 -0.65661,-0.36834 -1.16536,-1.06205 -1.52605,-2.0806 l -7.37375,-20.82282 c -0.31298,-0.88382 -0.46054,-1.61207 -0.44016,-2.18564 0.0357,-0.63415 0.26311,-1.22219 0.67965,-1.76349 0.41663,-0.54104 0.93785,-0.9225 1.56377,-1.14415 0.49017,-0.17358 0.93818,-0.24255 1.34411,-0.20666 0.40844,0.035 0.79114,0.14107 1.15068,0.31757 0.35963,0.17676 0.75242,0.43117 1.18105,0.76285 0.42864,0.33168 0.87131,0.67903 1.33314,1.04054 z" style="fill:#1a1a1a;fill-opacity:0.5;fill-rule:nonzero;stroke-width:0.266667" id="none-compass_0" />
    <path id="main-book_vault" style="fill:#0015ff;fill-opacity:0.5;stroke-width:0.815058" d="m 1223.473,1127.855 h 159.195 v 135.8622 h -159.195 z" />
    <path id="main-chemistry_experiment_preparation_room" style="fill:#0015ff;fill-opacity:0.5;stroke-width:1.01583" d="m 1171.6046,1304.6613 h 51.8627 v 140.2293 h -51.8627 z" />
    <path id="main-chemistry_experiment_room" style="fill:#0015ff;fill-opacity:0.5;stroke-width:1.99554" d="m 1223.4768,1304.6613 h 200.1387 v 140.2293 h -200.1387 z" />
    <path d="M 1223.473,1127.8462 V 554.10134 h 200.1342 v 138.14922 h 81.0441 V 796.74231 H 1382.668 v 331.10389 z" style="fill:#0015ff;fill-opacity:0.5;stroke-width:1.83804" id="main-library" />
    <path id="main-pta_printing_room" style="fill:#0015ff;fill-opacity:0.5;stroke-width:0.53605" d="m 1780.0676,1191.6398 h 141.911 v 72.0744 h -141.911 z" />
    <path id="main-biology_preparation_room" style="fill:#0015ff;fill-opacity:0.5;stroke-width:0.587616" d="m 1780.0676,924.2848 h 141.911 v 86.608 h -141.911 z" />
    <path id="main-biology_room" style="fill:#0015ff;fill-opacity:0.5;stroke-width:0.587616" d="m 1780.0676,692.2414 h 141.911 v 232.0435 h -141.911 z" />
    <path id="main-special_room_1st" style="fill:#0015ff;fill-opacity:0.5;stroke-width:0.84889" d="m 1780.0676,1010.8921 h 141.911 v 180.748 h -141.911 z" />
    <path id="main-laputa" style="fill:#0015ff;fill-opacity:0.5;stroke-width:0.842456" d="m 1739.1333,554.08496 h 182.8564 v 138.15639 h -182.8564 z" />
    <path id="main-3h" style="fill:#0015ff;fill-opacity:0.5;stroke-width:1.3666" d="M 168.24943,1860.0134 H 307.13576 V 1982.81 H 168.24943 Z" />
    <path id="main-3g" style="fill:#0015ff;fill-opacity:0.5;stroke-width:1.3666" d="M 307.13541,1860.0134 H 446.02175 V 1982.81 H 307.13541 Z" />
    <path id="main-3f" style="fill:#0015ff;fill-opacity:0.5;stroke-width:1.3666" d="M 446.02237,1860.0134 H 584.90871 V 1982.81 H 446.02237 Z" />
    <path id="main-3e" style="fill:#0015ff;fill-opacity:0.5;stroke-width:1.3666" d="m 584.90841,1860.0134 h 138.8863 V 1982.81 h -138.8863 z" />
    <path id="main-3d" style="fill:#0015ff;fill-opacity:0.5;stroke-width:1.3666" d="m 817.11341,1860.0134 h 138.8863 V 1982.81 h -138.8863 z" />
    <path id="main-3c" style="fill:#0015ff;fill-opacity:0.5;stroke-width:1.3666" d="M 956.00031,1860.0134 H 1094.8867 V 1982.81 H 956.00031 Z" />
    <path id="main-3b" style="fill:#0015ff;fill-opacity:0.5;stroke-width:1.3666" d="m 1094.8903,1860.0134 h 138.8864 V 1982.81 h -138.8864 z" />
    <path id="main-3a" style="fill:#0015ff;fill-opacity:0.5;stroke-width:1.3666" d="m 1233.7704,1860.0134 h 138.8863 V 1982.81 h -138.8863 z" />
    <path id="main-chemistry_preparation_room" style="fill:#0015ff;fill-opacity:0.5;stroke-width:1.12748" d="m 1021.1208,1304.6581 h 150.4821 v 140.1198 h -150.4821 z" />
    <path id="main-music_preparation_room" style="fill:#0015ff;fill-opacity:0.5;stroke-width:1.0949" d="m 1780.0771,1304.6581 h 141.9111 v 140.1198 h -141.9111 z" />
    <path id="main-physics_experiment_room" style="fill:#0015ff;fill-opacity:0.5;stroke-width:1.20839" d="m 558.31671,1379.769 h 165.4765 v 138.8632 h -165.4765 z" />
    <path id="main-physics_preparation_room" style="fill:#0015ff;fill-opacity:0.5;stroke-width:1.26248" d="m 377.6995,1379.769 h 180.62311 v 138.8632 H 377.6995 Z" />
    <path id="main-physics_lecture_room" style="fill:#0015ff;fill-opacity:0.5;stroke-width:1.35949" d="m 168.25413,1379.769 h 209.44624 v 138.8632 H 168.25413 Z" />
    <path id="main-chemistry_lecture_room" style="fill:#0015ff;fill-opacity:0.5;stroke-width:1.65225" d="M 807.86001,1304.6539 H 1021.1159 V 1444.773 H 807.86001 Z" />
    <path id="main-musical_instrument_storage" style="fill:#0015ff;fill-opacity:0.5;stroke-width:0.581993" d="m 1567.1244,1304.7657 h 24.6955 v 140.1201 h -24.6955 z" />
    <path id="main-practice_room" style="fill:#0015ff;fill-opacity:0.5;stroke-width:1.05842" d="m 1485.442,1304.7657 h 81.6764 v 140.1201 h -81.6764 z" />
    <path id="main-music_room" style="fill:#0015ff;fill-opacity:0.5;stroke-width:1.13625" d="m 1591.8059,1304.6567 h 188.2609 v 140.1201 h -188.2609 z" />
    <path id="shinkan80-s80_3a_back" style="fill:#fb00ff;fill-opacity:0.5;stroke-width:0.792396" d="m 1364.3694,1950.8147 a 23.622362,23.622417 0 0 1 -23.6224,23.6224 23.622362,23.622417 0 0 1 -23.6223,-23.6224 23.622362,23.622417 0 0 1 23.6223,-23.6224 23.622362,23.622417 0 0 1 23.6224,23.6224 z" />
    <path id="shinkan80-s80_3a_front" style="fill:#fb00ff;fill-opacity:0.5;stroke-width:0.792396" d="m 1289.1444,1897.2716 a 23.622362,23.622417 0 0 1 -23.6223,23.6224 23.622362,23.622417 0 0 1 -23.6224,-23.6224 23.622362,23.622417 0 0 1 23.6224,-23.6224 23.622362,23.622417 0 0 1 23.6223,23.6224 z" />
    <path id="shinkan80-s80_3b_back" style="fill:#fb00ff;fill-opacity:0.5;stroke-width:0.792396" d="m 1225.3314,1950.8147 a 23.622362,23.622417 0 0 1 -23.6223,23.6224 23.622362,23.622417 0 0 1 -23.6224,-23.6224 23.622362,23.622417 0 0 1 23.6224,-23.6224 23.622362,23.622417 0 0 1 23.6223,23.6224 z" />
    <path id="shinkan80-s80_3b_front" style="fill:#fb00ff;fill-opacity:0.5;stroke-width:0.792396" d="m 1150.1574,1897.2716 a 23.622362,23.622417 0 0 1 -23.6224,23.6224 23.622362,23.622417 0 0 1 -23.6224,-23.6224 23.622362,23.622417 0 0 1 23.6224,-23.6224 23.622362,23.622417 0 0 1 23.6224,23.6224 z" />
    <path id="shinkan80-s80_3c_back" style="fill:#fb00ff;fill-opacity:0.5;stroke-width:0.792396" d="m 1086.3434,1950.8147 a 23.622362,23.622417 0 0 1 -23.6224,23.6224 23.622362,23.622417 0 0 1 -23.6223,-23.6224 23.622362,23.622417 0 0 1 23.6223,-23.6224 23.622362,23.622417 0 0 1 23.6224,23.6224 z" />
    <path id="shinkan80-s80_3c_front" style="fill:#fb00ff;fill-opacity:0.5;stroke-width:0.792396" d="m 1011.1694,1897.2716 a 23.622362,23.622417 0 0 1 -23.62229,23.6224 23.622362,23.622417 0 0 1 -23.6224,-23.6224 23.622362,23.622417 0 0 1 23.6224,-23.6224 23.622362,23.622417 0 0 1 23.62229,23.6224 z" />
    <path id="shinkan80-s80_3d_back" style="fill:#fb00ff;fill-opacity:0.5;stroke-width:0.792396" d="m 947.45701,1950.8147 a 23.622362,23.622417 0 0 1 -23.6223,23.6224 23.622362,23.622417 0 0 1 -23.6224,-23.6224 23.622362,23.622417 0 0 1 23.6224,-23.6224 23.622362,23.622417 0 0 1 23.6223,23.6224 z" />
    <path id="shinkan80-s80_3d_front" style="fill:#fb00ff;fill-opacity:0.5;stroke-width:0.792396" d="m 872.28301,1897.2716 a 23.622362,23.622417 0 0 1 -23.6224,23.6224 23.622362,23.622417 0 0 1 -23.6224,-23.6224 23.622362,23.622417 0 0 1 23.6224,-23.6224 23.622362,23.622417 0 0 1 23.6224,23.6224 z" />
    <path id="shinkan80-s80_3e_back" style="fill:#fb00ff;fill-opacity:0.5;stroke-width:0.792396" d="m 715.45441,1950.8147 a 23.622362,23.622417 0 0 1 -23.6224,23.6224 23.622362,23.622417 0 0 1 -23.6224,-23.6224 23.622362,23.622417 0 0 1 23.6224,-23.6224 23.622362,23.622417 0 0 1 23.6224,23.6224 z" />
    <path id="shinkan80-s80_3e_front" style="fill:#fb00ff;fill-opacity:0.5;stroke-width:0.792396" d="m 640.28041,1897.2716 a 23.622362,23.622417 0 0 1 -23.6224,23.6224 23.622362,23.622417 0 0 1 -23.6223,-23.6224 23.622362,23.622417 0 0 1 23.6223,-23.6224 23.622362,23.622417 0 0 1 23.6224,23.6224 z" />
    <path id="shinkan80-s80_3f" style="fill:#fb00ff;fill-opacity:0.5;stroke-width:0.792396" d="m 539.0884,1921.4276 a 23.622362,23.622417 0 0 1 -23.62236,23.6224 23.622362,23.622417 0 0 1 -23.62236,-23.6224 23.622362,23.622417 0 0 1 23.62236,-23.6224 23.622362,23.622417 0 0 1 23.62236,23.6224 z" />
    <path id="shinkan80-s80_3g_back" style="fill:#fb00ff;fill-opacity:0.5;stroke-width:0.792396" d="m 437.47939,1950.8147 a 23.622362,23.622417 0 0 1 -23.62236,23.6224 23.622362,23.622417 0 0 1 -23.62236,-23.6224 23.622362,23.622417 0 0 1 23.62236,-23.6224 23.622362,23.622417 0 0 1 23.62236,23.6224 z" />
    <path id="shinkan80-s80_3g_front" style="fill:#fb00ff;fill-opacity:0.5;stroke-width:0.792396" d="m 362.30544,1897.2716 a 23.622362,23.622417 0 0 1 -23.62236,23.6224 23.622362,23.622417 0 0 1 -23.62236,-23.6224 23.622362,23.622417 0 0 1 23.62236,-23.6224 23.622362,23.622417 0 0 1 23.62236,23.6224 z" />
    <path id="shinkan80-s80_3h_back" style="fill:#fb00ff;fill-opacity:0.5;stroke-width:0.792396" d="m 298.59341,1950.8147 a 23.622362,23.622417 0 0 1 -23.62237,23.6224 23.622362,23.622417 0 0 1 -23.62236,-23.6224 23.622362,23.622417 0 0 1 23.62236,-23.6224 23.622362,23.622417 0 0 1 23.62237,23.6224 z" />
    <path id="shinkan80-s80_3h_front" style="fill:#fb00ff;fill-opacity:0.5;stroke-width:0.792396" d="m 223.4194,1897.2716 a 23.622362,23.622417 0 0 1 -23.62237,23.6224 23.622362,23.622417 0 0 1 -23.62236,-23.6224 23.622362,23.622417 0 0 1 23.62236,-23.6224 23.622362,23.622417 0 0 1 23.62237,23.6224 z" />
    <path id="shinkan80-s80_special1" style="fill:#fb00ff;fill-opacity:0.5;stroke-width:0.792396" d="m 1874.6504,1101.2667 a 23.622362,23.622417 0 0 1 -23.6224,23.6224 23.622362,23.622417 0 0 1 -23.6223,-23.6224 23.622362,23.622417 0 0 1 23.6223,-23.6224 23.622362,23.622417 0 0 1 23.6224,23.6224 z" />
    <path id="shinkan80-s80_music" style="fill:#fb00ff;fill-opacity:0.5;stroke-width:0.792396" d="m 1709.5684,1374.7197 a 23.622362,23.622417 0 0 1 -23.6224,23.6224 23.622362,23.622417 0 0 1 -23.6224,-23.6224 23.622362,23.622417 0 0 1 23.6224,-23.6224 23.622362,23.622417 0 0 1 23.6224,23.6224 z" />
    <path id="shinkan80-s80_career" style="fill:#fb00ff;fill-opacity:0.5;stroke-width:0.792396" d="m 1549.9044,1374.8286 a 23.622362,23.622417 0 0 1 -23.6223,23.6224 23.622362,23.622417 0 0 1 -23.6224,-23.6224 23.622362,23.622417 0 0 1 23.6224,-23.6224 23.622362,23.622417 0 0 1 23.6223,23.6224 z" />
    <path id="shinkan80-s80_biology" style="fill:#fb00ff;fill-opacity:0.5;stroke-width:0.792396" d="m 1874.6504,808.26367 a 23.622362,23.622417 0 0 1 -23.6224,23.62242 23.622362,23.622417 0 0 1 -23.6223,-23.62242 23.622362,23.622417 0 0 1 23.6223,-23.62241 23.622362,23.622417 0 0 1 23.6224,23.62241 z" />
    <path id="shinkan80-s80_physics" style="fill:#fb00ff;fill-opacity:0.5;stroke-width:0.792396" d="m 664.67951,1449.2026 a 23.622362,23.622417 0 0 1 -23.6224,23.6225 23.622362,23.622417 0 0 1 -23.6224,-23.6225 23.622362,23.622417 0 0 1 23.6224,-23.6224 23.622362,23.622417 0 0 1 23.6224,23.6224 z" />
    <path id="shinkan80-s80_chemistry_le" style="fill:#fb00ff;fill-opacity:0.5;stroke-width:0.792396" d="m 938.11481,1374.7197 a 23.622362,23.622417 0 0 1 -23.6224,23.6224 23.622362,23.622417 0 0 1 -23.6224,-23.6224 23.622362,23.622417 0 0 1 23.6224,-23.6224 23.622362,23.622417 0 0 1 23.6224,23.6224 z" />
    <path id="shinkan80-s80_chemistry_ex" style="fill:#fb00ff;fill-opacity:0.5;stroke-width:0.792396" d="m 1347.1574,1379.7716 a 23.622362,23.622417 0 0 1 -23.6224,23.6224 23.622362,23.622417 0 0 1 -23.6224,-23.6224 23.622362,23.622417 0 0 1 23.6224,-23.6224 23.622362,23.622417 0 0 1 23.6224,23.6224 z" />
    <path id="main-nishi_hall_3f_reference_room" style="fill:#0015ff;fill-opacity:0.5;stroke-width:1.39888" d="m 1567.3369,31.97246 h 84.3795 v 106.43945 h -84.3795 z" />
    <path id="main-nishi_hall_3f_wc_woman" style="fill:#0015ff;fill-opacity:0.5;stroke-width:1.21598" d="m 1700.7773,31.97246 h 63.7571 v 106.43945 h -63.7571 z" />
    <path id="main-nishi_hall_3f_shower_woman" style="fill:#0015ff;fill-opacity:0.5;stroke-width:0.821931" d="m 1764.5395,31.97441 h 46.5678 v 66.5829 h -46.5678 z" />
    <path id="main-nishi_hall_3f_changing_room_woman" style="fill:#0015ff;fill-opacity:0.5;stroke-width:0.635923" d="m 1764.5395,98.55644 h 46.5678 v 39.85669 h -46.5678 z" />
    <path id="main-nishi_hall_3f_japanese_style_room_2" style="fill:#0015ff;fill-opacity:0.5;stroke-width:1.35374" d="m 1567.3369,244.85114 h 84.3795 v 99.68139 h -84.3795 z" />
    <path id="main-nishi_hall_3f_japanese_style_room_0" style="fill:#0015ff;fill-opacity:0.5;stroke-width:2.48634" d="m 1651.707,166.51563 h 159.3854 V 344.52785 H 1651.707 Z" />
    <path id="main-nishi_hall_3f_japanese_style_room_1" style="fill:#0015ff;fill-opacity:0.5;stroke-width:1.20004" d="m 1567.3369,166.52048 h 84.3795 v 78.33082 h -84.3795 z" />
    <path id="main-nishi_hall_3f_stairs" style="fill:#0015ff;fill-opacity:0.5;stroke-width:0.915874" d="m 1651.7192,31.97348 h 49.1492 v 78.33082 h -49.1492 z" />
    <path id="main-nishi_hall_3f_outdoor_stairs" style="fill:#0015ff;fill-opacity:0.5;stroke-width:0.838131" d="m 1729.2114,344.53238 h 81.89 v 39.37043 h -81.89 z" />
    <path id="main-audiovisual_hall_3f_pinspot" style="fill:#0015fe;fill-opacity:0.5;stroke-width:1.53715" d="m 1303.1145,414.71698 h 80.3902 v 37.008 h -80.3902 z" />
    <path id="main-audiovisual_hall_3f_stairs" style="fill:#0015fe;fill-opacity:0.5;stroke-width:0.774758" d="m 1383.507,414.71637 h 39.9937 v 18.89769 h -39.9937 z" />
</svg>
