<?xml version="1.0" encoding="UTF-8" standalone="no"?>
<!DOCTYPE svg PUBLIC "-//W3C//DTD SVG 1.1//EN" "http://www.w3.org/Graphics/SVG/1.1/DTD/svg11.dtd">
<svg width="100%" height="100%" viewBox="0 0 3308 4678" version="1.1" xmlns="http://www.w3.org/2000/svg" xmlns:xlink="http://www.w3.org/1999/xlink" xml:space="preserve" xmlns:serif="http://www.serif.com/" style="fill-rule:evenodd;clip-rule:evenodd;stroke-linejoin:round;stroke-miterlimit:2;">
    <g id="base" transform="matrix(1.01459,0,0,5.2512,-5.6655,-19690.1)">
        <path d="M2244.85,3850.17L2411.24,3850.17L2411.24,4628.12L448.56,4628.12L448.56,3987.91L716.069,3987.91L716.069,3951L1278.66,3951L1278.66,3772.5L2244.85,3772.5L2244.85,3850.17Z" style="fill:white;fill-opacity:0.53;"/>
    </g>
    <g id="_2" serif:id="2">
        <path id="enclosure-classroom_building" d="M2188.57,812.293L2188.57,674.137L2371.43,674.137L2371.43,1564.83L1934.88,1564.83L1934.88,1995.26L1822.1,1995.26L1822.1,2102.88L617.689,2102.88L617.689,1817.93L764.76,1817.93L764.76,1939.13L1173.23,1939.13L1173.23,1638.69L617.689,1638.69L617.689,1458.88L899.127,1458.88L899.127,1373.95L1187.81,1373.95L1187.81,1383.77L1672.9,1383.77L1672.9,674.137L1873.04,674.137L1873.04,812.293L2188.57,812.293ZM2188.57,957.671L1873.04,958.128L1873.04,1311.69L2188.57,1311.69L2188.57,957.671ZM1873.04,1564.83L1257.3,1564.83L1257.3,1939.13L1675.03,1939.13L1675.03,1817.93L1873.04,1817.93L1873.04,1564.83Z" style="fill:rgb(253,0,0);fill-opacity:0.5;"/>
        <g id="enclosure-nishi_hall" transform="matrix(0.957812,0,0,1.11437,94.1118,-13.7633)">
            <path d="M2261.85,148.775L2261.85,464.585L2176.36,464.585L2176.36,429.275L2007.35,429.275L2007.35,148.775L2261.85,148.775Z" style="fill:rgb(253,0,0);fill-opacity:0.5;"/>
        </g>
        <rect id="enclosure-audiovisual_hall" x="1752.55" y="534.769" width="120.383" height="37.008" style="fill:rgb(253,0,0);fill-opacity:0.5;"/>
        <g id="none-nishi_hall" transform="matrix(2.30268,0,0,0.462645,573.564,-381.05)">
            <rect x="626.753" y="1827.87" width="70.298" height="85.098" style="fill:rgb(26,26,26);fill-opacity:0.5;"/>
        </g>
        <g id="none-enclosure-pool" transform="matrix(1.03771,0,0,1,-89.5431,0)">
            <path d="M2374.3,1727.02L2374.3,2493.22L1950.85,2493.22L1950.85,1772.67L2261.9,1772.67L2261.9,1727.02L2374.3,1727.02Z" style="fill:rgb(26,26,26);fill-opacity:0.5;"/>
        </g>
        <path id="none-audiovisual_hall" d="M1946.18,188.469L1946.18,609.272L1873.04,609.272L1873.04,652.667L1756.1,652.667L1712.38,609.272L1639.24,609.272L1639.24,188.469L1946.18,188.469ZM1872.94,534.769L1752.55,534.769L1752.55,571.777L1872.94,571.777L1872.94,534.769Z" style="fill:rgb(26,26,26);fill-opacity:0.5;"/>
        <g id="none-martial_arts_field" transform="matrix(1,0,0,0.993023,0,27.628)">
            <path d="M2345.2,3326.45L2345.2,3814.37L2165.12,3814.37L2165.12,3960.01L1910.54,3960.01L1910.54,3326.45L2345.2,3326.45Z" style="fill:rgb(26,26,26);fill-opacity:0.5;"/>
        </g>
        <g id="none-enclosure-gym" transform="matrix(0.960498,0,0,1.02184,84.3604,-70.9044)">
            <rect x="1891.13" y="2509.32" width="462.686" height="736.777" style="fill:rgb(26,26,26);fill-opacity:0.5;"/>
        </g>
        <g id="none-wc" transform="matrix(1.04605,0,0,1.42433,-37.9261,-785.561)">
            <rect x="626.753" y="1827.87" width="70.298" height="85.098" style="fill:rgb(26,26,26);fill-opacity:0.5;"/>
        </g>
        <g id="none-stairs" transform="matrix(1.04605,0,0,1.42433,35.6093,-785.561)">
            <rect x="626.753" y="1827.87" width="70.298" height="85.098" style="fill:rgb(26,26,26);fill-opacity:0.5;"/>
        </g>
        <g id="none-wc1" serif:id="none-wc" transform="matrix(1.04605,0,0,1.42433,1019.41,-785.561)">
            <rect x="626.753" y="1827.87" width="70.298" height="85.098" style="fill:rgb(26,26,26);fill-opacity:0.5;"/>
        </g>
        <g id="none-stairs1" serif:id="none-stairs" transform="matrix(1.04605,0,0,1.42433,1092.95,-785.561)">
            <rect x="626.753" y="1827.87" width="70.298" height="85.098" style="fill:rgb(26,26,26);fill-opacity:0.5;"/>
        </g>
        <g id="none-wc2" serif:id="none-wc" transform="matrix(1.04605,0,0,1.22789,1298.47,-1432.13)">
            <rect x="626.753" y="1827.87" width="70.298" height="85.098" style="fill:rgb(26,26,26);fill-opacity:0.5;"/>
        </g>
        <g id="none-stairs2" serif:id="none-stairs" transform="matrix(1.04605,0,0,1.22789,1372.01,-1432.13)">
            <rect x="626.753" y="1827.87" width="70.298" height="85.098" style="fill:rgb(26,26,26);fill-opacity:0.5;"/>
        </g>
        <g id="none-stairs3" serif:id="none-stairs" transform="matrix(0.999399,0,0,1.11457,-3.07724,-157.409)">
            <rect x="902.747" y="1373.95" width="144.927" height="76.197" style="fill:rgb(26,26,26);fill-opacity:0.5;"/>
        </g>
        <g id="none-wc3" serif:id="none-wc" transform="matrix(0.992483,0,0,1.11457,148.006,-157.409)">
            <rect x="902.747" y="1373.95" width="144.927" height="76.197" style="fill:rgb(26,26,26);fill-opacity:0.5;"/>
        </g>
        <g id="none-stairs4" serif:id="none-stairs" transform="matrix(1.20417,0,0,0.982446,423.286,209.642)">
            <rect x="622.791" y="1817.93" width="77.496" height="109.136" style="fill:rgb(26,26,26);fill-opacity:0.5;"/>
        </g>
        <g id="none-wc4" serif:id="none-wc" transform="matrix(1.19641,0,0,0.845905,1207.3,-234.47)">
            <rect x="626.753" y="1827.87" width="70.298" height="85.098" style="fill:rgb(26,26,26);fill-opacity:0.5;"/>
        </g>
        <g id="none-wc5" serif:id="none-wc" transform="matrix(0.702592,0,0,0.422952,1467.41,538.589)">
            <rect x="626.753" y="1827.87" width="70.298" height="85.098" style="fill:rgb(26,26,26);fill-opacity:0.5;"/>
        </g>
        <g id="none-ev" transform="matrix(0.702592,0,0,0.422952,1467.41,574.581)">
            <rect x="626.753" y="1827.87" width="70.298" height="85.098" style="fill:rgb(26,26,26);fill-opacity:0.5;"/>
        </g>
        <g id="none-stairs5" serif:id="none-stairs" transform="matrix(2.0956,0,0,0.846431,727.832,-235.433)">
            <rect x="626.753" y="1827.87" width="70.298" height="85.098" style="fill:rgb(26,26,26);fill-opacity:0.5;"/>
        </g>
        <g id="none-grand" transform="matrix(0.993568,0,0,0.981704,12.8564,47.4449)">
            <rect x="627.133" y="2265.32" width="1188.79" height="1750.49" style="fill:rgb(26,26,26);fill-opacity:0.5;"/>
        </g>
        <g id="none-gate_west_0" transform="matrix(1,0,0,1.21452,-2.40601,-384.331)">
            <rect x="479.043" y="1671.49" width="15.696" height="129.846" style="fill:rgb(26,26,26);fill-opacity:0.5;"/>
        </g>
        <g id="none-gate_west_1" transform="matrix(1,0,0,0.603254,-2.40601,316.5)">
            <rect x="479.043" y="1671.49" width="15.696" height="129.846" style="fill:rgb(26,26,26);fill-opacity:0.5;"/>
        </g>
        <rect id="none-clubroom_building_1" x="464.255" y="2857.42" width="100.303" height="273.126" style="fill:rgb(26,26,26);fill-opacity:0.5;"/>
        <g id="none-clubroom_building_0" transform="matrix(1.08333,0,0,1.11251,-47.0465,-255.758)">
            <rect x="471.971" y="2273.24" width="92.587" height="513.64" style="fill:rgb(26,26,26);fill-opacity:0.5;"/>
        </g>
        <g id="none-tennis_court" transform="matrix(0.976266,0,0,0.983616,15.0938,74.5182)">
            <rect x="635.956" y="4002.56" width="687.288" height="545.674" style="fill:rgb(26,26,26);fill-opacity:0.5;"/>
        </g>
        <g id="none-handball_court" transform="matrix(1.00256,0,0,1,-6.04822,0)">
            <rect x="1330.97" y="4011.5" width="1028.47" height="536.733" style="fill:rgb(26,26,26);fill-opacity:0.5;"/>
        </g>
        <g id="none-fountain" transform="matrix(0.906355,0,0,0.906355,136.414,113.654)">
            <circle cx="1471.99" cy="1177.83" r="47.997" style="fill:rgb(26,26,26);fill-opacity:0.5;"/>
        </g>
        <g id="none-gate_north_0" transform="matrix(6.12323e-17,-1,0.772477,4.73006e-17,101.672,711.124)">
            <rect x="479.043" y="1671.49" width="15.696" height="129.846" style="fill:rgb(26,26,26);fill-opacity:0.5;"/>
        </g>
        <g id="none-gate_east_0" transform="matrix(-1,-1.22465e-16,4.74455e-17,-0.387422,2902.04,2367.87)">
            <rect x="479.043" y="1671.49" width="15.696" height="129.846" style="fill:rgb(26,26,26);fill-opacity:0.5;"/>
        </g>
        <g id="none-gate_nishi_hall_0" transform="matrix(6.12323e-17,-1,0.240219,1.47092e-17,1573.73,628.167)">
            <rect x="479.043" y="1671.49" width="15.696" height="129.846" style="fill:rgb(26,26,26);fill-opacity:0.5;"/>
        </g>
        <g id="none-gate_nishi_hall_1" transform="matrix(6.12323e-17,-1,0.146278,8.95696e-18,1880.6,628.167)">
            <rect x="479.043" y="1671.49" width="15.696" height="129.846" style="fill:rgb(26,26,26);fill-opacity:0.5;"/>
        </g>
        <g id="none-gate_west_2" transform="matrix(-1,-1.22465e-16,4.74455e-17,-0.387422,954.196,3904.73)">
            <rect x="479.043" y="1671.49" width="15.696" height="129.846" style="fill:rgb(26,26,26);fill-opacity:0.5;"/>
        </g>
        <g id="none-compass_2" transform="matrix(0.126681,-0.04486,0.0612912,0.173081,343.295,563.959)">
            <path d="M3695.8,281.894C4342.54,281.894 4867.62,666.206 4867.62,1139.57C4867.62,1612.93 4342.54,1997.25 3695.8,1997.25C3049.05,1997.25 2523.97,1612.93 2523.97,1139.57C2523.97,666.206 3049.05,281.894 3695.8,281.894ZM3695.8,410.546C3146.06,410.546 2699.74,737.211 2699.74,1139.57C2699.74,1541.93 3146.06,1868.6 3695.8,1868.6C4245.53,1868.6 4691.85,1541.93 4691.85,1139.57C4691.85,737.211 4245.53,410.546 3695.8,410.546Z" style="fill:rgb(26,26,26);fill-opacity:0.5;"/>
        </g>
        <g id="none-compass_1" transform="matrix(0.258569,-0.0915639,0.102028,0.288119,-143.531,671.896)">
            <path d="M3501.17,1217.37C3497.16,1220.97 3491,1221.8 3485.99,1219.41C3480.97,1217.03 3478.28,1211.99 3479.35,1206.98C3503.05,1096.38 3573.37,768.257 3602.33,633.1C3603.5,627.642 3608.82,623.697 3615.01,623.697C3621.21,623.697 3626.53,627.642 3627.7,633.1C3656.66,768.257 3726.97,1096.38 3750.67,1206.98C3751.75,1211.99 3749.06,1217.03 3744.04,1219.41C3739.03,1221.8 3732.87,1220.97 3728.86,1217.37C3695.93,1187.83 3644.82,1141.95 3624.15,1123.4C3621.73,1121.23 3618.44,1120.01 3615.01,1120.01C3611.59,1120.01 3608.3,1121.23 3605.88,1123.4C3585.21,1141.95 3534.09,1187.83 3501.17,1217.37Z" style="fill:rgb(26,26,26);fill-opacity:0.5;"/>
        </g>
        <g id="none-compass_0" transform="matrix(0.251371,-0.0890152,0.0890152,0.251371,-39.2662,682.113)">
            <path d="M3345.87,396.109L3387.69,459.39L3387.69,395.523C3387.69,391.372 3388.58,388.26 3390.36,386.185C3392.14,384.109 3394.55,383.072 3397.57,383.072C3400.7,383.072 3403.16,384.109 3404.97,386.185C3406.78,388.26 3407.68,391.372 3407.68,395.523L3407.68,479.971C3407.68,489.395 3403.78,494.107 3395.96,494.107C3394.01,494.107 3392.25,493.826 3390.69,493.265C3389.13,492.703 3387.66,491.812 3386.29,490.591C3384.93,489.371 3383.66,487.942 3382.49,486.307C3381.31,484.671 3380.14,482.998 3378.97,481.289L3338.17,418.741L3338.17,481.656C3338.17,485.757 3337.22,488.858 3335.32,490.957C3333.41,493.057 3330.97,494.107 3327.99,494.107C3324.92,494.107 3322.45,493.045 3320.6,490.921C3318.74,488.797 3317.81,485.708 3317.81,481.656L3317.81,398.819C3317.81,395.303 3318.2,392.544 3318.99,390.542C3319.91,388.345 3321.45,386.551 3323.6,385.159C3325.75,383.768 3328.07,383.072 3330.56,383.072C3332.51,383.072 3334.18,383.389 3335.57,384.024C3336.97,384.659 3338.19,385.513 3339.24,386.587C3340.29,387.662 3341.36,389.053 3342.46,390.762C3343.56,392.471 3344.69,394.253 3345.87,396.109Z" style="fill:rgb(26,26,26);fill-opacity:0.5;fill-rule:nonzero;"/>
        </g>
        <g id="main-book_vault" transform="matrix(1.05595,0,0,0.62912,-102.499,519.386)">
            <rect x="1681.34" y="1158" width="150.76" height="215.956" style="fill:rgb(0,21,255);fill-opacity:0.5;"/>
        </g>
        <g id="main-chemistry_experiment_preparation_room" transform="matrix(1.03111,0,0,1.00078,-268.053,-1.10801)">
            <rect x="1832.1" y="1424.71" width="50.298" height="140.12" style="fill:rgb(0,21,255);fill-opacity:0.5;"/>
        </g>
        <g id="main-chemistry_experiment_room" transform="matrix(3.97906,0,0,1.00078,-5617.12,-1.10801)">
            <rect x="1832.1" y="1424.71" width="50.298" height="140.12" style="fill:rgb(0,21,255);fill-opacity:0.5;"/>
        </g>
        <g id="main-library" transform="matrix(1.05595,0,0,3.19938,-102.499,-3147.89)">
            <path d="M1681.34,1373.95L1681.34,1194.62L1870.87,1194.62L1870.87,1237.8L1947.62,1237.8L1947.62,1270.46L1832.1,1270.46L1832.1,1373.95L1681.34,1373.95Z" style="fill:rgb(0,21,255);fill-opacity:0.5;"/>
        </g>
        <g id="main-pta_printing_room" transform="matrix(1.39532,0,0,0.205938,-937.479,1103.75)">
            <rect x="2269.72" y="1009.73" width="101.705" height="349.981" style="fill:rgb(0,21,255);fill-opacity:0.5;"/>
        </g>
        <g id="main-biology_preparation_room" transform="matrix(1.39532,0,0,0.247465,-937.479,794.464)">
            <rect x="2269.72" y="1009.73" width="101.705" height="349.981" style="fill:rgb(0,21,255);fill-opacity:0.5;"/>
        </g>
        <g id="main-biology_room" transform="matrix(1.39532,0,0,0.247465,-937.479,707.856)">
            <rect x="2269.72" y="422.029" width="101.705" height="937.682" style="fill:rgb(0,21,255);fill-opacity:0.5;"/>
        </g>
        <g id="main-special_room_1st" transform="matrix(1.39532,0,0,0.516451,-937.479,609.468)">
            <rect x="2269.72" y="1009.73" width="101.705" height="349.981" style="fill:rgb(0,21,255);fill-opacity:0.5;"/>
        </g>
        <g id="main-laputa" transform="matrix(1.79791,0,0,0.394754,-1892.18,275.542)">
            <rect x="2269.72" y="1009.73" width="101.705" height="349.981" style="fill:rgb(0,21,255);fill-opacity:0.5;"/>
        </g>
        <g id="main-3h" transform="matrix(0.505998,0,0,3.69091,286.919,-5539.61)">
            <rect x="653.697" y="2037.35" width="274.48" height="33.27" style="fill:rgb(0,21,255);fill-opacity:0.5;"/>
        </g>
        <g id="main-3g" transform="matrix(0.505998,0,0,3.69091,425.805,-5539.61)">
            <rect x="653.697" y="2037.35" width="274.48" height="33.27" style="fill:rgb(0,21,255);fill-opacity:0.5;"/>
        </g>
        <g id="main-3f" transform="matrix(0.505998,0,0,3.69091,564.692,-5539.61)">
            <rect x="653.697" y="2037.35" width="274.48" height="33.27" style="fill:rgb(0,21,255);fill-opacity:0.5;"/>
        </g>
        <g id="main-3e" transform="matrix(0.505998,0,0,3.69091,703.578,-5539.61)">
            <rect x="653.697" y="2037.35" width="274.48" height="33.27" style="fill:rgb(0,21,255);fill-opacity:0.5;"/>
        </g>
        <g id="main-3d" transform="matrix(0.505998,0,0,3.69091,935.783,-5539.61)">
            <rect x="653.697" y="2037.35" width="274.48" height="33.27" style="fill:rgb(0,21,255);fill-opacity:0.5;"/>
        </g>
        <g id="main-3c" transform="matrix(0.505998,0,0,3.69091,1074.67,-5539.61)">
            <rect x="653.697" y="2037.35" width="274.48" height="33.27" style="fill:rgb(0,21,255);fill-opacity:0.5;"/>
        </g>
        <g id="main-3b" transform="matrix(0.505998,0,0,3.69091,1213.56,-5539.61)">
            <rect x="653.697" y="2037.35" width="274.48" height="33.27" style="fill:rgb(0,21,255);fill-opacity:0.5;"/>
        </g>
        <g id="main-3a" transform="matrix(0.505998,0,0,3.69091,1352.44,-5539.61)">
            <rect x="653.697" y="2037.35" width="274.48" height="33.27" style="fill:rgb(0,21,255);fill-opacity:0.5;"/>
        </g>
        <g id="main-chemistry_preparation_room" transform="matrix(0.857399,0,0,1.48264,21.4526,-710.588)">
            <rect x="1690.12" y="1440.2" width="175.51" height="94.507" style="fill:rgb(0,21,255);fill-opacity:0.5;"/>
        </g>
        <g id="main-music_preparation_room" transform="matrix(0.808564,0,0,1.48264,862.946,-710.588)">
            <rect x="1690.12" y="1440.2" width="175.51" height="94.507" style="fill:rgb(0,21,255);fill-opacity:0.5;"/>
        </g>
        <g id="main-physics_experiment_room" transform="matrix(1.19564,0,0,1.22128,-206.357,-331.879)">
            <rect x="1015.45" y="1499.82" width="138.4" height="113.703" style="fill:rgb(0,21,255);fill-opacity:0.5;"/>
        </g>
        <g id="main-physics_preparation_room" transform="matrix(1.30508,0,0,1.22128,-498.105,-331.879)">
            <rect x="1015.45" y="1499.82" width="138.4" height="113.703" style="fill:rgb(0,21,255);fill-opacity:0.5;"/>
        </g>
        <g id="main-physics_lecture_room" transform="matrix(1.51334,0,0,1.22128,-919.028,-331.879)">
            <rect x="1015.45" y="1499.82" width="138.4" height="113.703" style="fill:rgb(0,21,255);fill-opacity:0.5;"/>
        </g>
        <g id="main-chemistry_lecture_room" transform="matrix(2.6657,0,0,1.02409,-2110.2,-29.9729)">
            <rect x="1263.27" y="1420.46" width="80" height="136.823" style="fill:rgb(0,21,255);fill-opacity:0.5;"/>
        </g>
        <g id="main-musical_instrument_storage" transform="matrix(0.26747,0,0,1.26637,1496.73,-407.645)">
            <rect x="1943.52" y="1447.02" width="92.33" height="110.647" style="fill:rgb(0,21,255);fill-opacity:0.5;"/>
        </g>
        <g id="main-practice_room" transform="matrix(0.884614,0,0,1.26637,215.616,-407.645)">
            <rect x="1943.52" y="1447.02" width="92.33" height="110.647" style="fill:rgb(0,21,255);fill-opacity:0.5;"/>
        </g>
        <g id="main-music_room" transform="matrix(1.0195,0,0,1.26637,59.8262,-407.754)">
            <rect x="1943.52" y="1447.02" width="184.66" height="110.647" style="fill:rgb(0,21,255);fill-opacity:0.5;"/>
        </g>
        <g id="shinkan80-s80_3a_back" transform="matrix(0.752808,0,0,0.834066,499.429,329.412)">
            <ellipse cx="1714.59" cy="2087.91" rx="31.379" ry="28.322" style="fill:rgb(251,0,255);fill-opacity:0.5;"/>
        </g>
        <g id="shinkan80-s80_3a_front" transform="matrix(0.752808,0,0,0.834066,424.204,275.869)">
            <ellipse cx="1714.59" cy="2087.91" rx="31.379" ry="28.322" style="fill:rgb(251,0,255);fill-opacity:0.5;"/>
        </g>
        <g id="shinkan80-s80_3b_back" transform="matrix(0.752808,0,0,0.834066,360.391,329.412)">
            <ellipse cx="1714.59" cy="2087.91" rx="31.379" ry="28.322" style="fill:rgb(251,0,255);fill-opacity:0.5;"/>
        </g>
        <g id="shinkan80-s80_3b_front" transform="matrix(0.752808,0,0,0.834066,285.217,275.869)">
            <ellipse cx="1714.59" cy="2087.91" rx="31.379" ry="28.322" style="fill:rgb(251,0,255);fill-opacity:0.5;"/>
        </g>
        <g id="shinkan80-s80_3c_back" transform="matrix(0.752808,0,0,0.834066,221.403,329.412)">
            <ellipse cx="1714.59" cy="2087.91" rx="31.379" ry="28.322" style="fill:rgb(251,0,255);fill-opacity:0.5;"/>
        </g>
        <g id="shinkan80-s80_3c_front" transform="matrix(0.752808,0,0,0.834066,146.229,275.869)">
            <ellipse cx="1714.59" cy="2087.91" rx="31.379" ry="28.322" style="fill:rgb(251,0,255);fill-opacity:0.5;"/>
        </g>
        <g id="shinkan80-s80_3d_back" transform="matrix(0.752808,0,0,0.834066,82.5166,329.412)">
            <ellipse cx="1714.59" cy="2087.91" rx="31.379" ry="28.322" style="fill:rgb(251,0,255);fill-opacity:0.5;"/>
        </g>
        <g id="shinkan80-s80_3d_front" transform="matrix(0.752808,0,0,0.834066,7.34258,275.869)">
            <ellipse cx="1714.59" cy="2087.91" rx="31.379" ry="28.322" style="fill:rgb(251,0,255);fill-opacity:0.5;"/>
        </g>
        <g id="shinkan80-s80_3e_back" transform="matrix(0.752808,0,0,0.834066,-149.486,329.412)">
            <ellipse cx="1714.59" cy="2087.91" rx="31.379" ry="28.322" style="fill:rgb(251,0,255);fill-opacity:0.5;"/>
        </g>
        <g id="shinkan80-s80_3e_front" transform="matrix(0.752808,0,0,0.834066,-224.66,275.869)">
            <ellipse cx="1714.59" cy="2087.91" rx="31.379" ry="28.322" style="fill:rgb(251,0,255);fill-opacity:0.5;"/>
        </g>
        <g id="shinkan80-s80_3f" transform="matrix(0.752808,0,0,0.834066,-325.852,300.025)">
            <ellipse cx="1714.59" cy="2087.91" rx="31.379" ry="28.322" style="fill:rgb(251,0,255);fill-opacity:0.5;"/>
        </g>
        <g id="shinkan80-s80_3g_back" transform="matrix(0.752808,0,0,0.834066,-427.461,329.412)">
            <ellipse cx="1714.59" cy="2087.91" rx="31.379" ry="28.322" style="fill:rgb(251,0,255);fill-opacity:0.5;"/>
        </g>
        <g id="shinkan80-s80_3g_front" transform="matrix(0.752808,0,0,0.834066,-502.635,275.869)">
            <ellipse cx="1714.59" cy="2087.91" rx="31.379" ry="28.322" style="fill:rgb(251,0,255);fill-opacity:0.5;"/>
        </g>
        <g id="shinkan80-s80_3h_back" transform="matrix(0.752808,0,0,0.834066,-566.347,329.412)">
            <ellipse cx="1714.59" cy="2087.91" rx="31.379" ry="28.322" style="fill:rgb(251,0,255);fill-opacity:0.5;"/>
        </g>
        <g id="shinkan80-s80_3h_front" transform="matrix(0.752808,0,0,0.834066,-641.521,275.869)">
            <ellipse cx="1714.59" cy="2087.91" rx="31.379" ry="28.322" style="fill:rgb(251,0,255);fill-opacity:0.5;"/>
        </g>
        <g id="shinkan80-s80_special1" transform="matrix(0.752808,0,0,0.834066,1009.71,-520.136)">
            <ellipse cx="1714.59" cy="2087.91" rx="31.379" ry="28.322" style="fill:rgb(251,0,255);fill-opacity:0.5;"/>
        </g>
        <g id="shinkan80-s80_music" transform="matrix(0.752808,0,0,0.834066,844.628,-246.683)">
            <ellipse cx="1714.59" cy="2087.91" rx="31.379" ry="28.322" style="fill:rgb(251,0,255);fill-opacity:0.5;"/>
        </g>
        <g id="shinkan80-s80_career" transform="matrix(0.752808,0,0,0.834066,684.964,-246.574)">
            <ellipse cx="1714.59" cy="2087.91" rx="31.379" ry="28.322" style="fill:rgb(251,0,255);fill-opacity:0.5;"/>
        </g>
        <g id="shinkan80-s80_biology" transform="matrix(0.752808,0,0,0.834066,1009.71,-813.139)">
            <ellipse cx="1714.59" cy="2087.91" rx="31.379" ry="28.322" style="fill:rgb(251,0,255);fill-opacity:0.5;"/>
        </g>
        <g id="shinkan80-s80_physics" transform="matrix(0.752808,0,0,0.834066,-200.261,-172.2)">
            <ellipse cx="1714.59" cy="2087.91" rx="31.379" ry="28.322" style="fill:rgb(251,0,255);fill-opacity:0.5;"/>
        </g>
        <g id="shinkan80-s80_chemistry_le" transform="matrix(0.752808,0,0,0.834066,73.1744,-246.683)">
            <ellipse cx="1714.59" cy="2087.91" rx="31.379" ry="28.322" style="fill:rgb(251,0,255);fill-opacity:0.5;"/>
        </g>
        <g id="shinkan80-s80_chemistry_ex" transform="matrix(0.752808,0,0,0.834066,482.217,-241.631)">
            <ellipse cx="1714.59" cy="2087.91" rx="31.379" ry="28.322" style="fill:rgb(251,0,255);fill-opacity:0.5;"/>
        </g>
        <g id="main-nishi_hall_3f_reference_room" transform="matrix(0.812701,0,0,2.40786,280.042,-980.185)">
            <rect x="2136.99" y="470.214" width="103.826" height="44.205" style="fill:rgb(0,21,255);fill-opacity:0.5;"/>
        </g>
        <g id="main-nishi_hall_3f_wc_woman" transform="matrix(0.614076,0,0,2.40786,837.942,-980.185)">
            <rect x="2136.99" y="470.214" width="103.826" height="44.205" style="fill:rgb(0,21,255);fill-opacity:0.5;"/>
        </g>
        <g id="main-nishi_hall_3f_shower_woman" transform="matrix(0.448518,0,0,1.50623,1255.5,-556.224)">
            <rect x="2136.99" y="470.214" width="103.826" height="44.205" style="fill:rgb(0,21,255);fill-opacity:0.5;"/>
        </g>
        <g id="main-nishi_hall_3f_changing_room_woman" transform="matrix(0.448518,0,0,0.901633,1255.5,-205.352)">
            <rect x="2136.99" y="470.214" width="103.826" height="44.205" style="fill:rgb(0,21,255);fill-opacity:0.5;"/>
        </g>
        <g id="main-nishi_hall_3f_japanese_style_room_2" transform="matrix(0.812701,0,0,2.25498,280.042,-695.42)">
            <rect x="2136.99" y="470.214" width="103.826" height="44.205" style="fill:rgb(0,21,255);fill-opacity:0.5;"/>
        </g>
        <g id="main-nishi_hall_3f_japanese_style_room_0" transform="matrix(1.53512,0,0,4.02697,-1179.39,-1606.97)">
            <rect x="2136.99" y="470.214" width="103.826" height="44.205" style="fill:rgb(0,21,255);fill-opacity:0.5;"/>
        </g>
        <g id="main-nishi_hall_3f_japanese_style_room_1" transform="matrix(0.812701,0,0,1.77199,280.042,-546.642)">
            <rect x="2136.99" y="470.214" width="103.826" height="44.205" style="fill:rgb(0,21,255);fill-opacity:0.5;"/>
        </g>
        <g id="main-nishi_hall_3f_stairs" transform="matrix(0.47338,0,0,1.77199,1089.55,-681.189)">
            <rect x="2136.99" y="470.214" width="103.826" height="44.205" style="fill:rgb(0,21,255);fill-opacity:0.5;"/>
        </g>
        <g id="main-nishi_hall_3f_outdoor_stairs" transform="matrix(0.788724,0,0,0.890633,493.155,45.7963)">
            <rect x="2136.99" y="470.214" width="103.826" height="44.205" style="fill:rgb(0,21,255);fill-opacity:0.5;"/>
        </g>
        <g id="main-audiovisual_hall_3f_pinspot" transform="matrix(2.36282,0,0,1,-2308,-1.13687e-13)">
            <rect x="1718.52" y="534.769" width="34.023" height="37.008" style="fill:rgb(0,21,254);fill-opacity:0.5;"/>
        </g>
        <g id="main-audiovisual_hall_3f_stairs" transform="matrix(1.17549,0,0,0.510638,-187.157,261.695)">
            <rect x="1718.52" y="534.769" width="34.023" height="37.008" style="fill:rgb(0,21,254);fill-opacity:0.5;"/>
        </g>
    </g>
</svg>
