<svg width="1991.311" height="4493.0488" viewBox="0 0 1991.311 4493.0488" version="1.1" xml:space="preserve" style="clip-rule:evenodd;fill-rule:evenodd;stroke-linejoin:round;stroke-miterlimit:2" id="svg431"
  xmlns="http://www.w3.org/2000/svg"
  xmlns:svg="http://www.w3.org/2000/svg"
  xmlns:serif="http://www.serif.com/">
  <path d="m 1822.49,407.835 h 168.82 V 4493 H -0.001 V 1131.14 H 271.411 V 937.288 h 570.8 V -0.049 H 1822.49 Z M 379.319,326.865 c 81.93,-29.013 172.002,13.949 201.012,95.879 29.02,81.931 -13.95,172.003 -95.876,201.016 -81.93,29.013 -172.002,-13.949 -201.015,-95.88 -29.014,-81.93 13.949,-172.002 95.879,-201.015 z m 7.885,22.267 C 317.563,373.793 281.046,450.354 305.707,519.995 330.368,589.636 406.929,626.154 476.57,601.493 546.211,576.831 582.731,500.27 558.071,430.629 533.406,360.989 456.845,324.471 387.204,349.132 Z m 0.404,14.627 16.146,12.184 -5.685,-16.054 c -0.37,-1.043 -0.423,-1.905 -0.16,-2.585 0.264,-0.681 0.776,-1.156 1.537,-1.425 0.785,-0.278 1.497,-0.237 2.136,0.124 0.639,0.361 1.143,1.063 1.513,2.106 l 7.517,21.228 c 0.839,2.369 0.276,3.901 -1.688,4.596 -0.491,0.174 -0.957,0.26 -1.4,0.258 -0.443,-0.002 -0.89,-0.096 -1.343,-0.281 -0.452,-0.185 -0.898,-0.431 -1.339,-0.738 -0.44,-0.307 -0.883,-0.623 -1.33,-0.948 l -15.823,-12.092 5.601,15.815 c 0.365,1.032 0.402,1.896 0.11,2.593 -0.292,0.697 -0.812,1.178 -1.561,1.444 -0.773,0.273 -1.488,0.226 -2.143,-0.143 -0.656,-0.369 -1.164,-1.062 -1.524,-2.081 l -7.374,-20.823 c -0.313,-0.884 -0.46,-1.612 -0.442,-2.185 0.037,-0.635 0.264,-1.222 0.68,-1.764 0.417,-0.541 0.938,-0.922 1.564,-1.144 0.491,-0.173 0.939,-0.243 1.346,-0.207 0.406,0.036 0.789,0.142 1.148,0.319 0.36,0.176 0.754,0.43 1.182,0.762 0.428,0.332 0.872,0.679 1.332,1.041 z M 436.53,581.97 c -0.67,1.405 -2.179,2.208 -3.719,1.98 -1.539,-0.229 -2.75,-1.435 -2.983,-2.974 L 403.073,404.369 c -0.254,-1.68 0.719,-3.304 2.321,-3.871 1.601,-0.567 3.38,0.082 4.239,1.548 l 90.35,154.087 c 0.788,1.342 0.606,3.042 -0.446,4.188 -1.053,1.147 -2.731,1.472 -4.136,0.802 L 458.74,543.636 c -0.848,-0.404 -1.823,-0.455 -2.708,-0.142 -0.886,0.314 -1.611,0.967 -2.016,1.815 z" mode="main" floor="base" behavior="base" place="base"></path>
  <path d="m 379.321,327.865 c 81.93,-29.013 172.003,13.949 201.016,95.879 29.012,81.93 -13.95,172.004 -95.88,201.016 -81.93,29.014 -172.004,-13.95 -201.016,-95.879 -29.013,-81.931 13.949,-172.003 95.88,-201.016 z m 7.885,22.267 c -69.641,24.661 -106.16,101.223 -81.499,170.864 24.662,69.64 101.224,106.159 170.865,81.498 C 546.213,577.833 582.731,501.27 558.07,431.63 533.409,361.989 456.847,325.471 387.206,350.132 Z" mode="main" floor="base" behavior="compass" place="compass-0"></path>
  <path d="m 436.53,582.971 c -0.67,1.404 -2.178,2.207 -3.717,1.977 -1.541,-0.226 -2.751,-1.432 -2.985,-2.973 -5.156,-34.036 -20.452,-135.013 -26.753,-176.606 -0.255,-1.68 0.719,-3.304 2.319,-3.87 1.603,-0.568 3.381,0.081 4.241,1.547 21.278,36.289 72.935,124.39 90.348,154.086 0.79,1.344 0.609,3.043 -0.446,4.188 -1.052,1.148 -2.729,1.473 -4.134,0.802 -11.528,-5.495 -29.425,-14.034 -36.662,-17.486 -0.847,-0.404 -1.822,-0.454 -2.709,-0.14 -0.884,0.313 -1.611,0.966 -2.015,1.812 -3.452,7.238 -11.989,25.137 -17.487,36.663 z" mode="main" floor="base" behavior="compass" place="compass-1"></path>
  <path d="m 387.609,364.759 16.146,12.184 -5.685,-16.054 c -0.37,-1.043 -0.423,-1.905 -0.16,-2.585 0.262,-0.68 0.776,-1.155 1.535,-1.424 0.787,-0.279 1.497,-0.237 2.137,0.124 0.64,0.36 1.143,1.062 1.512,2.106 l 7.518,21.227 c 0.839,2.369 0.278,3.901 -1.688,4.597 -0.49,0.174 -0.958,0.26 -1.4,0.258 -0.442,-0.003 -0.891,-0.096 -1.344,-0.281 -0.45,-0.186 -0.897,-0.432 -1.336,-0.739 -0.443,-0.306 -0.886,-0.622 -1.332,-0.948 l -15.824,-12.091 5.601,15.815 c 0.365,1.031 0.402,1.895 0.111,2.592 -0.293,0.698 -0.813,1.179 -1.562,1.444 -0.772,0.274 -1.487,0.227 -2.141,-0.143 -0.657,-0.368 -1.165,-1.062 -1.526,-2.08 l -7.374,-20.823 c -0.313,-0.884 -0.46,-1.612 -0.44,-2.186 0.036,-0.634 0.263,-1.222 0.68,-1.763 0.416,-0.541 0.938,-0.923 1.563,-1.144 0.491,-0.174 0.939,-0.243 1.345,-0.207 0.408,0.035 0.791,0.141 1.15,0.318 0.36,0.176 0.753,0.431 1.181,0.762 0.429,0.332 0.872,0.68 1.333,1.041 z" mode="main" floor="base" behavior="compass" place="compass-2"></path>
  <path d="M 315.321,1697.84 H 168.25 v 284.95 h 1204.41 v -107.62 h 112.78 v -117.08 l -112.78,0.35 v -60.25 l -147.07,-0.35 v 121.2 H 807.861 v -148.81 h -492.54 z" mode="main" floor="f1" behavior="enclosure" place="classroom-building-m1e"></path>
  <path d="M 594.531,1518.6 H 168.25 v -179.81 h 281.438 v -84.93 h 288.683 v 125.87 h -143.84" mode="main" floor="f1" behavior="enclosure" place="management-building2-m1e"></path>
  <path d="m 1496.74,328.062 v 98.132 h -73.14 v 62.986 h -160.66 v -62.986 h -73.14 v -98.132 z" mode="main" floor="f1" behavior="enclosure" place="audiovisual-hall-m1e"></path>
  <path d="m 14.816,2737.33 h 100.303 v 273.12 H 14.816 Z" mode="main" floor="f1" behavior="enclosure" place="clubroom-building-1-m1e"></path>
  <path d="m 878.891,1444.74 v -181.06 l 49.48,-50.31 h 206.189 v 50.31 h 88.9 V 554.045 h 200.14 v 138.156 h 228.12 v 145.378 l -228.12,0.457 V 1191.6 h 315.53 V 554.045 h 182.86 v 890.695 z" mode="main" floor="f1" behavior="enclosure" place="management-building1-m1e"></path>
  <path d="M 1567.34,31.9351 H 1811.1 V 383.864 h -243.76 z" mode="main" floor="f1" behavior="enclosure" place="nishi-hall-m1e"></path>
  <path d="m 1924.85,1606.93 v 766.2 h -439.42 v -720.55 h 322.78 v -45.65 z" mode="main" floor="f1" behavior="enclosure" place="pool-m1e"></path>
  <path d="m 1895.76,3210.78 v 484.51 h -141.74 v 144.63 H 1461.1 v -629.14 z" mode="main" floor="f1" behavior="enclosure" place="martial-arts-field-m1e"></path>
  <path d="m 1451.35,2373.13 h 444.41 V 3126 h -444.41 z" mode="main" floor="f1" behavior="enclosure" place="gym-m1e"></path>
  <path d="M 14.8149,2153.15 H 115.117 v 571.43 H 14.8149 Z" mode="main" floor="f1" behavior="enclosure" place="clubroom-building-0-m1e"></path>
  <path d="m 1485.44,2326.09 v 47.06 h -34.09 v 752.87 h 444.41 v 84.77 h -479.57 v -884.7 z" mode="main" floor="f1" behavior="enclosure" place="gym-passage-m1e"></path>
  <path d="m 1189.8,68.377 h 306.94 V 328.062 H 1189.8 Z" mode="main" floor="f1" behavior="none" place="audiovisual-hall-0-m1n"></path>
  <path d="m 1496.74,426.194 v 62.986 h -73.14 v 43.395 h -116.94 l -43.72,-43.395 h -73.14 v -62.986 h 73.14 l 0.01,62.992 160.65,-0.006 v -62.986 z" mode="main" floor="f1" behavior="none" place="audiovisual-hall-1-m1n"></path>
  <path d="m 1134.56,1263.68 v -50.31 H 928.371 l -49.48,50.31 z" mode="main" floor="f1" behavior="place" place="teachers-entrance"></path>
  <path d="m 1461.1,3476.83 h 264.09 v 363.1 H 1461.1 Z" mode="main" floor="f1" behavior="place" place="martial-arts-field-1f-1"></path>
  <path d="m 1725.2,3627.48 h 28.82 v 212.45 h -28.82 z" mode="main" floor="f1" behavior="place" place="martial-arts-field-1f-warehouse"></path>
  <path d="m 1810.73,3316.2 h 85.04 v 85.04 h -85.04 z" mode="main" floor="f1" behavior="place" place="martial-arts-field-1f-stairs"></path>
  <path d="m 1754.04,3627.48 h 70.86 v 67.82 h -70.86 z" mode="main" floor="f1" behavior="place" place="martial-arts-field-1f-wc-man"></path>
  <path d="m 1824.9,3627.48 h 70.87 v 67.82 h -70.87 z" mode="main" floor="f1" behavior="place" place="martial-arts-field-1f-wc-woman"></path>
  <path d="m 1461.1,3210.81 h 264.09 v 266.04 H 1461.1 Z" mode="main" floor="f1" behavior="place" place="martial-arts-field-1f-0"></path>
  <path d="m 1451.35,2960.86 h 148.03 v 165.17 h -148.03 z" mode="main" floor="f1" behavior="place" place="gym-1f-warehouse"></path>
  <path d="m 1451.82,2472.38 h 443.95 v 488.49 h -443.95 z" mode="main" floor="f1" behavior="place" place="gym-1f"></path>
  <path d="m 1525.83,2373.14 h 295.47 v 99.22 h -295.47 z" mode="main" floor="f1" behavior="place" place="gym-1f-stage"></path>
  <path d="m 1840.64,3026.8 h 55.12 v 99.22 h -55.12 z" mode="main" floor="f1" behavior="place" place="gym-1f-wc-woman"></path>
  <path d="m 1785.52,3026.8 h 55.12 v 99.22 h -55.12 z" mode="main" floor="f1" behavior="place" place="gym-1f-wc-man"></path>
  <path d="m 1599.38,3026.8 h 74.02 v 99.22 h -74.02 z" mode="main" floor="f1" behavior="place" place="gym-1f-stairs"></path>
  <path d="m 1525.82,2373.14 v 18.5 h -74.47 v -18.5 z" mode="main" floor="f1" behavior="place" place="gym-1f-stage-stairs-1"></path>
  <path d="m 1525.82,2391.65 v 80.71 h -74.47 v -80.71 z" mode="main" floor="f1" behavior="place" place="gym-1f-stage-side-1"></path>
  <path d="m 1895.76,2391.65 v 80.71 h -74.47 v -80.71 z" mode="main" floor="f1" behavior="place" place="gym-1f-stage-side-0"></path>
  <path d="m 1895.76,2373.14 v 18.5 h -74.47 v -18.5 z" mode="main" floor="f1" behavior="place" place="gym-1f-stage-stairs-0"></path>
  <path d="m 1839.47,2304.55 h 85.4 v 28.35 h -85.4 z" mode="main" floor="f1" behavior="place" place="clubroom-17"></path>
  <path d="m 1839.47,2276.2 h 85.4 v 28.35 h -85.4 z" mode="main" floor="f1" behavior="place" place="clubroom-16"></path>
  <path d="m 1839.47,2247.86 h 85.4 v 28.35 h -85.4 z" mode="main" floor="f1" behavior="place" place="clubroom-15"></path>
  <path d="m 1839.47,2219.51 h 85.4 v 28.35 h -85.4 z" mode="main" floor="f1" behavior="place" place="clubroom-14"></path>
  <path d="m 1839.47,2191.16 h 85.4 v 28.35 h -85.4 z" mode="main" floor="f1" behavior="place" place="clubroom-13"></path>
  <path d="m 1839.47,2162.82 h 85.4 v 28.35 h -85.4 z" mode="main" floor="f1" behavior="place" place="clubroom-12"></path>
  <path d="m 1839.47,2106.12 h 85.4 v 56.7 h -85.4 z" mode="main" floor="f1" behavior="place" place="clubroom-11"></path>
  <path d="m 1839.47,2077.78 h 85.4 v 28.35 h -85.4 z" mode="main" floor="f1" behavior="place" place="clubroom-10"></path>
  <path d="m 1839.47,2049.43 h 85.4 v 28.35 h -85.4 z" mode="main" floor="f1" behavior="place" place="clubroom-9"></path>
  <path d="m 1839.47,2021.09 h 85.4 v 28.35 h -85.4 z" mode="main" floor="f1" behavior="place" place="clubroom-8"></path>
  <path d="m 1839.47,1992.74 h 85.4 v 28.35 h -85.4 z" mode="main" floor="f1" behavior="place" place="clubroom-7"></path>
  <path d="m 1839.47,1936.05 h 85.4 v 56.7 h -85.4 z" mode="main" floor="f1" behavior="place" place="clubroom-6"></path>
  <path d="m 1839.47,1879.35 h 85.4 v 56.7 h -85.4 z" mode="main" floor="f1" behavior="place" place="clubroom-5"></path>
  <path d="m 1839.47,1822.66 h 85.4 v 56.7 h -85.4 z" mode="main" floor="f1" behavior="place" place="clubroom-4"></path>
  <path d="m 1839.47,1765.97 h 85.4 v 56.69 h -85.4 z" mode="main" floor="f1" behavior="place" place="clubroom-3"></path>
  <path d="m 1839.47,1709.28 h 85.4 v 56.69 h -85.4 z" mode="main" floor="f1" behavior="place" place="clubroom-2"></path>
  <path d="m 1839.47,1680.93 h 85.4 v 28.35 h -85.4 z" mode="main" floor="f1" behavior="place" place="clubroom-1"></path>
  <path d="m 1839.47,1652.59 h 85.4 v 28.34 h -85.4 z" mode="main" floor="f1" behavior="place" place="clubroom-0"></path>
  <path d="m 14.8159,2176.99 h 81.8899 v 49.58 H 14.8159 Z" mode="main" floor="f1" behavior="place" place="clubroom-building-0-1f-room-0"></path>
  <path d="m 14.8159,2424.89 h 81.8899 v 49.58 H 14.8159 Z" mode="main" floor="f1" behavior="place" place="clubroom-building-0-1f-room-5"></path>
  <path d="m 14.8159,2226.57 h 81.8899 v 49.58 H 14.8159 Z" mode="main" floor="f1" behavior="place" place="clubroom-building-0-1f-room-1"></path>
  <path d="m 14.8159,2474.47 h 81.8899 v 49.58 H 14.8159 Z" mode="main" floor="f1" behavior="place" place="clubroom-building-0-1f-room-6"></path>
  <path d="m 14.8159,2276.15 h 81.8899 v 49.58 H 14.8159 Z" mode="main" floor="f1" behavior="place" place="clubroom-building-0-1f-room-2"></path>
  <path d="m 14.8159,2524.05 h 81.8899 v 49.57 H 14.8159 Z" mode="main" floor="f1" behavior="place" place="clubroom-building-0-1f-room-7"></path>
  <path d="m 14.8159,2325.73 h 81.8899 v 49.58 H 14.8159 Z" mode="main" floor="f1" behavior="place" place="clubroom-building-0-1f-room-3"></path>
  <path d="m 14.8159,2573.62 h 81.8899 v 99.16 H 14.8159 Z" mode="main" floor="f1" behavior="place" place="clubroom-building-0-1f-room-8"></path>
  <path d="m 14.8159,2375.31 h 81.8899 v 49.58 H 14.8159 Z" mode="main" floor="f1" behavior="place" place="clubroom-building-0-1f-room-4"></path>
  <path d="M 14.8189,2153.16 H 115.123 V 2177 H 14.8189 Z" mode="main" floor="f1" behavior="place" place="clubroom-building-0-1f-stairs-0"></path>
  <path d="M 14.8179,2737.32 H 115.121 v 59.84 H 14.8179 Z" mode="main" floor="f1" behavior="place" place="clubroom-building-1-warehouse-0"></path>
  <path d="M 14.8179,2950.62 H 115.121 v 59.84 H 14.8179 Z" mode="main" floor="f1" behavior="place" place="clubroom-building-1-warehouse-1"></path>
  <path d="M 14.8179,2797.18 H 115.121 v 50.39 H 14.8179 Z" mode="main" floor="f1" behavior="place" place="clubroom-building-1-wc-man"></path>
  <path d="M 14.8179,2900.18 H 115.121 v 50.39 H 14.8179 Z" mode="main" floor="f1" behavior="place" place="clubroom-building-1-wc-woman"></path>
  <path d="M 14.8179,2847.56 H 115.121 v 26.32 H 14.8179 Z" mode="main" floor="f1" behavior="place" place="clubroom-building-1-shower-0"></path>
  <path d="M 14.8179,2873.88 H 115.121 v 26.32 H 14.8179 Z" mode="main" floor="f1" behavior="place" place="clubroom-building-1-shower-1"></path>
  <path d="M 14.8155,2672.77 H 115.119 v 51.8 H 14.8155 Z" mode="main" floor="f1" behavior="place" place="clubroom-building-0-1f-stairs-1"></path>
  <path d="m 1729.21,344.492 h 81.89 v 39.371 h -81.89 z" mode="main" floor="f1" behavior="place" place="nishi-hall-1f-outdoor-stairs"></path>
  <path d="m 1567.34,31.9335 h 84.38 v 78.3305 h -84.38 z" mode="main" floor="f1" behavior="place" place="nishi-hall-1f-office"></path>
  <path d="m 1567.33,166.482 h 47.62 v 39.371 h -47.62 z" mode="main" floor="f1" behavior="place" place="nishi-hall-1f-wc"></path>
  <path d="m 1614.95,166.482 h 36.77 v 39.371 h -36.77 z" mode="main" floor="f1" behavior="place" place="nishi-hall-1f-printing"></path>
  <path d="m 1700.86,31.9381 h 110.23 V 180.755 h -110.23 z" mode="main" floor="f1" behavior="place" place="nishi-hall-1f-kitchen"></path>
  <path d="M 1811.1,180.745 V 344.489 H 1567.34 V 205.744 h 84.37 v -24.999 z" mode="main" floor="f1" behavior="place" place="nishi-hall-1f-cafeteria"></path>
  <path d="m 1651.72,31.9335 h 49.15 v 78.3305 h -49.15 z" mode="main" floor="f1" behavior="place" place="nishi-hall-1f-stairs"></path>
  <path d="m 1383.51,364.383 h 62.06 v 36.22 h -62.06 z" mode="main" floor="f1" behavior="place" place="audiovisual-hall-1f-stairs-0"></path>
  <path d="m 1240.98,364.383 h 62.13 v 36.22 h -62.13 z" mode="main" floor="f1" behavior="place" place="audiovisual-hall-1f-stairs-1"></path>
  <path d="m 1240.98,328.063 h 102.29 v 36.32 h -102.29 z" mode="main" floor="f1" behavior="place" place="audiovisual-hall-1f-wc-man"></path>
  <path d="m 1343.28,328.063 h 102.28 v 36.32 h -102.28 z" mode="main" floor="f1" behavior="place" place="audiovisual-hall-1f-wc-woman"></path>
  <path d="m 1471.15,328.063 h 25.59 v 55.8 h -25.59 z" mode="main" floor="f1" behavior="place" place="audiovisual-hall-1f-passage-0"></path>
  <path d="m 1189.8,328.063 h 25.59 v 55.8 h -25.59 z" mode="main" floor="f1" behavior="place" place="audiovisual-hall-1f-passage-1"></path>
  <path d="m 1223.47,1127.82 h 159.2 v 135.86 h -159.2 z" mode="main" floor="f1" behavior="place" place="office-warehouse"></path>
  <path d="m 1223.47,911.234 h 159.2 v 216.576 h -159.2 z" mode="main" floor="f1" behavior="place" place="pc-room"></path>
  <path d="m 1223.47,837.637 h 159.2 v 73.598 h -159.2 z" mode="main" floor="f1" behavior="place" place="pc-preparation-room"></path>
  <path d="m 1223.47,621.064 h 159.2 v 216.579 h -159.2 z" mode="main" floor="f1" behavior="place" place="ll-room"></path>
  <path d="m 1223.47,554.046 h 159.2 v 67.014 h -159.2 z" mode="main" floor="f1" behavior="place" place="ll-preparation-room"></path>
  <path d="m 1780.07,1010.85 h 141.91 v 252.83 h -141.91 z" mode="main" floor="f1" behavior="place" place="home-economics-room"></path>
  <path d="m 1780.07,837.637 h 141.91 v 173.213 h -141.91 z" mode="main" floor="f1" behavior="place" place="home-economics-preparation-room"></path>
  <path d="m 1780.07,554.044 h 141.91 v 283.592 h -141.91 z" mode="main" floor="f1" behavior="place" place="food-room"></path>
  <path d="M 89.8567,3185.25 H 156.343 V 4401.7 H 89.8567 Z" mode="main" floor="f1" behavior="place" place="straight-course"></path>
  <path d="m 42.8956,2090.03 v -373.57 h 25.9843 v 373.57 z" mode="main" floor="f1" behavior="place" place="bicycle-parking-1st-1"></path>
  <path d="m 120.612,1896.79 v -180.33 h 25.985 v 180.33 z" mode="main" floor="f1" behavior="place" place="bicycle-parking-1st-0"></path>
  <path d="m 130.359,1546.73 v -155.16 h 25.984 v 155.16 z" mode="main" floor="f1" behavior="place" place="bicycle-parking-2nd-0"></path>
  <path d="m 377.695,1153.02 h 360.67 v 51.73 h -360.67 z" mode="main" floor="f1" behavior="place" place="bicycle-parking-2nd-2"></path>
  <path d="m 377.695,999.189 h 360.67 v 51.731 h -360.67 z" mode="main" floor="f1" behavior="place" place="bicycle-parking-3nd-1"></path>
  <path d="m 377.695,1076.37 h 360.67 v 51.73 h -360.67 z" mode="main" floor="f1" behavior="place" place="bicycle-parking-3nd-0"></path>
  <path d="M 705.371,1249.57 H 453.306 v -25.99 h 252.065 z" mode="main" floor="f1" behavior="place" place="bicycle-parking-teachers"></path>
  <path d="M 469.151,2116.01 H 330.264 v -25.99 h 138.887 z" mode="main" floor="f1" behavior="place" place="bicycle-parking-1st-2"></path>
  <path d="m 160.21,1280.04 h 284.295 v 51.74 H 160.21 Z" mode="main" floor="f1" behavior="place" place="bicycle-parking-2nd-1"></path>
  <path d="m 761.473,999.193 h 142.353 v 64.387 H 761.473 Z" mode="main" floor="f1" behavior="place" place="garbage-dump"></path>
  <path d="m 186.517,3891.41 h 670.976 v 536.73 H 186.517 Z" mode="main" floor="f1" behavior="place" place="handball-court"></path>
  <path d="m 1623.13,1721.14 h 185.09 v 154.42 h -185.09 z" mode="main" floor="f1" behavior="place" place="training-room"></path>
  <path d="m 1064.62,1061.09 c 0,24.03 -19.47,43.51 -43.5,43.51 -24.025,0 -43.502,-19.48 -43.502,-43.51 0,-24.02 19.477,-43.5 43.502,-43.5 24.03,0 43.5,19.48 43.5,43.5 z" mode="main" floor="f1" behavior="place" place="fountain"></path>
  <path d="M 943.421,111.989 V 96.293 h 100.299 v 15.696 z" mode="main" floor="f1" behavior="place" place="gate-north-0"></path>
  <path d="m 168.249,1859.97 h 138.887 v 122.8 H 168.249 Z" mode="main" floor="f1" behavior="place" place="classroom-1h"></path>
  <path d="m 307.135,1859.97 h 138.887 v 122.8 H 307.135 Z" mode="main" floor="f1" behavior="place" place="classroom-1g"></path>
  <path d="m 446.022,1859.97 h 138.887 v 122.8 H 446.022 Z" mode="main" floor="f1" behavior="place" place="classroom-1f"></path>
  <path d="m 584.908,1859.97 h 138.887 v 122.8 H 584.908 Z" mode="main" floor="f1" behavior="place" place="classroom-1e"></path>
  <path d="M 817.113,1859.97 H 956 v 122.8 H 817.113 Z" mode="main" floor="f1" behavior="place" place="classroom-1d"></path>
  <path d="m 956,1859.97 h 138.89 v 122.8 H 956 Z" mode="main" floor="f1" behavior="place" place="classroom-1c"></path>
  <path d="m 1094.89,1859.97 h 138.89 v 122.8 h -138.89 z" mode="main" floor="f1" behavior="place" place="classroom-1b"></path>
  <path d="m 1233.77,1859.97 h 138.89 v 122.8 h -138.89 z" mode="main" floor="f1" behavior="place" place="classroom-1a"></path>
  <path d="m 449.688,1379.74 h 144.84 v 138.86 h -144.84 z" mode="main" floor="f1" behavior="place" place="janitorial-room"></path>
  <path d="m 1659.88,1652.57 h 148.34 v 68.56 h -148.34 z" mode="main" floor="f1" behavior="place" place="pool-mechanical-room"></path>
  <path d="m 1511.54,1652.57 h 148.34 v 68.56 h -148.34 z" mode="main" floor="f1" behavior="place" place="electrical-room"></path>
  <path d="m 1511.54,1875.57 h 327.93 v 497.56 h -327.93 z" mode="main" floor="f1" behavior="place" place="pilotis"></path>
  <path d="m 315.321,1670.24 h 405.135 v 148.81 H 315.321 Z" mode="main" floor="f1" behavior="place" place="students-entrance"></path>
  <path d="m 349.6,1379.73 h 100.086 v 138.86 H 168.248 V 1338.78 H 349.6 Z" mode="main" floor="f1" behavior="place" place="the-student-council-room"></path>
  <path d="m 1973.56,1600.21 h -15.7 v -50.31 h 15.7 z" mode="main" floor="f1" behavior="place" place="gate-east-0"></path>
  <path d="M 1525.81,29.032 V 13.336 h 31.2 v 15.696 z" mode="main" floor="f1" behavior="place" place="gate-nishi-hall-0"></path>
  <path d="M 1675.66,29.032 V 13.336 h 19 v 15.696 z" mode="main" floor="f1" behavior="place" place="gate-nishi-hall-1"></path>
  <path d="M 25.714,3137.07 H 10.018 v -50.31 h 15.696 z" mode="main" floor="f1" behavior="place" place="gate-west-2"></path>
  <path d="m 27.198,1525.64 h 15.696 v 157.7 H 27.198 Z" mode="main" floor="f1" behavior="place" place="gate-west-0"></path>
  <path d="m 27.198,1204.74 h 15.696 v 78.33 H 27.198 Z" mode="main" floor="f1" behavior="place" place="gate-west-1"></path>
  <path d="m 948.24,1304.62 h 275.22 v 140.11 H 948.24 Z" mode="main" floor="f1" behavior="place" place="corporate-planning-office"></path>
  <path d="m 1223.47,1304.62 h 159.19 v 140.12 h -159.19 z" mode="main" floor="f1" behavior="place" place="principals-office"></path>
  <path d="m 1780.08,1304.62 h 141.91 v 140.12 h -141.91 z" mode="main" floor="f1" behavior="place" place="japanese-style-room"></path>
  <path d="m 1485.45,1304.62 h 212.74 v 140.12 h -212.74 z" mode="main" floor="f1" behavior="place" place="health-room"></path>
  <path d="m 1698.19,1304.62 h 81.89 v 140.12 h -81.89 z" mode="main" floor="f1" behavior="place" place="health-consultation-room"></path>
  <path d="m 878.89,3891.41 h 1031.1 v 536.73 H 878.89 Z" mode="main" floor="f1" behavior="place" place="tennis-court"></path>
  <path d="M 186.517,2151.23 H 1367.66 V 3869.69 H 186.517 Z" mode="main" floor="f1" behavior="place" place="grand"></path>
  <path d="m 1808.22,1606.93 h 116.65 v 45.66 h -116.65 z" mode="main" floor="f1" behavior="place" place="stairs-pool-1f"></path>
  <path d="m 1416.19,2269.77 h 48.53 v 56.3 h -48.53 z" mode="main" floor="f1" behavior="place" place="stairs-gym-passage-1f-0"></path>
  <path d="m 1416.19,3210.78 h 24.26 v 120.71 h -24.26 z" mode="main" floor="f1" behavior="place" place="stairs-gym-passage-1f-1"></path>
  <path d="m 1507.71,1191.64 h 84.11 v 72.03 h -84.11 z" mode="main" floor="f1" behavior="place" place="stairs-management-center-1f"></path>
  <path d="m 1591.82,1191.64 h 147.31 v 72.03 h -147.31 z" mode="main" floor="f1" behavior="place" place="wc-management-center-1f"></path>
  <path d="m 1458.32,1227.59 h 49.39 v 36.04 h -49.39 z" mode="main" floor="f1" behavior="place" place="ev-1f"></path>
  <path d="m 1458.32,1191.6 h 49.39 v 35.99 h -49.39 z" mode="main" floor="f1" behavior="place" place="wc-management-center-accessible-1f"></path>
  <path d="m 168.25,1697.84 h 73.535 v 121.2 H 168.25 Z" mode="main" floor="f1" behavior="place" place="wc-class-west-1f"></path>
  <path d="m 241.785,1697.84 h 73.535 v 121.2 h -73.535 z" mode="main" floor="f1" behavior="place" place="stairs-class-west-1f"></path>
  <path d="m 1225.59,1697.84 h 73.53 v 121.2 h -73.53 z" mode="main" floor="f1" behavior="place" place="wc-class-east-1f"></path>
  <path d="m 1335.89,1819.05 h -36.76 v -121.21 h 73.53 v 60.6 h -36.77 z" mode="main" floor="f1" behavior="place" place="stairs-class-east-1f"></path>
  <path d="m 1335.89,1758.44 h 36.77 v 60.6 h -36.77 z" mode="main" floor="f1" behavior="place" place="warehouse-1"></path>
  <path d="m 1504.65,692.201 h 73.53 v 104.491 h -73.53 z" mode="main" floor="f1" behavior="place" place="wc-management-north-1f"></path>
  <path d="m 1578.19,692.201 h 73.53 v 104.491 h -73.53 z" mode="main" floor="f1" behavior="place" place="stairs-management-north-1f"></path>
  <path d="m 449.688,1253.86 h 144.84 v 84.93 h -144.84 z" mode="main" floor="f1" behavior="place" place="stairs-management-west-1f"></path>
  <path d="m 594.528,1253.86 h 143.838 v 84.93 H 594.528 Z" mode="main" floor="f1" behavior="place" place="wc-management-west-1f"></path>
  <path d="m 723.793,1875.57 h 93.319 v 107.22 h -93.319 z" mode="main" floor="f1" behavior="place" place="stairs-class-center-1f"></path>
  <path d="m 1511.55,1721.13 h 111.59 v 154.43 h -111.59 z" mode="main" floor="f1" behavior="place" place="wc-pilotis"></path>
  <path d="M 1739.13,692.201 V 554.045 h 182.86 v 890.695 h -436.55 v 430.43 h -112.78 v 107.62 H 168.25 v -284.95 h 147.071 v 121.2 h 408.47 V 1518.6 H 168.25 v -179.81 h 281.438 v -84.93 h 288.683 v 9.82 H 1223.46 V 554.045 h 159.2 v -21.47 h 40.94 v 159.626 z m 0,145.378 -315.53,0.457 V 1191.6 h 315.53 z M 1423.6,1444.74 H 807.861 v 374.3 h 417.729 v -121.2 h 198.01 z" mode="main" floor="f2" behavior="enclosure" place="classroom-building-m2e"></path>
  <path d="M 1811.1,31.9384 V 383.868 h -81.88 V 344.519 H 1567.34 V 31.9384 Z" mode="main" floor="f2" behavior="enclosure" place="nishi-hall-m2e"></path>
  <path d="M 1496.74,68.377 V 489.18 h -73.14 v 43.395 H 1306.66 L 1262.94,489.18 H 1189.8 V 68.377 Z" mode="main" floor="f2" behavior="enclosure" place="audiovisual-hall-m2e"></path>
  <path d="m 1924.85,1606.93 v 719.15 h -29.11 v 47.05 h -410.31 v -720.55 h 322.78 v -45.65 z" mode="main" floor="f2" behavior="enclosure" place="pool-m2e"></path>
  <path d="m 1725.2,3210.78 h 170.56 v 484.51 H 1725.2 Z" mode="main" floor="f2" behavior="enclosure" place="martial-arts-field-m2e"></path>
  <path d="m 1821.28,2373.13 h 74.48 v 752.86 h -444.41 v -752.86 h 74.47 v 18.51 h 24.22 v 80.7 h -80.18 v 469.99 h 407.39 v -469.99 h -80.18 v -80.7 h 24.21 z" mode="main" floor="f2" behavior="enclosure" place="gym-m2e"></path>
  <path d="M 14.8149,2153.15 H 115.117 v 571.43 H 14.8149 Z" mode="main" floor="f2" behavior="enclosure" place="clubroom-building-0-m2e"></path>
  <path d="m 1416.19,3126.02 h 479.57 v 84.78 h -479.57 z" mode="main" floor="f2" behavior="enclosure" place="gym-passage-1-m2e"></path>
  <path d="m 1485.44,1875.19 v 497.96 h -69.25 v -47.05 h 48.52 v -404.7 h -92.05 v -46.21 z" mode="main" floor="f2" behavior="enclosure" place="gym-passage-0-m2e"></path>
  <path d="M 186.517,2151.23 H 1367.66 V 3869.69 H 186.517 Z" mode="main" floor="f2" behavior="none" place="grand-m2n"></path>
  <path d="m 186.517,3891.41 h 670.976 v 536.73 H 186.517 Z" mode="main" floor="f2" behavior="none" place="tennis-court-m2n"></path>
  <path d="m 878.89,3891.41 h 1031.1 v 536.73 H 878.89 Z" mode="main" floor="f2" behavior="none" place="handball-court-m2n"></path>
  <path d="m 1064.62,1061.1 c 0,24.03 -19.47,43.5 -43.5,43.5 -24.025,0 -43.502,-19.47 -43.502,-43.5 0,-24.03 19.477,-43.5 43.502,-43.5 24.03,0 43.5,19.47 43.5,43.5 z" mode="main" floor="f2" behavior="none" place="fountain-m2n"></path>
  <path d="m 1973.56,1600.2 h -15.7 v -50.3 h 15.7 z" mode="main" floor="f2" behavior="none" place="gate-east-0-m2n"></path>
  <path d="M 1525.81,29.035 V 13.339 h 31.2 v 15.696 z" mode="main" floor="f2" behavior="none" place="gate-nishi-hall-0-m2n"></path>
  <path d="M 1675.66,29.035 V 13.339 h 19 v 15.696 z" mode="main" floor="f2" behavior="none" place="gate-nishi-hall-1-m2n"></path>
  <path d="M 25.714,3137.07 H 10.018 v -50.31 h 15.696 z" mode="main" floor="f2" behavior="none" place="gate-west-2-m2n"></path>
  <path d="M 943.421,111.995 V 96.299 h 100.299 v 15.696 z" mode="main" floor="f2" behavior="none" place="gate-north-0-m2n"></path>
  <path d="m 27.198,1525.64 h 15.696 v 157.7 H 27.198 Z" mode="main" floor="f2" behavior="none" place="gate-west-0-m2n"></path>
  <path d="m 27.198,1204.74 h 15.696 v 78.33 H 27.198 Z" mode="main" floor="f2" behavior="none" place="gate-west-1-m2n"></path>
  <path d="m 1416.19,2373.13 h 35.16 V 3126 h -35.16 z" mode="main" floor="f2" behavior="none" place="gym-passage-m2n"></path>
  <path d="m 1567.34,344.513 h 161.87 v 39.37 h -161.87 z" mode="main" floor="f2" behavior="none" place="nishi-hall-m2n"></path>
  <path d="m 1725.2,3210.78 v 484.52 h -9.52 v 144.62 H 1461.1 v -629.14 z" mode="main" floor="f2" behavior="none" place="martial-arts-field-m2n"></path>
  <path d="m 1877.25,2472.35 v 469.98 h -407.4 v -469.98 h 80.19 v -80.71 h -24.22 v -18.51 h 295.46 v 18.51 h -24.21 v 80.71 z" mode="main" floor="f2" behavior="none" place="gym-m2n"></path>
  <path d="m 14.816,2737.33 h 100.303 v 273.12 H 14.816 Z" mode="main" floor="f2" behavior="none" place="clubroom-building-1-m2n"></path>
  <path d="m 1485.45,2207.96 h 219.68 v 118.12 h -219.68 z" mode="main" floor="f2" behavior="place" place="pool-changing-room-man"></path>
  <path d="m 1705.13,2207.96 h 219.68 v 118.12 h -219.68 z" mode="main" floor="f2" behavior="place" place="pool-changing-room-woman"></path>
  <path d="m 1451.35,2960.85 h 148.03 v 165.17 h -148.03 z" mode="main" floor="f2" behavior="place" place="gym-2f-teachers"></path>
  <path d="m 1747.73,3026.79 h 74.01 v 99.22 h -74.01 z" mode="main" floor="f2" behavior="place" place="gym-2f-changing-room-man"></path>
  <path d="m 1821.74,3026.79 h 74.01 v 99.22 h -74.01 z" mode="main" floor="f2" behavior="place" place="gym-2f-changing-room-woman"></path>
  <path d="m 1469.85,2391.64 h 80.19 v 80.71 h -80.19 z" mode="main" floor="f2" behavior="place" place="gym-2f-stage-broadcast-room"></path>
  <path d="m 1797.07,2391.64 h 80.18 v 80.71 h -80.18 z" mode="main" floor="f2" behavior="place" place="gym-2f-stage-waiting-room"></path>
  <path d="m 1599.38,3026.79 h 74.02 v 99.22 h -74.02 z" mode="main" floor="f2" behavior="place" place="gym-2f-stairs"></path>
  <path d="m 1895.76,2960.89 h -444.41 v -488.48 h 18.5 v 469.95 h 407.4 v -469.95 h 18.51 z" mode="main" floor="f2" behavior="place" place="gym-2f-catwalk"></path>
  <path d="m 1525.82,2373.13 v 18.51 h -74.47 v -18.51 z" mode="main" floor="f2" behavior="place" place="gym-2f-stage-stairs-1"></path>
  <path d="m 1469.85,2391.64 v 80.71 h -18.5 v -80.71 z" mode="main" floor="f2" behavior="place" place="gym-2f-passage-1"></path>
  <path d="m 1895.75,2391.64 v 80.71 h -18.5 v -80.71 z" mode="main" floor="f2" behavior="place" place="gym-2f-passage-0"></path>
  <path d="m 1895.76,2373.13 v 18.51 h -74.47 v -18.51 z" mode="main" floor="f2" behavior="place" place="gym-2f-stage-stairs-0"></path>
  <path d="m 14.8159,2176.99 h 81.8899 v 49.58 H 14.8159 Z" mode="main" floor="f2" behavior="place" place="clubroom-building-0-2f-room-0"></path>
  <path d="m 14.8159,2424.88 h 81.8899 v 49.58 H 14.8159 Z" mode="main" floor="f2" behavior="place" place="clubroom-building-0-2f-room-5"></path>
  <path d="m 14.8159,2226.56 h 81.8899 v 49.58 H 14.8159 Z" mode="main" floor="f2" behavior="place" place="clubroom-building-0-2f-room-1"></path>
  <path d="m 14.8159,2474.46 h 81.8899 v 49.58 H 14.8159 Z" mode="main" floor="f2" behavior="place" place="clubroom-building-0-2f-room-6"></path>
  <path d="m 14.8159,2276.14 h 81.8899 v 49.58 H 14.8159 Z" mode="main" floor="f2" behavior="place" place="clubroom-building-0-2f-room-2"></path>
  <path d="m 14.8159,2524.04 h 81.8899 v 49.58 H 14.8159 Z" mode="main" floor="f2" behavior="place" place="clubroom-building-0-2f-room-7"></path>
  <path d="m 14.8159,2325.72 h 81.8899 v 49.58 H 14.8159 Z" mode="main" floor="f2" behavior="place" place="clubroom-building-0-2f-room-3"></path>
  <path d="m 14.8159,2573.62 h 81.8899 v 49.58 H 14.8159 Z" mode="main" floor="f2" behavior="place" place="clubroom-building-0-2f-room-8"></path>
  <path d="m 14.8159,2375.3 h 81.8899 v 49.58 H 14.8159 Z" mode="main" floor="f2" behavior="place" place="clubroom-building-0-2f-room-4"></path>
  <path d="m 14.8159,2623.19 h 81.8899 v 49.58 H 14.8159 Z" mode="main" floor="f2" behavior="place" place="clubroom-building-0-2f-room-9"></path>
  <path d="M 14.8189,2153.16 H 115.123 V 2177 H 14.8189 Z" mode="main" floor="f2" behavior="place" place="clubroom-building-0-2f-stairs-0"></path>
  <path d="M 14.8155,2672.76 H 115.119 v 51.8 H 14.8155 Z" mode="main" floor="f2" behavior="place" place="clubroom-building-0-2f-stairs-1"></path>
  <path d="m 1810.49,3316.19 h 85.04 v 85.04 h -85.04 z" mode="main" floor="f2" behavior="place" place="martial-arts-field-2f-stairs"></path>
  <path d="m 1725.21,3476.84 h 85.28 v 218.47 h -85.28 z" mode="main" floor="f2" behavior="place" place="martial-arts-field-2f-changing-man"></path>
  <path d="m 1810.49,3476.84 h 85.28 v 218.47 h -85.28 z" mode="main" floor="f2" behavior="place" place="martial-arts-field-2f-changing-woman"></path>
  <path d="m 1895.74,3210.79 v 105.4 h -85.04 v 85.03 h -85.5 v -190.43 z" mode="main" floor="f2" behavior="place" place="martial-arts-field-2f-teachers"></path>
  <path d="m 1567.34,166.486 h 84.38 v 178.012 h -84.38 z" mode="main" floor="f2" behavior="place" place="nishi-hall-2f-meeting-room-1"></path>
  <path d="m 1567.34,31.9375 h 84.38 V 138.377 h -84.38 z" mode="main" floor="f2" behavior="place" place="nishi-hall-2f-office"></path>
  <path d="m 1732.66,138.377 h -31.88 V 31.9375 h 63.76 v 58.9564 h -31.88 z" mode="main" floor="f2" behavior="place" place="nishi-hall-2f-wc-man-0"></path>
  <path d="m 1732.66,90.8937 h 31.88 v 47.4823 h -31.88 z" mode="main" floor="f2" behavior="place" place="nishi-hall-2f-wc-man-1"></path>
  <path d="m 1764.54,31.9384 h 46.57 v 66.5829 h -46.57 z" mode="main" floor="f2" behavior="place" place="nishi-hall-2f-shower-man"></path>
  <path d="m 1764.54,98.5185 h 46.57 v 39.8565 h -46.57 z" mode="main" floor="f2" behavior="place" place="nishi-hall-2f-changing-room-man"></path>
  <path d="m 1651.71,166.486 h 159.38 v 178.012 h -159.38 z" mode="main" floor="f2" behavior="place" place="nishi-hall-2f-meeting-room-0"></path>
  <path d="m 1651.72,31.9325 h 49.15 v 78.3305 h -49.15 z" mode="main" floor="f2" behavior="place" place="nishi-hall-2f-stairs"></path>
  <path d="m 1729.21,344.516 h 81.89 v 39.371 h -81.89 z" mode="main" floor="f2" behavior="place" place="nishi-hall-2f-outdoor-stairs"></path>
  <path d="m 1240.91,68.3746 h 204.72 v 86.6144 h -204.72 z" mode="main" floor="f2" behavior="place" place="audiovisual-hall-2f-stage"></path>
  <path d="m 1496.74,241.453 h -25.59 v 86.615 h 25.59 V 414.68 H 1189.8 v -86.612 h 25.59 v -86.615 h -25.59 l 51.11,-86.458 h 204.72 z" mode="main" floor="f2" behavior="place" place="audiovisual-hall-2f"></path>
  <path d="m 1423.5,414.673 h 73.24 v 37.008 h -73.24 z" mode="main" floor="f2" behavior="place" place="audiovisual-hall-2f-stairs-0"></path>
  <path d="m 1189.81,414.673 h 73.24 v 37.008 h -73.24 z" mode="main" floor="f2" behavior="place" place="audiovisual-hall-2f-stairs-1"></path>
  <path d="m 1303.2,414.677 h 80.39 v 37.008 h -80.39 z" mode="main" floor="f2" behavior="place" place="audiovisual-hall-2f-monitor-room"></path>
  <path d="m 1471.15,241.451 h 25.59 v 86.615 h -25.59 z" mode="main" floor="f2" behavior="place" place="audiovisual-hall-2f-ramp-0"></path>
  <path d="m 1189.8,241.451 h 25.59 v 86.615 h -25.59 z" mode="main" floor="f2" behavior="place" place="audiovisual-hall-2f-ramp-1"></path>
  <path d="m 1240.91,68.377 v 86.615 l -51.11,86.456 V 68.377 Z" mode="main" floor="f2" behavior="place" place="audiovisual-hall-2f-stage-side-1"></path>
  <path d="m 1445.63,68.377 v 86.615 l 51.11,86.456 V 68.377 Z" mode="main" floor="f2" behavior="place" place="audiovisual-hall-2f-stage-side-0"></path>
  <path d="m 1223.47,1191.61 h 79.59 v 72.07 h -79.59 z" mode="main" floor="f2" behavior="place" place="document-preparation-room"></path>
  <path d="m 1303.06,1191.61 h 79.6 v 72.07 h -79.6 z" mode="main" floor="f2" behavior="place" place="changing-room-3"></path>
  <path d="m 1223.47,1127.81 h 159.2 v 63.79 h -159.2 z" mode="main" floor="f2" behavior="place" place="changing-room-1"></path>
  <path d="m 1382.66,1304.62 h 40.95 v 140.23 h -40.95 z" mode="main" floor="f2" behavior="place" place="broadcast-room"></path>
  <path d="m 1485.45,1652.57 h 439.42 v 555.39 h -439.42 z" mode="main" floor="f2" behavior="place" place="pool"></path>
  <path d="m 1223.47,761.285 h 159.2 v 366.535 h -159.2 z" mode="main" floor="f2" behavior="place" place="meeting-room"></path>
  <path d="m 1780.07,924.241 h 141.91 v 86.609 h -141.91 z" mode="main" floor="f2" behavior="place" place="art-preparation-room"></path>
  <path d="m 168.249,1859.97 h 138.887 v 122.8 H 168.249 Z" mode="main" floor="f2" behavior="place" place="classroom-2h"></path>
  <path d="m 307.135,1859.97 h 138.887 v 122.8 H 307.135 Z" mode="main" floor="f2" behavior="place" place="classroom-2g"></path>
  <path d="m 446.022,1859.97 h 138.887 v 122.8 H 446.022 Z" mode="main" floor="f2" behavior="place" place="classroom-2f"></path>
  <path d="m 584.908,1859.97 h 138.887 v 122.8 H 584.908 Z" mode="main" floor="f2" behavior="place" place="classroom-2e"></path>
  <path d="M 817.113,1859.97 H 956 v 122.8 H 817.113 Z" mode="main" floor="f2" behavior="place" place="classroom-2d"></path>
  <path d="m 956,1859.97 h 138.89 v 122.8 H 956 Z" mode="main" floor="f2" behavior="place" place="classroom-2c"></path>
  <path d="m 1094.89,1859.97 h 138.89 v 122.8 h -138.89 z" mode="main" floor="f2" behavior="place" place="classroom-2b"></path>
  <path d="m 1233.77,1859.97 h 138.89 v 122.8 h -138.89 z" mode="main" floor="f2" behavior="place" place="classroom-2a"></path>
  <path d="m 904.428,1304.62 h 478.242 v 140.12 H 904.428 Z" mode="main" floor="f2" behavior="place" place="teachers-room"></path>
  <path d="m 1780.08,1304.62 h 141.91 v 140.12 h -141.91 z" mode="main" floor="f2" behavior="place" place="special-room-2nd"></path>
  <path d="m 1223.46,554.045 h 159.19 v 69.078 h -159.19 z" mode="main" floor="f2" behavior="place" place="mathematics-preparation-room"></path>
  <path d="m 1223.46,692.205 h 159.19 v 69.078 h -159.19 z" mode="main" floor="f2" behavior="place" place="english-preparation-room"></path>
  <path d="m 1223.46,623.125 h 159.19 v 69.078 h -159.19 z" mode="main" floor="f2" behavior="place" place="japanese-preparation-room"></path>
  <path d="m 558.317,1379.73 h 165.476 v 138.86 H 558.317 Z" mode="main" floor="f2" behavior="place" place="social-studies-room-2nd"></path>
  <path d="m 377.699,1379.73 h 180.624 v 138.86 H 377.699 Z" mode="main" floor="f2" behavior="place" place="social-studies-preparation-room"></path>
  <path d="M 168.254,1379.73 H 377.7 v 138.86 H 168.254 Z" mode="main" floor="f2" behavior="place" place="social-studies-room-1st"></path>
  <path d="m 807.865,1304.62 h 96.555 v 140.12 h -96.555 z" mode="main" floor="f2" behavior="place" place="printing-room"></path>
  <path d="m 1485.43,1304.62 h 106.38 v 140.12 h -106.38 z" mode="main" floor="f2" behavior="place" place="career-room"></path>
  <path d="m 1591.81,1304.62 h 94.13 v 140.12 h -94.13 z" mode="main" floor="f2" behavior="place" place="consultation-room-1st"></path>
  <path d="m 1685.94,1304.62 h 94.13 v 140.12 h -94.13 z" mode="main" floor="f2" behavior="place" place="consultation-room-2nd"></path>
  <path d="m 1780.07,1191.6 h 141.91 v 72.07 h -141.91 z" mode="main" floor="f2" behavior="place" place="art-material-room"></path>
  <path d="m 1780.07,837.641 h 141.91 v 86.608 h -141.91 z" mode="main" floor="f2" behavior="place" place="craft-preparation-room"></path>
  <path d="m 1780.07,1010.85 h 141.91 v 180.75 h -141.91 z" mode="main" floor="f2" behavior="place" place="art-room"></path>
  <path d="m 1780.07,623.122 h 141.91 v 214.514 h -141.91 z" mode="main" floor="f2" behavior="place" place="craft-room"></path>
  <path d="m 1780.07,554.045 h 141.91 v 69.079 h -141.91 z" mode="main" floor="f2" behavior="place" place="craft-warehouse"></path>
  <path d="m 1458.32,1227.59 h 49.39 v 36.04 h -49.39 z" mode="main" floor="f2" behavior="place" place="ev-2f"></path>
  <path d="m 1416.19,3210.78 h 24.26 v 120.71 h -24.26 z" mode="main" floor="f2" behavior="place" place="stairs-gym-passage-2f-1"></path>
  <path d="m 1507.71,1191.64 h 84.11 v 71.99 h -84.11 z" mode="main" floor="f2" behavior="place" place="stairs-management-center-2f"></path>
  <path d="m 1458.32,1191.6 h 49.39 v 35.99 h -49.39 z" mode="main" floor="f2" behavior="place" place="wc-management-center-accessible-2f"></path>
  <path d="m 1591.82,1191.64 h 147.31 v 72.03 h -147.31 z" mode="main" floor="f2" behavior="place" place="wc-management-center-2f"></path>
  <path d="m 1225.59,1697.84 h 73.53 v 121.21 h -73.53 z" mode="main" floor="f2" behavior="place" place="wc-class-east-2f"></path>
  <path d="m 241.785,1697.84 h 73.535 v 121.21 h -73.535 z" mode="main" floor="f2" behavior="place" place="stairs-class-west-2f"></path>
  <path d="m 1299.13,1697.84 h 73.53 v 121.21 h -73.53 z" mode="main" floor="f2" behavior="place" place="stairs-class-east-2f"></path>
  <path d="m 1504.65,692.201 h 73.53 v 104.491 h -73.53 z" mode="main" floor="f2" behavior="place" place="wc-management-north-2f"></path>
  <path d="m 1578.19,692.201 h 73.53 v 104.491 h -73.53 z" mode="main" floor="f2" behavior="place" place="stairs-management-north-2f"></path>
  <path d="m 449.688,1253.86 h 144.84 v 84.93 h -144.84 z" mode="main" floor="f2" behavior="place" place="stairs-management-west-2f"></path>
  <path d="m 594.528,1253.86 h 143.838 v 84.93 H 594.528 Z" mode="main" floor="f2" behavior="place" place="wc-management-west-2f"></path>
  <path d="m 723.793,1875.57 h 93.319 v 107.22 h -93.319 z" mode="main" floor="f2" behavior="place" place="stairs-class-center-2f"></path>
  <path d="m 1808.22,1606.94 h 116.65 v 45.65 h -116.65 z" mode="main" floor="f2" behavior="place" place="stairs-pool-2f"></path>
  <path d="m 1416.19,2269.77 h 48.53 v 56.3 h -48.53 z" mode="main" floor="f2" behavior="place" place="stairs-gym-passage-2f-0"></path>
  <path d="m 168.25,1697.84 h 73.535 v 121.21 H 168.25 Z" mode="main" floor="f2" behavior="place" place="wc-class-west-2f"></path>
  <path d="M 1739.13,693.201 V 555.045 h 182.86 v 890.695 h -436.55 v 430.43 h -112.78 v 107.62 H 168.25 v -284.95 h 147.071 v 121.2 h 408.47 V 1519.6 H 168.25 v -179.81 h 281.438 v -84.93 h 288.683 v 9.82 H 1223.46 V 555.045 h 200.14 v 138.156 z m 0,145.378 -315.53,0.457 V 1192.6 h 315.53 z M 1423.6,1445.74 H 807.861 v 374.3 h 417.729 v -121.2 h 198.01 z" mode="main" floor="f3" behavior="enclosure" place="classroom-building-m3e"></path>
  <path d="m 1303.11,415.677 h 120.38 v 37.008 h -120.38 z" mode="main" floor="f3" behavior="enclosure" place="audiovisual-hall-m3e"></path>
  <path d="M 1811.1,32.9351 V 384.864 h -81.88 V 345.516 H 1567.34 V 32.9351 Z" mode="main" floor="f3" behavior="enclosure" place="nishi-hall-m3e"></path>
  <path d="m 1924.85,2207.97 v 118.11 h -439.42 v -118.11 h 168.72 v -28.73 h 100 v 28.73 z" mode="main" floor="f3" behavior="enclosure" place="pool-m3e"></path>
  <path d="m 14.816,2738.33 h 100.303 v 273.12 H 14.816 Z" mode="main" floor="f3" behavior="none" place="clubroom-building-1-m3n"></path>
  <path d="M 1496.74,69.377 V 490.18 h -73.14 v 43.395 H 1306.66 L 1262.94,490.18 H 1189.8 V 69.377 Z m -73.24,346.3 h -120.39 v 37.008 h 120.39 z" mode="main" floor="f3" behavior="none" place="audiovisual-hall-m3n"></path>
  <path d="M 186.517,2152.23 H 1367.66 V 3870.69 H 186.517 Z" mode="main" floor="f3" behavior="none" place="grand-m3n"></path>
  <path d="m 27.198,1526.64 h 15.696 v 157.7 H 27.198 Z" mode="main" floor="f3" behavior="none" place="gate-west-0-m3n"></path>
  <path d="m 27.198,1205.74 h 15.696 v 78.33 H 27.198 Z" mode="main" floor="f3" behavior="none" place="gate-west-1-m3n"></path>
  <path d="M 14.8149,2154.15 H 115.117 v 571.43 H 14.8149 Z" mode="main" floor="f3" behavior="none" place="clubroom-building-0-m3n"></path>
  <path d="m 186.517,3892.41 h 670.976 v 536.73 H 186.517 Z" mode="main" floor="f3" behavior="none" place="tennis-court-m3n"></path>
  <path d="m 878.89,3892.41 h 1031.1 v 536.73 H 878.89 Z" mode="main" floor="f3" behavior="none" place="handball-court-m3n"></path>
  <path d="m 1064.62,1062.09 c 0,24.03 -19.47,43.51 -43.5,43.51 -24.025,0 -43.502,-19.48 -43.502,-43.51 0,-24.02 19.477,-43.5 43.502,-43.5 24.03,0 43.5,19.48 43.5,43.5 z" mode="main" floor="f3" behavior="none" place="fountain-m3n"></path>
  <path d="M 943.421,112.989 V 97.293 h 100.299 v 15.696 z" mode="main" floor="f3" behavior="none" place="gate-north-0-m3n"></path>
  <path d="m 1973.56,1601.21 h -15.7 v -50.31 h 15.7 z" mode="main" floor="f3" behavior="none" place="gate-east-0-m3n"></path>
  <path d="M 1525.81,30.032 V 14.336 h 31.2 v 15.696 z" mode="main" floor="f3" behavior="none" place="gate-nishi-hall-0-m3n"></path>
  <path d="M 1675.66,30.032 V 14.336 h 19 v 15.696 z" mode="main" floor="f3" behavior="none" place="gate-nishi-hall-1-m3n"></path>
  <path d="M 25.714,3138.07 H 10.018 v -50.31 h 15.696 z" mode="main" floor="f3" behavior="none" place="gate-west-2-m3n"></path>
  <path d="m 1567.34,345.513 h 161.87 v 39.37 h -161.87 z" mode="main" floor="f3" behavior="none" place="nishi-hall-m3n"></path>
  <path d="m 1485.43,2326.08 h 439.43 v 48.05 h -439.43 z" mode="main" floor="f3" behavior="none" place="pool-1-m3n"></path>
  <path d="m 1924.85,1607.93 v 600.04 h -170.7 v -28.73 h -100 v 28.73 h -168.72 v -554.39 h 322.78 v -45.65 z" mode="main" floor="f3" behavior="none" place="pool-0-m3n"></path>
  <path d="m 1895.76,3211.78 v 484.51 h -180.08 v 144.63 H 1461.1 v -629.14 z" mode="main" floor="f3" behavior="none" place="martial-arts-field-m3n"></path>
  <path d="m 1451.35,2374.13 h 444.41 V 3127 h -444.41 z" mode="main" floor="f3" behavior="none" place="gym-m3n"></path>
  <path d="m 1567.34,32.9325 h 84.38 V 139.372 h -84.38 z" mode="main" floor="f3" behavior="place" place="nishi-hall-3f-reference-room"></path>
  <path d="m 1700.78,32.9325 h 63.75 V 139.372 h -63.75 z" mode="main" floor="f3" behavior="place" place="nishi-hall-3f-wc-woman"></path>
  <path d="m 1764.54,32.9344 h 46.57 v 66.5829 h -46.57 z" mode="main" floor="f3" behavior="place" place="nishi-hall-3f-shower-woman"></path>
  <path d="m 1764.54,99.5165 h 46.57 v 39.8565 h -46.57 z" mode="main" floor="f3" behavior="place" place="nishi-hall-3f-changing-room-woman"></path>
  <path d="m 1567.34,245.811 h 84.38 v 99.682 h -84.38 z" mode="main" floor="f3" behavior="place" place="nishi-hall-3f-japanese-style-room-2"></path>
  <path d="m 1651.71,167.476 h 159.38 v 178.012 h -159.38 z" mode="main" floor="f3" behavior="place" place="nishi-hall-3f-japanese-style-room-0"></path>
  <path d="m 1567.34,167.48 h 84.38 v 78.331 h -84.38 z" mode="main" floor="f3" behavior="place" place="nishi-hall-3f-japanese-style-room-1"></path>
  <path d="m 1651.72,32.9335 h 49.15 v 78.3305 h -49.15 z" mode="main" floor="f3" behavior="place" place="nishi-hall-3f-stairs"></path>
  <path d="m 1729.21,345.492 h 81.89 v 39.371 h -81.89 z" mode="main" floor="f3" behavior="place" place="nishi-hall-3f-outdoor-stairs"></path>
  <path d="m 1303.11,415.677 h 80.39 v 37.008 h -80.39 z" mode="main" floor="f3" behavior="place" place="audiovisual-hall-3f-pinspot"></path>
  <path d="m 1383.51,415.676 h 39.99 v 18.898 h -39.99 z" mode="main" floor="f3" behavior="place" place="audiovisual-hall-3f-stairs"></path>
  <path d="m 1654.15,2179.23 h 100 v 85 h -100 z" mode="main" floor="f3" behavior="place" place="pool-observation-room"></path>
  <path d="m 1223.47,1128.81 h 159.2 v 135.87 h -159.2 z" mode="main" floor="f3" behavior="place" place="book-vault"></path>
  <path d="m 1171.6,1305.62 h 51.87 v 140.23 h -51.87 z" mode="main" floor="f3" behavior="place" place="chemistry-experiment-preparation-room"></path>
  <path d="m 1223.48,1305.62 h 200.14 v 140.23 h -200.14 z" mode="main" floor="f3" behavior="place" place="chemistry-experiment-room"></path>
  <path d="M 1223.47,1128.81 V 555.061 h 200.14 v 138.15 h 81.04 v 104.491 h -121.98 v 331.108 z" mode="main" floor="f3" behavior="place" place="library"></path>
  <path d="m 1780.07,1192.6 h 141.91 v 72.07 h -141.91 z" mode="main" floor="f3" behavior="place" place="pta-printing-room"></path>
  <path d="m 1780.07,925.245 h 141.91 v 86.605 h -141.91 z" mode="main" floor="f3" behavior="place" place="biology-preparation-room"></path>
  <path d="m 1780.07,693.201 h 141.91 v 232.044 h -141.91 z" mode="main" floor="f3" behavior="place" place="biology-room"></path>
  <path d="m 1780.07,1011.85 h 141.91 v 180.75 h -141.91 z" mode="main" floor="f3" behavior="place" place="special-room-1st"></path>
  <path d="m 1739.13,555.045 h 182.86 v 138.156 h -182.86 z" mode="main" floor="f3" behavior="place" place="laputa"></path>
  <path d="m 168.249,1860.97 h 138.887 v 122.8 H 168.249 Z" mode="main" floor="f3" behavior="place" place="classroom-3h"></path>
  <path d="m 307.135,1860.97 h 138.887 v 122.8 H 307.135 Z" mode="main" floor="f3" behavior="place" place="classroom-3g"></path>
  <path d="m 446.022,1860.97 h 138.887 v 122.8 H 446.022 Z" mode="main" floor="f3" behavior="place" place="classroom-3f"></path>
  <path d="m 584.908,1860.97 h 138.887 v 122.8 H 584.908 Z" mode="main" floor="f3" behavior="place" place="classroom-3e"></path>
  <path d="M 817.113,1860.97 H 956 v 122.8 H 817.113 Z" mode="main" floor="f3" behavior="place" place="classroom-3d"></path>
  <path d="m 956,1860.97 h 138.89 v 122.8 H 956 Z" mode="main" floor="f3" behavior="place" place="classroom-3c"></path>
  <path d="m 1094.89,1860.97 h 138.89 v 122.8 h -138.89 z" mode="main" floor="f3" behavior="place" place="classroom-3b"></path>
  <path d="m 1233.77,1860.97 h 138.89 v 122.8 h -138.89 z" mode="main" floor="f3" behavior="place" place="classroom-3a"></path>
  <path d="m 1021.12,1305.62 h 150.48 v 140.12 h -150.48 z" mode="main" floor="f3" behavior="place" place="chemistry-preparation-room"></path>
  <path d="m 1780.08,1305.62 h 141.91 v 140.12 h -141.91 z" mode="main" floor="f3" behavior="place" place="music-preparation-room"></path>
  <path d="m 558.317,1380.73 h 165.476 v 138.86 H 558.317 Z" mode="main" floor="f3" behavior="place" place="physics-experiment-room"></path>
  <path d="m 377.699,1380.73 h 180.624 v 138.86 H 377.699 Z" mode="main" floor="f3" behavior="place" place="physics-preparation-room"></path>
  <path d="M 168.254,1380.73 H 377.7 v 138.86 H 168.254 Z" mode="main" floor="f3" behavior="place" place="physics-lecture-room"></path>
  <path d="m 807.86,1305.61 h 213.26 v 140.12 H 807.86 Z" mode="main" floor="f3" behavior="place" place="chemistry-lecture-room"></path>
  <path d="m 1567.12,1305.62 h 24.7 v 140.12 h -24.7 z" mode="main" floor="f3" behavior="place" place="musical-instrument-storage"></path>
  <path d="m 1485.44,1305.62 h 81.68 v 140.12 h -81.68 z" mode="main" floor="f3" behavior="place" place="practice-room"></path>
  <path d="m 1591.81,1305.62 h 188.26 v 140.12 h -188.26 z" mode="main" floor="f3" behavior="place" place="music-room"></path>
  <path d="m 723.793,1876.57 h 93.319 v 107.22 h -93.319 z" mode="main" floor="f3" behavior="place" place="stairs-class-center-3f"></path>
  <path d="m 1507.71,1192.64 h 84.11 v 71.99 h -84.11 z" mode="main" floor="f3" behavior="place" place="stairs-management-center-3f"></path>
  <path d="m 1458.32,1192.6 h 49.39 v 35.99 h -49.39 z" mode="main" floor="f3" behavior="place" place="wc-management-center-accessible-3f"></path>
  <path d="m 1458.32,1228.59 h 49.39 v 35.99 h -49.39 z" mode="main" floor="f3" behavior="place" place="ev-3f"></path>
  <path d="m 1591.82,1192.64 h 147.31 v 72.03 h -147.31 z" mode="main" floor="f3" behavior="place" place="wc-management-center-3f"></path>
  <path d="m 168.25,1698.84 h 73.535 v 121.2 H 168.25 Z" mode="main" floor="f3" behavior="place" place="wc-class-west-3f"></path>
  <path d="m 241.785,1698.84 h 73.535 v 121.2 h -73.535 z" mode="main" floor="f3" behavior="place" place="stairs-class-west-3f"></path>
  <path d="m 1225.59,1698.84 h 73.53 v 121.2 h -73.53 z" mode="main" floor="f3" behavior="place" place="wc-class-east-3f"></path>
  <path d="m 1299.13,1698.84 h 73.53 v 121.2 h -73.53 z" mode="main" floor="f3" behavior="place" place="stairs-class-east-3f"></path>
  <path d="m 1504.65,693.201 h 73.53 v 104.491 h -73.53 z" mode="main" floor="f3" behavior="place" place="wc-management-north-3f"></path>
  <path d="m 1578.19,693.201 h 73.53 v 104.491 h -73.53 z" mode="main" floor="f3" behavior="place" place="stairs-management-north-3f"></path>
  <path d="m 594.528,1254.86 h 143.838 v 84.93 H 594.528 Z" mode="main" floor="f3" behavior="place" place="wc-management-west-3f"></path>
  <path d="m 449.688,1254.86 h 144.84 v 84.93 h -144.84 z" mode="main" floor="f3" behavior="place" place="stairs-management-west-3f"></path>
  <path d="m 807.089,3010.45 c 0,7.96 -3.161,15.59 -8.787,21.22 -5.626,5.62 -13.257,8.78 -21.213,8.78 -7.957,0 -15.587,-3.16 -21.213,-8.78 -5.626,-5.63 -8.787,-13.26 -8.787,-21.22 0,-7.95 3.161,-15.58 8.787,-21.21 5.626,-5.63 13.256,-8.79 21.213,-8.79 7.956,0 15.587,3.16 21.213,8.79 5.626,5.63 8.787,13.26 8.787,21.21 z" mode="kinensai79" floor="f1" behavior="kinensai79" place="k79-3KbN"></path>
  <path d="m 1333.22,1921.39 c 0,7.96 -3.17,15.59 -8.79,21.21 -5.63,5.63 -13.26,8.79 -21.21,8.79 -7.96,0 -15.59,-3.16 -21.22,-8.79 -5.62,-5.62 -8.78,-13.25 -8.78,-21.21 0,-7.96 3.16,-15.59 8.78,-21.21 5.63,-5.63 13.26,-8.79 21.22,-8.79 7.95,0 15.58,3.16 21.21,8.79 5.62,5.62 8.79,13.25 8.79,21.21 z" mode="kinensai79" floor="f1" behavior="kinensai79" place="k79-cSFc"></path>
  <path d="m 1194.33,1921.39 c 0,7.96 -3.16,15.59 -8.79,21.21 -5.62,5.63 -13.25,8.79 -21.21,8.79 -7.96,0 -15.59,-3.16 -21.21,-8.79 -5.63,-5.62 -8.79,-13.25 -8.79,-21.21 0,-7.96 3.16,-15.59 8.79,-21.21 5.62,-5.63 13.25,-8.79 21.21,-8.79 7.96,0 15.59,3.16 21.21,8.79 5.63,5.62 8.79,13.25 8.79,21.21 z" mode="kinensai79" floor="f1" behavior="kinensai79" place="k79-APTZ"></path>
  <path d="m 1055.44,1921.39 c 0,7.96 -3.16,15.59 -8.78,21.21 -5.63,5.63 -13.26,8.79 -21.22,8.79 -7.95,0 -15.58,-3.16 -21.21,-8.79 -5.626,-5.62 -8.787,-13.25 -8.787,-21.21 0,-7.96 3.161,-15.59 8.787,-21.21 5.63,-5.63 13.26,-8.79 21.21,-8.79 7.96,0 15.59,3.16 21.22,8.79 5.62,5.62 8.78,13.25 8.78,21.21 z" mode="kinensai79" floor="f1" behavior="kinensai79" place="k79-016B"></path>
  <path d="m 916.557,1921.39 c 0,7.96 -3.161,15.59 -8.787,21.21 -5.626,5.63 -13.257,8.79 -21.213,8.79 -7.957,0 -15.587,-3.16 -21.213,-8.79 -5.626,-5.62 -8.787,-13.25 -8.787,-21.21 0,-7.96 3.161,-15.59 8.787,-21.21 5.626,-5.63 13.256,-8.79 21.213,-8.79 7.956,0 15.587,3.16 21.213,8.79 5.626,5.62 8.787,13.25 8.787,21.21 z" mode="kinensai79" floor="f1" behavior="kinensai79" place="k79-zaYw"></path>
  <path d="m 684.352,1921.39 c 0,7.96 -3.161,15.59 -8.787,21.21 -5.626,5.63 -13.257,8.79 -21.213,8.79 -7.957,0 -15.587,-3.16 -21.213,-8.79 -5.626,-5.62 -8.787,-13.25 -8.787,-21.21 0,-7.96 3.161,-15.59 8.787,-21.21 5.626,-5.63 13.256,-8.79 21.213,-8.79 7.956,0 15.587,3.16 21.213,8.79 5.626,5.62 8.787,13.25 8.787,21.21 z" mode="kinensai79" floor="f1" behavior="kinensai79" place="k79-yxzm"></path>
  <path d="m 545.466,1921.39 c 0,7.96 -3.161,15.59 -8.787,21.21 -5.626,5.63 -13.257,8.79 -21.213,8.79 -7.957,0 -15.587,-3.16 -21.213,-8.79 -5.626,-5.62 -8.787,-13.25 -8.787,-21.21 0,-7.96 3.161,-15.59 8.787,-21.21 5.626,-5.63 13.256,-8.79 21.213,-8.79 7.956,0 15.587,3.16 21.213,8.79 5.626,5.62 8.787,13.25 8.787,21.21 z" mode="kinensai79" floor="f1" behavior="kinensai79" place="k79-OuGw"></path>
  <path d="m 406.579,1921.39 c 0,7.96 -3.161,15.59 -8.787,21.21 -5.626,5.63 -13.257,8.79 -21.213,8.79 -7.957,0 -15.587,-3.16 -21.213,-8.79 -5.626,-5.62 -8.787,-13.25 -8.787,-21.21 0,-7.96 3.161,-15.59 8.787,-21.21 5.626,-5.63 13.256,-8.79 21.213,-8.79 7.956,0 15.587,3.16 21.213,8.79 5.626,5.62 8.787,13.25 8.787,21.21 z" mode="kinensai79" floor="f1" behavior="kinensai79" place="k79-8jSx"></path>
  <path d="m 267.693,1921.39 c 0,7.96 -3.161,15.59 -8.787,21.21 -5.626,5.63 -13.257,8.79 -21.213,8.79 -7.957,0 -15.587,-3.16 -21.213,-8.79 -5.626,-5.62 -8.787,-13.25 -8.787,-21.21 0,-7.96 3.161,-15.59 8.787,-21.21 5.626,-5.63 13.256,-8.79 21.213,-8.79 7.956,0 15.587,3.16 21.213,8.79 5.626,5.62 8.787,13.25 8.787,21.21 z" mode="kinensai79" floor="f1" behavior="kinensai79" place="k79-8taK"></path>
  <path d="m 1223.46,1571.44 c 0,7.96 -3.16,15.59 -8.78,21.21 -5.63,5.63 -13.26,8.79 -21.22,8.79 -7.95,0 -15.58,-3.16 -21.21,-8.79 -5.62,-5.62 -8.79,-13.25 -8.79,-21.21 0,-7.96 3.17,-15.59 8.79,-21.21 5.63,-5.63 13.26,-8.79 21.21,-8.79 7.96,0 15.59,3.16 21.22,8.79 5.62,5.62 8.78,13.25 8.78,21.21 z" mode="kinensai79" floor="f1" behavior="kinensai79" place="k79-l9Wo"></path>
  <path d="m 1913.55,1228.7 c 0,7.96 -3.16,15.59 -8.79,21.22 -5.62,5.62 -13.25,8.78 -21.21,8.78 -7.96,0 -15.59,-3.16 -21.21,-8.78 -5.63,-5.63 -8.79,-13.26 -8.79,-21.22 0,-7.95 3.16,-15.58 8.79,-21.21 5.62,-5.63 13.25,-8.79 21.21,-8.79 7.96,0 15.59,3.16 21.21,8.79 5.63,5.63 8.79,13.26 8.79,21.21 z" mode="kinensai79" floor="f1" behavior="kinensai79" place="k79-9aAm"></path>
  <path d="m 1881.03,1374.68 c 0,7.96 -3.16,15.59 -8.78,21.22 -5.63,5.62 -13.26,8.78 -21.22,8.78 -7.95,0 -15.58,-3.16 -21.21,-8.78 -5.63,-5.63 -8.79,-13.26 -8.79,-21.22 0,-7.95 3.16,-15.58 8.79,-21.21 5.63,-5.63 13.26,-8.79 21.21,-8.79 7.96,0 15.59,3.16 21.22,8.79 5.62,5.63 8.78,13.26 8.78,21.21 z" mode="kinensai79" floor="f1" behavior="kinensai79" place="k79-bu9I"></path>
  <path d="m 1926.55,1570.21 c 0,7.95 -3.17,15.58 -8.79,21.21 -5.63,5.62 -13.26,8.78 -21.21,8.78 -7.96,0 -15.59,-3.16 -21.22,-8.78 -5.62,-5.63 -8.78,-13.26 -8.78,-21.21 0,-7.96 3.16,-15.59 8.78,-21.22 5.63,-5.62 13.26,-8.78 21.22,-8.78 7.95,0 15.58,3.16 21.21,8.78 5.62,5.63 8.79,13.26 8.79,21.22 z" mode="kinensai79" floor="f1" behavior="kinensai79" place="k79-Dr6u"></path>
  <path d="m 1719.22,423.903 c 0,7.956 -3.16,15.587 -8.79,21.213 -5.62,5.626 -13.25,8.787 -21.21,8.787 -7.96,0 -15.59,-3.161 -21.21,-8.787 -5.63,-5.626 -8.79,-13.257 -8.79,-21.213 0,-7.956 3.16,-15.587 8.79,-21.213 5.62,-5.626 13.25,-8.787 21.21,-8.787 7.96,0 15.59,3.161 21.21,8.787 5.63,5.626 8.79,13.257 8.79,21.213 z" mode="kinensai79" floor="f1" behavior="kinensai79" place="k79-fBiV"></path>
  <path d="m 594.529,1553.6 c 0,7.96 -3.161,15.59 -8.787,21.22 -5.626,5.62 -13.257,8.78 -21.213,8.78 -7.957,0 -15.587,-3.16 -21.213,-8.78 -5.626,-5.63 -8.787,-13.26 -8.787,-21.22 0,-7.95 3.161,-15.58 8.787,-21.21 5.626,-5.63 13.256,-8.79 21.213,-8.79 7.956,0 15.587,3.16 21.213,8.79 5.626,5.63 8.787,13.26 8.787,21.21 z" mode="kinensai79" floor="f1" behavior="kinensai79" place="k79-FHev"></path>
  <path d="m 1203.5,677.198 v 30.001 c 0,8.286 -6.72,15.004 -15,15.004 h -30 c -8.28,0 -15,-6.718 -15,-15.004 v -30.001 c 0,-8.278 6.72,-14.996 15,-14.996 h 30 c 8.28,0 15,6.718 15,14.996 z" mode="kinensai79" floor="f1" behavior="kinensai79" place="k79-food-1s"></path>
  <path d="m 1493.6,926.231 v 30.001 c 0,8.286 -6.72,15.004 -15,15.004 h -30 c -8.28,0 -15,-6.718 -15,-15.004 v -30.001 c 0,-8.278 6.72,-14.996 15,-14.996 h 30 c 8.28,0 15,6.718 15,14.996 z" mode="kinensai79" floor="f1" behavior="kinensai79" place="k79-food-2s"></path>
  <path d="m 1493.6,1001.2 v 30 c 0,8.28 -6.72,15 -15,15 h -30 c -8.28,0 -15,-6.72 -15,-15 v -30 c 0,-8.282 6.72,-15 15,-15 h 30 c 8.28,0 15,6.718 15,15 z" mode="kinensai79" floor="f1" behavior="kinensai79" place="k79-food-3s"></path>
  <path d="m 1046.73,1764 v 30 c 0,8.28 -6.73,15 -15.01,15 h -29.99 c -8.283,0 -15.005,-6.72 -15.005,-15 v -30 c 0,-8.28 6.722,-15 15.005,-15 h 29.99 c 8.28,0 15.01,6.72 15.01,15 z" mode="kinensai79" floor="f1" behavior="kinensai79" place="k79-food-4s"></path>
  <path d="m 1845.1,1030.9 v 30 c 0,8.28 -6.72,15 -15,15 h -30 c -8.28,0 -15,-6.72 -15,-15 v -30 c 0,-8.28 6.72,-15 15,-15 h 30 c 8.28,0 15,6.72 15,15 z" mode="kinensai79" floor="f1" behavior="kinensai79" place="k79-food-1r"></path>
  <path d="m 1845.1,1095.9 v 30 c 0,8.28 -6.72,15 -15,15 h -30 c -8.28,0 -15,-6.72 -15,-15 v -30 c 0,-8.28 6.72,-15 15,-15 h 30 c 8.28,0 15,6.72 15,15 z" mode="kinensai79" floor="f1" behavior="kinensai79" place="k79-food-2r"></path>
  <path d="m 1845.1,1160.9 v 30 c 0,8.28 -6.72,15 -15,15 h -30 c -8.28,0 -15,-6.72 -15,-15 v -30 c 0,-8.28 6.72,-15 15,-15 h 30 c 8.28,0 15,6.72 15,15 z" mode="kinensai79" floor="f1" behavior="kinensai79" place="k79-food-3r"></path>
  <path d="m 867.899,1319.62 v 30 c 0,8.28 -6.721,15 -15,15 H 822.9 c -8.279,0 -15.001,-6.72 -15.001,-15 v -30 c 0,-8.28 6.722,-15 15.001,-15 h 29.999 c 8.279,0 15,6.72 15,15 z" mode="kinensai79" floor="f1" behavior="kinensai79" place="k79-food-4r"></path>
  <path d="m 1447.7,1384.7 v 30 c 0,8.28 -6.72,15 -15,15 h -30 c -8.28,0 -15,-6.72 -15,-15 v -30 c 0,-8.28 6.72,-15 15,-15 h 30 c 8.28,0 15,6.72 15,15 z" mode="kinensai79" floor="f1" behavior="kinensai79" place="k79-food-5"></path>
  <path d="m 1703.55,2422.75 c 0,7.96 -3.16,15.59 -8.78,21.21 -5.63,5.63 -13.26,8.79 -21.22,8.79 -7.95,0 -15.58,-3.16 -21.21,-8.79 -5.63,-5.62 -8.79,-13.25 -8.79,-21.21 0,-7.96 3.16,-15.59 8.79,-21.21 5.63,-5.63 13.26,-8.79 21.21,-8.79 7.96,0 15.59,3.16 21.22,8.79 5.62,5.62 8.78,13.25 8.78,21.21 z" mode="kinensai79" floor="f1" behavior="kinensai79" place="k79-gym"></path>
  <path d="m 1729.1,1151.6 c 0,7.96 -3.16,15.59 -8.79,21.22 -5.62,5.62 -13.25,8.78 -21.21,8.78 -7.96,0 -15.59,-3.16 -21.21,-8.78 -5.63,-5.63 -8.79,-13.26 -8.79,-21.22 0,-7.95 3.16,-15.58 8.79,-21.21 5.62,-5.63 13.25,-8.79 21.21,-8.79 7.96,0 15.59,3.16 21.21,8.79 5.63,5.63 8.79,13.26 8.79,21.21 z" mode="kinensai79" floor="f1" behavior="kinensai79" place="k79-stage-s"></path>
  <path d="m 1623.15,3658.38 c 0,7.96 -3.16,15.59 -8.79,21.22 -5.62,5.62 -13.25,8.78 -21.21,8.78 -7.96,0 -15.59,-3.16 -21.21,-8.78 -5.63,-5.63 -8.79,-13.26 -8.79,-21.22 0,-7.95 3.16,-15.58 8.79,-21.21 5.62,-5.63 13.25,-8.79 21.21,-8.79 7.96,0 15.59,3.16 21.21,8.79 5.63,5.63 8.79,13.26 8.79,21.21 z" mode="kinensai79" floor="f1" behavior="kinensai79" place="k79-stage-r"></path>
  <path d="m 52.9,1559.5 h 30 v 90 h -30 z" mode="kinensai79" floor="f1" behavior="kinensai79" place="k79-gate"></path>
  <path d="m 174.5,1538.6 h 349.999 v 30 H 174.5 Z" mode="kinensai79" floor="f1" behavior="kinensai79" place="k79-reception"></path>
  <path d="m 772.9,1729.05 h 30 v 90 h -30 z" mode="kinensai79" floor="f1" behavior="kinensai79" place="k79-info"></path>
  <path d="m 743.396,1308.79 h 30.001 v 30 h -30.001 z" mode="kinensai79" floor="f1" behavior="kinensai79" place="k79-trash-can-3r"></path>
  <path d="m 1173.5,1213.37 h 30 v 30 h -30 z" mode="kinensai79" floor="f1" behavior="kinensai79" place="k79-trash-can-3s"></path>
  <path d="m 1868.55,1015.9 h 30 v 30 h -30 z" mode="kinensai79" floor="f1" behavior="kinensai79" place="k79-trash-can-2s"></path>
  <path d="m 1680.42,766.693 h 30 v 30 h -30 z" mode="kinensai79" floor="f1" behavior="kinensai79" place="k79-trash-can-2r"></path>
  <path d="m 1665.9,145.8 h 30 v 30.001 h -30 z" mode="kinensai79" floor="f1" behavior="kinensai79" place="k79-trash-can-1"></path>
  <path d="M 1203.49,999.186 V 1198.4 H 928.377 v -83.8 l 156.253,0.49 V 999.186 Z" mode="kinensai79" floor="f1" behavior="kinensai79" place="k79-eat-space-3s"></path>
  <path d="m 1850.1,1050.9 h 66.9 v 137.8 h -66.9 z" mode="kinensai79" floor="f1" behavior="kinensai79" place="k79-eat-space-2s"></path>
  <path d="m 1572.3,211.702 h 233.8 v 127.8 h -233.8 z" mode="kinensai79" floor="f1" behavior="kinensai79" place="k79-eat-space-1"></path>
  <path d="m 1333.22,1921.39 c 0,7.96 -3.17,15.59 -8.79,21.21 -5.63,5.63 -13.26,8.79 -21.21,8.79 -7.96,0 -15.59,-3.16 -21.22,-8.79 -5.62,-5.62 -8.78,-13.25 -8.78,-21.21 0,-7.96 3.16,-15.59 8.78,-21.21 5.63,-5.63 13.26,-8.79 21.22,-8.79 7.95,0 15.58,3.16 21.21,8.79 5.62,5.62 8.79,13.25 8.79,21.21 z" mode="kinensai79" floor="f2" behavior="kinensai79" place="k79-2jQ8"></path>
  <path d="m 1194.33,1921.39 c 0,7.96 -3.16,15.59 -8.79,21.21 -5.62,5.63 -13.25,8.79 -21.21,8.79 -7.96,0 -15.59,-3.16 -21.21,-8.79 -5.63,-5.62 -8.79,-13.25 -8.79,-21.21 0,-7.96 3.16,-15.59 8.79,-21.21 5.62,-5.63 13.25,-8.79 21.21,-8.79 7.96,0 15.59,3.16 21.21,8.79 5.63,5.62 8.79,13.25 8.79,21.21 z" mode="kinensai79" floor="f2" behavior="kinensai79" place="k79-MIrf"></path>
  <path d="m 1055.44,1921.39 c 0,7.96 -3.16,15.59 -8.78,21.21 -5.63,5.63 -13.26,8.79 -21.22,8.79 -7.95,0 -15.58,-3.16 -21.21,-8.79 -5.626,-5.62 -8.787,-13.25 -8.787,-21.21 0,-7.96 3.161,-15.59 8.787,-21.21 5.63,-5.63 13.26,-8.79 21.21,-8.79 7.96,0 15.59,3.16 21.22,8.79 5.62,5.62 8.78,13.25 8.78,21.21 z" mode="kinensai79" floor="f2" behavior="kinensai79" place="k79-FjHz"></path>
  <path d="m 916.557,1921.39 c 0,7.96 -3.161,15.59 -8.787,21.21 -5.626,5.63 -13.257,8.79 -21.213,8.79 -7.957,0 -15.587,-3.16 -21.213,-8.79 -5.626,-5.62 -8.787,-13.25 -8.787,-21.21 0,-7.96 3.161,-15.59 8.787,-21.21 5.626,-5.63 13.256,-8.79 21.213,-8.79 7.956,0 15.587,3.16 21.213,8.79 5.626,5.62 8.787,13.25 8.787,21.21 z" mode="kinensai79" floor="f2" behavior="kinensai79" place="k79-E7zx"></path>
  <path d="m 684.352,1921.39 c 0,7.96 -3.161,15.59 -8.787,21.21 -5.626,5.63 -13.257,8.79 -21.213,8.79 -7.957,0 -15.587,-3.16 -21.213,-8.79 -5.626,-5.62 -8.787,-13.25 -8.787,-21.21 0,-7.96 3.161,-15.59 8.787,-21.21 5.626,-5.63 13.256,-8.79 21.213,-8.79 7.956,0 15.587,3.16 21.213,8.79 5.626,5.62 8.787,13.25 8.787,21.21 z" mode="kinensai79" floor="f2" behavior="kinensai79" place="k79-SJdO"></path>
  <path d="m 545.466,1921.39 c 0,7.96 -3.161,15.59 -8.787,21.21 -5.626,5.63 -13.257,8.79 -21.213,8.79 -7.957,0 -15.587,-3.16 -21.213,-8.79 -5.626,-5.62 -8.787,-13.25 -8.787,-21.21 0,-7.96 3.161,-15.59 8.787,-21.21 5.626,-5.63 13.256,-8.79 21.213,-8.79 7.956,0 15.587,3.16 21.213,8.79 5.626,5.62 8.787,13.25 8.787,21.21 z" mode="kinensai79" floor="f2" behavior="kinensai79" place="k79-ieY6"></path>
  <path d="m 406.579,1921.39 c 0,7.96 -3.161,15.59 -8.787,21.21 -5.626,5.63 -13.257,8.79 -21.213,8.79 -7.957,0 -15.587,-3.16 -21.213,-8.79 -5.626,-5.62 -8.787,-13.25 -8.787,-21.21 0,-7.96 3.161,-15.59 8.787,-21.21 5.626,-5.63 13.256,-8.79 21.213,-8.79 7.956,0 15.587,3.16 21.213,8.79 5.626,5.62 8.787,13.25 8.787,21.21 z" mode="kinensai79" floor="f2" behavior="kinensai79" place="k79-SI8I"></path>
  <path d="m 267.693,1921.39 c 0,7.96 -3.161,15.59 -8.787,21.21 -5.626,5.63 -13.257,8.79 -21.213,8.79 -7.957,0 -15.587,-3.16 -21.213,-8.79 -5.626,-5.62 -8.787,-13.25 -8.787,-21.21 0,-7.96 3.161,-15.59 8.787,-21.21 5.626,-5.63 13.256,-8.79 21.213,-8.79 7.956,0 15.587,3.16 21.213,8.79 5.626,5.62 8.787,13.25 8.787,21.21 z" mode="kinensai79" floor="f2" behavior="kinensai79" place="k79-PzRk"></path>
  <path d="m 1484.52,1600.54 c 0,7.95 -3.16,15.58 -8.78,21.21 -5.63,5.63 -13.26,8.79 -21.22,8.79 -7.95,0 -15.58,-3.16 -21.21,-8.79 -5.63,-5.63 -8.79,-13.26 -8.79,-21.21 0,-7.96 3.16,-15.59 8.79,-21.22 5.63,-5.62 13.26,-8.78 21.21,-8.78 7.96,0 15.59,3.16 21.22,8.78 5.62,5.63 8.78,13.26 8.78,21.22 z" mode="kinensai79" floor="f2" behavior="kinensai79" place="k79-hf1g"></path>
  <path d="m 1484.52,1496.78 c 0,7.96 -3.16,15.59 -8.78,21.22 -5.63,5.62 -13.26,8.78 -21.22,8.78 -7.95,0 -15.58,-3.16 -21.21,-8.78 -5.63,-5.63 -8.79,-13.26 -8.79,-21.22 0,-7.95 3.16,-15.58 8.79,-21.21 5.63,-5.63 13.26,-8.79 21.21,-8.79 7.96,0 15.59,3.16 21.22,8.79 5.62,5.63 8.78,13.26 8.78,21.21 z" mode="kinensai79" floor="f2" behavior="kinensai79" place="k79-10p8"></path>
  <path d="m 795.83,1568.66 c 0,7.96 -3.161,15.59 -8.787,21.22 -5.626,5.62 -13.257,8.78 -21.213,8.78 -7.957,0 -15.587,-3.16 -21.213,-8.78 -5.626,-5.63 -8.787,-13.26 -8.787,-21.22 0,-7.95 3.161,-15.58 8.787,-21.21 5.626,-5.63 13.256,-8.79 21.213,-8.79 7.956,0 15.587,3.16 21.213,8.79 5.626,5.63 8.787,13.26 8.787,21.21 z" mode="kinensai79" floor="f2" behavior="kinensai79" place="k79-N7SG"></path>
  <path d="m 795.83,1668.8 c 0,7.95 -3.161,15.58 -8.787,21.21 -5.626,5.62 -13.257,8.79 -21.213,8.79 -7.957,0 -15.587,-3.17 -21.213,-8.79 -5.626,-5.63 -8.787,-13.26 -8.787,-21.21 0,-7.96 3.161,-15.59 8.787,-21.22 5.626,-5.62 13.256,-8.78 21.213,-8.78 7.956,0 15.587,3.16 21.213,8.78 5.626,5.63 8.787,13.26 8.787,21.22 z" mode="kinensai79" floor="f2" behavior="kinensai79" place="k79-gwWP"></path>
  <path d="m 795.83,1768.93 c 0,7.96 -3.161,15.59 -8.787,21.21 -5.626,5.63 -13.257,8.79 -21.213,8.79 -7.957,0 -15.587,-3.16 -21.213,-8.79 -5.626,-5.62 -8.787,-13.25 -8.787,-21.21 0,-7.96 3.161,-15.59 8.787,-21.21 5.626,-5.63 13.256,-8.79 21.213,-8.79 7.956,0 15.587,3.16 21.213,8.79 5.626,5.62 8.787,13.25 8.787,21.21 z" mode="kinensai79" floor="f2" behavior="kinensai79" place="k79-uemH"></path>
  <path d="m 1881.03,1151.6 c 0,7.96 -3.16,15.59 -8.78,21.22 -5.63,5.62 -13.26,8.78 -21.22,8.78 -7.95,0 -15.58,-3.16 -21.21,-8.78 -5.63,-5.63 -8.79,-13.26 -8.79,-21.22 0,-7.95 3.16,-15.58 8.79,-21.21 5.63,-5.63 13.26,-8.79 21.21,-8.79 7.96,0 15.59,3.16 21.22,8.79 5.62,5.63 8.78,13.26 8.78,21.21 z" mode="kinensai79" floor="f2" behavior="kinensai79" place="k79-71L5"></path>
  <path d="m 1881.03,1050.9 c 0,7.96 -3.16,15.59 -8.78,21.22 -5.63,5.62 -13.26,8.78 -21.22,8.78 -7.95,0 -15.58,-3.16 -21.21,-8.78 -5.63,-5.63 -8.79,-13.26 -8.79,-21.22 0,-7.95 3.16,-15.58 8.79,-21.21 5.63,-5.63 13.26,-8.79 21.21,-8.79 7.96,0 15.59,3.16 21.22,8.79 5.62,5.63 8.78,13.26 8.78,21.21 z" mode="kinensai79" floor="f2" behavior="kinensai79" place="k79-fJMd"></path>
  <path d="m 1333.06,944.548 c 0,7.956 -3.16,15.587 -8.79,21.213 -5.62,5.626 -13.25,8.787 -21.21,8.787 -7.95,0 -15.59,-3.161 -21.21,-8.787 -5.63,-5.626 -8.79,-13.257 -8.79,-21.213 0,-7.956 3.16,-15.587 8.79,-21.213 5.62,-5.626 13.26,-8.787 21.21,-8.787 7.96,0 15.59,3.161 21.21,8.787 5.63,5.626 8.79,13.257 8.79,21.213 z" mode="kinensai79" floor="f2" behavior="kinensai79" place="k79-KFio"></path>
  <path d="m 671.057,1449.16 c 0,7.96 -3.161,15.59 -8.787,21.22 -5.626,5.62 -13.257,8.78 -21.213,8.78 -7.957,0 -15.587,-3.16 -21.213,-8.78 -5.626,-5.63 -8.787,-13.26 -8.787,-21.22 0,-7.95 3.161,-15.58 8.787,-21.21 5.626,-5.62 13.256,-8.79 21.213,-8.79 7.956,0 15.587,3.17 21.213,8.79 5.626,5.63 8.787,13.26 8.787,21.21 z" mode="kinensai79" floor="f2" behavior="kinensai79" place="k79-tw15"></path>
  <path d="m 1881.03,1374.68 c 0,7.96 -3.16,15.59 -8.78,21.22 -5.63,5.62 -13.26,8.78 -21.22,8.78 -7.95,0 -15.58,-3.16 -21.21,-8.78 -5.63,-5.63 -8.79,-13.26 -8.79,-21.22 0,-7.95 3.16,-15.58 8.79,-21.21 5.63,-5.63 13.26,-8.79 21.21,-8.79 7.96,0 15.59,3.16 21.22,8.79 5.62,5.63 8.78,13.26 8.78,21.21 z" mode="kinensai79" floor="f2" behavior="kinensai79" place="k79-Dx4T"></path>
  <path d="m 1373.27,111.683 c 0,7.956 -3.16,15.587 -8.78,21.213 -5.63,5.626 -13.26,8.787 -21.22,8.787 -7.95,0 -15.58,-3.161 -21.21,-8.787 -5.63,-5.626 -8.79,-13.257 -8.79,-21.213 0,-7.956 3.16,-15.5869 8.79,-21.2129 5.63,-5.6261 13.26,-8.7868 21.21,-8.7868 7.96,0 15.59,3.1607 21.22,8.7868 5.62,5.626 8.78,13.2569 8.78,21.2129 z" mode="kinensai79" floor="f2" behavior="kinensai79" place="k79-audiovisual"></path>
  <path d="m 1367.7,1922.39 c 0,7.96 -3.16,15.59 -8.79,21.21 -5.62,5.63 -13.25,8.79 -21.21,8.79 -7.96,0 -15.59,-3.16 -21.21,-8.79 -5.63,-5.62 -8.79,-13.25 -8.79,-21.21 0,-7.96 3.16,-15.59 8.79,-21.21 5.62,-5.63 13.25,-8.79 21.21,-8.79 7.96,0 15.59,3.16 21.21,8.79 5.63,5.62 8.79,13.25 8.79,21.21 z" mode="kinensai79" floor="f3" behavior="kinensai79" place="k79-049t"></path>
  <path d="m 1298.8,1922.39 c 0,7.96 -3.16,15.59 -8.79,21.21 -5.62,5.63 -13.25,8.79 -21.21,8.79 -7.96,0 -15.59,-3.16 -21.21,-8.79 -5.63,-5.62 -8.79,-13.25 -8.79,-21.21 0,-7.96 3.16,-15.59 8.79,-21.21 5.62,-5.63 13.25,-8.79 21.21,-8.79 7.96,0 15.59,3.16 21.21,8.79 5.63,5.62 8.79,13.25 8.79,21.21 z" mode="kinensai79" floor="f3" behavior="kinensai79" place="k79-sGQZ"></path>
  <path d="m 1194.33,1922.39 c 0,7.96 -3.16,15.59 -8.79,21.21 -5.62,5.63 -13.25,8.79 -21.21,8.79 -7.96,0 -15.59,-3.16 -21.21,-8.79 -5.63,-5.62 -8.79,-13.25 -8.79,-21.21 0,-7.96 3.16,-15.59 8.79,-21.21 5.62,-5.63 13.25,-8.79 21.21,-8.79 7.96,0 15.59,3.16 21.21,8.79 5.63,5.62 8.79,13.25 8.79,21.21 z" mode="kinensai79" floor="f3" behavior="kinensai79" place="k79-KymN"></path>
  <path d="m 1089.89,1922.39 c 0,7.96 -3.16,15.59 -8.78,21.21 -5.63,5.63 -13.26,8.79 -21.22,8.79 -7.95,0 -15.58,-3.16 -21.21,-8.79 -5.63,-5.62 -8.79,-13.25 -8.79,-21.21 0,-7.96 3.16,-15.59 8.79,-21.21 5.63,-5.63 13.26,-8.79 21.21,-8.79 7.96,0 15.59,3.16 21.22,8.79 5.62,5.62 8.78,13.25 8.78,21.21 z" mode="kinensai79" floor="f3" behavior="kinensai79" place="k79-T8bF"></path>
  <path d="m 1020.99,1922.39 c 0,7.96 -3.16,15.59 -8.78,21.21 -5.63,5.63 -13.261,8.79 -21.217,8.79 -7.957,0 -15.587,-3.16 -21.213,-8.79 -5.626,-5.62 -8.787,-13.25 -8.787,-21.21 0,-7.96 3.161,-15.59 8.787,-21.21 5.626,-5.63 13.256,-8.79 21.213,-8.79 7.956,0 15.587,3.16 21.217,8.79 5.62,5.62 8.78,13.25 8.78,21.21 z" mode="kinensai79" floor="f3" behavior="kinensai79" place="k79-FrnC"></path>
  <path d="m 916.557,1922.39 c 0,7.96 -3.161,15.59 -8.787,21.21 -5.626,5.63 -13.257,8.79 -21.213,8.79 -7.957,0 -15.587,-3.16 -21.213,-8.79 -5.626,-5.62 -8.787,-13.25 -8.787,-21.21 0,-7.96 3.161,-15.59 8.787,-21.21 5.626,-5.63 13.256,-8.79 21.213,-8.79 7.956,0 15.587,3.16 21.213,8.79 5.626,5.62 8.787,13.25 8.787,21.21 z" mode="kinensai79" floor="f3" behavior="kinensai79" place="k79-npD9"></path>
  <path d="m 718.802,1922.39 c 0,7.96 -3.161,15.59 -8.787,21.21 -5.626,5.63 -13.257,8.79 -21.213,8.79 -7.957,0 -15.587,-3.16 -21.213,-8.79 -5.626,-5.62 -8.787,-13.25 -8.787,-21.21 0,-7.96 3.161,-15.59 8.787,-21.21 5.626,-5.63 13.256,-8.79 21.213,-8.79 7.956,0 15.587,3.16 21.213,8.79 5.626,5.62 8.787,13.25 8.787,21.21 z" mode="kinensai79" floor="f3" behavior="kinensai79" place="k79-NbHG"></path>
  <path d="m 649.902,1922.39 c 0,7.96 -3.161,15.59 -8.787,21.21 -5.626,5.63 -13.257,8.79 -21.213,8.79 -7.957,0 -15.587,-3.16 -21.213,-8.79 -5.626,-5.62 -8.787,-13.25 -8.787,-21.21 0,-7.96 3.161,-15.59 8.787,-21.21 5.626,-5.63 13.256,-8.79 21.213,-8.79 7.956,0 15.587,3.16 21.213,8.79 5.626,5.62 8.787,13.25 8.787,21.21 z" mode="kinensai79" floor="f3" behavior="kinensai79" place="k79-mIsu"></path>
  <path d="m 545.466,1922.39 c 0,7.96 -3.161,15.59 -8.787,21.21 -5.626,5.63 -13.257,8.79 -21.213,8.79 -7.957,0 -15.587,-3.16 -21.213,-8.79 -5.626,-5.62 -8.787,-13.25 -8.787,-21.21 0,-7.96 3.161,-15.59 8.787,-21.21 5.626,-5.63 13.256,-8.79 21.213,-8.79 7.956,0 15.587,3.16 21.213,8.79 5.626,5.62 8.787,13.25 8.787,21.21 z" mode="kinensai79" floor="f3" behavior="kinensai79" place="k79-7zAC"></path>
  <path d="m 406.579,1922.39 c 0,7.96 -3.161,15.59 -8.787,21.21 -5.626,5.63 -13.257,8.79 -21.213,8.79 -7.957,0 -15.587,-3.16 -21.213,-8.79 -5.626,-5.62 -8.787,-13.25 -8.787,-21.21 0,-7.96 3.161,-15.59 8.787,-21.21 5.626,-5.63 13.256,-8.79 21.213,-8.79 7.956,0 15.587,3.16 21.213,8.79 5.626,5.62 8.787,13.25 8.787,21.21 z" mode="kinensai79" floor="f3" behavior="kinensai79" place="k79-J1qg"></path>
  <path d="m 267.693,1922.39 c 0,7.96 -3.161,15.59 -8.787,21.21 -5.626,5.63 -13.257,8.79 -21.213,8.79 -7.957,0 -15.587,-3.16 -21.213,-8.79 -5.626,-5.62 -8.787,-13.25 -8.787,-21.21 0,-7.96 3.161,-15.59 8.787,-21.21 5.626,-5.63 13.256,-8.79 21.213,-8.79 7.956,0 15.587,3.16 21.213,8.79 5.626,5.62 8.787,13.25 8.787,21.21 z" mode="kinensai79" floor="f3" behavior="kinensai79" place="k79-Obcv"></path>
  <path d="m 671.057,1450.16 c 0,7.96 -3.161,15.59 -8.787,21.22 -5.626,5.62 -13.257,8.78 -21.213,8.78 -7.957,0 -15.587,-3.16 -21.213,-8.78 -5.626,-5.63 -8.787,-13.26 -8.787,-21.22 0,-7.95 3.161,-15.58 8.787,-21.21 5.626,-5.62 13.256,-8.79 21.213,-8.79 7.956,0 15.587,3.17 21.213,8.79 5.626,5.63 8.787,13.26 8.787,21.21 z" mode="kinensai79" floor="f3" behavior="kinensai79" place="k79-5idY"></path>
  <path d="m 357,1450.16 c 0,7.96 -3.161,15.59 -8.787,21.22 -5.626,5.62 -13.257,8.78 -21.213,8.78 -7.957,0 -15.587,-3.16 -21.213,-8.78 -5.626,-5.63 -8.787,-13.26 -8.787,-21.22 0,-7.95 3.161,-15.58 8.787,-21.21 5.626,-5.62 13.256,-8.79 21.213,-8.79 7.956,0 15.587,3.17 21.213,8.79 5.626,5.63 8.787,13.26 8.787,21.21 z" mode="kinensai79" floor="f3" behavior="kinensai79" place="k79-9emj"></path>
  <path d="m 248.3,1450.16 c 0,7.96 -3.161,15.59 -8.787,21.22 -5.626,5.62 -13.257,8.78 -21.213,8.78 -7.957,0 -15.587,-3.16 -21.213,-8.78 -5.626,-5.63 -8.787,-13.26 -8.787,-21.22 0,-7.95 3.161,-15.58 8.787,-21.21 5.626,-5.62 13.256,-8.79 21.213,-8.79 7.956,0 15.587,3.17 21.213,8.79 5.626,5.63 8.787,13.26 8.787,21.21 z" mode="kinensai79" floor="f3" behavior="kinensai79" place="k79-R97g"></path>
  <path d="m 1353.53,1375.74 c 0,7.95 -3.16,15.58 -8.78,21.21 -5.63,5.63 -13.26,8.79 -21.22,8.79 -7.95,0 -15.58,-3.16 -21.21,-8.79 -5.62,-5.63 -8.78,-13.26 -8.78,-21.21 0,-7.96 3.16,-15.59 8.78,-21.22 5.63,-5.62 13.26,-8.78 21.21,-8.78 7.96,0 15.59,3.16 21.22,8.78 5.62,5.63 8.78,13.26 8.78,21.22 z" mode="kinensai79" floor="f3" behavior="kinensai79" place="k79-82Qd"></path>
  <path d="m 1333.06,818.359 c 0,7.956 -3.16,15.587 -8.79,21.213 -5.62,5.626 -13.25,8.787 -21.21,8.787 -7.95,0 -15.59,-3.161 -21.21,-8.787 -5.63,-5.626 -8.79,-13.257 -8.79,-21.213 0,-7.956 3.16,-15.587 8.79,-21.213 5.62,-5.626 13.26,-8.787 21.21,-8.787 7.96,0 15.59,3.161 21.21,8.787 5.63,5.626 8.79,13.257 8.79,21.213 z" mode="kinensai79" floor="f3" behavior="kinensai79" place="k79-Zaf7"></path>
  <path d="m 1881.03,1061.9 c 0,7.96 -3.16,15.59 -8.78,21.22 -5.63,5.62 -13.26,8.78 -21.22,8.78 -7.95,0 -15.58,-3.16 -21.21,-8.78 -5.63,-5.63 -8.79,-13.26 -8.79,-21.22 0,-7.95 3.16,-15.58 8.79,-21.21 5.63,-5.63 13.26,-8.79 21.21,-8.79 7.96,0 15.59,3.16 21.22,8.79 5.62,5.63 8.78,13.26 8.78,21.21 z" mode="kinensai79" floor="f3" behavior="kinensai79" place="k79-K2GK"></path>
  <path d="m 1881.03,1142.6 c 0,7.96 -3.16,15.59 -8.78,21.22 -5.63,5.62 -13.26,8.78 -21.22,8.78 -7.95,0 -15.58,-3.16 -21.21,-8.78 -5.63,-5.63 -8.79,-13.26 -8.79,-21.22 0,-7.95 3.16,-15.58 8.79,-21.21 5.63,-5.63 13.26,-8.79 21.21,-8.79 7.96,0 15.59,3.16 21.22,8.79 5.62,5.63 8.78,13.26 8.78,21.21 z" mode="kinensai79" floor="f3" behavior="kinensai79" place="k79-OYfN"></path>
  <path d="m 795.83,1569.66 c 0,7.96 -3.161,15.59 -8.787,21.22 -5.626,5.62 -13.257,8.78 -21.213,8.78 -7.957,0 -15.587,-3.16 -21.213,-8.78 -5.626,-5.63 -8.787,-13.26 -8.787,-21.22 0,-7.95 3.161,-15.58 8.787,-21.21 5.626,-5.63 13.256,-8.79 21.213,-8.79 7.956,0 15.587,3.16 21.213,8.79 5.626,5.63 8.787,13.26 8.787,21.21 z" mode="kinensai79" floor="f3" behavior="kinensai79" place="k79-M7Yd"></path>
  <path d="m 795.83,1669.8 c 0,7.95 -3.161,15.58 -8.787,21.21 -5.626,5.62 -13.257,8.79 -21.213,8.79 -7.957,0 -15.587,-3.17 -21.213,-8.79 -5.626,-5.63 -8.787,-13.26 -8.787,-21.21 0,-7.96 3.161,-15.59 8.787,-21.22 5.626,-5.62 13.256,-8.78 21.213,-8.78 7.956,0 15.587,3.16 21.213,8.78 5.626,5.63 8.787,13.26 8.787,21.22 z" mode="kinensai79" floor="f3" behavior="kinensai79" place="k79-RFdv"></path>
  <path d="m 795.83,1769.93 c 0,7.96 -3.161,15.59 -8.787,21.21 -5.626,5.63 -13.257,8.79 -21.213,8.79 -7.957,0 -15.587,-3.16 -21.213,-8.79 -5.626,-5.62 -8.787,-13.25 -8.787,-21.21 0,-7.96 3.161,-15.59 8.787,-21.21 5.626,-5.63 13.256,-8.79 21.213,-8.79 7.956,0 15.587,3.16 21.213,8.79 5.626,5.62 8.787,13.25 8.787,21.21 z" mode="kinensai79" floor="f3" behavior="kinensai79" place="k79-YGLX"></path>
  <path d="m 1484.51,1487.93 c 0,7.95 -3.16,15.58 -8.78,21.21 -5.63,5.62 -13.26,8.78 -21.22,8.78 -7.95,0 -15.58,-3.16 -21.21,-8.78 -5.62,-5.63 -8.78,-13.26 -8.78,-21.21 0,-7.96 3.16,-15.59 8.78,-21.22 5.63,-5.62 13.26,-8.78 21.21,-8.78 7.96,0 15.59,3.16 21.22,8.78 5.62,5.63 8.78,13.26 8.78,21.22 z" mode="kinensai79" floor="f3" behavior="kinensai79" place="k79-3LCj"></path>
  <path d="m 1484.51,1572.29 c 0,7.96 -3.16,15.59 -8.78,21.22 -5.63,5.62 -13.26,8.78 -21.22,8.78 -7.95,0 -15.58,-3.16 -21.21,-8.78 -5.62,-5.63 -8.78,-13.26 -8.78,-21.22 0,-7.95 3.16,-15.58 8.78,-21.21 5.63,-5.63 13.26,-8.79 21.21,-8.79 7.96,0 15.59,3.16 21.22,8.79 5.62,5.63 8.78,13.26 8.78,21.21 z" mode="kinensai79" floor="f3" behavior="kinensai79" place="k79-cEME"></path>
  <path d="m 1484.51,1656.66 c 0,7.95 -3.16,15.59 -8.78,21.21 -5.63,5.63 -13.26,8.79 -21.22,8.79 -7.95,0 -15.58,-3.16 -21.21,-8.79 -5.62,-5.62 -8.78,-13.26 -8.78,-21.21 0,-7.96 3.16,-15.59 8.78,-21.21 5.63,-5.63 13.26,-8.79 21.21,-8.79 7.96,0 15.59,3.16 21.22,8.79 5.62,5.62 8.78,13.25 8.78,21.21 z" mode="kinensai79" floor="f3" behavior="kinensai79" place="k79-w70q"></path>
  <path d="m 1715.95,1375.68 c 0,7.96 -3.17,15.59 -8.79,21.22 -5.63,5.62 -13.26,8.78 -21.21,8.78 -7.96,0 -15.59,-3.16 -21.22,-8.78 -5.62,-5.63 -8.78,-13.26 -8.78,-21.22 0,-7.95 3.16,-15.58 8.78,-21.21 5.63,-5.63 13.26,-8.79 21.22,-8.79 7.95,0 15.58,3.16 21.21,8.79 5.62,5.63 8.79,13.26 8.79,21.21 z" mode="kinensai79" floor="f3" behavior="kinensai79" place="k79-music"></path>
  <path d="m 1881.03,1375.68 c 0,7.96 -3.16,15.59 -8.78,21.22 -5.63,5.62 -13.26,8.78 -21.22,8.78 -7.95,0 -15.58,-3.16 -21.21,-8.78 -5.63,-5.63 -8.79,-13.26 -8.79,-21.22 0,-7.95 3.16,-15.58 8.79,-21.21 5.63,-5.63 13.26,-8.79 21.21,-8.79 7.96,0 15.59,3.16 21.22,8.79 5.62,5.63 8.78,13.26 8.78,21.21 z" mode="kinensai79" floor="f3" behavior="kinensai79" place="k79-music-preparation"></path>
  <path d="m 1874.65,1379.73 c 0,13.05 -10.58,23.62 -23.62,23.62 -13.05,0 -23.62,-10.57 -23.62,-23.62 0,-13.04 10.57,-23.62 23.62,-23.62 13.04,0 23.62,10.58 23.62,23.62 z" mode="shinkan80" floor="f2" behavior="shinkan80" place="s80-special2"></path>
  <path d="m 1372.61,1952.35 c 0,13.05 -10.58,23.62 -23.62,23.62 -13.05,0 -23.63,-10.57 -23.63,-23.62 0,-13.05 10.58,-23.62 23.63,-23.62 13.04,0 23.62,10.57 23.62,23.62 z" mode="shinkan80" floor="f2" behavior="shinkan80" place="s80-2a-back"></path>
  <path d="m 1289.14,1897.23 c 0,13.05 -10.57,23.62 -23.62,23.62 -13.04,0 -23.62,-10.57 -23.62,-23.62 0,-13.04 10.58,-23.62 23.62,-23.62 13.05,0 23.62,10.58 23.62,23.62 z" mode="shinkan80" floor="f2" behavior="shinkan80" place="s80-2a-front"></path>
  <path d="m 1225.08,1950.77 c 0,13.05 -10.58,23.63 -23.62,23.63 -13.05,0 -23.63,-10.58 -23.63,-23.63 0,-13.04 10.58,-23.62 23.63,-23.62 13.04,0 23.62,10.58 23.62,23.62 z" mode="shinkan80" floor="f2" behavior="shinkan80" place="s80-2b-back"></path>
  <path d="m 1150.16,1897.23 c 0,13.05 -10.58,23.62 -23.62,23.62 -13.05,0 -23.63,-10.57 -23.63,-23.62 0,-13.04 10.58,-23.62 23.63,-23.62 13.04,0 23.62,10.58 23.62,23.62 z" mode="shinkan80" floor="f2" behavior="shinkan80" place="s80-2b-front"></path>
  <path d="m 1086.34,1950.77 c 0,13.05 -10.57,23.63 -23.62,23.63 -13.05,0 -23.62,-10.58 -23.62,-23.63 0,-13.04 10.57,-23.62 23.62,-23.62 13.05,0 23.62,10.58 23.62,23.62 z" mode="shinkan80" floor="f2" behavior="shinkan80" place="s80-2c-back"></path>
  <path d="m 1011.17,1897.23 c 0,13.05 -10.58,23.62 -23.623,23.62 -13.046,0 -23.622,-10.57 -23.622,-23.62 0,-13.04 10.576,-23.62 23.622,-23.62 13.043,0 23.623,10.58 23.623,23.62 z" mode="shinkan80" floor="f2" behavior="shinkan80" place="s80-2c-front"></path>
  <path d="m 947.412,1950.77 c 0,13.05 -10.576,23.63 -23.622,23.63 -13.046,0 -23.622,-10.58 -23.622,-23.63 0,-13.04 10.576,-23.62 23.622,-23.62 13.046,0 23.622,10.58 23.622,23.62 z" mode="shinkan80" floor="f2" behavior="shinkan80" place="s80-2d-back"></path>
  <path d="m 872.283,1897.23 c 0,13.05 -10.576,23.62 -23.622,23.62 -13.047,0 -23.623,-10.57 -23.623,-23.62 0,-13.04 10.576,-23.62 23.623,-23.62 13.046,0 23.622,10.58 23.622,23.62 z" mode="shinkan80" floor="f2" behavior="shinkan80" place="s80-2d-front"></path>
  <path d="m 677.975,1921.39 c 0,13.04 -10.576,23.62 -23.622,23.62 -13.046,0 -23.622,-10.58 -23.622,-23.62 0,-13.05 10.576,-23.62 23.622,-23.62 13.046,0 23.622,10.57 23.622,23.62 z" mode="shinkan80" floor="f2" behavior="shinkan80" place="s80-2e"></path>
  <path d="m 576.619,1950.77 c 0,13.05 -10.576,23.63 -23.622,23.63 -13.046,0 -23.622,-10.58 -23.622,-23.63 0,-13.04 10.576,-23.62 23.622,-23.62 13.046,0 23.622,10.58 23.622,23.62 z" mode="shinkan80" floor="f2" behavior="shinkan80" place="s80-2f-back"></path>
  <path d="m 501.293,1897.23 c 0,13.05 -10.576,23.62 -23.622,23.62 -13.046,0 -23.622,-10.57 -23.622,-23.62 0,-13.04 10.576,-23.62 23.622,-23.62 13.046,0 23.622,10.58 23.622,23.62 z" mode="shinkan80" floor="f2" behavior="shinkan80" place="s80-2f-front"></path>
  <path d="m 437.074,1950.77 c 0,13.05 -10.576,23.63 -23.622,23.63 -13.046,0 -23.622,-10.58 -23.622,-23.63 0,-13.04 10.576,-23.62 23.622,-23.62 13.046,0 23.622,10.58 23.622,23.62 z" mode="shinkan80" floor="f2" behavior="shinkan80" place="s80-2g-back"></path>
  <path d="m 362.305,1897.23 c 0,13.05 -10.576,23.62 -23.622,23.62 -13.046,0 -23.622,-10.57 -23.622,-23.62 0,-13.04 10.576,-23.62 23.622,-23.62 13.046,0 23.622,10.58 23.622,23.62 z" mode="shinkan80" floor="f2" behavior="shinkan80" place="s80-2g-front"></path>
  <path d="m 298.593,1950.77 c 0,13.05 -10.576,23.63 -23.622,23.63 -13.046,0 -23.622,-10.58 -23.622,-23.63 0,-13.04 10.576,-23.62 23.622,-23.62 13.046,0 23.622,10.58 23.622,23.62 z" mode="shinkan80" floor="f2" behavior="shinkan80" place="s80-2h-back"></path>
  <path d="m 223.419,1897.23 c 0,13.05 -10.576,23.62 -23.622,23.62 -13.046,0 -23.622,-10.57 -23.622,-23.62 0,-13.04 10.576,-23.62 23.622,-23.62 13.046,0 23.622,10.58 23.622,23.62 z" mode="shinkan80" floor="f2" behavior="shinkan80" place="s80-2h-front"></path>
  <path d="m 664.679,1449.16 c 0,13.05 -10.576,23.63 -23.622,23.63 -13.046,0 -23.622,-10.58 -23.622,-23.63 0,-13.04 10.576,-23.62 23.622,-23.62 13.046,0 23.622,10.58 23.622,23.62 z" mode="shinkan80" floor="f2" behavior="shinkan80" place="s80-social2"></path>
  <path d="m 361.585,1479.91 c 0,13.04 -10.576,23.62 -23.622,23.62 -13.046,0 -23.622,-10.58 -23.622,-23.62 0,-13.05 10.576,-23.62 23.622,-23.62 13.046,0 23.622,10.57 23.622,23.62 z" mode="shinkan80" floor="f2" behavior="shinkan80" place="s80-social1-front"></path>
  <path d="m 230.876,1418.49 c 0,13.05 -10.576,23.62 -23.622,23.62 -13.046,0 -23.622,-10.57 -23.622,-23.62 0,-13.04 10.576,-23.62 23.622,-23.62 13.046,0 23.622,10.58 23.622,23.62 z" mode="shinkan80" floor="f2" behavior="shinkan80" place="s80-social1-back"></path>
  <path d="m 1326.84,944.547 c 0,13.046 -10.58,23.622 -23.62,23.622 -13.05,0 -23.63,-10.576 -23.63,-23.622 0,-13.047 10.58,-23.623 23.63,-23.623 13.04,0 23.62,10.576 23.62,23.623 z" mode="shinkan80" floor="f2" behavior="shinkan80" place="s80-meeting"></path>
  <path d="m 1426.75,1379.73 c 0,13.05 -10.57,23.62 -23.62,23.62 -13.04,0 -23.62,-10.57 -23.62,-23.62 0,-13.04 10.58,-23.62 23.62,-23.62 13.05,0 23.62,10.58 23.62,23.62 z" mode="shinkan80" floor="f2" behavior="shinkan80" place="s80-broadcast"></path>
  <path d="m 1874.65,1104.6 c 0,13.04 -10.58,23.62 -23.62,23.62 -13.05,0 -23.62,-10.58 -23.62,-23.62 0,-13.05 10.57,-23.63 23.62,-23.63 13.04,0 23.62,10.58 23.62,23.63 z" mode="shinkan80" floor="f2" behavior="shinkan80" place="s80-art"></path>
  <path d="m 773.04,1730.3 c 0,13.05 -10.576,23.63 -23.622,23.63 -13.046,0 -23.622,-10.58 -23.622,-23.63 0,-13.04 10.576,-23.62 23.622,-23.62 13.046,0 23.622,10.58 23.622,23.62 z" mode="shinkan80" floor="f2" behavior="shinkan80" place="s80-hallway-4"></path>
  <path d="m 773.04,1476.76 c 0,13.04 -10.576,23.62 -23.622,23.62 -13.046,0 -23.622,-10.58 -23.622,-23.62 0,-13.05 10.576,-23.62 23.622,-23.62 13.046,0 23.622,10.57 23.622,23.62 z" mode="shinkan80" floor="f2" behavior="shinkan80" place="s80-hallway-3"></path>
  <path d="m 805.865,1785.42 c 0,13.05 -10.576,23.62 -23.622,23.62 -13.047,0 -23.623,-10.57 -23.623,-23.62 0,-13.05 10.576,-23.62 23.623,-23.62 13.046,0 23.622,10.57 23.622,23.62 z" mode="shinkan80" floor="f2" behavior="shinkan80" place="s80-hallway-2"></path>
  <path d="m 805.865,1531.88 c 0,13.04 -10.576,23.62 -23.622,23.62 -13.047,0 -23.623,-10.58 -23.623,-23.62 0,-13.05 10.576,-23.63 23.623,-23.63 13.046,0 23.622,10.58 23.622,23.63 z" mode="shinkan80" floor="f2" behavior="shinkan80" place="s80-hallway-1"></path>
  <path d="m 1366.9,127.763 c 0,13.046 -10.58,23.622 -23.63,23.622 -13.04,0 -23.62,-10.576 -23.62,-23.622 0,-13.047 10.58,-23.623 23.62,-23.623 13.05,0 23.63,10.576 23.63,23.623 z" mode="shinkan80" floor="f2" behavior="shinkan80" place="s80-audiovisual"></path>
  <path d="m 1364.37,1950.77 c 0,13.05 -10.58,23.63 -23.62,23.63 -13.05,0 -23.63,-10.58 -23.63,-23.63 0,-13.04 10.58,-23.62 23.63,-23.62 13.04,0 23.62,10.58 23.62,23.62 z" mode="shinkan80" floor="f3" behavior="shinkan80" place="s80-3a-back"></path>
  <path d="m 1289.14,1897.23 c 0,13.05 -10.57,23.62 -23.62,23.62 -13.04,0 -23.62,-10.57 -23.62,-23.62 0,-13.04 10.58,-23.62 23.62,-23.62 13.05,0 23.62,10.58 23.62,23.62 z" mode="shinkan80" floor="f3" behavior="shinkan80" place="s80-3a-front"></path>
  <path d="m 1225.33,1950.77 c 0,13.05 -10.57,23.63 -23.62,23.63 -13.05,0 -23.62,-10.58 -23.62,-23.63 0,-13.04 10.57,-23.62 23.62,-23.62 13.05,0 23.62,10.58 23.62,23.62 z" mode="shinkan80" floor="f3" behavior="shinkan80" place="s80-3b-back"></path>
  <path d="m 1150.16,1897.23 c 0,13.05 -10.58,23.62 -23.62,23.62 -13.05,0 -23.63,-10.57 -23.63,-23.62 0,-13.04 10.58,-23.62 23.63,-23.62 13.04,0 23.62,10.58 23.62,23.62 z" mode="shinkan80" floor="f3" behavior="shinkan80" place="s80-3b-front"></path>
  <path d="m 1086.34,1950.77 c 0,13.05 -10.57,23.63 -23.62,23.63 -13.05,0 -23.62,-10.58 -23.62,-23.63 0,-13.04 10.57,-23.62 23.62,-23.62 13.05,0 23.62,10.58 23.62,23.62 z" mode="shinkan80" floor="f3" behavior="shinkan80" place="s80-3c-back"></path>
  <path d="m 1011.17,1897.23 c 0,13.05 -10.58,23.62 -23.623,23.62 -13.046,0 -23.622,-10.57 -23.622,-23.62 0,-13.04 10.576,-23.62 23.622,-23.62 13.043,0 23.623,10.58 23.623,23.62 z" mode="shinkan80" floor="f3" behavior="shinkan80" place="s80-3c-front"></path>
  <path d="m 947.457,1950.77 c 0,13.05 -10.576,23.63 -23.622,23.63 -13.047,0 -23.623,-10.58 -23.623,-23.63 0,-13.04 10.576,-23.62 23.623,-23.62 13.046,0 23.622,10.58 23.622,23.62 z" mode="shinkan80" floor="f3" behavior="shinkan80" place="s80-3d-back"></path>
  <path d="m 872.283,1897.23 c 0,13.05 -10.576,23.62 -23.622,23.62 -13.047,0 -23.623,-10.57 -23.623,-23.62 0,-13.04 10.576,-23.62 23.623,-23.62 13.046,0 23.622,10.58 23.622,23.62 z" mode="shinkan80" floor="f3" behavior="shinkan80" place="s80-3d-front"></path>
  <path d="m 715.454,1950.77 c 0,13.05 -10.576,23.63 -23.622,23.63 -13.046,0 -23.622,-10.58 -23.622,-23.63 0,-13.04 10.576,-23.62 23.622,-23.62 13.046,0 23.622,10.58 23.622,23.62 z" mode="shinkan80" floor="f3" behavior="shinkan80" place="s80-3e-back"></path>
  <path d="m 640.28,1897.23 c 0,13.05 -10.576,23.62 -23.622,23.62 -13.046,0 -23.622,-10.57 -23.622,-23.62 0,-13.04 10.576,-23.62 23.622,-23.62 13.046,0 23.622,10.58 23.622,23.62 z" mode="shinkan80" floor="f3" behavior="shinkan80" place="s80-3e-front"></path>
  <path d="m 539.088,1921.39 c 0,13.04 -10.576,23.62 -23.622,23.62 -13.046,0 -23.622,-10.58 -23.622,-23.62 0,-13.05 10.576,-23.62 23.622,-23.62 13.046,0 23.622,10.57 23.622,23.62 z" mode="shinkan80" floor="f3" behavior="shinkan80" place="s80-3f"></path>
  <path d="m 437.479,1950.77 c 0,13.05 -10.576,23.63 -23.622,23.63 -13.046,0 -23.622,-10.58 -23.622,-23.63 0,-13.04 10.576,-23.62 23.622,-23.62 13.046,0 23.622,10.58 23.622,23.62 z" mode="shinkan80" floor="f3" behavior="shinkan80" place="s80-3g-back"></path>
  <path d="m 1709.57,1374.68 c 0,13.05 -10.58,23.62 -23.62,23.62 -13.05,0 -23.63,-10.57 -23.63,-23.62 0,-13.05 10.58,-23.62 23.63,-23.62 13.04,0 23.62,10.57 23.62,23.62 z" mode="shinkan80" floor="f3" behavior="shinkan80" place="s80-music"></path>
  <path d="m 362.305,1897.23 c 0,13.05 -10.576,23.62 -23.622,23.62 -13.046,0 -23.622,-10.57 -23.622,-23.62 0,-13.04 10.576,-23.62 23.622,-23.62 13.046,0 23.622,10.58 23.622,23.62 z" mode="shinkan80" floor="f3" behavior="shinkan80" place="s80-3g-front"></path>
  <path d="m 298.593,1950.77 c 0,13.05 -10.576,23.63 -23.622,23.63 -13.046,0 -23.622,-10.58 -23.622,-23.63 0,-13.04 10.576,-23.62 23.622,-23.62 13.046,0 23.622,10.58 23.622,23.62 z" mode="shinkan80" floor="f3" behavior="shinkan80" place="s80-3h-back"></path>
  <path d="m 223.419,1897.23 c 0,13.05 -10.576,23.62 -23.622,23.62 -13.046,0 -23.622,-10.57 -23.622,-23.62 0,-13.04 10.576,-23.62 23.622,-23.62 13.046,0 23.622,10.58 23.622,23.62 z" mode="shinkan80" floor="f3" behavior="shinkan80" place="s80-3h-front"></path>
  <path d="m 1874.65,1101.23 c 0,13.04 -10.58,23.62 -23.62,23.62 -13.05,0 -23.62,-10.58 -23.62,-23.62 0,-13.05 10.57,-23.63 23.62,-23.63 13.04,0 23.62,10.58 23.62,23.63 z" mode="shinkan80" floor="f3" behavior="shinkan80" place="s80-special1"></path>
  <path d="m 1549.9,1374.79 c 0,13.04 -10.57,23.62 -23.62,23.62 -13.04,0 -23.62,-10.58 -23.62,-23.62 0,-13.05 10.58,-23.62 23.62,-23.62 13.05,0 23.62,10.57 23.62,23.62 z" mode="shinkan80" floor="f3" behavior="shinkan80" place="s80-career"></path>
  <path d="m 1874.65,808.224 c 0,13.046 -10.58,23.622 -23.62,23.622 -13.05,0 -23.62,-10.576 -23.62,-23.622 0,-13.047 10.57,-23.623 23.62,-23.623 13.04,0 23.62,10.576 23.62,23.623 z" mode="shinkan80" floor="f3" behavior="shinkan80" place="s80-biology"></path>
  <path d="m 664.679,1449.16 c 0,13.05 -10.576,23.63 -23.622,23.63 -13.046,0 -23.622,-10.58 -23.622,-23.63 0,-13.04 10.576,-23.62 23.622,-23.62 13.046,0 23.622,10.58 23.622,23.62 z" mode="shinkan80" floor="f3" behavior="shinkan80" place="s80-physics"></path>
  <path d="m 938.115,1374.68 c 0,13.05 -10.576,23.62 -23.623,23.62 -13.046,0 -23.622,-10.57 -23.622,-23.62 0,-13.05 10.576,-23.62 23.622,-23.62 13.047,0 23.623,10.57 23.623,23.62 z" mode="shinkan80" floor="f3" behavior="shinkan80" place="s80-chemistry-le"></path>
  <path d="m 1347.16,1379.73 c 0,13.05 -10.58,23.62 -23.62,23.62 -13.05,0 -23.63,-10.57 -23.63,-23.62 0,-13.04 10.58,-23.62 23.63,-23.62 13.04,0 23.62,10.58 23.62,23.62 z" mode="shinkan80" floor="f3" behavior="shinkan80" place="s80-chemistry-ex"></path>
</svg>