<?xml version="1.0" encoding="UTF-8" standalone="no"?>
<!-- Created with Inkscape (http://www.inkscape.org/) -->

<svg
   width="20.766842mm"
   height="10.944687mm"
   viewBox="0 0 20.766842 10.944687"
   version="1.1"
   id="svg5"
   xml:space="preserve"
   inkscape:version="1.2.1 (9c6d41e410, 2022-07-14)"
   sodipodi:docname="2F-edit.svg"
   xmlns:inkscape="http://www.inkscape.org/namespaces/inkscape"
   xmlns:sodipodi="http://sodipodi.sourceforge.net/DTD/sodipodi-0.dtd"
   xmlns="http://www.w3.org/2000/svg"
   xmlns:svg="http://www.w3.org/2000/svg"><sodipodi:namedview
     id="namedview7"
     pagecolor="#ffffff"
     bordercolor="#111111"
     borderopacity="1"
     inkscape:showpageshadow="0"
     inkscape:pageopacity="0"
     inkscape:pagecheckerboard="1"
     inkscape:deskcolor="#d1d1d1"
     inkscape:document-units="mm"
     showgrid="false"
     inkscape:zoom="2.8284271"
     inkscape:cx="31.643028"
     inkscape:cy="52.856232"
     inkscape:window-width="1137"
     inkscape:window-height="1000"
     inkscape:window-x="767"
     inkscape:window-y="0"
     inkscape:window-maximized="0"
     inkscape:current-layer="svg5" /><defs
     id="defs2"><rect
       x="0"
       y="412"
       width="483.24329"
       height="266"
       id="rect488" /><rect
       x="221.95711"
       y="452.32901"
       width="33.661995"
       height="25.321613"
       id="rect6242" /><rect
       x="203.9707"
       y="482.75"
       width="35.893711"
       height="26.724325"
       id="rect5818" /><rect
       x="387.81921"
       y="249.95888"
       width="51.987732"
       height="23.518541"
       id="rect2999" /><rect
       x="262.13342"
       y="687.02557"
       width="205.25488"
       height="110.75822"
       id="rect2566" /><clipPath
       clipPathUnits="userSpaceOnUse"
       id="clipPath413"><rect
         style="fill:#999999;stroke:#b3b3b3;stroke-width:1;stop-color:#000000"
         id="rect415"
         width="68.038559"
         height="159.65727"
         x="73.196716"
         y="64.845413"
         transform="rotate(20)" /></clipPath><clipPath
       clipPathUnits="userSpaceOnUse"
       id="clipPath435"><rect
         style="fill:#999999;stroke:#b3b3b3;stroke-width:1;stop-color:#000000"
         id="rect437"
         width="112.2"
         height="169.86316"
         x="-47.936844"
         y="81.978951" /></clipPath><clipPath
       clipPathUnits="userSpaceOnUse"
       id="clipPath1766"><rect
         style="opacity:1;fill:#999999;stroke:#b3b3b3;stroke-width:1;stop-color:#000000"
         id="rect1768"
         width="138.04213"
         height="298.68192"
         x="0"
         y="40.77401"
         transform="rotate(20)" /></clipPath><rect
       x="262.13342"
       y="687.02557"
       width="205.25488"
       height="110.75822"
       id="rect2566-0" /><rect
       x="262.13342"
       y="687.02557"
       width="205.25488"
       height="110.75822"
       id="rect2566-0-3" /><rect
       x="262.13342"
       y="687.02557"
       width="205.25488"
       height="110.75822"
       id="rect2566-5" /><rect
       x="262.13342"
       y="687.02557"
       width="205.25488"
       height="110.75822"
       id="rect2566-5-4" /><rect
       x="262.13342"
       y="687.02557"
       width="205.25488"
       height="110.75822"
       id="rect2566-5-4-6" /><rect
       x="262.13342"
       y="687.02557"
       width="205.25488"
       height="110.75822"
       id="rect2566-5-4-6-4" /><rect
       x="262.13342"
       y="687.02557"
       width="205.25488"
       height="110.75822"
       id="rect2566-5-4-6-4-1" /><rect
       x="203.9707"
       y="482.75"
       width="35.893711"
       height="26.724325"
       id="rect5818-2" /><rect
       x="203.9707"
       y="482.75"
       width="35.893711"
       height="26.724325"
       id="rect5818-0" /><rect
       x="203.9707"
       y="482.75"
       width="35.893711"
       height="26.724325"
       id="rect5818-6" /><rect
       x="203.9707"
       y="482.75"
       width="35.893711"
       height="26.724325"
       id="rect5818-3" /><rect
       x="203.9707"
       y="482.75"
       width="35.893711"
       height="26.724325"
       id="rect5818-31" /><rect
       x="203.9707"
       y="482.75"
       width="35.893711"
       height="26.724325"
       id="rect5818-9" /><rect
       x="203.9707"
       y="482.75"
       width="35.893711"
       height="26.724325"
       id="rect5818-8" /><rect
       x="203.9707"
       y="482.75"
       width="61.912815"
       height="22.474325"
       id="rect5818-0-9" /><rect
       x="221.95711"
       y="452.32901"
       width="33.661995"
       height="25.321613"
       id="rect6242-3" /><rect
       x="203.9707"
       y="482.75"
       width="54.860535"
       height="26.370771"
       id="rect5818-0-0" /><rect
       x="203.9707"
       y="482.75"
       width="74.659523"
       height="24.072674"
       id="rect5818-0-0-1" /><rect
       x="221.95711"
       y="452.32901"
       width="33.661995"
       height="25.321613"
       id="rect6242-3-6" /><rect
       x="203.9707"
       y="482.75"
       width="61.912815"
       height="22.474325"
       id="rect5818-0-9-8" /><rect
       x="203.9707"
       y="482.75"
       width="113.01766"
       height="24.473568"
       id="rect5818-0-9-8-5" /><rect
       x="203.9707"
       y="482.75"
       width="61.912815"
       height="22.474325"
       id="rect5818-0-9-8-1" /><rect
       x="203.9707"
       y="482.75"
       width="61.912815"
       height="22.474325"
       id="rect5818-0-9-8-1-6" /><rect
       x="221.95711"
       y="452.32901"
       width="33.661995"
       height="25.321613"
       id="rect6242-3-6-9" /><rect
       x="203.9707"
       y="482.75"
       width="61.912815"
       height="22.474325"
       id="rect5818-0-9-8-1-6-8" /><rect
       x="203.9707"
       y="482.75"
       width="61.912815"
       height="22.474325"
       id="rect5818-0-9-8-1-6-8-6" /><rect
       x="203.9707"
       y="482.75"
       width="61.912815"
       height="22.474325"
       id="rect5818-0-9-8-1-6-8-8" /><rect
       x="203.9707"
       y="482.75"
       width="61.912815"
       height="22.474325"
       id="rect5818-0-9-8-1-6-8-8-8" /><rect
       x="203.9707"
       y="482.75"
       width="60.412815"
       height="39.849323"
       id="rect5818-0-9-8-1-6-8-6-6" /><rect
       x="203.9707"
       y="482.75"
       width="60.412815"
       height="39.849323"
       id="rect5818-0-9-8-1-6-8-6-6-2" /><rect
       x="221.95711"
       y="452.32901"
       width="33.661995"
       height="25.321613"
       id="rect6242-3-6-9-5" /></defs><path
     id="rect1292"
     style="fill:#e6e6e6;stroke-width:0.499999;paint-order:stroke fill markers;stop-color:#000000"
     d="M 0,0 H 20.766842 V 10.944687 H 0 Z" /><g
     aria-label="2F データ準備中"
     id="text486"
     style="-inkscape-font-specification:'Noto Sans';display:inline;font-family:'Noto Sans';font-size:12px;line-height:1.2;paint-order:stroke fill markers;shape-inside:url(#rect488);stop-color:#000000;stroke-width:0.49999837008000003;text-align:center;text-anchor:middle;text-orientation:upright;white-space:pre"><path
       d="M 10.3458 4.45567 L 8.84723 4.45567 L 8.84723 4.2239 L 9.44096 3.62382 C 9.55314 3.50952 9.64839 3.40792 9.72671 3.31902 C 9.80714 3.23012 9.86746 3.14334 9.90768 3.05867 C 9.9479 2.97401 9.96801 2.87981 9.96801 2.7761 C 9.96801 2.65121 9.93096 2.55702 9.85688 2.49352 C 9.7828 2.42791 9.68649 2.3951 9.56796 2.3951 C 9.45577 2.3951 9.35841 2.41415 9.27586 2.45225 C 9.19331 2.49035 9.10864 2.54326 9.02186 2.611 L 8.87263 2.42367 C 8.96153 2.34959 9.06313 2.28715 9.17743 2.23635 C 9.29385 2.18343 9.42402 2.15697 9.56796 2.15697 C 9.77962 2.15697 9.94684 2.21095 10.0696 2.3189 C 10.1924 2.42685 10.2538 2.57396 10.2538 2.76022 C 10.2538 2.87876 10.2294 2.98988 10.1807 3.0936 C 10.132 3.19731 10.0643 3.29997 9.97753 3.40157 C 9.89075 3.50317 9.78915 3.61006 9.67273 3.72225 L 9.19966 4.18897 L 9.19966 4.20167 L 10.3458 4.20167 Z"
       id="path1555" /><path
       d="M 11.1047 4.45567 L 10.8189 4.45567 L 10.8189 2.18872 L 12.0857 2.18872 L 12.0857 2.43955 L 11.1047 2.43955 L 11.1047 3.24282 L 12.0254 3.24282 L 12.0254 3.49365 L 11.1047 3.49365 Z"
       id="path1557" /><path
       d="M 2.4521 7.26197 L 1.21186 7.26197 L 1.21186 6.98912 L 3.75434 6.98912 L 3.75434 7.26197 L 2.73735 7.26197 L 2.73735 7.4232 C 2.73735 7.9441 2.55131 8.37404 2.17925 8.71304 L 1.9312 8.527 C 2.27846 8.25415 2.4521 7.88622 2.4521 7.4232 Z M 1.65835 6.50543 L 1.65835 6.23258 L 3.18383 6.23258 L 3.18383 6.50543 Z M 3.34506 5.99693 C 3.45255 6.10442 3.56831 6.24911 3.69233 6.43101 L 3.5187 6.55504 C 3.40294 6.38967 3.28719 6.24084 3.17143 6.10855 Z M 3.64272 5.8357 C 3.75021 5.95146 3.86596 6.09202 3.98999 6.25738 L 3.81635 6.3814 C 3.68406 6.1995 3.56831 6.05894 3.46909 5.95972 Z"
       id="path1559" /><path
       d="M 4.27524 7.48521 L 4.27524 7.21236 L 7.04096 7.21236 L 7.04096 7.48521 Z"
       id="path1561" /><path
       d="M 8.71527 6.19537 C 8.6822 6.29459 8.64086 6.38967 8.59125 6.48062 L 9.4222 6.48062 L 9.55863 6.43101 L 9.71986 6.59224 C 9.75293 6.63358 9.7364 6.66666 9.67025 6.69146 C 9.60411 7.02219 9.50489 7.32398 9.3726 7.59683 L 9.67025 7.79527 L 9.48422 8.06812 L 9.21136 7.86968 C 8.97159 8.21695 8.62846 8.5022 8.18197 8.72544 L 7.89672 8.5146 C 8.39281 8.3079 8.74834 8.03505 8.96332 7.69605 C 8.75661 7.56376 8.55404 7.44387 8.3556 7.33638 L 8.50443 7.11314 C 8.76075 7.22889 8.97159 7.33638 9.13695 7.4356 C 9.26097 7.17929 9.33539 6.95191 9.36019 6.75347 L 8.45482 6.75347 C 8.29773 7.03459 8.10342 7.29091 7.87191 7.52242 L 7.63627 7.36119 C 8.05795 6.92297 8.33493 6.45995 8.46722 5.97213 L 8.76488 6.09615 C 8.83103 6.12922 8.81449 6.16229 8.71527 6.19537 Z"
       id="path1563" /><path
       d="M 12.684 6.09615 C 12.6592 6.13749 12.6179 6.1995 12.56 6.28218 L 13.2545 6.28218 L 13.2545 6.48062 L 12.5352 6.48062 L 12.5352 6.69146 L 13.1429 6.69146 L 13.1429 6.8899 L 12.5352 6.8899 L 12.5352 7.08833 L 13.1429 7.08833 L 13.1429 7.28677 L 12.5352 7.28677 L 12.5352 7.51001 L 13.3165 7.51001 L 13.3165 7.70845 L 12.1383 7.70845 L 12.1383 7.9813 L 13.4406 7.9813 L 13.4406 8.21695 L 12.1383 8.21695 L 12.1383 8.78746 L 11.8903 8.78746 L 11.8903 8.21695 L 10.6004 8.21695 L 10.6004 7.9813 L 11.8903 7.9813 L 11.8903 7.70845 L 11.7538 7.70845 L 11.6298 7.70845 L 11.6298 6.74107 C 11.5802 6.80722 11.5141 6.8775 11.4314 6.95191 L 11.295 6.72867 C 11.543 6.5385 11.7249 6.28218 11.8407 5.95972 L 12.0639 6.03414 C 12.097 6.06721 12.0846 6.08788 12.0267 6.09615 C 12.0019 6.17056 11.9688 6.23258 11.9275 6.28218 L 12.3368 6.28218 C 12.4029 6.16643 12.4566 6.05894 12.498 5.95972 L 12.7212 6.03414 C 12.7543 6.06721 12.7419 6.08788 12.684 6.09615 Z M 10.8485 6.51783 C 10.9642 6.5509 11.0841 6.62531 11.2081 6.74107 L 11.0345 6.97672 C 10.9188 6.86096 10.803 6.77828 10.6872 6.72867 Z M 10.9973 6.00933 C 11.1461 6.05894 11.2702 6.12922 11.3694 6.22017 L 11.1957 6.44341 C 11.1048 6.3442 10.9849 6.26565 10.8361 6.20777 Z M 12.3243 7.51001 L 12.3243 7.28677 L 11.8407 7.28677 L 11.8407 7.51001 Z M 11.8407 7.08833 L 12.3243 7.08833 L 12.3243 6.8899 L 11.8407 6.8899 Z M 12.3243 6.69146 L 12.3243 6.48062 L 11.8407 6.48062 L 11.8407 6.69146 Z M 10.6252 7.54722 C 10.8402 7.43147 11.0552 7.25783 11.2702 7.02632 L 11.4438 7.19996 C 11.2371 7.448 11.0386 7.63404 10.8485 7.75806 C 10.865 7.80767 10.8526 7.82834 10.8113 7.82007 Z"
       id="path1565" /><path
       d="M 14.4824 6.07134 C 14.4327 6.39381 14.379 6.62945 14.3211 6.77828 L 14.3707 6.79069 C 14.3955 6.81549 14.3873 6.8403 14.3459 6.8651 L 14.3459 8.77506 L 14.0979 8.77506 L 14.0979 7.26198 C 14.0731 7.32812 14.0111 7.41907 13.9119 7.53483 L 13.7506 7.32399 C 14.0235 7.01806 14.193 6.56331 14.2591 5.95973 L 14.5072 5.99694 C 14.532 6.02174 14.5237 6.04655 14.4824 6.07135 Z M 14.8792 7.89449 C 14.8792 8.24175 14.7924 8.51874 14.6188 8.72544 L 14.4079 8.55181 C 14.5568 8.36991 14.6312 8.08052 14.6312 7.68365 L 14.6312 6.79068 L 15.0901 6.79068 L 15.0901 6.51783 L 14.5444 6.51783 L 14.5444 6.28218 L 15.0901 6.28218 L 15.0901 5.94732 L 15.3257 5.94732 C 15.3919 5.95559 15.396 5.9804 15.3381 6.02173 L 15.3381 6.28218 L 15.735 6.28218 L 15.735 5.94732 L 15.9706 5.94732 C 16.0368 5.95559 16.0409 5.9804 15.9831 6.02173 L 15.9831 6.28218 L 16.4915 6.28218 L 16.4915 6.51783 L 15.9831 6.51783 L 15.9831 6.79068 L 16.5784 6.79068 L 16.5784 7.02632 L 14.8792 7.02632 Z M 16.1939 8.00611 L 16.1939 7.80767 L 15.8342 7.80767 L 15.8342 8.00611 Z M 15.2637 7.80767 L 15.2637 8.00611 L 15.6234 8.00611 L 15.6234 7.80767 Z M 15.2637 7.39839 L 15.2637 7.60923 L 15.6234 7.60923 L 15.6234 7.39839 Z M 15.8342 7.60923 L 16.1939 7.60923 L 16.1939 7.39839 L 15.8342 7.39839 Z M 16.1443 8.55181 C 16.1773 8.55181 16.1939 8.53527 16.1939 8.5022 L 16.1939 8.20454 L 15.8342 8.20454 L 15.8342 8.70064 L 15.6234 8.70064 L 15.6234 8.20454 L 15.2637 8.20454 L 15.2637 8.78746 L 15.0529 8.78746 L 15.0529 7.19996 L 16.4047 7.19996 L 16.4047 8.57661 C 16.4047 8.69237 16.3551 8.75025 16.2559 8.75025 L 16.045 8.75025 L 15.9954 8.55181 Z M 15.3381 6.51783 L 15.3381 6.79068 L 15.735 6.79068 L 15.735 6.51783 Z"
       id="path1567" /><path
       d="M 18.2279 7.59683 L 18.2279 6.79068 L 17.4217 6.79068 L 17.4217 7.59683 Z M 18.2279 5.98453 L 18.4635 5.98453 C 18.5296 5.9928 18.5338 6.01761 18.4759 6.05894 L 18.4759 6.55504 L 19.5549 6.55504 L 19.5549 7.91929 L 19.3069 7.91929 L 19.3069 7.83247 L 18.4759 7.83247 L 18.4759 8.76265 L 18.2279 8.76265 L 18.2279 7.83247 L 17.4217 7.83247 L 17.4217 7.99371 L 17.1737 7.99371 L 17.1737 6.55504 L 18.2279 6.55504 Z M 19.3069 7.59683 L 19.3069 6.79068 L 18.4759 6.79068 L 18.4759 7.59683 Z"
       id="path1569" /></g></svg>
