<svg width="1991.3167" height="4493.0317" viewBox="0 0 1991.3167 4493.0317" version="1.1" xml:space="preserve" style="clip-rule:evenodd;fill-rule:evenodd;stroke-linejoin:round;stroke-miterlimit:2" id="svg73"
    xmlns="http://www.w3.org/2000/svg"
    xmlns:svg="http://www.w3.org/2000/svg">
    <defs id="defs73" />
    <path d="m 1822.4991,407.8607 h 168.8176 v 4085.171 H 0.00118 V 1131.161 H 271.41314 V 937.3392 H 842.21229 V 0 h 980.28681 z" style="fill:#ffffff;fill-opacity:0.53;stroke-width:2.30821" id="base" />
    <path id="enclosure-classroom_building" d="m 315.32219,1697.878 h -147.071 v 284.95 H 1372.6622 v -107.62 h 112.78 v -117.08 l -112.78,0.35 v -60.25 l -147.07,-0.35 v 121.2 H 807.86219 v -148.81 h -492.54 z" style="fill:#fd0000;fill-opacity:0.5" />
    <path id="enclosure-management_building2" d="m 594.53219,1518.638 h -426.281 v -179.81 h 281.438 v -84.93 h 288.683 v 125.87 h -143.84" style="fill:#fd0000;fill-opacity:0.5" />
    <path id="enclosure-nishi_hall" style="fill:#fd0000;fill-opacity:0.5;stroke-width:1.0195" d="M 1559.2233,31.97536 H 1811.104 V 363.63902 H 1559.2233 Z" />
    <path id="enclosure-audiovisual_hall" d="M 1496.7422,68.417 V 489.22 h -73.24 l 0.1,43.395 h -132.59 l -43.62,-43.395 h -57.59 V 68.417 Z" style="fill:#fd0000;fill-opacity:0.5" />
    <path d="m 1924.854,1606.968 v 766.2 h -439.4183 v -720.55 h 322.7796 v -45.65 z" style="fill:#fd0000;fill-opacity:0.5;stroke-width:1.01868" id="enclosure-pool" />
    <path d="m 1895.7622,3210.8174 v 484.5157 h -143.51 v 144.6239 h -291.15 v -629.1396 z" style="fill:#fd0000;fill-opacity:0.5;stroke-width:0.996505" id="enclosure-martial_arts_field" />
    <path id="enclosure-gym" style="fill:#fd0000;fill-opacity:0.5;stroke-width:0.990694" d="m 1451.3492,2373.1672 h 444.409 v 752.8682 h -444.409 z" />
    <path id="enclosure-clubroom_building_0" style="fill:#fd0000;fill-opacity:0.5;stroke-width:1.09782" d="M 14.81604,2153.1921 H 115.1183 v 571.4297 H 14.81604 Z" />
    <path id="enclosure-clubroom_building_1" style="fill:#fd0000;fill-opacity:0.5" d="M 14.81719,2737.3679 H 115.1202 v 273.126 H 14.81719 Z" />
    <path d="m 1485.4422,2326.1339 v 47.0513 h -34.09 v 752.8729 h 444.41 v 84.7705 h -479.57 v -884.6947 z" style="fill:#fd0000;fill-opacity:0.5;stroke-width:1.14165" id="enclosure-gym_passage" />
    <path id="enclosure-management_building1" d="m 878.89219,1444.778 v -181.06 l 49.48,-50.31 h 206.19001 v 50.31 h 88.9 V 554.085 h 200.14 v 138.156 h 228.12 v 145.378 l -228.12,0.457 v 353.562 h 315.53 V 554.085 h 182.86 v 890.693 z" style="fill:#fd0000;fill-opacity:0.5" />
    <path id="none-wc" style="fill:#191919;fill-opacity:0.5;stroke-width:1.22062" d="m 168.25103,1697.8771 h 73.53522 v 121.2076 h -73.53522 z" />
    <path id="none-stairs" style="fill:#191919;fill-opacity:0.5;stroke-width:1.22062" d="m 241.78643,1697.8771 h 73.53522 v 121.2076 h -73.53522 z" />
    <path id="none-wc1" style="fill:#191919;fill-opacity:0.5;stroke-width:1.22062" d="m 1225.5872,1697.8771 h 73.5352 v 121.2076 h -73.5352 z" />
    <path id="none-stairs1" style="fill:#191919;fill-opacity:0.5;stroke-width:1.22062" d="m 1299.1271,1697.8771 h 73.5353 v 121.2076 h -73.5353 z" />
    <path id="none-wc2" style="fill:#191919;fill-opacity:0.5;stroke-width:1.13333" d="m 1504.6472,692.24127 h 73.5352 v 104.49099 h -73.5352 z" />
    <path id="none-stairs2" style="fill:#191919;fill-opacity:0.5;stroke-width:1.13333" d="m 1578.1872,692.24127 h 73.5352 v 104.49099 h -73.5352 z" />
    <path id="none-stairs3" style="fill:#191919;fill-opacity:0.5;stroke-width:1.05541" d="m 449.68939,1253.9023 h 144.8399 v 84.9269 h -144.8399 z" />
    <path id="none-wc3" style="fill:#191919;fill-opacity:0.5;stroke-width:1.05176" d="m 594.52919,1253.9023 h 143.8376 v 84.9269 h -143.8376 z" />
    <path id="none-stairs4" style="fill:#191919;fill-opacity:0.5;stroke-width:1.08767" d="m 723.79449,1875.6082 h 93.3184 v 107.2202 h -93.3184 z" />
    <path id="none-wc4" style="fill:#191919;fill-opacity:0.5;stroke-width:1.26289" d="m 1511.5504,1721.1698 h 111.5869 v 154.4278 h -111.5869 z" />
    <path id="none" style="fill:#191919;fill-opacity:0.5;stroke-width:1.02491" d="m 1511.5507,1652.6111 h 296.6803 v 68.5619 h -296.6803 z" />
    <path id="none-stairs5" style="fill:#191919;fill-opacity:0.5;stroke-width:1.05425" d="m 1808.2258,1606.9722 h 116.6411 v 45.6535 h -116.6411 z" />
    <path id="none-stairs6" style="fill:#191919;fill-opacity:0.5;stroke-width:1.20262" d="m 1416.1948,2269.8113 h 48.527 v 56.3025 h -48.527 z" />
    <path id="none-stairs7" style="fill:#191919;fill-opacity:0.5;stroke-width:0.88402" d="m 1416.1907,3210.8193 h 24.2634 v 120.7092 h -24.2634 z" />
    <path id="none-stairs8" style="fill:#191919;fill-opacity:0.5;stroke-width:1.00632" d="m 1507.7158,1191.6808 h 84.1052 v 72.0296 h -84.1052 z" />
    <path id="none-wc5" style="fill:#191919;fill-opacity:0.5;stroke-width:1.33183" d="m 1591.8178,1191.6808 h 147.3165 v 72.0296 h -147.3165 z" />
    <path id="none-ev" style="fill:#191919;fill-opacity:0.5;stroke-width:0.545466" d="m 1458.3238,1227.6306 h 49.3908 v 36.0372 h -49.3908 z" />
    <path id="none-wc6" style="fill:#191919;fill-opacity:0.5;stroke-width:0.545126" d="m 1458.3238,1191.6383 h 49.3908 v 35.9924 h -49.3908 z" />
    <path id="office_warehouse" style="fill:#0015fe;fill-opacity:0.5;stroke-width:1.11905" d="m 1223.4742,1127.8582 h 159.195 v 135.8626 h -159.195 z" />
    <path id="pc_room" style="fill:#0015fe;fill-opacity:0.5;stroke-width:1.41288" d="m 1223.4742,911.2744 h 159.195 v 216.5787 h -159.195 z" />
    <path id="pc_preparation_room" style="fill:#0015fe;fill-opacity:0.5;stroke-width:0.823627" d="m 1223.4742,837.67682 h 159.195 v 73.59798 h -159.195 z" />
    <path id="ll_room" style="fill:#0015fe;fill-opacity:0.5;stroke-width:1.41288" d="m 1223.4742,621.10443 h 159.195 v 216.57866 h -159.195 z" />
    <path id="ll_preparation_room" style="fill:#0015fe;fill-opacity:0.5;stroke-width:0.785922" d="m 1223.4742,554.08637 h 159.195 v 67.01375 h -159.195 z" />
    <path id="teachers_entrance" d="m 1134.5622,1263.718 v -50.31 H 928.37219 l -49.48,50.31 z" style="fill:#0015fe;fill-opacity:0.5" />
    <path id="home_economics_room" style="fill:#0015fe;fill-opacity:0.5;stroke-width:1.00397" d="m 1780.0688,1010.8928 h 141.911 v 252.8228 h -141.911 z" />
    <path id="home_economics_preparation_room" style="fill:#0015fe;fill-opacity:0.5;stroke-width:0.831015" d="m 1780.0688,837.67664 h 141.911 v 173.21606 h -141.911 z" />
    <path id="food_room" style="fill:#0015fe;fill-opacity:0.5;stroke-width:1.06331" d="m 1780.0688,554.08429 h 141.911 v 283.59204 h -141.911 z" />
    <path id="straight_course" style="fill:#0015fe;fill-opacity:0.5;stroke-width:1.19351" d="m 89.85791,3185.2886 h 66.48628 V 4401.7388 H 89.85791 Z" />
    <path id="bicycle_parking_1st_1" style="fill:#0015fe;fill-opacity:0.5;stroke-width:0.706106" d="M 42.89678,2090.0674 V 1716.5001 H 68.8811 v 373.5673 z" />
    <path id="bicycle_parking_1st_0" style="fill:#0015fe;fill-opacity:0.5;stroke-width:0.490598" d="m 120.6137,1896.8309 v -180.3356 h 25.98432 v 180.3356 z" />
    <path id="bicycle_parking_2nd_0" style="fill:#0015fe;fill-opacity:0.5;stroke-width:0.45508" d="m 130.3598,1546.7742 v -155.1687 h 25.98432 v 155.1687 z" />
    <path id="bicycle_parking_2nd_2" style="fill:#0015fe;fill-opacity:0.5;stroke-width:0.978967" d="m 377.69598,1153.0557 h 360.67061 v 51.7328 H 377.69598 Z" />
    <path id="bicycle_parking_3nd_1" style="fill:#0015fe;fill-opacity:0.5;stroke-width:0.978967" d="m 377.69598,999.2295 h 360.67061 v 51.7328 H 377.69598 Z" />
    <path id="bicycle_parking_3nd_0" style="fill:#0015fe;fill-opacity:0.5;stroke-width:0.978967" d="m 377.69598,1076.4106 h 360.67061 v 51.7329 H 377.69598 Z" />
    <path d="m 1895.7622,3210.8174 v 484.5157 h -143.51 v 144.6239 h -291.15 v -629.1396 z" style="fill:#0015fe;fill-opacity:0.5;stroke-width:0.996505" id="martial_arts_field_1f" />
    <path id="gym_1f" style="fill:#0015fe;fill-opacity:0.5;stroke-width:0.990694" d="m 1451.3492,2373.1672 h 444.409 v 752.8682 h -444.409 z" />
    <path id="bicycle_parking_teachers" style="fill:#0015fe;fill-opacity:0.5;stroke-width:0.580018" d="M 705.37189,1249.6056 H 453.30744 v -25.9843 h 252.06445 z" />
    <path id="bicycle_parking_1st_2" style="fill:#0015fe;fill-opacity:0.5;stroke-width:0.430542" d="M 469.15179,2116.0457 H 330.26524 v -25.9844 h 138.88655 z" />
    <path id="bicycle_parking_2nd_1" style="fill:#0015fe;fill-opacity:0.5;stroke-width:0.869154" d="m 160.2116,1280.0826 h 284.29413 v 51.7329 H 160.2116 Z" />
    <path id="handball_court" style="fill:#0015fe;fill-opacity:0.5;stroke-width:0.979934" d="m 186.51818,3891.4482 h 670.97591 v 536.7337 H 186.51818 Z" />
    <path id="clubrooms" style="fill:#0015fe;fill-opacity:0.5;stroke-width:1.0407" d="m 1839.4699,1652.6199 h 85.9365 v 673.5039 h -85.9365 z" />
    <path id="training_room" style="fill:#0015fe;fill-opacity:0.5;stroke-width:1.44734" d="m 1623.1323,1721.1769 h 185.0932 v 154.4268 h -185.0932 z" />
    <path id="clubroom_building_0_2f" style="fill:#0015fe;fill-opacity:0.5;stroke-width:1.09782" d="M 14.81604,2153.1921 H 115.1183 v 571.4297 H 14.81604 Z" />
    <path id="clubroom_building_1" style="fill:#0015fe;fill-opacity:0.5" d="M 14.81719,2737.3679 H 115.1202 v 273.126 H 14.81719 Z" />
    <path id="fountain" style="fill:#0015fe;fill-opacity:0.5;stroke-width:0.906355" d="m 1064.624,1061.134 a 43.502323,43.502323 0 0 1 -43.5024,43.5024 43.502323,43.502323 0 0 1 -43.50231,-43.5024 43.502323,43.502323 0 0 1 43.50231,-43.5023 43.502323,43.502323 0 0 1 43.5024,43.5023 z" />
    <path id="gate_north_0" style="fill:#0015fe;fill-opacity:0.5;stroke-width:1.10019" d="m 886.54909,112.02899 v -15.696 h 157.16821 v 15.696 z" />
    <path id="nishi_hall_1f" style="fill:#0015fe;fill-opacity:0.5;stroke-width:0.989704" d="M 1559.2233,31.97476 H 1811.104 V 344.53317 H 1559.2233 Z" />
    <path id="audiovisual_hall_1f" d="M 1496.7422,68.417 V 489.22 h -73.24 l 0.1,43.395 h -132.59 l -43.62,-43.395 h -57.59 V 68.417 Z" style="fill:#0015fe;fill-opacity:0.5" />
    <path id="_1h" style="fill:#0015fe;fill-opacity:0.5;stroke-width:1.3666" d="M 168.25061,1860.0134 H 307.13694 V 1982.81 H 168.25061 Z" />
    <path id="_1g" style="fill:#0015fe;fill-opacity:0.5;stroke-width:1.3666" d="M 307.13659,1860.0134 H 446.02293 V 1982.81 H 307.13659 Z" />
    <path id="_1f" style="fill:#0015fe;fill-opacity:0.5;stroke-width:1.3666" d="M 446.02355,1860.0134 H 584.90989 V 1982.81 H 446.02355 Z" />
    <path id="_1e" style="fill:#0015fe;fill-opacity:0.5;stroke-width:1.3666" d="m 584.90959,1860.0134 h 138.8863 V 1982.81 h -138.8863 z" />
    <path id="_1d" style="fill:#0015fe;fill-opacity:0.5;stroke-width:1.3666" d="m 817.11459,1860.0134 h 138.8863 V 1982.81 h -138.8863 z" />
    <path id="_1c" style="fill:#0015fe;fill-opacity:0.5;stroke-width:1.3666" d="M 956.00149,1860.0134 H 1094.8879 V 1982.81 H 956.00149 Z" />
    <path id="_1b" style="fill:#0015fe;fill-opacity:0.5;stroke-width:1.3666" d="m 1094.8915,1860.0134 h 138.8864 V 1982.81 h -138.8864 z" />
    <path id="_1a" style="fill:#0015fe;fill-opacity:0.5;stroke-width:1.3666" d="m 1233.7716,1860.0134 h 138.8863 V 1982.81 h -138.8863 z" />
    <path id="janitorial_room" style="fill:#0015fe;fill-opacity:0.5;stroke-width:1.07829" d="m 449.6892,1379.7758 h 144.83999 v 138.8624 H 449.6892 Z" />
    <path id="pilotis" style="fill:#0015fe;fill-opacity:0.5;stroke-width:0.867834" d="m 1511.546,1875.6073 h 327.928 v 497.5664 h -327.928 z" />
    <path id="students_entrance" style="fill:#0015fe;fill-opacity:0.5;stroke-width:1.02485" d="m 315.32214,1670.2756 h 405.13545 v 148.8161 H 315.32214 Z" />
    <path d="m 349.60121,1379.7706 h 100.08602 v 138.8601 H 168.24955 v -179.8062 h 181.35166 z" style="fill:#0015fe;fill-opacity:0.5;stroke-width:1.1844" id="the_student_council_room" />
    <path id="gate_west_0" style="fill:#0015fe;fill-opacity:0.5;stroke-width:1.10205" d="m 0,1521.384 h 15.696 v 157.7006 H 0 Z" />
    <path id="gate_west_1" style="fill:#0015fe;fill-opacity:0.5;stroke-width:0.776694" d="m 0,1200.491 h 15.696 v 78.3301 H 0 Z" />
    <path id="corporate_planning_office" style="fill:#0015fe;fill-opacity:0.5;stroke-width:1.29365" d="M 948.24139,1304.6554 H 1223.4617 V 1444.775 H 948.24139 Z" />
    <path id="principals_office" style="fill:#0015fe;fill-opacity:0.5;stroke-width:1.15966" d="m 1223.467,1304.6581 h 159.1949 v 140.1198 H 1223.467 Z" />
    <path id="japanese_style_room" style="fill:#0015fe;fill-opacity:0.5;stroke-width:1.0949" d="m 1780.0783,1304.6581 h 141.9111 v 140.1198 h -141.9111 z" />
    <path id="health_room" style="fill:#0015fe;fill-opacity:0.5;stroke-width:1.34059" d="m 1485.4511,1304.6581 h 212.7445 v 140.1198 h -212.7445 z" />
    <path id="health_consultation_room" style="fill:#0015fe;fill-opacity:0.5;stroke-width:0.831729" d="m 1698.1918,1304.6581 h 81.8898 v 140.1198 h -81.8898 z" />
    <path id="tennis_court" style="fill:#0015fe;fill-opacity:0.5;stroke-width:1.00128" d="M 878.89119,3891.448 H 1909.9941 v 536.733 H 878.89119 Z" />
    <path id="grand" style="fill:#0015fe;fill-opacity:0.5;stroke-width:0.987618" d="M 186.51788,2151.2666 H 1367.6617 v 1718.463 H 186.51788 Z" />
</svg>
