<svg width="1991.3167" height="4493.0317" viewBox="0 0 1991.3167 4493.0317" version="1.1" xml:space="preserve" style="clip-rule:evenodd;fill-rule:evenodd;stroke-linejoin:round;stroke-miterlimit:2" id="svg54"
    xmlns="http://www.w3.org/2000/svg"
    xmlns:svg="http://www.w3.org/2000/svg">
    <defs id="defs54" />
    <path d="m 1822.4991,407.8607 h 168.8176 v 4085.171 H 0.00118 V 1131.161 H 271.41314 V 937.3392 H 842.21229 V 0 h 980.28681 z" style="fill:#ffffff;fill-opacity:0.53;stroke-width:2.30821" id="base" />
    <path id="enclosure-classroom_building" d="M 1739.1322,692.241 V 554.085 h 182.86 v 890.693 h -436.55 v 430.43 h -112.78 v 107.62 H 168.25119 v -284.95 h 147.071 v 121.2 h 408.47 v -300.44 h -555.541 v -179.81 h 281.438 v -84.93 h 288.683 v 9.82 H 1223.4622 V 554.085 h 200.14 v 138.156 z m 0,145.378 -315.53,0.457 v 353.562 h 315.53 z m -315.53,607.159 H 807.86219 v 374.3 h 417.73001 v -121.2 h 198.01 z" style="fill:#fd0000;fill-opacity:0.5" />
    <path id="enclosure-nishi_hall" style="fill:#fd0000;fill-opacity:0.5;stroke-width:1.0195" d="M 1559.2233,31.97536 H 1811.104 V 363.63902 H 1559.2233 Z" />
    <path id="none-audiovisual_hall" d="M 1496.7422,68.417 V 489.22 h -73.24 l 0.1,43.395 h -132.59 l -43.62,-43.395 h -57.59 V 68.417 Z" style="fill:#1a1a1a;fill-opacity:0.5" />
    <path d="m 1924.854,1606.968 v 766.2 h -439.4183 v -720.55 h 322.7796 v -45.65 z" style="fill:#1a1a1a;fill-opacity:0.5;stroke-width:1.01868" id="none-enclosure-pool" />
    <path d="m 1895.7622,3210.8174 v 484.5157 h -180.08 v 144.6239 h -254.58 v -629.1396 z" style="fill:#1a1a1a;fill-opacity:0.5;stroke-width:0.996505" id="none-martial_arts_field" />
    <path id="none-enclosure-gym" style="fill:#1a1a1a;fill-opacity:0.5;stroke-width:0.990694" d="m 1451.3492,2373.1672 h 444.409 v 752.8682 h -444.409 z" />
    <path id="none-wc" style="fill:#1a1a1a;fill-opacity:0.5;stroke-width:1.22062" d="m 168.25103,1697.8771 h 73.53522 v 121.2076 h -73.53522 z" />
    <path id="none-stairs" style="fill:#1a1a1a;fill-opacity:0.5;stroke-width:1.22062" d="m 241.78643,1697.8771 h 73.53522 v 121.2076 h -73.53522 z" />
    <path id="none-wc1" style="fill:#1a1a1a;fill-opacity:0.5;stroke-width:1.22062" d="m 1225.5872,1697.8771 h 73.5352 v 121.2076 h -73.5352 z" />
    <path id="none-stairs1" style="fill:#1a1a1a;fill-opacity:0.5;stroke-width:1.22062" d="m 1299.1271,1697.8771 h 73.5353 v 121.2076 h -73.5353 z" />
    <path id="none-wc2" style="fill:#1a1a1a;fill-opacity:0.5;stroke-width:1.13333" d="m 1504.6472,692.24127 h 73.5352 v 104.49099 h -73.5352 z" />
    <path id="none-stairs2" style="fill:#1a1a1a;fill-opacity:0.5;stroke-width:1.13333" d="m 1578.1872,692.24127 h 73.5352 v 104.49099 h -73.5352 z" />
    <path id="none-stairs3" style="fill:#1a1a1a;fill-opacity:0.5;stroke-width:1.05541" d="m 449.68939,1253.9023 h 144.8399 v 84.9269 h -144.8399 z" />
    <path id="none-wc3" style="fill:#1a1a1a;fill-opacity:0.5;stroke-width:1.05176" d="m 594.52919,1253.9023 h 143.8376 v 84.9269 h -143.8376 z" />
    <path id="none-stairs4" style="fill:#1a1a1a;fill-opacity:0.5;stroke-width:1.08767" d="m 723.79449,1875.6082 h 93.3184 v 107.2202 h -93.3184 z" />
    <path id="none-wc4" style="fill:#1a1a1a;fill-opacity:0.5;stroke-width:1.00601" d="m 1507.7158,1191.6824 h 84.1052 v 71.9848 h -84.1052 z" />
    <path id="none-wc5" style="fill:#1a1a1a;fill-opacity:0.5;stroke-width:0.545126" d="m 1458.3238,1191.6383 h 49.3908 v 35.9924 h -49.3908 z" />
    <path id="none-ev" style="fill:#1a1a1a;fill-opacity:0.5;stroke-width:0.545126" d="m 1458.3238,1227.6303 h 49.3908 v 35.9923 h -49.3908 z" />
    <path id="none-stairs5" style="fill:#1a1a1a;fill-opacity:0.5;stroke-width:1.33183" d="m 1591.8178,1191.6808 h 147.3165 v 72.0296 h -147.3165 z" />
    <path id="none-grand" style="fill:#1a1a1a;fill-opacity:0.5;stroke-width:0.987618" d="M 186.51788,2151.2666 H 1367.6617 v 1718.463 H 186.51788 Z" />
    <path id="none-gate_west_0" style="fill:#1a1a1a;fill-opacity:0.5;stroke-width:1.10205" d="m 0,1521.384 h 15.696 v 157.7006 H 0 Z" />
    <path id="none-gate_west_1" style="fill:#1a1a1a;fill-opacity:0.5;stroke-width:0.776694" d="m 0,1200.491 h 15.696 v 78.3301 H 0 Z" />
    <path id="none-clubroom_building_1" style="fill:#1a1a1a;fill-opacity:0.5" d="M 14.81719,2737.3679 H 115.1202 v 273.126 H 14.81719 Z" />
    <path id="none-clubroom_building_0" style="fill:#1a1a1a;fill-opacity:0.5;stroke-width:1.09782" d="M 14.81604,2153.1921 H 115.1183 v 571.4297 H 14.81604 Z" />
    <path id="none-tennis_court" style="fill:#1a1a1a;fill-opacity:0.5;stroke-width:0.979934" d="m 186.51818,3891.4482 h 670.97591 v 536.7337 H 186.51818 Z" />
    <path id="none-handball_court" style="fill:#1a1a1a;fill-opacity:0.5;stroke-width:1.00128" d="M 878.89119,3891.448 H 1909.9941 v 536.733 H 878.89119 Z" />
    <path id="none-fountain" style="fill:#1a1a1a;fill-opacity:0.5;stroke-width:0.906355" d="m 1064.624,1061.134 a 43.502323,43.502323 0 0 1 -43.5024,43.5024 43.502323,43.502323 0 0 1 -43.50231,-43.5024 43.502323,43.502323 0 0 1 43.50231,-43.5023 43.502323,43.502323 0 0 1 43.5024,43.5023 z" />
    <path id="none-gate_north_0" style="fill:#1a1a1a;fill-opacity:0.5;stroke-width:1.10019" d="m 886.54909,112.02899 v -15.696 h 157.16821 v 15.696 z" />
    <path id="book_vault" style="fill:#0015ff;fill-opacity:0.5;stroke-width:0.815058" d="m 1223.4742,1127.855 h 159.195 v 135.8622 h -159.195 z" />
    <path id="chemistry_experiment_preparation_room" style="fill:#0015ff;fill-opacity:0.5;stroke-width:1.01463" d="m 1171.7228,1304.6613 h 51.7406 v 140.2293 h -51.7406 z" />
    <path id="chemistry_experiment_room" style="fill:#0015ff;fill-opacity:0.5;stroke-width:1.99554" d="m 1223.478,1304.6613 h 200.1387 v 140.2293 H 1223.478 Z" />
    <path d="M 1223.4742,1127.8462 V 554.10134 h 200.1342 v 138.14922 h 81.0441 v 104.49175 h -121.9833 v 331.10389 z" style="fill:#0015ff;fill-opacity:0.5;stroke-width:1.83804" id="library" />
    <path id="pta_printing_room" style="fill:#0015ff;fill-opacity:0.5;stroke-width:0.53605" d="m 1780.0688,1191.6398 h 141.911 v 72.0744 h -141.911 z" />
    <path id="biology_preparation_room" style="fill:#0015ff;fill-opacity:0.5;stroke-width:0.587616" d="m 1780.0688,924.2848 h 141.911 v 86.608 h -141.911 z" />
    <path id="biology_room" style="fill:#0015ff;fill-opacity:0.5;stroke-width:0.587616" d="m 1780.0688,692.2414 h 141.911 v 232.0435 h -141.911 z" />
    <path id="special_room_1st" style="fill:#0015ff;fill-opacity:0.5;stroke-width:0.84889" d="m 1780.0688,1010.8921 h 141.911 v 180.748 h -141.911 z" />
    <path id="laputa" style="fill:#0015ff;fill-opacity:0.5;stroke-width:0.842456" d="m 1739.1345,554.08496 h 182.8564 v 138.15639 h -182.8564 z" />
    <path id="nishi_hall_3f" style="fill:#0015ff;fill-opacity:0.5;stroke-width:0.989704" d="M 1559.2233,31.97476 H 1811.104 V 344.53317 H 1559.2233 Z" />
    <path id="_3h" style="fill:#0015ff;fill-opacity:0.5;stroke-width:1.3666" d="M 168.25061,1860.0134 H 307.13694 V 1982.81 H 168.25061 Z" />
    <path id="_3g" style="fill:#0015ff;fill-opacity:0.5;stroke-width:1.3666" d="M 307.13659,1860.0134 H 446.02293 V 1982.81 H 307.13659 Z" />
    <path id="_3f" style="fill:#0015ff;fill-opacity:0.5;stroke-width:1.3666" d="M 446.02355,1860.0134 H 584.90989 V 1982.81 H 446.02355 Z" />
    <path id="_3e" style="fill:#0015ff;fill-opacity:0.5;stroke-width:1.3666" d="m 584.90959,1860.0134 h 138.8863 V 1982.81 h -138.8863 z" />
    <path id="_3d" style="fill:#0015ff;fill-opacity:0.5;stroke-width:1.3666" d="m 817.11459,1860.0134 h 138.8863 V 1982.81 h -138.8863 z" />
    <path id="_3c" style="fill:#0015ff;fill-opacity:0.5;stroke-width:1.3666" d="M 956.00149,1860.0134 H 1094.8879 V 1982.81 H 956.00149 Z" />
    <path id="_3b" style="fill:#0015ff;fill-opacity:0.5;stroke-width:1.3666" d="m 1094.8915,1860.0134 h 138.8864 V 1982.81 h -138.8864 z" />
    <path id="_3a" style="fill:#0015ff;fill-opacity:0.5;stroke-width:1.3666" d="m 1233.7716,1860.0134 h 138.8863 V 1982.81 h -138.8863 z" />
    <path id="chemistry_preparation_room" style="fill:#0015ff;fill-opacity:0.5;stroke-width:1.12748" d="m 1021.122,1304.6581 h 150.4821 v 140.1198 H 1021.122 Z" />
    <path id="music_preparation_room" style="fill:#0015ff;fill-opacity:0.5;stroke-width:1.0949" d="m 1780.0783,1304.6581 h 141.9111 v 140.1198 h -141.9111 z" />
    <path id="physics_experiment_room" style="fill:#0015ff;fill-opacity:0.5;stroke-width:1.20839" d="m 558.31789,1379.769 h 165.4765 v 138.8632 h -165.4765 z" />
    <path id="physics_preparation_room" style="fill:#0015ff;fill-opacity:0.5;stroke-width:1.26248" d="m 377.70068,1379.769 h 180.62311 v 138.8632 H 377.70068 Z" />
    <path id="physics_lecture_room" style="fill:#0015ff;fill-opacity:0.5;stroke-width:1.35949" d="m 168.25531,1379.769 h 209.44624 v 138.8632 H 168.25531 Z" />
    <path id="chemistry_lecture_room" style="fill:#0015ff;fill-opacity:0.5;stroke-width:1.65225" d="M 807.86119,1304.6539 H 1021.1171 V 1444.773 H 807.86119 Z" />
    <path id="musical_instrument_storage" style="fill:#0015ff;fill-opacity:0.5;stroke-width:0.581993" d="m 1567.1256,1304.7657 h 24.6955 v 140.1201 h -24.6955 z" />
    <path id="practice_room" style="fill:#0015ff;fill-opacity:0.5;stroke-width:1.05842" d="m 1485.4432,1304.7657 h 81.6764 v 140.1201 h -81.6764 z" />
    <path id="music_room" style="fill:#0015ff;fill-opacity:0.5;stroke-width:1.13625" d="m 1591.8071,1304.6567 h 188.2609 v 140.1201 h -188.2609 z" />
</svg>
